<?xml version="1.0" encoding="utf-8"?>
<!-- Generator: Adobe Illustrator 25.1.0, SVG Export Plug-In . SVG Version: 6.00 Build 0)  -->
<svg version="1.1" id="_x2018_лой_x5F_1" xmlns="http://www.w3.org/2000/svg" xmlns:xlink="http://www.w3.org/1999/xlink"
	 x="0px" y="0px" viewBox="0 0 3000 2000" style="enable-background:new 0 0 3000 2000;" xml:space="preserve">
<style type="text/css">
	.st0{fill:#FFFFFF;}
	.st1{fill:#EBF3FA;}
	.st2{fill:#A8D29F;}
	.st3{fill:#F8FCFF;}
	.st4{fill:#79B27F;}
	.st5{fill:#739AF0;}
	.st6{fill:#7FAAF7;}
	.st7{fill:#F99746;}
	.st8{fill:#2B478B;}
	.st9{fill:#D4DFFF;}
	.st10{opacity:0.5;fill:#AEC3FF;}
	.st11{fill:#83AFFC;}
	.st12{fill:#F9DDBF;}
	.st13{fill:#FFF3E9;}
	.st14{fill:#ED9F4A;}
	.st15{fill:#EFCDAF;}
	.st16{fill:#E88338;}
	.st17{fill:#AEC3FF;}
	.st18{fill:#1D3F77;}
	.st19{fill:#2A4E96;}
	.st20{fill:#C0D8FB;}
	.st21{fill:#E8945B;}
	.st22{fill:#415DA5;}
	.st23{fill:#2C3A64;}
	.st24{fill:#202E51;}
	.st25{fill:#739CF3;}
	.st26{fill:#FFB27D;}
	.st27{fill:#5885D6;}
	.st28{fill:#35488B;}
	.st29{fill:#B84C42;}
	.st30{fill:#AA3E39;}
	.st31{fill:#1D2A4C;}
	.st32{fill:#233862;}
</style>
<rect class="st0" width="3000" height="2000"/>
<g>
	<path class="st1" d="M2815.74,1478.47l-0.04,0.73c-1.09,21.26-3.95,41.35-8.14,60.24c-22.15,99.94-79.93,163.79-94.34,179.26
		c-0.01,0.01-0.02,0.02-0.03,0.03c-1.95,2.1-3.15,3.3-3.3,3.61c-62.61,0-467.37,0.07-928.62-0.06
		c-124.33-0.03-252.76-0.08-379.71-0.16c-57.65-0.03-114.99-0.06-171.5-0.1c-41.15-0.03-81.86-0.07-121.92-0.1
		c-152.08-0.13-294.9-0.3-417.39-0.52c-65.57-0.12-125.31-0.25-177.54-0.41c-139.07-0.39-224.77-0.89-225.03-1.54l-0.15-0.45
		c0,0-0.13-0.13-0.14-0.27c-0.01-0.01-0.01-0.02-0.01-0.03c0-0.15-0.16-0.31-0.16-0.31c-0.37-0.86-80.49-111.66-104.31-263.67
		c-5.52-35.25-8.02-72.71-5.79-111.53v-0.61c8.34-143.17,80.84-304.53,302.41-441.48c211.72-131.04-13.35-217.48,155-363.38
		c193.51-167.43,404.78,17.9,619.98-58.09c37.92-13.49,76.14-35.03,114.36-68.09c21.53-18.65,45.04-35.03,70.21-48.99
		c3.95-2.27,7.74-4.4,11.68-6.37c15.17-7.88,30.79-15.01,47.02-21.38c10.76-4.25,21.83-8.19,33.06-11.83
		c17.89-5.91,36.24-10.92,54.9-15.01c26.54-6.07,53.99-10.47,81.89-13.5c12.14-1.37,24.42-2.43,36.86-3.19
		c227.75-14.36,482.6,61.53,627.55,175.58c8.04,6.32,15.73,12.76,23.07,19.31c3.04,2.72,7.24,6.67,12.2,11.78
		c33.83,34.86,102.72,123.58,74.28,243.55c-2.43,10.23-5.56,20.7-9.48,31.37c-5.62,15.28-12.86,30.99-21.95,47.1
		c-14.1,25.02-11.98,49.59,0.76,74.47l0.14,0.15h0.01c0.7,1.34,1.43,2.68,2.19,4.02c2.66,4.69,5.7,9.39,9.08,14.1
		c1.92,2.7,3.96,5.39,6.11,8.08c0.53,0.67,1.07,1.34,1.62,2.02c1.1,1.35,2.22,2.69,3.37,4.04c0,0-0.01,0,0,0.01
		c0.92,1.08,1.85,2.15,2.8,3.23c0.94,1.08,1.9,2.16,2.89,3.25c0.98,1.08,1.97,2.15,2.98,3.23c1,1.08,2.02,2.16,3.06,3.25
		c1.04,1.08,2.09,2.16,3.15,3.24c1.06,1.08,2.14,2.16,3.23,3.24h0.01c18.3,18.17,23.35,41.08,28.09,67.85
		c1.85,10.43,3.65,21.46,6.18,33.01c0.11,0.51,0.23,1.03,0.34,1.55c2.17,9.73,4.88,19.83,8.58,30.27c0.17,0.51,0.36,1.03,0.55,1.55
		c3.28,9.07,7.32,18.4,12.42,27.97c0.47,0.89,0.95,1.78,1.45,2.67v0.01c0.38,0.71,0.77,1.41,1.18,2.12
		c0.29,0.52,0.58,1.03,0.88,1.55c0.5,0.88,1.02,1.76,1.55,2.64l0.01,0.02c0.21,0.36,0.43,0.74,0.67,1.11
		c3.64,6.07,7.75,12.23,12.39,18.47c2.02,2.74,4.15,5.5,6.39,8.27c11.96,14.81,26.96,30.08,45.92,45.72
		c24.98,20.62,56.85,41.9,97.71,63.7c6.5,3.47,12.76,6.99,18.79,10.55c56.8,33.55,92.39,70.83,105.12,112.9
		c1.8,5.94,4.84,17.55,7.77,31.5C2812.54,1431.1,2816.75,1458,2815.74,1478.47z"/>
	<path class="st2" d="M2815.64,1478.45c0.03,0.25,0.04,0.5,0.06,0.75c-1.09,21.26-3.95,41.35-8.14,60.24l-112.4,17.63l-23.2,3.64
		l-13.2,2.07l-91.45,14.35l-8.18,1.28l-18.39,2.89l-4.78,0.75h-0.03c0,0-3.94,0.46-10.78,1.11c-0.57,0.06-1.17,0.11-1.78,0.17
		c-4.55,0.42-10.19,0.91-16.66,1.4c-2.43,0.19-4.98,0.37-7.63,0.55c-0.5,0.03-1,0.07-1.51,0.1c-3.71,0.25-7.6,0.48-11.66,0.71
		c-8.36,0.45-17.38,0.84-26.77,1.07c-3.65,0.09-7.36,0.16-11.1,0.21c-1.95,0.02-3.92,0.03-5.89,0.03c-2.37,0.01-4.75,0.01-7.14-0.01
		c-3.53-0.02-7.08-0.08-10.62-0.17c-2.6-0.06-5.21-0.14-7.8-0.23c-3.62-0.14-7.23-0.32-10.82-0.53c-0.55-0.03-1.1-0.07-1.65-0.11
		c-1.67-0.1-3.34-0.21-5-0.34c-8.24-0.62-16.28-1.47-23.93-2.6c-1.29-0.19-2.56-0.39-3.82-0.6c-28.77-4.7-51.24-13.67-56.41-29.73
		c-4.7-14.71,5.46-35.64,38.98-64.75c5.58-4.84,11.4-9.48,17.43-13.91c38.9-28.6,86.79-48.87,136.97-63.18
		c2.08-0.6,4.16-1.18,6.25-1.75c0.32-0.09,0.64-0.18,0.96-0.27c0.57-0.15,1.14-0.31,1.71-0.46c1.13-0.31,2.26-0.61,3.38-0.9
		c1.98-0.53,3.96-1.05,5.95-1.55c10.02-2.56,20.1-4.89,30.18-7.01c2.54-0.54,5.08-1.06,7.62-1.57c1.19-0.24,2.38-0.48,3.56-0.71
		c0.82-0.17,1.64-0.33,2.46-0.48c1.25-0.24,2.5-0.48,3.75-0.71c42-7.93,83.59-12.49,121-15c42.13-2.84,78.97-3.07,105.12-2.61
		c3.02,7.3,5.6,18.43,7.77,31.5C2811.48,1430.25,2813.94,1455.59,2815.64,1478.45z"/>
	<path class="st3" d="M1553.63,533.25c0,0,32.34-66.88,109.67-59.45c0,0,112.27-111.47,231.99-14.86c0,0,127.26-23.94,221.51,20.73
		c62.84,29.78,83.59,61.01,83.59,61.01L1553.63,533.25z"/>
	<path class="st3" d="M1440.41,1128.27c0,0,43.66-75.69,148.06-67.28c0,0,151.58-126.15,313.21-16.82c0,0,171.82-27.09,299.06,23.46
		c84.84,33.7,112.86,69.05,112.86,69.05L1440.41,1128.27z"/>
	<path class="st4" d="M2159.82,794.29c0,0-33.02-56.58-111.87-42.57c-78.85,14.01-57.87,105.11-101.5,147.94
		c-43.63,42.82-81.68,80.98-62.95,141.48c18.73,60.5-80.75,73.43-80.46,164.79c0.29,91.36,21.54,145.2,143.85,152.31
		c122.3,7.11,317.94-25.21,344.43-62.06c26.49-36.85,22.04-117.75-44.48-220.98c-66.51-103.23-5.74-112.49-50.19-172.27
		C2152.19,843.15,2183.49,818.91,2159.82,794.29z"/>
	<path class="st3" d="M673.15,699.81c0,0,28.71-49.77,97.36-44.24c0,0,99.67-82.95,205.95-11.06c0,0,112.98-17.81,196.65,15.42
		c55.78,22.16,74.21,45.41,74.21,45.41L673.15,699.81z"/>
	<g>
		<polygon class="st5" points="1591.24,1556.04 1568.03,1556.04 1573.03,897.96 1584.79,897.96 		"/>
		<polygon class="st6" points="1577.46,901.47 1408.7,1045.98 1343.11,1102.15 1338.14,1097.13 1396.22,1032.73 1491.35,927.23 
			1566.54,887.84 		"/>
		<polygon class="st7" points="1408.7,1045.98 1343.11,1102.15 1338.14,1097.13 1396.22,1032.73 		"/>
		<polygon class="st6" points="1588.92,891.73 1572.45,897.58 1489.71,686.62 1459.79,610.34 1466.17,607.3 1506.31,680.32 
			1576.38,807.78 		"/>
		<polygon class="st7" points="1506.31,680.32 1489.71,686.62 1459.79,610.34 1466.17,607.3 		"/>
		<polygon class="st6" points="1887.32,903.15 1777.19,910.76 1659.08,918.93 1577.63,895.03 1579.25,877.63 1772.15,889.19 
			1887.23,896.08 		"/>
		<polygon class="st7" points="1887.32,903.15 1773.25,911.03 1772.15,889.19 1887.23,896.08 		"/>
		<path class="st8" d="M1578.52,875.41c-8.35-0.5-15.53,5.86-16.03,14.22c-0.5,8.35,5.86,15.53,14.22,16.03
			c8.35,0.5,15.53-5.86,16.03-14.22C1593.24,883.09,1586.88,875.91,1578.52,875.41z"/>
	</g>
	<g>
		<path class="st9" d="M801.91,1718.23h574.16l239.35-0.16h432.85c0,0,0.25-0.43,0.74-1.3c0.35-0.62,0.82-1.45,1.43-2.51l0.23-0.31
			c0,0,0,0,0-0.16c0,0,0.24-0.17,0.24-0.32c0.96-1.27,1.67-2.7,2.63-4.44c0.49-0.8,0.96-1.76,1.68-2.7c0-0.16,0-0.16,0-0.32
			c0.23-0.16,0.23-0.16,0.23-0.16c3.28-5.67,7.35-13.05,12.04-21.97c0.43-0.81,0.85-1.63,1.29-2.45c2.34-6.74,4.91-14.28,7.65-22.6
			c6.51-20.17,13.98-44.79,21.28-72.59c2.86-10.96,5.72-22.4,8.42-34.32c1.59-6.88,3.19-14.04,4.72-21.28
			c0.44-2.12,0.88-4.24,1.31-6.36c2.81-13.55,5.45-27.5,7.83-41.76c4.68-27.92,8.37-57.01,10.45-86.49
			c-185.92,9.58-544.3,34.8-813.88,95.01c-380.38,84.95-474.38,98.67-635.52,113.91C590.87,1613.48,693.77,1670.06,801.91,1718.23z"
			/>
		<path class="st9" d="M1043.69,1626.23c0,0,616.07-187.63,771.19-201.22c155.12-13.59,6.52,18.17,6.52,18.17
			s-421.62,109.68-519.61,156.45C1094.54,1698.55,1043.69,1626.23,1043.69,1626.23z"/>
		<path class="st9" d="M1229.77,1712.86c0,0,513.44-235.83,652.38-274.14c138.94-38.32,8.96,15.25,8.96,15.25
			s-405.4,211.4-490.32,264.77C1388.49,1726.46,1229.77,1712.86,1229.77,1712.86z"/>
	</g>
	<path class="st10" d="M1364.2,962.37l-82.5,10.62l-82.5,10.77l-50.81-11.68c-1.21,2.28-3.34,3.94-5.76,4.85l3.64,469.69
		c-5.31,2.58-10.47,6.07-15.17,10.62l2.88-477.58l-111.02,107.22l-45.19,43.53l-3.79-3.34l39.43-49.29l64.46-80.68l50.05-30.18
		c-0.15-0.15-0.15-0.15-0.15-0.3c0-2.43,0.91-4.55,2.12-6.37l-63.7-137.86l-25.02-53.99l4.4-2.58l32.31,51.26l56.42,89.48
		l10.77,50.65h218.84L1364.2,962.37z"/>
	<g>
		<polygon class="st5" points="2297.67,1528.94 2268.11,1528.94 2274.47,607.01 2289.46,607.01 		"/>
		<polygon class="st11" points="2276.98,577.64 2403.84,324.74 2453.15,226.44 2461.45,229.88 2425.03,334.14 2365.37,504.92 
			2296.53,588.25 		"/>
		<polygon class="st7" points="2403.84,324.74 2453.15,226.44 2461.45,229.88 2425.03,334.14 		"/>
		<polygon class="st11" points="2268.33,594.72 2284.78,579.73 2485.97,786.6 2558.71,861.4 2552.73,868.11 2469.59,802.18 
			2324.45,687.1 		"/>
		<polygon class="st7" points="2469.59,802.18 2485.97,786.6 2558.71,861.4 2552.73,868.11 		"/>
		<polygon class="st11" points="1912.36,728.49 2037.9,665.23 2172.54,597.39 2279.95,585.28 2286.64,606.5 2054.45,688.07 
			1915.95,736.74 		"/>
		<polygon class="st7" points="1912.36,728.49 2042.39,662.97 2054.45,688.07 1915.95,736.74 		"/>
		<path class="st8" d="M2288.58,608.75c10.05-3.53,15.34-14.54,11.81-24.6c-3.53-10.05-14.54-15.34-24.6-11.81
			c-10.05,3.53-15.34,14.54-11.81,24.6C2267.52,606.99,2278.53,612.28,2288.58,608.75z"/>
	</g>
	<path class="st2" d="M1847,1579.53c0,0-123.99-36.86-196.58,8.31s-29.65,97.15-115.54,92.63c-85.88-4.52-128.83-8.86-133.35,41.9
		h379.7L1847,1579.53z"/>
	<g>
		<g>
			<g>
				<rect x="1954.64" y="1137.16" class="st12" width="416.74" height="584.32"/>
				<path class="st13" d="M2695.17,1152.71v568.73h-323.79v-584.35h309.69C2685.92,1142.24,2690.62,1147.4,2695.17,1152.71z"/>
				<path class="st14" d="M2452.05,946.29l-32.91,67.79l-14.56,29.88l-0.46,1.21l-0.61,1.06l-0.46,0.91l-0.76,1.52l-0.3,0.76
					L2387.6,1079l-0.76,1.52l-1.82,3.94l-25.63,52.63l-5.92,12.28l-8.34,16.99l-4.4,9.1h-414.79l28.66-37.16l0.91-1.21
					l186.54-241.44l0.15-0.15h16.38l252.97-0.91C2420.51,911.72,2434.62,929.01,2452.05,946.29z"/>
				<polygon class="st12" points="2371.38,1172.7 2371.38,1221.29 1954.64,1238.9 1954.64,1175.52 1942.3,1175.52 2158.58,895.43 
									"/>
				<path class="st15" d="M2162.3,1034.96h-8.71c-29.6,0-53.59,23.99-53.59,53.59v136.18h114.15v-137.92
					C2214.15,1058.18,2190.94,1034.96,2162.3,1034.96z"/>
				<g>
					<polygon class="st7" points="2733.16,1191.07 2363.71,1191.07 2345.06,1166.35 2323.07,1137.08 2150.03,906.41 2141.99,895.64 
						2141.08,894.43 2510.52,894.43 2511.43,895.64 2519.47,906.41 2692.52,1137.08 2714.5,1166.35 					"/>
				</g>
			</g>
			<g>
				<polygon class="st14" points="2113.36,1254.04 2016.15,1454.18 1720.81,1454.18 1874.79,1254.77 				"/>
				<g>
					<polygon class="st12" points="2122.21,1254.04 2025,1454.18 1729.66,1454.18 1883.63,1254.77 					"/>
					<polygon class="st12" points="2024.35,1454.18 2024.35,1720.93 1729.66,1721.5 1729.66,1454.18 					"/>
					<rect x="2024.35" y="1454.18" class="st13" width="249.54" height="266.75"/>
					<polygon class="st7" points="2301.32,1466.01 2033.24,1466.01 1874.78,1254.76 1954.64,1254.78 2138.25,1254.82 					"/>
					<path class="st15" d="M1860.85,1365.88c0-7.69,6.24-13.93,13.93-13.93c7.7,0,13.93,6.24,13.93,13.93
						c0,7.7-6.24,13.93-13.93,13.93C1867.09,1379.81,1860.85,1373.57,1860.85,1365.88z"/>
					<polygon class="st16" points="2301.32,1466.01 2250.44,1466.01 1954.64,1254.78 2138.25,1254.82 					"/>
				</g>
			</g>
		</g>
		<g>
			<polygon class="st8" points="2434.6,1145.35 2637.42,1145.35 2530.42,1014.14 2327.6,1014.14 			"/>
			<g>
				<polygon class="st17" points="2355.23,1048.7 2558.05,1048.7 2556.79,1047.16 2353.97,1047.16 				"/>
				<polygon class="st17" points="2482.75,1014.13 2589.74,1145.35 2591.29,1145.35 2484.29,1014.13 				"/>
				<polygon class="st17" points="2429.01,1014.13 2536.01,1145.35 2537.55,1145.35 2430.55,1014.13 				"/>
				<polygon class="st17" points="2377.3,1014.13 2484.3,1145.35 2485.84,1145.35 2378.85,1014.13 				"/>
				<polygon class="st17" points="2381.73,1080.52 2584.55,1080.52 2583.29,1078.97 2380.47,1078.97 				"/>
				<polygon class="st17" points="2409.71,1114.84 2612.54,1114.84 2611.28,1113.3 2408.46,1113.3 				"/>
				<g>
					<polygon class="st17" points="2516.51,1054.35 2517.68,1048.04 2506.2,1041.71 2505.04,1048.04 					"/>
					<polygon class="st17" points="2463.35,1054.35 2464.52,1048.04 2453.04,1041.71 2451.88,1048.04 					"/>
					<polygon class="st17" points="2410.87,1054.35 2412.04,1048.04 2400.56,1041.71 2399.4,1048.04 					"/>
				</g>
				<g>
					<polygon class="st17" points="2542.37,1086.07 2543.53,1079.75 2532.06,1073.43 2530.89,1079.75 					"/>
					<polygon class="st17" points="2489.21,1086.07 2490.37,1079.75 2478.9,1073.43 2477.73,1079.75 					"/>
					<polygon class="st17" points="2436.73,1086.07 2437.89,1079.75 2426.42,1073.43 2425.25,1079.75 					"/>
				</g>
				<g>
					<polygon class="st17" points="2570.35,1120.39 2571.52,1114.07 2560.05,1107.75 2558.88,1114.07 					"/>
					<polygon class="st17" points="2517.19,1120.39 2518.36,1114.07 2506.89,1107.75 2505.72,1114.07 					"/>
					<polygon class="st17" points="2464.71,1120.39 2465.88,1114.07 2454.41,1107.75 2453.24,1114.07 					"/>
				</g>
			</g>
		</g>
		<g>
			<polygon class="st8" points="2051.76,1425.33 2235.54,1425.33 2138.59,1306.43 1954.81,1306.43 			"/>
			<g>
				<polygon class="st17" points="1979.84,1337.75 2163.62,1337.75 2162.48,1336.35 1978.7,1336.35 				"/>
				<polygon class="st17" points="2095.39,1306.43 2192.34,1425.33 2193.74,1425.33 2096.79,1306.43 				"/>
				<polygon class="st17" points="2046.7,1306.43 2143.65,1425.33 2145.04,1425.33 2048.1,1306.43 				"/>
				<polygon class="st17" points="1999.84,1306.43 2096.79,1425.33 2098.19,1425.33 2001.24,1306.43 				"/>
				<polygon class="st17" points="2003.85,1366.58 2187.63,1366.58 2186.49,1365.18 2002.71,1365.18 				"/>
				<polygon class="st17" points="2029.21,1397.68 2212.99,1397.68 2211.85,1396.28 2028.07,1396.28 				"/>
				<g>
					<polygon class="st17" points="2125.98,1342.87 2127.04,1337.15 2116.64,1331.42 2115.58,1337.15 					"/>
					<polygon class="st17" points="2077.81,1342.87 2078.87,1337.15 2068.47,1331.42 2067.42,1337.15 					"/>
					<polygon class="st17" points="2030.26,1342.87 2031.32,1337.15 2020.92,1331.42 2019.86,1337.15 					"/>
				</g>
				<g>
					<polygon class="st17" points="2149.41,1371.61 2150.47,1365.88 2140.07,1360.15 2139.01,1365.88 					"/>
					<polygon class="st17" points="2101.24,1371.61 2102.3,1365.88 2091.9,1360.15 2090.85,1365.88 					"/>
					<polygon class="st17" points="2053.69,1371.61 2054.75,1365.88 2044.35,1360.15 2043.29,1365.88 					"/>
				</g>
				<g>
					<polygon class="st17" points="2174.77,1402.71 2175.83,1396.98 2165.43,1391.25 2164.37,1396.98 					"/>
					<polygon class="st17" points="2126.6,1402.71 2127.66,1396.98 2117.26,1391.25 2116.2,1396.98 					"/>
					<polygon class="st17" points="2079.05,1402.71 2080.1,1396.98 2069.71,1391.25 2068.65,1396.98 					"/>
				</g>
			</g>
		</g>
	</g>
	<path class="st2" d="M983.62,1718.23c-0.06,0.17-0.12,0.33-0.18,0.5H287.89c-0.01-0.01-0.01-0.02-0.01-0.03
		c0-0.15-0.16-0.31-0.16-0.31c-0.37-0.86-80.49-111.66-104.31-263.67c17.41-6.69,78.88-27.47,165.36-25.22
		c3.48,0.09,7,0.22,10.56,0.39c31.91,1.49,66.98,6.18,104.31,15.81c1.31,0.34,2.63,0.68,3.95,1.03c0.37,0.1,0.74,0.2,1.11,0.3
		c2.64,0.71,5.28,1.44,7.94,2.2c2.98,0.85,5.96,1.73,8.97,2.64c1.07,0.33,2.15,0.66,3.23,0.99c3.98,1.24,7.98,2.54,12.01,3.89
		c46.98,15.81,76.13,32.85,96.42,49.32c0.42,0.34,0.84,0.68,1.26,1.02c9.74,8.05,17.41,15.96,24.04,23.51
		c1.81,2.06,3.55,4.09,5.23,6.09c2.08,2.49,4.08,4.93,6.04,7.32c6.57,8.02,12.64,15.42,19.76,21.88
		c19.64,17.87,47.25,28.67,115.33,25.96c12.21-0.49,23.88-0.6,35.03-0.36C950.35,1594.54,1006.02,1657.28,983.62,1718.23z"/>
	<path class="st2" d="M2815.74,1478.47c-0.03-0.01-0.07-0.01-0.1-0.02c-26.69-5.33-68.6-11.75-120.48-13.29
		c-32.14-0.96-68.12-0.05-106.67,4.15c-1.36,0.15-2.73,0.3-4.1,0.45c-4.02,0.47-8.07,0.96-12.15,1.5
		c-8.9,1.16-17.93,2.51-27.06,4.05c-0.01,0.01-0.02,0.01-0.03,0c-2.72,0.46-5.42,0.93-8.16,1.43c-2.93,0.52-5.87,1.07-8.82,1.64
		c-6.32,1.22-12.7,2.54-19.12,3.96c-2.82,0.62-5.65,1.27-8.49,1.94c-2.84,0.65-5.68,1.34-8.54,2.04c-3.46,0.86-6.93,1.74-10.41,2.65
		h-0.01c-1.08,0.29-2.17,0.58-3.25,0.87h-0.01c-3.19,0.86-6.39,1.74-9.6,2.65c-12.97,3.67-26.08,7.78-39.27,12.37
		c-21.66,7.48-40.9,14.85-58.1,22.03c-21.83,9.09-40.38,17.88-56.41,26.19c-15.83,8.18-29.27,15.95-41.07,23.2
		c-63.92,39.28-79.66,63.52-166.85,56.73c-7.77-0.59-15.21-0.83-22.34-0.73c-23.36,0.3-43.34,4.07-60.35,9.88
		c-34.1,11.64-56.25,31.51-69.72,48.09c-11.1,13.66-16.32,25.08-17.49,27.82c-0.18,0.41-0.26,0.63-0.26,0.63h17.75h69.72h249.54
		h97.48h24.89h17.47h214.65h17.47h49.31h18.06c14.41-15.47,72.19-79.32,94.34-179.26c4.19-18.89,7.05-38.98,8.14-60.24
		L2815.74,1478.47z"/>
	<path class="st3" d="M537.39,1063.76c0,0,16.76-31.35,56.84-27.87c0,0,58.19-52.25,120.24-6.97c0,0,65.96-11.22,114.81,9.71
		c32.57,13.96,43.32,28.6,43.32,28.6L537.39,1063.76z"/>
	<path class="st3" d="M1162.82,793.58c0,0,13.88-29.81,47.07-26.5c0,0,48.18-49.69,99.57-6.63c0,0,54.62-10.67,95.07,9.24
		c26.97,13.27,35.88,27.2,35.88,27.2L1162.82,793.58z"/>
	<g>
		<g>
			<g>
				<polygon class="st18" points="578.59,1713.87 618.2,1713.38 710.71,1327.9 671.1,1328.4 				"/>
				<path class="st18" d="M513.16,1722.45h177.63l0,0c0-10.39-8.42-18.82-18.82-18.82h-140
					C521.58,1703.63,513.16,1712.06,513.16,1722.45L513.16,1722.45z"/>
			</g>
			<polygon class="st18" points="923.49,1543.97 906.43,1458.44 906.43,1458.44 906.39,1458.26 849.61,1173.6 297.75,1173.68 
				371.62,1544.05 476.45,1544.04 476.45,1544.04 477.43,1544.04 594.75,1544.02 595.1,1544.02 595.1,1544.02 711.9,1544.01 
				712.71,1544 712.71,1544 829.25,1543.99 829.25,1543.99 830.31,1543.99 830.31,1543.99 			"/>
			<g>
				<polygon class="st19" points="932.94,1536.65 381.08,1536.73 307.2,1173.68 859.06,1173.6 				"/>
				<g>
					<g>
						<polygon class="st20" points="486.96,1536.72 485.9,1536.72 412.23,1174.64 413.28,1174.64 						"/>
					</g>
					<g>
						<polygon class="st20" points="604.56,1536.7 603.5,1536.7 529.83,1174.63 530.88,1174.63 						"/>
					</g>
					<g>
						<polygon class="st20" points="722.16,1536.68 721.1,1536.68 647.43,1174.61 648.48,1174.61 						"/>
					</g>
					<g>
						<polygon class="st20" points="839.76,1536.67 838.7,1536.67 765.03,1174.59 766.08,1174.59 						"/>
					</g>
					<g>
						<polygon class="st20" points="876.6,1259.76 324.73,1259.84 324.53,1258.85 876.4,1258.77 						"/>
					</g>
					<g>
						<polygon class="st20" points="896.24,1356.29 344.38,1356.36 344.17,1355.37 896.04,1355.29 						"/>
					</g>
					<g>
						<polygon class="st20" points="915.88,1452.81 364.02,1452.88 363.81,1451.89 915.68,1451.81 						"/>
					</g>
				</g>
				<g>
					<polygon class="st20" points="432.16,1270 418.63,1259.33 427.81,1248.66 441.35,1259.33 					"/>
					<polygon class="st20" points="451.9,1367.02 438.37,1356.35 447.56,1345.68 461.09,1356.35 					"/>
					<polygon class="st20" points="550.29,1269.99 536.75,1259.32 545.94,1248.64 559.47,1259.31 					"/>
					<polygon class="st20" points="570.03,1367 556.5,1356.33 565.68,1345.66 579.22,1356.33 					"/>
					<polygon class="st20" points="667.89,1269.97 654.35,1259.3 663.54,1248.63 677.07,1259.3 					"/>
					<polygon class="st20" points="784.43,1269.95 770.9,1259.28 780.09,1248.61 793.62,1259.28 					"/>
					<polygon class="st20" points="471.44,1463.05 457.91,1452.38 467.1,1441.7 480.63,1452.37 					"/>
					<polygon class="st20" points="589.57,1463.03 576.03,1452.36 585.22,1441.69 598.76,1452.36 					"/>
					<polygon class="st20" points="707.17,1463.01 693.63,1452.34 702.82,1441.67 716.36,1452.34 					"/>
					<polygon class="st20" points="823.71,1463 810.18,1452.33 819.37,1441.65 832.9,1452.32 					"/>
					<polygon class="st20" points="804.17,1366.97 790.64,1356.3 799.83,1345.63 813.36,1356.3 					"/>
					<polygon class="st20" points="687.63,1366.99 674.09,1356.32 683.28,1345.64 696.82,1356.31 					"/>
				</g>
			</g>
		</g>
	</g>
	<g>
		<g>
			<g>
				<polygon class="st18" points="1153.05,1716.56 1180.25,1716.22 1243.76,1451.56 1216.56,1451.9 				"/>
				<path class="st18" d="M1108.12,1722.45h121.96l0,0c0-7.13-5.78-12.92-12.92-12.92h-96.12
					C1113.91,1709.53,1108.12,1715.32,1108.12,1722.45L1108.12,1722.45z"/>
			</g>
			<polygon class="st18" points="1389.85,1599.91 1378.13,1541.19 1378.13,1541.19 1378.11,1541.06 1339.12,1345.63 960.23,1345.68 
				1010.95,1599.97 1082.92,1599.96 1082.92,1599.96 1083.6,1599.96 1164.14,1599.95 1164.39,1599.95 1164.39,1599.95 
				1244.58,1599.94 1245.13,1599.93 1245.13,1599.93 1325.14,1599.92 1325.14,1599.92 1325.87,1599.92 1325.87,1599.92 			"/>
			<g>
				<polygon class="st19" points="1396.33,1594.89 1017.44,1594.94 966.72,1345.68 1345.61,1345.63 				"/>
				<g>
					<g>
						<polygon class="st20" points="1090.13,1594.93 1089.41,1594.93 1038.83,1346.34 1039.55,1346.34 						"/>
					</g>
					<g>
						<polygon class="st20" points="1170.88,1594.92 1170.15,1594.92 1119.57,1346.33 1120.29,1346.33 						"/>
					</g>
					<g>
						<polygon class="st20" points="1251.62,1594.91 1250.89,1594.91 1200.31,1346.32 1201.03,1346.32 						"/>
					</g>
					<g>
						<polygon class="st20" points="1332.36,1594.9 1331.63,1594.9 1281.05,1346.31 1281.77,1346.31 						"/>
					</g>
					<g>
						<polygon class="st20" points="1357.65,1404.78 978.76,1404.84 978.62,1404.15 1357.51,1404.1 						"/>
					</g>
					<g>
						<polygon class="st20" points="1371.14,1471.05 992.24,1471.11 992.1,1470.42 1371,1470.37 						"/>
					</g>
					<g>
						<polygon class="st20" points="1384.62,1537.32 1005.73,1537.37 1005.59,1536.69 1384.48,1536.64 						"/>
					</g>
				</g>
				<g>
					<polygon class="st20" points="1052.51,1411.81 1043.22,1404.49 1049.53,1397.16 1058.82,1404.48 					"/>
					<polygon class="st20" points="1066.06,1478.42 1056.77,1471.1 1063.08,1463.77 1072.37,1471.09 					"/>
					<polygon class="st20" points="1133.61,1411.8 1124.32,1404.47 1130.63,1397.15 1139.92,1404.47 					"/>
					<polygon class="st20" points="1147.17,1478.41 1137.88,1471.08 1144.19,1463.76 1153.48,1471.08 					"/>
					<polygon class="st20" points="1214.36,1411.79 1205.06,1404.46 1211.37,1397.13 1220.66,1404.46 					"/>
					<polygon class="st20" points="1294.37,1411.78 1285.08,1404.45 1291.39,1397.12 1300.68,1404.45 					"/>
					<polygon class="st20" points="1079.48,1544.35 1070.19,1537.02 1076.5,1529.7 1085.79,1537.02 					"/>
					<polygon class="st20" points="1160.58,1544.34 1151.29,1537.01 1157.6,1529.68 1166.89,1537.01 					"/>
					<polygon class="st20" points="1241.33,1544.33 1232.03,1537 1238.34,1529.67 1247.63,1537 					"/>
					<polygon class="st20" points="1321.34,1544.32 1312.05,1536.99 1318.36,1529.66 1327.65,1536.99 					"/>
					<polygon class="st20" points="1307.93,1478.39 1298.64,1471.06 1304.94,1463.73 1314.23,1471.06 					"/>
					<polygon class="st20" points="1227.91,1478.4 1218.62,1471.07 1224.93,1463.75 1234.22,1471.07 					"/>
				</g>
			</g>
		</g>
	</g>
	<g>
		<path class="st21" d="M1730.27,1627.62l9.02-1.76c0,0-21.55-85.22-18.59-92.26c2.39-5.84,27.23-10.06,39.4-20.26
			c2.6-2.18,4.57-4.57,5.7-7.32c6.47-15.83-4.08-27.58-4.08-27.58s-22.09,5.07-42.15,13.65c-14.28,6.12-27.51,14.07-31.17,23.29
			C1679.6,1537.69,1730.27,1627.62,1730.27,1627.62z"/>
		<path class="st22" d="M1705.74,1640.76c0.14-0.89,0.73-1.68,1.6-2.16c2.14-1.18,6.53-2.87,9.82-7.26
			c1.85-2.47,9.49-9.76,9.49-9.76l0.04-0.02c0.2-0.05,1.2-0.04,6.04,1.95c2.5,1.02,5.11-3.68,5.11-3.68s0.8,0.32,1.54,1.1
			c0.59,0.62,1.14,1.54,1.23,2.82c0.12,1.81,1.99,4.74,3.38,6.7c0.84,1.18,1.51,2,1.51,2s0.52,1.02-3.74,2.64l-5.09,1.32
			c-1.77,0.2-3.14,0.09-4.94,0.34c-2.74,0.38-3.71,1.66-3.9,1.94c-0.03,0.04-0.04,0.06-0.04,0.06l-21.65,5.6
			C1705.42,1643.79,1705.53,1642.06,1705.74,1640.76z"/>
		<g id="BPbxa9_1_">
			<g>
				<path class="st23" d="M1663.3,1644.16c2.22,0,4.02-1.8,4.02-4.02c0-49.91-40.6-90.52-90.51-90.52
					c-11.53,0-22.75,2.14-33.36,6.35c-2.06,0.82-3.07,3.16-2.25,5.23c0.83,2.05,3.15,3.07,5.23,2.25
					c9.65-3.83,19.88-5.78,30.38-5.78c45.47,0,82.47,37,82.47,82.47C1659.28,1642.36,1661.08,1644.16,1663.3,1644.16z"/>
			</g>
			<g>
				<g>
					<path class="st22" d="M1590.47,1640.13c0-7.4-6-13.4-13.4-13.4s-13.4,6-13.4,13.4s6,13.4,13.4,13.4
						S1590.47,1647.54,1590.47,1640.13z"/>
					<g>
						<g>
							
								<rect x="1555.4" y="1606.66" transform="matrix(0.3378 -0.9412 0.9412 0.3378 -460.7802 2560.2434)" class="st22" width="67.26" height="1.82"/>
						</g>
						<g>
							<polygon class="st22" points="1641.22,1668.68 1641.94,1667.01 1577.66,1639.4 1535.4,1579.03 1533.91,1580.08 
								1576.47,1640.87 1576.71,1640.97 							"/>
						</g>
						<g>
							<path class="st22" d="M1602.55,1709.94l1.72-0.58c-0.46-1.36-25.31-66.77-26.37-69.55l-0.65-1.7l-40.04,63.33l1.54,0.97
								l38.1-60.25C1585.96,1666.11,1602.21,1708.9,1602.55,1709.94z"/>
						</g>
						<g>
							
								<rect x="1576.54" y="1628.55" transform="matrix(0.9855 -0.1695 0.1695 0.9855 -252.8443 296.918)" class="st22" width="72.38" height="1.82"/>
						</g>
						<g>
							
								<rect x="1561.16" y="1570.74" transform="matrix(0.9486 -0.3164 0.3164 0.9486 -427.1799 576.6171)" class="st22" width="1.82" height="66.09"/>
						</g>
						<g>
							<polygon class="st22" points="1577.21,1641.08 1577.47,1640.94 1642.9,1607.78 1642.08,1606.16 1576.92,1639.19 
								1506.79,1627.42 1506.49,1629.22 							"/>
						</g>
						<g>
							<path class="st22" d="M1550.67,1707.66c0.39-1.14,17.18-42.45,26.58-65.56l36.31,57.12l1.53-0.98l-38.2-60.1l-0.66,1.63
								c-1.1,2.69-26.82,65.92-27.28,67.3L1550.67,1707.66z"/>
						</g>
						<g>
							
								<rect x="1611.37" y="1609.76" transform="matrix(0.1466 -0.9892 0.9892 0.1466 -251.6768 2998.9893)" class="st22" width="1.82" height="71.19"/>
						</g>
						<g>
							
								<rect x="1570.44" y="1606.74" transform="matrix(0.6558 -0.7549 0.7549 0.6558 -662.8665 1761.4443)" class="st22" width="59.58" height="1.82"/>
						</g>
						<g>
							
								<rect x="1576.61" y="1645.02" transform="matrix(0.9966 -0.0827 0.0827 0.9966 -133.4352 136.2785)" class="st22" width="1.82" height="66.11"/>
						</g>
						<g>
							
								<rect x="1511.25" y="1657.17" transform="matrix(0.8218 -0.5698 0.5698 0.8218 -668.7167 1178.2882)" class="st22" width="75.75" height="1.82"/>
						</g>
						<g>
							<polygon class="st22" points="1628.67,1688.93 1629.96,1687.65 1577.97,1635.22 1577.97,1566.98 1576.16,1566.98 
								1576.16,1635.96 							"/>
						</g>
					</g>
				</g>
				<g>
					<path class="st24" d="M1640.87,1594.28c-1.45-2.01-3-3.96-4.63-5.82c-6.2-7.09-13.65-13.06-22-17.56
						c-3.64-1.97-7.45-3.65-11.4-5.02c-8.08-2.82-16.75-4.35-25.78-4.35c-2.8,0-5.57,0.15-8.29,0.44h-0.01
						c-16.31,1.72-31.15,8.45-42.94,18.6l-0.01,0.01c-16.73,14.43-27.35,35.77-27.35,59.55c0,7.2,0.99,14.34,2.91,21.21
						c1.72,6.18,4.21,12.15,7.42,17.75c0.09,0.18,0.2,0.35,0.3,0.53c6.8,11.68,16.55,21.48,28.2,28.32
						c9.15,5.38,19.32,8.83,29.84,10.16c0.01,0,0.01,0,0.02,0s0.01,0,0.02,0c3.26,0.42,6.58,0.63,9.89,0.63
						c3.41,0,6.78-0.22,10.08-0.64h0.02c38.6-4.98,68.5-38.03,68.5-77.96C1655.66,1623.03,1650.18,1607.19,1640.87,1594.28z
						 M1639.61,1666.01c-0.22,0.56-0.46,1.12-0.72,1.67c-2.87,6.43-6.72,12.33-11.36,17.52c-0.4,0.46-0.81,0.91-1.23,1.35
						c-3.64,3.85-7.72,7.28-12.17,10.2c-0.5,0.34-1.01,0.66-1.53,0.98c-3.37,2.09-6.94,3.89-10.67,5.37
						c-0.56,0.22-1.13,0.44-1.7,0.65c-6.09,2.22-12.59,3.6-19.35,3.97c-0.61,0.04-1.21,0.06-1.82,0.08c-0.67,0.02-1.33,0.03-2,0.03
						c-8.46,0-16.82-1.58-24.62-4.63c-0.57-0.21-1.13-0.44-1.69-0.67c-2.72-1.16-5.37-2.48-7.93-3.99
						c-0.39-0.23-0.78-0.47-1.17-0.71c-0.52-0.31-1.03-0.63-1.53-0.97c-6.97-4.54-13.05-10.34-17.92-17.06
						c-0.31-0.43-0.62-0.87-0.92-1.31c-0.35-0.5-0.69-1.01-1.01-1.52c-0.62-0.93-1.2-1.87-1.76-2.83
						c-3.31-5.69-5.76-11.83-7.28-18.21c-1.24-5.15-1.87-10.46-1.87-15.8c0-3.51,0.27-6.95,0.78-10.31c0.1-0.6,0.2-1.2,0.3-1.79
						c3.18-17.55,13.15-32.76,27.07-42.81c0.49-0.36,0.99-0.71,1.49-1.05c4.11-2.81,8.54-5.17,13.22-7.03
						c0.57-0.22,1.14-0.43,1.71-0.64c6.95-2.54,14.43-3.96,22.22-4.06c0.3-0.01,0.61-0.01,0.91-0.01s0.61,0,0.91,0.01
						c7.28,0.09,14.29,1.34,20.84,3.57h0.01c0.17,0.06,0.33,0.12,0.5,0.18c0.58,0.2,1.14,0.41,1.71,0.62
						c2.97,1.13,5.84,2.46,8.59,3.97c2.85,1.57,5.57,3.34,8.15,5.29c0.49,0.36,0.96,0.73,1.43,1.12c2.53,2.01,4.92,4.21,7.14,6.56
						c2.17,2.3,4.17,4.76,6,7.35c1.72,2.42,3.29,4.96,4.67,7.61c0.29,0.54,0.57,1.08,0.83,1.62c2.04,4.13,3.66,8.5,4.83,13.05
						c0.14,0.59,0.29,1.18,0.42,1.78c1.09,4.82,1.67,9.83,1.67,14.97c0,3.06-0.2,6.08-0.6,9.04c-0.08,0.6-0.17,1.21-0.27,1.8
						C1643.05,1656.21,1641.6,1661.25,1639.61,1666.01z"/>
				</g>
			</g>
			<g>
				
					<rect x="1672.28" y="1574.71" transform="matrix(0.3045 -0.9525 0.9525 0.3045 -288.0278 2763.1194)" class="st25" width="151.69" height="8.18"/>
			</g>
			<g>
				<polygon class="st25" points="1732.8,1652.69 1841.83,1643.21 1639.63,1506.5 1651.2,1530.18 1818.13,1637.06 1732.1,1644.54 
									"/>
			</g>
			<g>
				<polygon class="st25" points="1718.11,1646.29 1724.98,1641.85 1641.09,1507.46 1631.32,1517.57 				"/>
			</g>
			<g>
				<path class="st22" d="M1583.58,1636.53l46.72-99.99l-6.26-2.5c-4.07-1.63-8.68,0.36-10.3,4.43l-37.73,94.97L1583.58,1636.53z"/>
			</g>
			<g>
				<path class="st22" d="M1630.3,1536.54c6.76-17.54,18.05-45.1,17.87-44.83l-6.81-4.53c-0.33,0.5-0.55,0.83-18.28,46.84
					L1630.3,1536.54z"/>
			</g>
			<path class="st22" d="M1669.52,1501.29c2.68-3.72,1.83-8.9-1.89-11.58c-3.72-2.68-8.9-1.83-11.58,1.89
				c-2.68,3.72-1.83,8.9,1.89,11.58S1666.84,1505.01,1669.52,1501.29z"/>
			<path class="st22" d="M1638.11,1479.57c2.68-3.72,1.83-8.9-1.89-11.58s-8.9-1.83-11.58,1.89s-1.83,8.9,1.89,11.58
				C1630.25,1484.13,1635.44,1483.29,1638.11,1479.57z"/>
			<g>
				<polygon class="st22" points="1630.02,1482.51 1661.71,1502.67 1666.1,1494.02 1634.42,1473.86 				"/>
			</g>
			<path class="st22" d="M1682.17,1671.94h17.72c2.08,0,3.79-1.7,3.79-3.79l0,0c0-2.08-1.7-3.79-3.79-3.79h-17.72
				c-2.08,0-3.79,1.7-3.79,3.79l0,0C1678.38,1670.23,1680.09,1671.94,1682.17,1671.94z"/>
			<g>
				
					<rect x="1688.42" y="1656.11" transform="matrix(0.91 -0.4147 0.4147 0.91 -533.6264 857.5786)" class="st22" width="39.44" height="3.18"/>
			</g>
			<g>
				<g>
					<path class="st22" d="M1843.39,1640.13c0-7.4-6-13.4-13.4-13.4s-13.4,6-13.4,13.4s6,13.4,13.4,13.4
						S1843.39,1647.54,1843.39,1640.13z"/>
					<g>
						<g>
							
								<rect x="1808.32" y="1606.66" transform="matrix(0.3378 -0.9412 0.9412 0.3378 -293.2871 2798.2988)" class="st22" width="67.26" height="1.82"/>
						</g>
						<g>
							<polygon class="st22" points="1894.14,1668.68 1894.86,1667.01 1830.58,1639.4 1788.32,1579.03 1786.83,1580.08 
								1829.39,1640.87 1829.62,1640.97 							"/>
						</g>
						<g>
							<path class="st22" d="M1855.47,1709.94l1.72-0.58c-0.46-1.36-25.31-66.77-26.37-69.55l-0.65-1.7l-40.05,63.33l1.54,0.97
								l38.1-60.25C1838.88,1666.11,1855.13,1708.9,1855.47,1709.94z"/>
						</g>
						<g>
							
								<rect x="1829.46" y="1628.55" transform="matrix(0.9855 -0.1695 0.1695 0.9855 -249.1847 339.7849)" class="st22" width="72.38" height="1.82"/>
						</g>
						<g>
							
								<rect x="1814.08" y="1570.74" transform="matrix(0.9486 -0.3164 0.3164 0.9486 -414.1705 656.6)" class="st22" width="1.82" height="66.09"/>
						</g>
						<g>
							<polygon class="st22" points="1830.13,1641.08 1830.39,1640.94 1895.82,1607.78 1895,1606.16 1829.84,1639.19 
								1759.71,1627.42 1759.41,1629.22 							"/>
						</g>
						<g>
							<path class="st22" d="M1803.58,1707.66c0.39-1.14,17.18-42.45,26.58-65.56l36.31,57.12l1.53-0.98l-38.2-60.1l-0.66,1.63
								c-1.09,2.69-26.82,65.92-27.28,67.3L1803.58,1707.66z"/>
						</g>
						<g>
							
								<rect x="1864.29" y="1609.76" transform="matrix(0.1471 -0.9891 0.9891 0.1471 -36.623 3248.2444)" class="st22" width="1.82" height="71.19"/>
						</g>
						<g>
							
								<rect x="1823.36" y="1606.74" transform="matrix(0.6558 -0.7549 0.7549 0.6558 -575.8107 1952.3799)" class="st22" width="59.58" height="1.82"/>
						</g>
						<g>
							
								<rect x="1829.53" y="1645.02" transform="matrix(0.9966 -0.0828 0.0828 0.9966 -132.6303 157.2855)" class="st22" width="1.82" height="66.1"/>
						</g>
						<g>
							
								<rect x="1764.17" y="1657.17" transform="matrix(0.8218 -0.5698 0.5698 0.8218 -623.6354 1322.4091)" class="st22" width="75.75" height="1.82"/>
						</g>
						<g>
							<polygon class="st22" points="1881.59,1688.93 1882.88,1687.65 1830.89,1635.22 1830.89,1566.98 1829.07,1566.98 
								1829.07,1635.96 							"/>
						</g>
					</g>
				</g>
				<g>
					<path class="st24" d="M1829.98,1561.53c-12.03,0-23.44,2.72-33.64,7.58c-11.5,5.45-21.47,13.63-29.07,23.69
						c-1.98,2.61-3.8,5.36-5.44,8.21c-6.65,11.52-10.45,24.89-10.45,39.12c0,0.91,0.02,1.82,0.05,2.73c0.09,2.73,0.33,5.45,0.7,8.15
						c1.41,10.07,4.75,19.81,9.87,28.61c6.44,11.06,15.54,20.44,26.39,27.21c0.6,0.38,1.21,0.75,1.82,1.11
						c9.08,5.34,19.15,8.77,29.57,10.13c3.37,0.44,6.78,0.66,10.2,0.66c3.46,0,6.87-0.22,10.21-0.66
						c38.53-5.02,68.39-38.06,68.39-77.94C1908.58,1596.79,1873.32,1561.53,1829.98,1561.53z M1892.53,1666.01
						c-0.22,0.56-0.46,1.12-0.72,1.67c-2.87,6.43-6.72,12.33-11.36,17.52c-0.4,0.46-0.81,0.91-1.23,1.35
						c-3.64,3.85-7.72,7.28-12.17,10.2c-0.5,0.34-1.01,0.66-1.53,0.98c-3.37,2.09-6.94,3.89-10.67,5.37
						c-0.56,0.22-1.13,0.44-1.7,0.65c-6.1,2.22-12.6,3.6-19.36,3.97c-0.6,0.04-1.21,0.06-1.81,0.08c-0.67,0.02-1.33,0.03-2,0.03
						c-8.47,0-16.82-1.58-24.62-4.63c-0.57-0.21-1.13-0.44-1.69-0.67c-2.72-1.16-5.37-2.48-7.93-3.99
						c-0.39-0.23-0.78-0.47-1.17-0.71c-0.52-0.31-1.03-0.63-1.53-0.97c-0.02,0-0.04-0.01-0.05-0.03
						c-7.4-4.83-13.79-11.08-18.79-18.34c-0.35-0.5-0.69-1.01-1.01-1.52c-0.62-0.93-1.2-1.87-1.76-2.83
						c-4.32-7.42-7.17-15.6-8.41-24.08c-0.41-2.69-0.64-5.41-0.71-8.15c-0.02-0.59-0.03-1.19-0.03-1.78c0-3.51,0.27-6.95,0.78-10.31
						c0.1-0.6,0.2-1.2,0.3-1.79c1.37-7.55,3.99-14.67,7.66-21.13c1.57-2.8,3.34-5.47,5.29-7.99c4.02-5.22,8.78-9.84,14.12-13.69
						c0.49-0.36,0.99-0.71,1.49-1.05c4.11-2.81,8.54-5.17,13.22-7.03c0.57-0.22,1.14-0.43,1.71-0.64c4.24-1.55,8.65-2.68,13.23-3.35
						h0.01c2.94-0.43,5.93-0.67,8.98-0.71c0.3-0.01,0.61-0.01,0.91-0.01s0.61,0,0.91,0.01c7.47,0.09,14.65,1.41,21.35,3.75
						c0.58,0.2,1.14,0.41,1.71,0.62c6.04,2.29,11.67,5.43,16.74,9.26c0.49,0.36,0.96,0.73,1.43,1.12
						c7.33,5.84,13.42,13.16,17.81,21.52c0.29,0.54,0.57,1.08,0.83,1.62c2.04,4.13,3.66,8.5,4.83,13.05
						c0.14,0.59,0.29,1.18,0.41,1.78c1.1,4.82,1.68,9.83,1.68,14.97c0,3.06-0.2,6.08-0.6,9.04c-0.08,0.6-0.17,1.21-0.27,1.8
						C1895.97,1656.21,1894.52,1661.25,1892.53,1666.01z"/>
				</g>
			</g>
			<g>
				<path class="st7" d="M1765.93,1559.48c1.15,0.41,2.42,0.27,3.47-0.36l0,0c36.78-22.22,87.66-13.87,102.38-10.78l0.02,0
					c0.81,0.17,1.57-0.45,1.57-1.28v-2.87c0-2.2-1.61-4.07-3.78-4.39c-7.96-1.19-26.56-3.73-36.96-3.78c-0.28,0-0.56,0-0.84,0
					c-23.28,0-43.38,4.17-59.9,12.4c-3.37,1.68-7.28,1.92-10.84,0.67l-4.53-1.59c-2.59-0.91-5.43,0.45-6.34,3.04l0,0
					c-0.59,1.67,0.29,3.5,1.96,4.09L1765.93,1559.48z"/>
			</g>
			<path class="st7" d="M1800.11,1503.49c0,0,1.48-6.7-2.73-7.16c-4.2-0.45-19.54,2.84-23.63,2.38c-4.09-0.45-25.44-3.98-29.19-0.34
				c-3.75,3.63-2.16,6.82,5.34,7.5c7.5,0.68,17.49,1.93,20.33,4.32S1793.63,1519.62,1800.11,1503.49z"/>
			<circle class="st23" cx="1725.03" cy="1651.04" r="20.45"/>
		</g>
		<path class="st21" d="M1653.78,1477.74c0,0-6.69-8.49-10.35-7.44c-6.32,1.83-6.84,7.6-6.68,8.78s0.08,5.82,2.88,6.81
			s5.72-0.23,7.02-1.31C1647.94,1483.49,1653.78,1477.74,1653.78,1477.74z"/>
		<path class="st21" d="M1642.42,1470.88c0,0,0.93,5.28,7.33,7.04c6.4,1.69,46.01-14.98,55.43-19.62
			c5.07-2.53,12.38-16.61,18.01-28.92c1.34-3.03,2.6-5.91,3.73-8.51c2.81-6.54,4.64-11.26,4.64-11.26c0-6.47-7.15-3.95-13.62-0.99
			c-1.97,0.92-12.28-3.44-15.03,1.83c-1.27,2.46-2.95,2.18-4.21,4.93c-5,11.05-9.57,23.5-10.55,26.46
			C1686.4,1447.11,1642.42,1470.88,1642.42,1470.88z"/>
		<path class="st26" d="M1658.73,1482.68c0,0-6.66-8.36-10.35-7.44c-8.7,2.18-7.53,8.45-7.38,9.63c0.15,1.18,0.77,4.97,3.58,5.96
			c2.8,0.99,5.72-0.23,7.02-1.31C1652.89,1488.44,1658.73,1482.68,1658.73,1482.68z"/>
		<path class="st26" d="M1735.29,1398.95l-22.59,8.34c-2.89-2.8-5.78-7.26-8.1-11.34c-2.88-5.06-4.88-9.54-4.88-9.54l15.79-11.05
			l4.96-3.47C1720.77,1381.96,1735.29,1398.95,1735.29,1398.95z"/>
		<path class="st21" d="M1721.65,1377.35c0,0-4.47,13.95-17.06,18.6c-2.88-5.06-4.88-9.54-4.88-9.54l15.79-11.05L1721.65,1377.35z"
			/>
		<path class="st26" d="M1692.56,1386.08c0,0,27.94,4.38,30.4-13.06c2.46-17.44,7.72-28.62-10.01-32.16
			c-17.74-3.54-22.15,2.63-24.38,8.25C1686.32,1354.73,1685.35,1384.49,1692.56,1386.08z"/>
		<path class="st23" d="M1729.23,1337.68c0,0-1.27,0.26-2.29,1.32c-0.01-0.01-0.01-0.02-0.01-0.02c-0.07-3.76-3.77-7.56-3.77-7.56
			c1.77,2.23,1.2,6.35,1.2,6.35c-5.26-9-30.88-1.92-33.28-1.32c-2.4,0.6-4.1-3-4.1-3c-3.79,3.29-5.24,11.33-2.09,16.58
			c3.14,5.25,13.34,12.98,16.27,11.51c2.94-1.47,2.94,1.57,2.79,5.84s7.24,11.44,12.45,12.49c4.2,0.84,4.53-2.03,5.67-3.87
			c0.28-0.46,0.62-0.88,1.02-1.23c5.72-5.16,8.87-15.48,7.59-25.64c-0.51-4.04-2.18-7.43-3.12-9.07
			C1727.95,1339.4,1728.69,1338.19,1729.23,1337.68z"/>
		<path class="st23" d="M1719.56,1492.09c0.28,1.27,3.38,11.68,11.4,14.35c5.21,1.76,17.87,6.05,29.13,6.9
			c2.6-2.18,4.57-4.57,5.7-7.32c6.47-15.83-4.08-27.58-4.08-27.58S1739.62,1483.51,1719.56,1492.09z"/>
		<path class="st26" d="M1783.02,1455.37c0,0,22.64,26.07,1.85,55.39s-54.63,52.97-56.5,63.42c-3.61,20.23-25.15,62.01-35.42,82.68
			l-8.79-3.37c0,0,16.5-97.96,22.36-109.69c5.86-11.73,36.24-66.62,36.24-66.62L1783.02,1455.37z"/>
		<path class="st27" d="M1698.46,1414.06c2.18,0.7,7.46,2.67,8.87,5.07c1.48,2.39,16.96-4.29,18.79-10.55
			c-4.43-4.85-12.03-9.01-16.46-7.6C1707.04,1401.75,1702.82,1407.3,1698.46,1414.06z"/>
		<path class="st28" d="M1787.58,1463.39c0,0-29.39,20.94-49.03,19.77c0,0-12.9,21.99-15.76,29.25c0,0,33.42,16.71,50.79,13.63
			c0,0,22.65-21.99,21.33-37.38S1787.58,1463.39,1787.58,1463.39z"/>
		<path class="st5" d="M1706.96,1424.01l7.04,10.04l0.56,1.27l14.64,33.42l7.46,17.03c5,1.2,14.28,0.35,18.44-1.13
			c22.66-7.74,32.51-21.25,32.51-21.25c-13.16-34.41-31.38-57.91-35.11-62.06c-6.47-7.04-23.43-12.81-23.43-12.81
			c-4.64,4.79-21.25,13.16-21.25,13.16C1704.16,1404.56,1706.96,1424.01,1706.96,1424.01z"/>
		<path class="st27" d="M1714.57,1435.31l14.64,33.42c11.12-22.45,4.08-55.02,4.08-55.02s-17.87,15.48-18.51,16.68
			C1714.71,1430.6,1714.57,1432.42,1714.57,1435.31z"/>
		<path class="st26" d="M1647.37,1475.83c0,0,0.93,5.28,7.33,7.04c6.4,1.69,46.01-14.98,55.43-19.62
			c5.07-2.53,12.38-16.61,18.01-28.92c1.34-3.03,2.6-5.91,3.73-8.51c2.81-6.54,4.64-11.26,4.64-11.26
			c0-6.47-15.27-15.27-21.74-12.31c-1.97,0.92-4.57,4.92-7.32,10.2c-1.27,2.46-2.53,5.14-3.8,7.88c-5,11.05-9.57,23.5-10.55,26.46
			C1691.35,1452.06,1647.37,1475.83,1647.37,1475.83z"/>
		<path class="st5" d="M1703.66,1420.32c5.91,2.67,16.54,7.88,24.49,14c1.34-3.03,2.6-5.91,3.73-8.51
			c2.81-6.54,4.64-11.26,4.64-11.26c0-6.47-15.27-15.27-21.74-12.31c-1.97,0.92-4.57,4.92-7.32,10.2
			C1706.2,1414.9,1704.93,1417.58,1703.66,1420.32z"/>
		<g>
			<path class="st25" d="M1696.42,1664.88h-5.26c-1.76-0.25-3.07-0.7-4.87-0.91c-2.75-0.32-4.01,0.68-4.26,0.91
				c-0.03,0.03-0.05,0.05-0.05,0.05h-22.36c-0.56-0.71-0.02-2.36,0.51-3.57c0.36-0.82,1.13-1.45,2.09-1.69
				c2.37-0.61,7.04-1.15,11.33-4.58c2.41-1.92,11.63-7.08,11.63-7.08l0.05-0.01c0.2,0,1.17,0.26,5.36,3.4
				c2.17,1.62,5.86-2.28,5.86-2.28s0.69,0.51,1.21,1.45c0.42,0.75,0.72,1.77,0.48,3.04c-0.33,1.78,0.74,5.09,1.6,7.33
				c0.52,1.36,0.96,2.32,0.96,2.32S1700.95,1664.38,1696.42,1664.88z"/>
			<path class="st22" d="M1697.66,1650.58c-1.26,0.78-3.91,2.33-5.67,2.53c-2.38,0.28-6.82-5.08-6.82-5.08l0.05-0.01
				c0.2,0,1.17,0.26,5.36,3.4c2.17,1.62,5.86-2.28,5.86-2.28S1697.14,1649.64,1697.66,1650.58z"/>
			<path class="st22" d="M1696.42,1664.88h-5.26c-1.76-0.25-3.07-0.7-4.87-0.91c-2.75-0.32-4.01,0.68-4.26,0.91
				c-0.03,0.03-0.05,0.05-0.05,0.05h-22.36c-0.56-0.71-0.02-2.36,0.51-3.57c0.68-0.53,0.87,2.32,1.25,2.77
				c0.38,0.45,18.24,0.17,19.27-0.5c1.03-0.66,4.13-1.82,8.44-0.91c3.76,0.79,9.29-1.24,10.66-1.78c0.52,1.36,0.96,2.32,0.96,2.32
				S1700.95,1664.38,1696.42,1664.88z"/>
		</g>
	</g>
	<g>
		<g>
			<path class="st23" d="M2482.72,1649.9c1.93,0,3.49-1.56,3.49-3.49c0-43.29-35.22-78.52-78.51-78.52c-10,0-19.73,1.85-28.93,5.51
				c-1.79,0.71-2.66,2.74-1.95,4.53c0.72,1.78,2.73,2.66,4.53,1.95c8.37-3.33,17.24-5.02,26.35-5.02
				c39.45,0,71.54,32.09,71.54,71.54C2479.23,1648.34,2480.79,1649.9,2482.72,1649.9z"/>
		</g>
		<path class="st21" d="M2545.65,1480.61c0,0-5.32,11.07-12.04,26.4c-7.54,17.2-16.85,39.77-22.39,58.12
			c-2.93,9.71-4.81,18.23-4.82,24.16c0,2.03,7.84,10.29,10.1,13.44c14.29,19.89,33.81,46.45,33.81,46.45l5.33-1.34
			c0,0-7.46-33.22-18.33-49.8c-2.14-3.26-8.16-7.23-7.87-7.59c0,0,0-0.01,0.01-0.01c0.94-1.18,3.28-4.12,6.47-8.33
			c8.81-11.6,24.11-32.73,34.36-52.39c0.64-1.23,1.26-2.45,1.85-3.66c5.4-10.97,8.97-21.25,8.62-28.88L2545.65,1480.61z"/>
		<g>
			<path class="st29" d="M2560.37,1649.13l-3.67,2.32c-1.35,0.58-2.48,0.8-3.85,1.43c-2.07,0.96-2.46,2.3-2.52,2.59
				c-0.01,0.04-0.01,0.06-0.01,0.06l-15.58,9.85c-0.75-0.31-1.19-1.84-1.42-3.03c-0.16-0.8,0.07-1.64,0.62-2.25
				c1.35-1.52,4.34-4.01,5.61-8.6c0.72-2.58,4.57-10.7,4.57-10.7l0.03-0.03c0.14-0.09,0.95-0.31,5.43,0.31
				c2.32,0.32,2.95-4.38,2.95-4.38s0.74,0.09,1.57,0.61c0.66,0.4,1.38,1.08,1.85,2.18c0.66,1.55,3.06,3.68,4.77,5.07
				c1.04,0.84,1.83,1.4,1.83,1.4S2563.27,1646.74,2560.37,1649.13z"/>
			<path class="st30" d="M2554.1,1637.31c-0.48,1.17-1.56,3.55-2.69,4.49c-1.52,1.26-7.28-1-7.28-1l0.03-0.03
				c0.14-0.09,0.95-0.31,5.43,0.31c2.32,0.32,2.95-4.38,2.95-4.38S2553.27,1636.8,2554.1,1637.31z"/>
			<path class="st30" d="M2560.37,1649.13l-3.67,2.32c-1.35,0.58-2.48,0.8-3.85,1.43c-2.07,0.96-2.46,2.3-2.52,2.59
				c-0.01,0.04-0.01,0.06-0.01,0.06l-15.58,9.85c-0.75-0.31-1.19-1.84-1.42-3.03c0.21-0.72,1.76,1.44,2.25,1.64
				c0.49,0.19,12.79-7.91,13.18-8.89s1.96-3.26,5.43-4.44c3.01-1.03,5.85-5.07,6.54-6.1c1.04,0.84,1.83,1.4,1.83,1.4
				S2563.27,1646.74,2560.37,1649.13z"/>
		</g>
		<g>
			
				<rect x="2489.87" y="1588.68" transform="matrix(0.3045 -0.9525 0.9525 0.3045 262.6574 3544.4932)" class="st7" width="137.37" height="7.41"/>
		</g>
		<g>
			<polygon class="st7" points="2544.68,1659.3 2643.42,1650.71 2460.3,1526.91 2470.78,1548.36 2621.96,1645.14 2544.04,1651.92 
							"/>
		</g>
		<g>
			<polygon class="st7" points="2531.37,1653.5 2537.6,1649.49 2461.62,1527.78 2452.78,1536.94 			"/>
		</g>
		<path class="st22" d="M2521,1636.15l-13.9,8.02c-1.63,0.94-2.2,3.05-1.25,4.68l0,0c0.94,1.63,3.05,2.2,4.68,1.25l13.9-8.02
			c1.63-0.94,2.2-3.05,1.25-4.68l0,0C2524.74,1635.77,2522.63,1635.2,2521,1636.15z"/>
		<g>
			<polygon class="st22" points="2518.25,1641.32 2535.77,1660.71 2537.39,1659.31 2519.86,1639.92 			"/>
		</g>
		<g>
			<path class="st28" d="M2574.68,1574.89c1.04,0.37,2.2,0.25,3.14-0.33l0,0c33.31-20.12,79.38-12.56,92.71-9.76l0.02,0
				c0.73,0.15,1.42-0.41,1.42-1.16v-2.6c0-1.99-1.46-3.68-3.43-3.97c-7.21-1.07-24.06-3.38-33.47-3.42c-0.25,0-0.51,0-0.76,0
				c-21.08,0-39.29,3.77-54.25,11.23c-3.05,1.52-6.6,1.74-9.82,0.61l-4.1-1.44c-2.34-0.82-4.91,0.41-5.74,2.75l0,0
				c-0.53,1.51,0.26,3.17,1.78,3.71L2574.68,1574.89z"/>
		</g>
		<path class="st22" d="M2605.63,1524.18c0,0,1.34-6.07-2.47-6.48c-3.81-0.41-17.69,2.57-21.4,2.16c-3.7-0.41-23.04-3.6-26.44-0.31
			c-3.39,3.29-1.95,6.17,4.83,6.79c6.79,0.62,15.84,1.75,18.41,3.91C2581.15,1532.41,2599.77,1538.79,2605.63,1524.18z"/>
		
			<ellipse transform="matrix(0.7071 -0.7071 0.7071 0.7071 -428.9858 2279.9421)" class="st22" cx="2537.64" cy="1657.8" rx="18.52" ry="18.52"/>
		<g>
			<g>
				<g>
					<g>
						
							<rect x="2617.46" y="1617.75" transform="matrix(0.3378 -0.9412 0.9412 0.3378 230.1022 3564.1953)" class="st22" width="60.91" height="1.65"/>
					</g>
					<g>
						<polygon class="st22" points="2695.18,1673.92 2695.83,1672.41 2637.62,1647.4 2599.35,1592.73 2598,1593.68 2636.54,1648.73 
							2636.75,1648.82 						"/>
					</g>
					<g>
						<path class="st22" d="M2660.16,1711.28l1.56-0.52c-0.41-1.24-22.92-60.46-23.88-62.98l-0.58-1.54l-36.27,57.35l1.39,0.88
							l34.5-54.57C2645.14,1671.59,2659.85,1710.34,2660.16,1711.28z"/>
					</g>
					<g>
						
							<rect x="2636.6" y="1637.57" transform="matrix(0.9855 -0.1695 0.1695 0.9855 -239.0713 476.1383)" class="st22" width="65.55" height="1.65"/>
					</g>
					<g>
						
							<rect x="2622.68" y="1585.22" transform="matrix(0.9487 -0.3162 0.3162 0.9487 -376.1255 912.508)" class="st22" width="1.65" height="59.85"/>
					</g>
					<g>
						<polygon class="st22" points="2637.21,1648.92 2637.45,1648.8 2696.7,1618.76 2695.96,1617.29 2636.95,1647.21 
							2573.44,1636.56 2573.17,1638.18 						"/>
					</g>
					<g>
						<path class="st22" d="M2613.17,1709.22c0.35-1.03,15.55-38.45,24.07-59.37l32.88,51.73l1.39-0.88l-34.59-54.42l-0.6,1.48
							c-0.99,2.44-24.29,59.7-24.71,60.95L2613.17,1709.22z"/>
					</g>
					<g>
						
							<rect x="2668.14" y="1620.56" transform="matrix(0.1472 -0.9891 0.9891 0.1472 641.4188 4049.4968)" class="st22" width="1.65" height="64.47"/>
					</g>
					<g>
						
							<rect x="2631.08" y="1617.82" transform="matrix(0.6558 -0.7549 0.7549 0.6558 -307.0606 2563.8208)" class="st22" width="53.96" height="1.65"/>
					</g>
					<g>
						
							<rect x="2636.67" y="1652.49" transform="matrix(0.9966 -0.0824 0.0824 0.9966 -129.7094 223.1398)" class="st22" width="1.65" height="59.87"/>
					</g>
					<g>
						
							<rect x="2577.48" y="1663.49" transform="matrix(0.8218 -0.5698 0.5698 0.8218 -482.8621 1784.9188)" class="st22" width="68.6" height="1.65"/>
					</g>
					<g>
						<polygon class="st22" points="2683.81,1692.26 2684.98,1691.1 2637.9,1643.61 2637.9,1581.82 2636.26,1581.82 
							2636.26,1644.29 						"/>
					</g>
				</g>
				<circle class="st23" cx="2637.08" cy="1648.07" r="12.14"/>
			</g>
			<g>
				<path class="st24" d="M2695.16,1606.97c-12.9-18.19-34.13-30.09-58.09-30.09c-24.01,0-45.28,11.95-58.18,30.21
					c-1.69,2.4-3.24,4.9-4.63,7.51v0.01c-5.34,9.98-8.37,21.36-8.37,33.45c0,0.65,0.01,1.31,0.03,1.96
					c0.06,2.47,0.26,4.93,0.59,7.38c1.22,9.31,4.28,18.3,9.01,26.43c6.16,10.58,14.99,19.44,25.54,25.64
					c8.38,4.93,17.69,8.06,27.32,9.23c0.08,0.02,0.16,0.03,0.25,0.03c2.79,0.34,5.61,0.51,8.44,0.51c2.88,0,5.73-0.17,8.52-0.51
					c0.09-0.01,0.18-0.02,0.26-0.03c20.32-2.51,38.01-13.61,49.31-29.55c8.25-11.61,13.1-25.79,13.1-41.09
					C2708.26,1632.76,2703.41,1618.58,2695.16,1606.97z M2697.59,1657.87c-0.54,3.37-1.36,6.64-2.43,9.81
					c-0.43,1.29-0.91,2.57-1.44,3.82c-0.21,0.51-0.42,1.01-0.65,1.51c-2.6,5.82-6.09,11.17-10.3,15.86
					c-0.36,0.41-0.73,0.82-1.11,1.22c-3.29,3.5-6.99,6.6-11.02,9.24c-0.45,0.31-0.91,0.6-1.38,0.89c-3.06,1.89-6.29,3.52-9.67,4.87
					c-0.51,0.2-1.03,0.39-1.54,0.58c-5.52,2.02-11.4,3.26-17.52,3.6c-0.55,0.03-1.1,0.06-1.65,0.07c-0.6,0.02-1.2,0.03-1.81,0.03
					c-7.66,0-15.22-1.43-22.29-4.19c-0.51-0.2-1.02-0.4-1.53-0.62c-2.47-1.04-4.87-2.24-7.19-3.6c-0.36-0.21-0.71-0.42-1.06-0.65
					c-0.47-0.28-0.93-0.57-1.39-0.88c-6.71-4.37-12.51-10.04-17.04-16.63v-0.01c-0.33-0.45-0.63-0.9-0.92-1.36
					c-0.56-0.84-1.09-1.7-1.6-2.57c-4-6.86-6.6-14.45-7.69-22.32c-0.34-2.44-0.54-4.9-0.57-7.38c-0.02-0.37-0.02-0.73-0.02-1.1
					c0-3.17,0.24-6.28,0.71-9.32c0.08-0.55,0.17-1.09,0.27-1.63c1.1-6.07,3.1-11.84,5.86-17.16c1.32-2.55,2.81-5,4.47-7.33
					c3.91-5.5,8.7-10.33,14.18-14.29c0.45-0.32,0.9-0.63,1.35-0.94c3.72-2.54,7.73-4.68,11.98-6.36c0.5-0.2,1.01-0.4,1.53-0.59
					c6.29-2.29,13.07-3.58,20.13-3.67c0.27-0.01,0.55-0.01,0.82-0.01c0.28,0,0.55,0,0.83,0.01c6.76,0.09,13.26,1.28,19.33,3.39
					c0.52,0.18,1.04,0.37,1.55,0.57c5.47,2.07,10.56,4.91,15.16,8.38c0.44,0.33,0.87,0.67,1.3,1.01
					c6.64,5.3,12.15,11.93,16.13,19.49c0.26,0.49,0.51,0.98,0.75,1.47c1.17,2.38,2.19,4.84,3.04,7.37c0.5,1.46,0.94,2.94,1.32,4.45
					c0.14,0.53,0.27,1.06,0.39,1.6c0.99,4.36,1.51,8.9,1.51,13.56c0,2.77-0.18,5.5-0.55,8.18
					C2697.76,1656.79,2697.68,1657.33,2697.59,1657.87z"/>
			</g>
			<g>
				<path class="st29" d="M2697.63,1634.37c-0.12-0.54-0.26-1.07-0.4-1.6c-0.57-2.22-1.26-4.39-2.07-6.51
					c-0.71-1.88-1.51-3.71-2.4-5.5c-0.24-0.5-0.49-0.99-0.75-1.47c-4.04-7.64-9.61-14.35-16.3-19.71c-0.43-0.35-0.86-0.69-1.3-1.02
					c-10.19-7.75-22.82-12.46-36.51-12.75c-0.46-0.02-0.91-0.02-1.37-0.02h-0.28c-7.18,0.03-14.08,1.28-20.5,3.54
					c-0.52,0.18-1.03,0.37-1.54,0.57c-4.38,1.67-8.52,3.82-12.37,6.39c-0.46,0.3-0.91,0.61-1.36,0.93
					c-5.67,3.99-10.65,8.9-14.72,14.51c-1.69,2.32-3.22,4.76-4.57,7.31c-2.94,5.48-5.08,11.46-6.26,17.76
					c-0.11,0.54-0.21,1.09-0.29,1.63c-0.54,3.27-0.81,6.63-0.81,10.05c0,0.28,0,0.57,0.01,0.85c0.03,2.5,0.21,4.97,0.53,7.39
					c1.24,9.45,4.6,18.24,9.58,25.89c0.3,0.46,0.6,0.91,0.92,1.36c4.69,6.82,10.7,12.66,17.66,17.17c0.46,0.3,0.93,0.59,1.4,0.87
					c2.73,1.68,5.59,3.14,8.58,4.39c0.51,0.21,1.02,0.41,1.54,0.61c6.98,2.69,14.56,4.17,22.48,4.17c0.84,0,1.67-0.02,2.5-0.05
					c0.55-0.02,1.1-0.05,1.65-0.09c6.27-0.41,12.29-1.75,17.93-3.88c0.52-0.19,1.03-0.39,1.54-0.6c3.46-1.41,6.77-3.12,9.89-5.11
					c0.46-0.29,0.92-0.59,1.38-0.9c4.08-2.74,7.83-5.95,11.14-9.55c0.38-0.4,0.75-0.81,1.11-1.22c4.26-4.85,7.77-10.36,10.37-16.35
					c0.23-0.5,0.44-1,0.64-1.51c0.17-0.4,0.33-0.81,0.48-1.22c1.54-4.05,2.67-8.29,3.35-12.69c0.08-0.54,0.16-1.09,0.23-1.63
					c0.32-2.59,0.49-5.23,0.49-7.9C2699.23,1643.63,2698.68,1638.9,2697.63,1634.37z M2696.01,1657.64
					c-0.23,1.49-0.52,2.96-0.85,4.41c-0.71,3.05-1.65,6.02-2.8,8.87c-0.21,0.51-0.42,1.01-0.64,1.51
					c-2.47,5.69-5.81,10.93-9.83,15.55c-0.36,0.41-0.73,0.82-1.11,1.23c-3.19,3.47-6.79,6.57-10.72,9.21
					c-0.46,0.31-0.92,0.61-1.38,0.9c-2.97,1.89-6.12,3.52-9.42,4.87c-0.51,0.21-1.02,0.41-1.54,0.6
					c-5.42,2.05-11.21,3.34-17.25,3.72c-0.54,0.05-1.1,0.08-1.65,0.09c-0.76,0.04-1.52,0.05-2.29,0.05
					c-7.59,0-14.85-1.41-21.54-3.99c-0.51-0.19-1.02-0.4-1.53-0.61c-2.85-1.18-5.58-2.58-8.19-4.17c-0.47-0.29-0.93-0.58-1.39-0.88
					c-6.67-4.32-12.43-9.93-16.93-16.47c-0.32-0.45-0.62-0.91-0.92-1.37c-4.73-7.29-7.93-15.66-9.14-24.66
					c-0.32-2.42-0.5-4.89-0.52-7.39c-0.01-0.21-0.01-0.42-0.01-0.63c0-3.28,0.26-6.49,0.77-9.63c0.09-0.55,0.18-1.09,0.29-1.63
					c1.13-5.96,3.14-11.61,5.9-16.81c1.34-2.53,2.86-4.96,4.54-7.26c3.89-5.35,8.65-10.04,14.07-13.86c0.45-0.32,0.9-0.63,1.36-0.93
					c3.65-2.43,7.57-4.47,11.72-6.06c0.51-0.2,1.02-0.39,1.54-0.57h0.01c6.17-2.18,12.79-3.38,19.69-3.41h0.28
					c0.46,0,0.92,0.01,1.37,0.02c6.56,0.14,12.86,1.35,18.75,3.44c0.52,0.18,1.03,0.37,1.54,0.58c5.25,2.02,10.14,4.77,14.56,8.12
					c0.44,0.32,0.87,0.66,1.3,1.01c6.45,5.15,11.81,11.6,15.7,18.94c0.26,0.49,0.51,0.98,0.75,1.47c1.77,3.58,3.2,7.36,4.23,11.3
					c0.14,0.53,0.28,1.06,0.4,1.6c0.01,0.03,0.02,0.07,0.03,0.11c1.01,4.36,1.54,8.9,1.54,13.57c0,2.55-0.16,5.07-0.47,7.53
					C2696.16,1656.56,2696.09,1657.1,2696.01,1657.64z"/>
			</g>
		</g>
		<g>
			<g>
				<g>
					<g>
						
							<rect x="2385.33" y="1617.75" transform="matrix(0.3378 -0.9412 0.9412 0.3378 76.3507 3345.6729)" class="st22" width="60.91" height="1.65"/>
					</g>
					<g>
						<polygon class="st22" points="2463.05,1673.92 2463.7,1672.41 2405.49,1647.4 2367.22,1592.73 2365.88,1593.68 
							2404.41,1648.73 2404.63,1648.82 						"/>
					</g>
					<g>
						<path class="st22" d="M2428.04,1711.28l1.56-0.52c-0.41-1.24-22.92-60.46-23.88-62.98l-0.58-1.54l-36.27,57.35l1.39,0.88
							l34.5-54.57C2413.01,1671.59,2427.72,1710.34,2428.04,1711.28z"/>
					</g>
					<g>
						
							<rect x="2404.48" y="1637.57" transform="matrix(0.9855 -0.1695 0.1695 0.9855 -242.4263 436.7873)" class="st22" width="65.55" height="1.65"/>
					</g>
					<g>
						
							<rect x="2390.55" y="1585.22" transform="matrix(0.9487 -0.3162 0.3162 0.9487 -388.0376 839.1027)" class="st22" width="1.65" height="59.85"/>
					</g>
					<g>
						<polygon class="st22" points="2405.08,1648.92 2405.32,1648.8 2464.57,1618.76 2463.83,1617.29 2404.82,1647.21 
							2341.31,1636.56 2341.04,1638.18 						"/>
					</g>
					<g>
						<path class="st22" d="M2381.04,1709.22c0.35-1.03,15.56-38.45,24.07-59.37l32.88,51.73l1.39-0.88l-34.59-54.42l-0.6,1.48
							c-0.99,2.44-24.29,59.7-24.71,60.95L2381.04,1709.22z"/>
					</g>
					<g>
						
							<rect x="2436.02" y="1620.56" transform="matrix(0.1472 -0.9891 0.9891 0.1472 443.4489 3819.8958)" class="st22" width="1.65" height="64.47"/>
					</g>
					<g>
						
							<rect x="2398.96" y="1617.82" transform="matrix(0.6558 -0.7549 0.7549 0.6558 -386.9591 2388.5823)" class="st22" width="53.96" height="1.65"/>
					</g>
					<g>
						
							<rect x="2404.54" y="1652.49" transform="matrix(0.9966 -0.0825 0.0825 0.9966 -130.5661 204.1194)" class="st22" width="1.65" height="59.87"/>
					</g>
					<g>
						
							<rect x="2345.35" y="1663.49" transform="matrix(0.8218 -0.5698 0.5698 0.8218 -524.2361 1652.6208)" class="st22" width="68.6" height="1.65"/>
					</g>
					<g>
						<polygon class="st22" points="2451.68,1692.26 2452.85,1691.1 2405.77,1643.61 2405.77,1581.82 2404.13,1581.82 
							2404.13,1644.29 						"/>
					</g>
				</g>
				<circle class="st23" cx="2404.95" cy="1648.07" r="12.14"/>
			</g>
			<g>
				<path class="st31" d="M2442.15,1587.4c-1.85-1.15-3.77-2.21-5.73-3.17c-2.99-1.49-6.11-2.77-9.33-3.82
					c-6.97-2.29-14.41-3.53-22.14-3.53c-10.62,0-20.7,2.34-29.76,6.53c-1.29,0.59-2.57,1.23-3.82,1.9
					c-22.36,12.02-37.6,35.64-37.6,62.75c0,12.59,3.32,24.95,9.62,35.77c6.16,10.58,14.99,19.44,25.54,25.64
					c0.8,0.47,1.62,0.93,2.44,1.36c7.73,4.15,16.18,6.81,24.89,7.87c0.08,0.02,0.16,0.03,0.25,0.03c2.79,0.34,5.61,0.51,8.44,0.51
					c2.88,0,5.73-0.17,8.52-0.51c0.09-0.01,0.18-0.02,0.26-0.03c35.12-4.34,62.4-34.36,62.4-70.64
					C2476.13,1622.44,2462.52,1599.93,2442.15,1587.4z M2465.46,1657.87c-0.76,4.75-2.08,9.32-3.88,13.63
					c-0.2,0.51-0.42,1.01-0.65,1.51c-2.6,5.82-6.08,11.17-10.29,15.86c-0.36,0.41-0.73,0.82-1.11,1.22
					c-3.29,3.5-6.99,6.61-11.02,9.24c-0.46,0.31-0.91,0.6-1.38,0.89c-3.05,1.89-6.29,3.52-9.67,4.87c-0.5,0.2-1.01,0.39-1.53,0.58
					c-5.51,2.02-11.4,3.26-17.52,3.6c-0.55,0.03-1.1,0.06-1.65,0.07c-0.6,0.02-1.2,0.03-1.81,0.03c-7.67,0-15.24-1.43-22.3-4.19
					c-0.51-0.2-1.02-0.4-1.52-0.62c-2.47-1.04-4.87-2.24-7.19-3.6c-0.36-0.21-0.71-0.42-1.06-0.65c-0.47-0.28-0.93-0.57-1.39-0.88
					c-0.04-0.02-0.08-0.04-0.12-0.08c-6.67-4.36-12.43-10-16.93-16.55c-0.33-0.45-0.64-0.91-0.92-1.37c-0.57-0.84-1.09-1.7-1.6-2.57
					c-5.42-9.31-8.28-19.96-8.28-30.8c0-3.17,0.24-6.28,0.71-9.32c0.08-0.55,0.17-1.09,0.27-1.63c2.88-15.89,11.9-29.67,24.51-38.78
					c0.45-0.32,0.89-0.63,1.35-0.94c0.29-0.2,0.59-0.4,0.89-0.59c3.47-2.29,7.18-4.22,11.09-5.77c0.51-0.2,1.03-0.4,1.54-0.59
					c6.29-2.29,13.07-3.58,20.12-3.67c0.28-0.01,0.55-0.01,0.83-0.01c0.27,0,0.55,0,0.82,0.01c6.15,0.08,12.08,1.07,17.67,2.84
					c0.56,0.17,1.11,0.36,1.66,0.55c0.52,0.18,1.04,0.37,1.55,0.57c1.97,0.74,3.89,1.59,5.75,2.52c3.32,1.68,6.47,3.64,9.41,5.86
					c0.44,0.33,0.87,0.67,1.3,1.01c6.64,5.3,12.15,11.93,16.13,19.49c0.26,0.49,0.51,0.98,0.74,1.48c1.85,3.74,3.32,7.69,4.37,11.81
					c0.14,0.53,0.27,1.06,0.39,1.6c0.99,4.36,1.51,8.9,1.51,13.56c0,2.77-0.19,5.5-0.55,8.18
					C2465.63,1656.79,2465.55,1657.33,2465.46,1657.87z"/>
			</g>
			<g>
				<path class="st29" d="M2465.5,1634.37c-0.12-0.54-0.26-1.07-0.4-1.6c-1.08-4.19-2.58-8.21-4.47-12.01
					c-0.24-0.5-0.49-0.99-0.75-1.47c-4.04-7.64-9.61-14.35-16.3-19.71c-0.43-0.35-0.86-0.69-1.3-1.02
					c-2.99-2.28-6.19-4.29-9.57-6.01c-2.87-1.46-5.86-2.7-8.96-3.71h-0.01c-2.33-0.76-4.71-1.38-7.15-1.85
					c-3.51-0.71-7.13-1.11-10.82-1.18c-0.46-0.02-0.91-0.02-1.37-0.02h-0.28c-1.68,0.01-3.35,0.08-5,0.22
					c-5.38,0.45-10.58,1.58-15.49,3.32c-0.52,0.18-1.04,0.37-1.55,0.57c-3.76,1.43-7.34,3.21-10.71,5.32
					c-0.56,0.34-1.11,0.7-1.66,1.07c-0.46,0.3-0.91,0.61-1.36,0.93c-13.07,9.21-22.48,23.29-25.55,39.58
					c-0.11,0.54-0.21,1.09-0.29,1.63c-0.54,3.27-0.81,6.63-0.81,10.05c0,12.58,3.72,24.3,10.12,34.13c0.3,0.46,0.61,0.92,0.92,1.37
					c4.7,6.82,10.71,12.66,17.67,17.16c0.32,0.21,0.64,0.42,0.96,0.61c0.14,0.1,0.29,0.19,0.43,0.27c2.73,1.67,5.6,3.14,8.59,4.38
					c0.5,0.21,1.01,0.41,1.52,0.61c6.98,2.69,14.57,4.17,22.49,4.17c0.84,0,1.68-0.02,2.51-0.05c0.55-0.02,1.1-0.05,1.65-0.09
					c6.27-0.41,12.29-1.75,17.92-3.88c0.52-0.19,1.03-0.39,1.54-0.6c3.46-1.41,6.77-3.12,9.89-5.11c0.46-0.29,0.92-0.59,1.38-0.9
					c4.08-2.74,7.83-5.95,11.14-9.55c0.38-0.4,0.75-0.81,1.11-1.22c4.26-4.85,7.77-10.36,10.38-16.35c0.22-0.5,0.43-1,0.63-1.51
					c1.79-4.41,3.09-9.07,3.83-13.91c0.08-0.54,0.16-1.09,0.23-1.63c0.32-2.59,0.49-5.23,0.49-7.9
					C2467.1,1643.63,2466.55,1638.9,2465.5,1634.37z M2463.88,1657.64c-0.72,4.62-1.95,9.07-3.65,13.28
					c-0.21,0.51-0.42,1.01-0.64,1.51c-2.47,5.69-5.81,10.93-9.83,15.55c-0.36,0.41-0.73,0.82-1.11,1.23
					c-3.19,3.47-6.79,6.57-10.72,9.21c-0.46,0.31-0.92,0.61-1.38,0.9c-2.97,1.89-6.12,3.52-9.42,4.87c-0.51,0.21-1.02,0.41-1.54,0.6
					c-5.42,2.05-11.21,3.34-17.24,3.72c-0.54,0.05-1.1,0.08-1.65,0.09c-0.76,0.04-1.53,0.05-2.3,0.05c-7.59,0-14.85-1.41-21.54-3.99
					c-0.51-0.19-1.02-0.4-1.53-0.61c-2.84-1.18-5.58-2.58-8.18-4.17c-0.47-0.29-0.93-0.58-1.39-0.88c-0.13-0.08-0.26-0.16-0.39-0.26
					c-6.51-4.28-12.13-9.8-16.55-16.21c-0.31-0.45-0.62-0.91-0.91-1.37c-6.12-9.42-9.68-20.64-9.68-32.68
					c0-3.28,0.26-6.49,0.77-9.63c0.09-0.55,0.18-1.09,0.29-1.63c2.97-15.61,11.99-29.1,24.52-37.92c0.45-0.33,0.9-0.64,1.35-0.94
					c0.07-0.05,0.14-0.09,0.21-0.13c3.59-2.38,7.44-4.37,11.51-5.93c0.51-0.2,1.03-0.39,1.55-0.57c6.17-2.18,12.79-3.38,19.69-3.41
					h0.28c0.46,0,0.92,0.01,1.37,0.02c5.93,0.13,11.65,1.12,17.04,2.87c0.58,0.18,1.14,0.37,1.71,0.57
					c0.52,0.18,1.03,0.37,1.54,0.58c1.92,0.74,3.8,1.58,5.62,2.51c3.15,1.61,6.14,3.48,8.94,5.61c0.44,0.32,0.87,0.66,1.3,1.01
					c6.45,5.15,11.81,11.6,15.7,18.94c0.26,0.49,0.51,0.98,0.75,1.47c1.77,3.58,3.2,7.36,4.23,11.3c0.14,0.53,0.28,1.06,0.4,1.6
					c1.03,4.39,1.57,8.97,1.57,13.68c0,2.55-0.16,5.07-0.47,7.53C2464.03,1656.56,2463.96,1657.1,2463.88,1657.64z"/>
			</g>
		</g>
		<path class="st26" d="M2589.22,1480.83c0,0,15.06,23.87-3.55,36.99s-81.24,19.4-78.17,21.95c9.39,7.79,17.93,19.77,17.48,91.48
			l-4.64,2.4c0,0-44.67-97.17-41.67-108.75C2480.65,1517.24,2545.8,1475.75,2589.22,1480.83z"/>
		<path class="st28" d="M2553.1,1530.49c0,0,37.95-6.29,41.87-19.69c2.92-10.01,3.79-14.09-13.41-46.43c0,0-7.19,13.66-44.7,10.49
			c0,0,0.19,1.77,0.19,4.17c-0.05,3.98-0.67,9.63-3.79,11.26c-0.05,0.05-0.14,0.05-0.19,0.1c-4.94,2.25-12.58,6.79-13.73,7.23
			C2519.3,1497.62,2542.37,1502.04,2553.1,1530.49z"/>
		<path class="st23" d="M2533.27,1490.3c16.72-4.93,33.06-4.42,42.68-13.41c-14.18-3.64-31.23,2.15-38.9,2.15
			C2537,1483.01,2536.38,1488.67,2533.27,1490.3z"/>
		<g>
			<path class="st29" d="M2531.27,1634.74l-3.91,1.88c-1.41,0.42-2.56,0.51-3.99,0.98c-2.17,0.71-2.71,2-2.8,2.28
				c-0.01,0.04-0.02,0.06-0.02,0.06l-16.61,7.98c-0.7-0.4-0.97-1.97-1.06-3.18c-0.07-0.82,0.26-1.62,0.87-2.17
				c1.52-1.36,4.77-3.48,6.57-7.89c1.01-2.48,5.79-10.1,5.79-10.1l0.03-0.03c0.15-0.07,0.97-0.19,5.35,0.94
				c2.26,0.58,3.44-4.01,3.44-4.01s0.72,0.18,1.49,0.79c0.61,0.48,1.25,1.23,1.58,2.38c0.47,1.62,2.61,4.01,4.15,5.59
				c0.94,0.95,1.65,1.61,1.65,1.61S2534.43,1632.7,2531.27,1634.74z"/>
			<path class="st30" d="M2526.41,1622.28c-0.62,1.11-1.97,3.35-3.19,4.15c-1.65,1.08-7.12-1.84-7.12-1.84l0.03-0.03
				c0.15-0.07,0.97-0.19,5.35,0.94c2.26,0.58,3.44-4.01,3.44-4.01S2525.65,1621.67,2526.41,1622.28z"/>
			<path class="st30" d="M2531.27,1634.74l-3.91,1.88c-1.41,0.42-2.56,0.51-3.99,0.98c-2.17,0.71-2.71,2-2.8,2.28
				c-0.01,0.04-0.02,0.06-0.02,0.06l-16.61,7.98c-0.7-0.4-0.97-1.97-1.06-3.18c0.29-0.69,1.58,1.64,2.04,1.89
				c0.46,0.25,13.62-6.37,14.12-7.3c0.5-0.93,2.33-3.01,5.9-3.78c3.11-0.67,6.4-4.36,7.2-5.3c0.94,0.95,1.65,1.61,1.65,1.61
				S2534.43,1632.7,2531.27,1634.74z"/>
		</g>
		<path class="st28" d="M2436.85,1555.86c1.06-2.66,3.54-4.32,6.22-4.49c30.73-70.59,31.06-71.15,31.52-71.91l4.44,8.8
			c0.24-0.38-69.5,156.4-69.5,156.4l-6.86-2.8L2436.85,1555.86z"/>
		<path class="st22" d="M2510.13,1489.98c1.46-4.91-1.34-10.07-6.25-11.53c-4.91-1.46-10.07,1.34-11.53,6.25s1.34,10.07,6.25,11.53
			C2503.51,1497.68,2508.67,1494.89,2510.13,1489.98z"/>
		<path class="st22" d="M2452.72,1473.75c1.46-4.91-1.34-10.07-6.25-11.53s-10.07,1.34-11.53,6.25c-1.46,4.91,1.34,10.07,6.25,11.53
			S2451.26,1478.66,2452.72,1473.75z"/>
		<g>
			<polygon class="st22" points="2445.78,1479.98 2499.77,1493.53 2500.71,1482.63 2446.71,1469.08 			"/>
		</g>
		<path class="st26" d="M2498.55,1469.22c0,0-5.08,3.33-8.68,3.18c-3.59-0.15-8.16,1.35-8.16,1.35s-4.79,1.42-5.24,7.11
			c0,0,0.02,1.65,7.56-0.67c1.65-0.51,5.62,0.45,6.96,0c1.35-0.45,5.44-4.87,9.01-4.76L2498.55,1469.22z"/>
		<path class="st21" d="M2471.35,1462.78c0,0-5.08,3.33-8.68,3.18c-3.59-0.15-8.16,1.35-8.16,1.35s-4.79,1.42-5.24,7.11
			c0,0,0.1,2.34,7.56-0.67c2.05-0.83,5.62,0.45,6.96,0s6.29-4.24,9.71-5.18L2471.35,1462.78z"/>
		<path class="st23" d="M2535.4,1326.28c7.42,1.34,10.86,5.35,15.57,16.78c4.91,11.93-1.04,22.91-5.77,21.48
			c-3.04-0.92-4.1,4.28-4.1,4.28l-28.88-25.23C2512.22,1343.59,2516.43,1325.06,2535.4,1326.28z"/>
		<path class="st21" d="M2518.49,1395.08c0,0,10.06,5.66,8.88,20c-1.18,14.34-14.34,36.94-24.35,42.55
			c-7.92,4.44-30.84,11.38-30.84,11.38l-0.82-6.22c0,0,18.65-12.18,22.68-16.33C2502.69,1437.53,2510.93,1391.61,2518.49,1395.08z"
			/>
		<path class="st26" d="M2519.49,1427.32c0.46,3.23,1.31,6.01,2.36,8.66c0.88,2.21,1.89,4.33,2.93,6.53
			c3.06,6.47,10.25,9.65,10.5,22.08c0.08,4.28,36.26-13.81,36.47-28.78c0-0.04,0.01-0.08,0.01-0.12c0.06-0.73,0.16-2.67,0.27-5.24
			c0.27-6.28,0.63-16.31,0.75-21.38c0-0.12,0-0.24,0.01-0.35c0.05-2.17,0.12-3.75,0.2-4.16c-4.84-20.6-15.98-20.69-19.79-20.63
			c-0.5,0.01-1.01,0.03-1.52,0.05c-2.09,0.1-4.07-0.9-5.27-2.61c-2.13-3.02-4.52-8.23-5.98-15.34l-0.87,0.37l-14.6,6.21
			c0,0,1.35,4.72,2.31,9.24c0.41,1.93,0.74,3.82,0.87,5.29c0.12,1.41-0.7,2.73-2.02,3.24l0,0c0,0,0,0,0,0.01
			C2525.87,1390.98,2517.16,1410.93,2519.49,1427.32z"/>
		<path class="st21" d="M2521.85,1435.98c0.88,2.21,1.89,4.33,2.93,6.53c3.06,6.47,10.25,9.65,10.5,22.08
			c0.22,0.02,0.44,0.04,0.67,0.06c26.71,2.09,35.81-28.96,35.81-28.96c0.06-0.73,0.16-2.67,0.27-5.24l-48.2,0.08
			C2523.84,1430.53,2522.85,1432.72,2521.85,1435.98z"/>
		<path class="st5" d="M2515.07,1421.27c0.13,0.4,0.29,0.8,0.45,1.2c4.63,11.04,14.86,67.83,14.86,67.83
			c0.12-0.07,41.79,2.73,58.31-20.05c0.81,2.41-3.1-11.48-9.19-30.14c-4.57-14-6.9-23.88-6.72-31.03c0-0.12,0-0.24,0.01-0.35
			c-1.06-0.85-2.1-1.64-3.05-2.39c-3.07-2.42-5.35-4.47-5.4-6.99c-0.02-0.99,0.05-2.01,0.19-3.03c0.07-0.48,0.14-0.96,0.24-1.43
			c0.97-5.02,3.24-9.51,3.24-9.51c-5.25-2.36-14.79-1.43-14.79-1.43s-3.58,8-11.19,12.77c-2.13,1.33-9.75,4.68-13.5,1.2
			c-2.48-2.3-2.55-7.02-2.4-7.51c0-0.01,0-0.01,0-0.01c-8.64,3.02-11.79,5.71-11.79,5.71
			C2519.35,1399.62,2511.5,1410.6,2515.07,1421.27z"/>
		<path class="st21" d="M2524.97,1372.62c0,0,1.35,4.72,2.31,9.24c8.48-2.03,11.35-10.75,12.3-15.44L2524.97,1372.62z"/>
		<path class="st26" d="M2523.02,1377.49c0,0,20.24-3.89,17.62-16.46c-2.62-12.57-1.77-21.53-14.8-19.58
			c-13.03,1.95-14.54,7.27-14.68,11.68S2517.69,1378.18,2523.02,1377.49z"/>
		<path class="st23" d="M2510.29,1346.02c2.33-4.43,4.86-4.1,6.42-3.24c9.76-8.37,18.74-0.9,18.74-0.9
			c3.24,8.73,10.82,12.54,10.82,12.54s-3.2,3.04-12.13,2.64c-2.73-0.12-5.43-1.48-7.86-3.3c4.63,5.03,10.17,8.2,10.17,8.2
			c-11.1-2.56-18.12-15.79-18.83-17.19c-1,1.36-2.92,4.27-3.17,6.78c-0.33,3.41,0.59,10.09-1.38,10.27
			C2513.06,1361.81,2506.8,1352.66,2510.29,1346.02z"/>
		<path class="st26" d="M2498.55,1469.22l1.45,6.21c0,0,33.96-4.64,45.06-11.1c11.1-6.46,27.91-44.44,29.23-60.5
			c0.07-0.85,0.12-1.67,0.13-2.44c0.4-13.87-6.42-16.02-6.42-16.02c-2.73-1.25-6.13,3.43-9.73,10.75
			c-7.55,15.36-15.98,42.32-20.99,50.3C2533.44,1452.55,2498.55,1469.22,2498.55,1469.22z"/>
		<path class="st5" d="M2558.28,1396.12c9.31-2.2,16.15,5.27,16.15,5.27c0.4-13.87-6.42-16.02-6.42-16.02
			C2565.27,1384.12,2561.88,1388.8,2558.28,1396.12z"/>
		<path class="st5" d="M2514.34,1396.1c0,0-3.41,3.16-4.71,10.35c0,0,5.04,0.03,7.38,4.95
			C2517.02,1411.4,2518.87,1396.88,2514.34,1396.1z"/>
		<path class="st23" d="M2534,1330.78c0,0,11.19-13.86,25.3-9.97c14.11,3.89,22.14,20.19,28.7,17.51
			c11.01-4.5,14.06,10.27,9.67,21.02c-3.84,9.39-20.43,12.96-30.47,2.68c-7.32-7.49-17.38-39.51-29.78-28.81
			S2534,1330.78,2534,1330.78z"/>
	</g>
	<path class="st32" d="M2868.12,1721.81v1.06c0,1.69-1.38,3.08-3.08,3.08H150.95c-1.7,0-3.09-1.39-3.09-3.08v-1.06
		c0-1.69,1.39-3.08,3.09-3.08h2714.09C2866.74,1718.73,2868.12,1720.12,2868.12,1721.81z"/>
	<polygon class="st18" points="983.41,1543.97 992.86,1536.65 975.8,1536.64 	"/>
	<polygon class="st18" points="1449.76,1599.91 1456.25,1594.89 1434.73,1594.89 	"/>
</g>
</svg>
