<svg xmlns="http://www.w3.org/2000/svg" xmlns:xlink="http://www.w3.org/1999/xlink" viewBox="0 0 500 500" xmlns:v="https://vecta.io/nano"><style><![CDATA[.h{stroke:#fff}.i{enable-background:new}.j{fill:#fff}.k{opacity:.2}.l{fill:#407bff}.m{stroke-width:.5}.n{fill:#263238}.o{fill:#fafafa}.p{opacity:.6}.q{stroke-miterlimit:10}.r{fill:#ebebeb}.s{opacity:.4}.t{fill:#f5f5f5}.u{fill:none}.v{opacity:.3}.w{fill:#e6e6e6}.x{fill:#b97964}.y{fill:#f0f0f0}.z{opacity:.1}.AA{stroke-linecap:round}.AB{stroke-linejoin:round}.AC{stroke:#263238}]]></style><path d="M0 382.4h500v.25H0zm416.78 16.09h33.12v.25h-33.12zm-94.25 2.72h8.69v.25h-8.69zm74.06-12h19.19v.25h-19.19zm-344.13 1.68h43.19v.25H52.46zm52.1 0h6.33v.25h-6.33zm26.91 4.22h93.68v.25h-93.68zm105.54-57.31H43.92c-3.15 0-5.71-2.56-5.71-5.71V60.66c0-3.15 2.56-5.71 5.71-5.71h193.1c3.15 0 5.71 2.56 5.71 5.71v271.43a5.73 5.73 0 0 1-5.72 5.71zM43.92 55.2a5.47 5.47 0 0 0-5.46 5.46v271.43a5.47 5.47 0 0 0 5.46 5.46h193.1a5.47 5.47 0 0 0 5.46-5.46V60.66a5.47 5.47 0 0 0-5.46-5.46H43.92zm409.39 282.6h-193.1c-3.15 0-5.71-2.56-5.71-5.71V60.66c0-3.15 2.56-5.71 5.71-5.71h193.1c3.15 0 5.71 2.56 5.71 5.71v271.43c0 3.15-2.56 5.71-5.71 5.71zM260.21 55.2a5.47 5.47 0 0 0-5.46 5.46v271.43a5.47 5.47 0 0 0 5.46 5.46h193.1a5.47 5.47 0 0 0 5.46-5.46V60.66a5.47 5.47 0 0 0-5.46-5.46h-193.1z" class="r"/><g fill="#e0e0e0"><path d="M380.14 284.18v15.47l6.54 4.76h-30.52l9.75-3.62v-15.53z"/><path d="M317.42 293.42h101.99a3.53 3.53 0 0 0 3.53-3.53v-58.83a3.53 3.53 0 0 0-3.53-3.53H317.42a3.53 3.53 0 0 0-3.53 3.53v58.83a3.53 3.53 0 0 0 3.53 3.53z"/></g><path d="M314.86 293.42h101.99a3.53 3.53 0 0 0 3.53-3.53v-58.83a3.53 3.53 0 0 0-3.53-3.53H314.86a3.53 3.53 0 0 0-3.53 3.53v58.83a3.53 3.53 0 0 0 3.53 3.53z" class="w"/><path d="M417.173 230.733v59.49h-102.64v-59.49z" class="y"/><path d="M284.456 316.218h-93.58v-188.16h93.58z" class="o"/><g class="y"><path d="M286.615 134.734h-97.9v-9.23h97.9z"/><use xlink:href="#B"/><use xlink:href="#B" y="6.854"/><use xlink:href="#B" y="13.708"/><use xlink:href="#B" y="20.561"/><use xlink:href="#B" y="27.415"/><use xlink:href="#B" y="34.259"/><use xlink:href="#B" y="41.113"/><use xlink:href="#B" y="47.966"/><use xlink:href="#B" y="54.82"/><use xlink:href="#B" y="61.674"/><use xlink:href="#B" y="68.518"/><use xlink:href="#B" y="75.371"/><use xlink:href="#B" y="82.225"/><use xlink:href="#B" y="89.079"/><use xlink:href="#B" y="95.933"/><use xlink:href="#B" y="102.787"/><use xlink:href="#B" y="109.63"/><use xlink:href="#B" y="116.484"/><use xlink:href="#B" y="123.338"/><use xlink:href="#B" y="130.192"/><use xlink:href="#B" y="137.045"/><use xlink:href="#B" y="143.889"/><use xlink:href="#B" y="150.743"/><use xlink:href="#B" y="157.597"/><use xlink:href="#B" y="164.45"/><use xlink:href="#B" y="171.304"/><use xlink:href="#B" y="178.148"/></g><path d="M168.32 316.218H74.74v-188.16h93.58z" class="o"/><g class="y"><path d="M170.48 134.734h-97.9v-9.23h97.9z"/><use xlink:href="#C"/><use xlink:href="#C" y="1.935"/><use xlink:href="#C" y="3.861"/><use xlink:href="#C" y="5.787"/><use xlink:href="#C" y="7.712"/><use xlink:href="#C" y="9.638"/><use xlink:href="#C" y="11.574"/><use xlink:href="#C" y="13.499"/><use xlink:href="#C" y="15.425"/><use xlink:href="#C" y="17.351"/><use xlink:href="#C" y="19.276"/><use xlink:href="#C" y="21.212"/><use xlink:href="#C" y="23.138"/><use xlink:href="#C" y="25.063"/><use xlink:href="#C" y="26.989"/><use xlink:href="#C" y="28.925"/><use xlink:href="#C" y="30.85"/><use xlink:href="#C" y="32.776"/><path d="M165.64 99.09c0 7.71 6.25 13.95 13.95 13.95 7.71 0 13.95-6.25 13.95-13.95a13.96 13.96 0 0 0-13.95-13.96 13.96 13.96 0 0 0-13.95 13.96z"/></g><path d="M167.73 99.09c0 6.55 5.31 11.87 11.87 11.87 6.55 0 11.87-5.31 11.87-11.87 0-6.55-5.31-11.87-11.87-11.87a11.88 11.88 0 0 0-11.87 11.87z" class="o"/><path d="M180.16 90.95v8.29l5.5-3.11" stroke="#e0e0e0" stroke-width="2" class="q u AA AB"/><path d="M361.88 309.02h58.86v63.35h-58.86zm60.45-4.71h7.4v76.29h-7.4z" class="w"/><path d="M371.25 314.01h4.82v23.67h-4.82z" class="o"/><path d="M391.25 314.01h4.82v23.67h-4.82zm-15.17 1.66h4.82v22.01h-4.82z" class="t"/><path d="M386.43 315.67h4.82v22.01h-4.82z" class="o"/><path d="M383.31 314.01h3.12v23.67h-3.12z" class="r"/><path d="M380.9 315.67h2.41v22.01h-2.41z" class="o"/><path d="M396.07 314.01h4.82v23.67h-4.82z" class="r"/><path d="M400.89 315.67h4.82v22.01h-4.82zm10.35 0h4.82v22.01h-4.82z" class="w"/><path d="M408.13 314.01h3.12v23.67h-3.12z" class="o"/><path d="M405.72 315.67h2.41v22.01h-2.41z" class="r"/><path d="M416.07 314.57h2.41v23.11h-2.41zm2.404 54.843h-4.82v-23.67h4.82zm-19.992 0h-4.82v-23.67h4.82z" class="o"/><path d="M413.659 369.417h-4.82v-22.01h4.82z" class="y"/><path d="M403.308 369.417h-4.82v-22.01h4.82z" class="r"/><path d="M406.417 369.413h-3.12v-23.67h3.12z" class="o"/><path d="M408.835 369.417h-2.41v-22.01h2.41z" class="t"/><path d="M393.657 369.413h-4.82v-23.67h4.82z" class="r"/><path d="M388.842 369.417h-4.82v-22.01h4.82z" class="t"/><path d="M378.491 369.417h-4.82v-22.01h4.82z" class="w"/><path d="M381.6 369.413h-3.12v-23.67h3.12zm-10.351 0h-3.12v-23.67h3.12z" class="o"/><path d="M384.018 369.417h-2.41v-22.01h2.41z" class="r"/><g class="y"><path d="M373.667 369.414h-2.41v-23.11h2.41z"/><path d="M420.45 304.31h-1.97-58.45v72.01h58.45v4.27h3.95V304.3h-1.98zm-1.98 65.1h-54.73v-27.76h54.73v27.76zm0-31.7h-54.73v-26.5h54.73v26.5z"/></g><path d="M361.786 372.375h-58.86v-63.35h58.86zm-49.193 8.223h-7.4v-5.05h7.4z" class="w"/><path d="M359.806 337.681h-4.82v-23.67h4.82z" class="o"/><path d="M339.804 337.681h-4.82v-23.67h4.82zm15.177.004h-4.82v-22.01h4.82z" class="t"/><path d="M344.63 337.685h-4.82v-22.01h4.82z" class="o"/><path d="M347.749 337.681h-3.12v-23.67h3.12z" class="r"/><path d="M350.157 337.685h-2.41v-22.01h2.41z" class="o"/><path d="M338.167 337.681h-4.82v-23.67h4.82z" class="r"/><path d="M333.342 337.685h-4.82v-22.01h4.82zm-10.351 0h-4.82v-22.01h4.82z" class="w"/><path d="M326.111 337.681h-3.12v-23.67h3.12z" class="o"/><path d="M328.518 337.685h-2.41v-22.01h2.41z" class="r"/><path d="M318.167 337.682h-2.41v-23.11h2.41z" class="t"/><path d="M313.49 345.74h4.82v23.67h-4.82zm20 0h4.82v23.67h-4.82z" class="o"/><path d="M318.32 347.4h4.82v22.01h-4.82z" class="t"/><path d="M328.67 347.4h4.82v22.01h-4.82z" class="r"/><path d="M325.55 345.74h3.12v23.67h-3.12z" class="o"/><path d="M323.14 347.4h2.41v22.01h-2.41z" class="t"/><path d="M335.13 345.74h4.82v23.67h-4.82z" class="r"/><path d="M339.95 347.4h4.82v22.01h-4.82z" class="t"/><path d="M350.3 347.4h4.82v22.01h-4.82z" class="w"/><path d="M347.19 345.74h3.12v23.67h-3.12zm9.71 0h3.12v23.67h-3.12z" class="o"/><path d="M344.78 347.4h2.41v22.01h-2.41zm10.35-1.1h2.41v23.11h-2.41z" class="r"/><path d="M301.25 304.31v76.29h3.95v-4.27h58.45v-72.01H305.2h-1.97-1.98zm3.95 37.34h54.73v27.76H305.2v-27.76zm0-30.44h54.73v26.5H305.2v-26.5z" class="y"/><ellipse cx="250" cy="416.24" rx="193.89" ry="11.32" class="t"/><g stroke="#407bff" class="q u"><path d="M387.08 350.19s6.21-5.18 11.53 0 6.35 37.24 6.35 37.24m.44 6.19s-3.66-37.63 10.12-53.45"/><path d="M404.09 389.65s2.82-42.84-7.52-52.34m8.83 52.34s.24-28.31 7.92-32.71 11.59 9.95 11.59 9.95"/><path d="M402.37 389.65s1.25-21.73-4.7-29.5-12.21 3.33-12.21 3.33m18.98 29.08s-3.85-50.82 2.52-59.44"/></g><use xlink:href="#D" class="l"/><use xlink:href="#D" class="i j k"/><use xlink:href="#E" class="l"/><use xlink:href="#E" class="i j k"/><use xlink:href="#F" class="l"/><use xlink:href="#F" class="i j k"/><use xlink:href="#G" class="l"/><use xlink:href="#G" class="i j k"/><use xlink:href="#H" class="l"/><use xlink:href="#H" class="i j k"/><use xlink:href="#I" class="l"/><use xlink:href="#I" class="i j k"/><use xlink:href="#J" class="l"/><use xlink:href="#J" class="i j k"/><use xlink:href="#K" class="l"/><use xlink:href="#K" class="i j k"/><g class="n"><path d="M420.61 416.93h-30.77l-3.32-33.69h37.41z"/><path d="M384.88 379.53h40.69v7.43h-40.69z"/></g><path d="M384.88 379.53h40.69v7.43h-40.69z" class="i j k"/><path d="M399.6 315.92V100.8c0-1.99-1.62-3.61-3.61-3.61H274.48c-1.99 0-3.61 1.62-3.61 3.61v43.18a1.25 1.25 0 0 1-1.25 1.25h-6.77c-1.35 0-2.45 1.1-2.45 2.45v33.28c0 1.35 1.1 2.45 2.45 2.45h6.77a1.25 1.25 0 0 1 1.25 1.25v8.56a1.25 1.25 0 0 1-1.25 1.25h-6.77c-1.35 0-2.45 1.1-2.45 2.45v46.83c0 1.35 1.1 2.45 2.45 2.45h6.77a1.25 1.25 0 0 1 1.25 1.25v68.47H399.6z" class="l"/><path d="M313.66 245.86h8.02l53.15-53.15v-17.42h18.09V103.5h-42.77v71.78h19.15v15.13l-49.92 49.92h-5.73v-43.07h-33.92v93.95h33.92v-45.35zm51.33-115.81a6.69 6.69 0 0 1 6.69-6.69 6.7 6.7 0 0 1 6.69 6.69 6.69 6.69 0 0 1-6.69 6.69 6.7 6.7 0 0 1-6.69-6.69zm0 17.48a6.69 6.69 0 0 1 6.69-6.69 6.7 6.7 0 0 1 6.69 6.69 6.69 6.69 0 1 1-13.38 0zm-74.98 63.85a6.69 6.69 0 0 1 13.38 0 6.7 6.7 0 0 1-6.69 6.69 6.69 6.69 0 0 1-6.69-6.69zm0 17.48a6.69 6.69 0 0 1 13.38 0 6.69 6.69 0 0 1-6.69 6.69c-3.69.01-6.69-2.99-6.69-6.69zm-7.45 36.84c0-7.81 6.33-14.15 14.15-14.15 7.81 0 14.15 6.33 14.15 14.15 0 7.81-6.33 14.15-14.15 14.15a14.16 14.16 0 0 1-14.15-14.15z" class="i k"/><path d="M348.469 172.162v9.2h-20.04v-9.2zm-30.562 23.529v45.72h-7.06v-45.72zm13.592-31.401v5.85h-39.23v-5.85z" class="n"/><path d="M399.624 300.251v14.86h-128.76v-14.86z" class="i k"/><path d="M411.86 313.07h-27.1v-9.03h-24.7v9.03h-33.91v-9.03h-24.7v9.03h-46.01v4.08h156.42z" class="n"/><g class="j i"><path d="M411.86 313.07h-27.1v-9.03h-24.7v9.03h-33.91v-9.03h-24.7v9.03h-46.01v4.08h156.42z" opacity=".5"/><path d="M377.22 130.05a5.54 5.54 0 1 0-11.08 0 5.54 5.54 0 0 0 5.54 5.54 5.55 5.55 0 0 0 5.54-5.54zm-9.97 0a4.44 4.44 0 0 1 4.43-4.43 4.44 4.44 0 0 1 4.43 4.43 4.44 4.44 0 0 1-4.43 4.43 4.44 4.44 0 0 1-4.43-4.43z" class="p"/></g><path d="M371.68 133.87a3.82 3.82 0 0 1 0-7.64 3.82 3.82 0 0 1 3.82 3.82c.01 2.11-1.71 3.82-3.82 3.82z" class="n"/><g class="j i"><path d="M371.68 132.62a2.57 2.57 0 0 1 0-5.14 2.57 2.57 0 0 1 0 5.14z" class="k"/><use xlink:href="#L" class="p"/></g><path d="M371.68 151.35a3.82 3.82 0 0 1 0-7.64 3.82 3.82 0 1 1 0 7.64z" class="n"/><g class="j i"><path d="M371.68 150.1a2.57 2.57 0 0 1 0-5.14 2.57 2.57 0 0 1 0 5.14z" class="k"/><use xlink:href="#L" x="-74.98" y="63.85" class="p"/></g><path d="M296.7 215.21a3.82 3.82 0 0 1 0-7.64 3.82 3.82 0 0 1 3.82 3.82c0 2.11-1.7 3.82-3.82 3.82z" class="n"/><g class="j i"><path d="M296.7 213.95a2.57 2.57 0 0 1 0-5.14 2.57 2.57 0 1 1 0 5.14z" class="k"/><path d="M302.24 228.86a5.54 5.54 0 1 0-11.08 0 5.54 5.54 0 1 0 11.08 0zm-9.97 0a4.44 4.44 0 0 1 4.43-4.43 4.44 4.44 0 0 1 4.43 4.43 4.44 4.44 0 0 1-4.43 4.43c-2.44 0-4.43-1.98-4.43-4.43z" class="p"/></g><path d="M296.7 232.69a3.82 3.82 0 0 1 0-7.64 3.82 3.82 0 0 1 3.82 3.82c.01 2.11-1.7 3.82-3.82 3.82z" class="n"/><g class="j i"><path d="M296.7 231.43a2.57 2.57 0 0 1 0-5.14 2.57 2.57 0 1 1 0 5.14z" class="k"/><path d="M309.5 265.7a12.8 12.8 0 1 0-25.6 0 12.8 12.8 0 1 0 25.6 0zm-23.04 0c0-5.65 4.6-10.25 10.25-10.25a10.26 10.26 0 0 1 10.24 10.25c0 5.65-4.6 10.24-10.24 10.24-5.66 0-10.25-4.59-10.25-10.24z" class="p"/></g><circle transform="matrix(.7071 -.7071 .7071 .7071 -100.9737 287.6217)" cx="296.7" cy="265.7" r="8.84" class="n"/><g class="j i"><path d="M296.7 271.63a5.94 5.94 0 0 1 0-11.88 5.94 5.94 0 0 1 5.94 5.94c0 3.29-2.66 5.94-5.94 5.94z" class="k"/><path d="M391.26 223.02a12.8 12.8 0 1 0-25.6 0 12.8 12.8 0 0 0 12.8 12.8 12.81 12.81 0 0 0 12.8-12.8zm-23.04 0c0-5.65 4.6-10.25 10.25-10.25a10.26 10.26 0 0 1 10.24 10.25c0 5.65-4.6 10.24-10.24 10.24a10.26 10.26 0 0 1-10.25-10.24z" class="p"/></g><circle transform="matrix(.2298 -.9732 .9732 .2298 74.4594 540.1157)" cx="378.46" cy="223.02" r="8.84" class="n"/><g class="j i"><path d="M378.46 228.95a5.94 5.94 0 0 1 0-11.88 5.94 5.94 0 0 1 0 11.88z" class="k"/><path d="M331.4 119.87h-39.05v39.05h39.05v-39.05zm-37.39 37.38v-35.73h35.73v35.73h-35.73z"/></g><use xlink:href="#M" class="n"/><path d="M297.95 125.39h27.84c.04 0 .08.03.08.08v27.84c0 .04-.03.08-.08.08h-27.84c-.04 0-.08-.03-.08-.08v-27.84c.01-.05.04-.08.08-.08z" class="i j k"/><g class="l"><use xlink:href="#N"/><use xlink:href="#O"/><use xlink:href="#P"/><use xlink:href="#P" y="2.11"/><use xlink:href="#N" y="8.45"/><use xlink:href="#O" y="8.45"/><use xlink:href="#P" y="8.45"/><use xlink:href="#P" y="10.56"/><use xlink:href="#N" y="16.9"/><path d="M329.03 145.97h1.87v-.48h-1.87v-.4h-1.92v1.27h1.92z"/><use xlink:href="#P" y="16.9"/><use xlink:href="#P" y="19.01"/><use xlink:href="#N" y="25.35"/></g><g class="i j v"><use xlink:href="#N"/><use xlink:href="#O"/><use xlink:href="#P"/><use xlink:href="#P" y="2.11"/><use xlink:href="#N" y="8.45"/><use xlink:href="#O" y="8.45"/><use xlink:href="#P" y="8.45"/><use xlink:href="#P" y="10.56"/><use xlink:href="#N" y="16.9"/><path d="M329.03 145.97h1.87v-.48h-1.87v-.4h-1.92v1.27h1.92z"/><use xlink:href="#P" y="16.9"/><use xlink:href="#P" y="19.01"/><use xlink:href="#N" y="25.35"/></g><g class="l"><use xlink:href="#Q"/><use xlink:href="#R"/><use xlink:href="#R" y="-2.11"/><use xlink:href="#S"/><use xlink:href="#Q" y="-8.45"/><use xlink:href="#R" y="-8.45"/><use xlink:href="#R" y="-10.56"/><use xlink:href="#T"/><use xlink:href="#Q" y="-16.9"/><use xlink:href="#R" y="-16.9"/><use xlink:href="#R" y="-19.01"/><use xlink:href="#T" y="-8.45"/><use xlink:href="#Q" y="-25.35"/></g><g class="i j v"><use xlink:href="#Q"/><use xlink:href="#R"/><use xlink:href="#R" y="-2.11"/><use xlink:href="#S"/><use xlink:href="#Q" y="-8.45"/><use xlink:href="#R" y="-8.45"/><use xlink:href="#R" y="-10.56"/><use xlink:href="#T"/><use xlink:href="#Q" y="-16.9"/><use xlink:href="#R" y="-16.9"/><use xlink:href="#R" y="-19.01"/><use xlink:href="#T" y="-8.45"/><use xlink:href="#Q" y="-25.35"/></g><g class="l"><use xlink:href="#U"/><use xlink:href="#U" x="-2.11"/><use xlink:href="#V"/><path d="M317.98 156.55v1.86h.47v-1.86h.4v-1.93h-1.27v1.93z"/><use xlink:href="#U" x="-8.45"/><use xlink:href="#U" x="-10.56"/><use xlink:href="#V" x="-8.45"/><use xlink:href="#W"/><use xlink:href="#U" x="-16.9"/><use xlink:href="#U" x="-19.01"/><use xlink:href="#V" x="-16.9"/><use xlink:href="#W" x="-8.45"/><use xlink:href="#U" x="-25.35"/></g><g class="i j v"><use xlink:href="#U"/><use xlink:href="#U" x="-2.11"/><use xlink:href="#V"/><path d="M317.98 156.55v1.86h.47v-1.86h.4v-1.93h-1.27v1.93z"/><use xlink:href="#U" x="-8.45"/><use xlink:href="#U" x="-10.56"/><use xlink:href="#V" x="-8.45"/><use xlink:href="#W"/><use xlink:href="#U" x="-16.9"/><use xlink:href="#U" x="-19.01"/><use xlink:href="#V" x="-16.9"/><use xlink:href="#W" x="-8.45"/><use xlink:href="#U" x="-25.35"/></g><g class="l"><use xlink:href="#X"/><use xlink:href="#Y"/><use xlink:href="#Z"/><use xlink:href="#X" x="6.34"/><use xlink:href="#X" x="8.45"/><use xlink:href="#Y" x="8.45"/><use xlink:href="#Z" x="8.45"/><use xlink:href="#X" x="14.79"/><use xlink:href="#X" x="16.9"/><use xlink:href="#a"/><use xlink:href="#Z" x="16.9"/><use xlink:href="#X" x="23.24"/><use xlink:href="#X" x="25.35"/></g><g class="i j v"><use xlink:href="#X"/><use xlink:href="#Y"/><use xlink:href="#Z"/><use xlink:href="#X" x="6.34"/><use xlink:href="#X" x="8.45"/><use xlink:href="#Y" x="8.45"/><use xlink:href="#Z" x="8.45"/><use xlink:href="#X" x="14.79"/><use xlink:href="#X" x="16.9"/><use xlink:href="#a"/><use xlink:href="#Z" x="16.9"/><use xlink:href="#X" x="23.24"/><use xlink:href="#X" x="25.35"/></g><path d="M384.67 243.86h-39.05v39.05h39.05v-39.05zm-37.39 37.39v-35.73h35.73v35.73h-35.73z" class="i j"/><use xlink:href="#M" x="53.27" y="124" class="n"/><path d="M351.23 249.39h27.84c.04 0 .08.03.08.08v27.84c0 .04-.03.08-.08.08h-27.84c-.04 0-.08-.03-.08-.08v-27.84c0-.05.04-.08.08-.08z" class="i j k"/><g class="l"><use xlink:href="#b"/><use xlink:href="#c"/><use xlink:href="#d"/><use xlink:href="#b" y="6.34"/><use xlink:href="#b" y="8.45"/><use xlink:href="#c" y="8.45"/><use xlink:href="#d" y="8.45"/><use xlink:href="#b" y="14.79"/><use xlink:href="#b" y="16.9"/><use xlink:href="#c" y="16.9"/><use xlink:href="#d" y="16.9"/><use xlink:href="#b" y="23.24"/><use xlink:href="#b" y="25.35"/></g><g class="i j v"><use xlink:href="#b"/><use xlink:href="#c"/><use xlink:href="#d"/><use xlink:href="#b" y="6.34"/><use xlink:href="#b" y="8.45"/><use xlink:href="#c" y="8.45"/><use xlink:href="#d" y="8.45"/><use xlink:href="#b" y="14.79"/><use xlink:href="#b" y="16.9"/><use xlink:href="#c" y="16.9"/><use xlink:href="#d" y="16.9"/><use xlink:href="#b" y="23.24"/><use xlink:href="#b" y="25.35"/></g><g class="l"><use xlink:href="#R" x="53.27" y="126.11"/><use xlink:href="#R" x="53.27" y="124"/><use xlink:href="#S" x="53.27" y="126.11"/><use xlink:href="#T" x="53.27" y="132.45"/><use xlink:href="#R" x="53.27" y="117.66"/><use xlink:href="#R" x="53.27" y="115.55"/><use xlink:href="#S" x="53.27" y="117.66"/><use xlink:href="#T" x="53.27" y="124"/><use xlink:href="#R" x="53.27" y="109.21"/><use xlink:href="#R" x="53.27" y="107.1"/><use xlink:href="#S" x="53.27" y="109.21"/><use xlink:href="#T" x="53.27" y="115.55"/><use xlink:href="#R" x="53.27" y="100.76"/></g><g class="i j v"><use xlink:href="#R" x="53.27" y="126.11"/><use xlink:href="#R" x="53.27" y="124"/><use xlink:href="#S" x="53.27" y="126.11"/><use xlink:href="#T" x="53.27" y="132.45"/><use xlink:href="#R" x="53.27" y="117.66"/><use xlink:href="#R" x="53.27" y="115.55"/><use xlink:href="#S" x="53.27" y="117.66"/><use xlink:href="#T" x="53.27" y="124"/><use xlink:href="#R" x="53.27" y="109.21"/><use xlink:href="#R" x="53.27" y="107.1"/><use xlink:href="#S" x="53.27" y="109.21"/><use xlink:href="#T" x="53.27" y="115.55"/><use xlink:href="#R" x="53.27" y="100.76"/></g><g class="l"><use xlink:href="#e"/><use xlink:href="#f"/><use xlink:href="#g"/><use xlink:href="#g" x="-2.11"/><use xlink:href="#e" x="-8.45"/><use xlink:href="#f" x="-8.45"/><use xlink:href="#g" x="-8.45"/><use xlink:href="#h"/><use xlink:href="#e" x="-16.9"/><use xlink:href="#f" x="-16.9"/><use xlink:href="#g" x="-16.9"/><use xlink:href="#h" x="-8.45"/><use xlink:href="#e" x="-25.35"/></g><g class="i j v"><use xlink:href="#e"/><use xlink:href="#f"/><use xlink:href="#g"/><use xlink:href="#g" x="-2.11"/><use xlink:href="#e" x="-8.45"/><use xlink:href="#f" x="-8.45"/><use xlink:href="#g" x="-8.45"/><use xlink:href="#h"/><use xlink:href="#e" x="-16.9"/><use xlink:href="#f" x="-16.9"/><use xlink:href="#g" x="-16.9"/><use xlink:href="#h" x="-8.45"/><use xlink:href="#e" x="-25.35"/></g><g class="l"><use xlink:href="#a" x="34.26" y="124"/><use xlink:href="#Z" x="51.16" y="124"/><use xlink:href="#X" x="57.5" y="124"/><use xlink:href="#Y" x="57.5" y="124"/><use xlink:href="#a" x="42.71" y="124"/><use xlink:href="#Z" x="59.61" y="124"/><use xlink:href="#X" x="65.95" y="124"/><use xlink:href="#Y" x="65.95" y="124"/><use xlink:href="#a" x="51.16" y="124"/><use xlink:href="#X" x="72.29" y="124"/><use xlink:href="#X" x="74.4" y="124"/><use xlink:href="#Y" x="74.4" y="124"/><use xlink:href="#a" x="59.61" y="124"/></g><g class="i j v"><use xlink:href="#a" x="34.26" y="124"/><use xlink:href="#Z" x="51.16" y="124"/><use xlink:href="#X" x="57.5" y="124"/><use xlink:href="#Y" x="57.5" y="124"/><use xlink:href="#a" x="42.71" y="124"/><use xlink:href="#Z" x="59.61" y="124"/><use xlink:href="#X" x="65.95" y="124"/><use xlink:href="#Y" x="65.95" y="124"/><use xlink:href="#a" x="51.16" y="124"/><use xlink:href="#X" x="72.29" y="124"/><use xlink:href="#X" x="74.4" y="124"/><use xlink:href="#Y" x="74.4" y="124"/><use xlink:href="#a" x="59.61" y="124"/></g><path d="M275.201 147.951v32.67h-3.21v-32.67zm0 49.319v45.83h-3.21v-45.83z" class="i k"/><path d="M270.198 147.955v1.2h-7.69v-1.2zm-.007 2.622v1.2h-7.69v-1.2zm.002 2.622v1.2h-7.69v-1.2zm.003 2.623v1.2h-7.69v-1.2zm.002 2.622v1.2h-7.69v-1.2zm-.007 2.623v1.2h-7.69v-1.2zm.002 2.622v1.2h-7.69v-1.2zm.003 2.623v1.2h-7.69v-1.2zm.002 2.622v1.2h-7.69v-1.2zm-.007 2.623v1.2h-7.69v-1.2zm.002 2.622v1.2h-7.69v-1.2zm.003 2.623v1.2h-7.69v-1.2zm.002 2.622v1.2h-7.69v-1.2z" class="p i s"/><path d="M270.192 197.268v1.69h-7.69v-1.69zm-.001 3.679v1.69h-7.69v-1.69zm.008 3.678v1.69h-7.69v-1.69zm-.002 3.679v1.69h-7.69v-1.69zm-.001 3.678v1.69h-7.69v-1.69zm-.002 3.678v1.69h-7.69v-1.69zm-.001 3.679v1.69h-7.69v-1.69zm-.002 3.678v1.69h-7.69v-1.69zm.008 3.679v1.69h-7.69v-1.69zm-.001 3.678v1.69h-7.69v-1.69zm-.002 3.678v1.69h-7.69v-1.69zm-.001 3.679v1.69h-7.69v-1.69zm-.002 3.678v1.69h-7.69v-1.69z" class="p i s"/><g class="u h"><g class="q"><path d="M292.88 127.87h-8.34l-9.51-8v-16.8"/><path d="M292.88 123.18h-1.71l-3.62-3.31v-16.8m5.33 29.49H275.7m17.18 4.69H275.7m17.18 4.69H275.7m17.18 4.69h-7.24l-8.29 11.05h-2.76m18.29-6.36h-7.24l-8.29 11.05h-2.76m18.29-6.36h-7.24l-8.29 11.05h-2.76"/><g class="m"><path d="M273.92 158.36a.67.67 0 0 1 0-1.34.67.67 0 0 1 0 1.34z"/><use xlink:href="#i"/><use xlink:href="#i" y="-4.69"/></g></g><circle cx="275.03" cy="132.56" r=".67" class="m"/><g class="q m"><use xlink:href="#j"/><path d="M287.55 103.07a.67.67 0 1 1 .67-.67c-.01.37-.31.67-.67.67zm-13.63 59.97a.67.67 0 1 1 .67-.67c0 .38-.3.67-.67.67zm0 4.69a.67.67 0 0 1 0-1.34.67.67 0 0 1 0 1.34z"/></g></g><path d="M283.954 104.289v13.7h-4.96v-13.7z" class="i k"/><path d="M356.302 107.142v64.69h-3.59v-64.69z" class="n"/><g class="u h"><g class="m q"><use xlink:href="#k"/><use xlink:href="#k" y="6.61"/><use xlink:href="#k" y="13.21"/></g><circle cx="354.51" cy="129.5" r=".67" class="m"/><g class="q m"><use xlink:href="#i" x="79.48" y="-5.84"/><path d="M354.51 143.37a.67.67 0 1 1 .67-.67c-.01.37-.3.67-.67.67zm0 6.61a.67.67 0 1 1 .67-.67c-.01.37-.3.67-.67.67z"/><use xlink:href="#i" x="79.48" y="13.97"/></g><circle cx="354.51" cy="162.51" r=".67" class="m"/><g class="q"><use xlink:href="#i" x="79.48" y="27.17" class="m"/><path d="M353.84 116.3h-2.59l-7.94 10.41H330.9m22.94-3.81h-2.59l-7.94 7.35H330.9m22.94-.75h-2.59l-7.94 4.28H330.9m22.94 2.32h-2.59l-7.94 1.21H330.9m22.94 5.39h-2.59l-7.94-1.86H330.9m22.94 8.47h-2.59l-7.94-4.93H330.9m22.94 11.53h-2.59l-7.94-8H330.9m22.94 14.6h-2.59l-7.94-11.07H330.9"/><path d="M353.84 169.11h-2.59l-7.94-14.13H330.9m22.94-45.29h-2.59l-7.94 13.49H330.9m50.93 159.23v17.84m-4.17-17.84v17.84m-4.17-17.84v17.84m-4.17-17.84v17.84m-4.17-17.84v17.84m-4.17-17.84v17.84m-4.17-17.84v17.84m-4.17-17.84v17.84m-4.17-17.84v17.84m-2.11-24.35h-6.79l-6.1 6.51v17.84m12.89-28.52h-10.11l-8.06 10.68v17.84m18.17-32.69h-14.53l-8.91 14.85v17.84m23.44-36.86h-17.84l-10.88 19.02v17.84m28.72-41.03h-28.89m28.89-4.17h-28.89m28.89-4.17h-28.89m21.27 49.37v-17.84l3.04-2.34h4.58"/><g class="m"><use xlink:href="#i" x="41.77" y="108.93"/><use xlink:href="#i" x="41.77" y="113.11"/><use xlink:href="#j" x="41.77" y="156.82"/><use xlink:href="#j" x="42.61" y="198.52"/><use xlink:href="#j" x="47.89" y="198.52"/><use xlink:href="#j" x="53.16" y="198.52"/><use xlink:href="#j" x="58.44" y="198.52"/><use xlink:href="#j" x="63.71" y="198.52"/><use xlink:href="#j" x="73.44" y="198.52"/><use xlink:href="#j" x="77.61" y="198.52"/><use xlink:href="#j" x="81.78" y="198.52"/><use xlink:href="#j" x="85.95" y="198.52"/><use xlink:href="#j" x="90.12" y="198.52"/><use xlink:href="#j" x="94.29" y="198.52"/><use xlink:href="#j" x="98.46" y="198.52"/><use xlink:href="#j" x="102.63" y="198.52"/><use xlink:href="#j" x="106.8" y="198.52"/><use xlink:href="#i" x="-1.43" y="57.68"/><use xlink:href="#i" x="-1.43" y="61.36"/><use xlink:href="#i" x="-1.43" y="65.04"/><use xlink:href="#i" x="-1.43" y="68.72"/><use xlink:href="#i" x="-1.43" y="72.4"/><use xlink:href="#i" x="-1.43" y="76.07"/><use xlink:href="#i" x="-1.43" y="79.75"/><use xlink:href="#i" x="-1.43" y="83.43"/><use xlink:href="#i" x="-1.43" y="87.11"/><use xlink:href="#i" x="-1.43" y="90.79"/><use xlink:href="#i" x="-1.43" y="94.47"/><use xlink:href="#i" x="-1.43" y="98.14"/><use xlink:href="#i" x="6.3" y="57.68"/><use xlink:href="#i" x="6.3" y="61.36"/><use xlink:href="#i" x="6.3" y="65.04"/></g></g><circle cx="281.33" cy="210.66" r=".67" class="m"/><circle cx="281.33" cy="214.34" r=".67" class="m"/><g class="q m"><path d="M281.33 218.68a.67.67 0 0 1 0-1.34.67.67 0 0 1 0 1.34z"/><use xlink:href="#i" x="6.3" y="79.75"/><use xlink:href="#i" x="6.3" y="83.43"/><use xlink:href="#i" x="6.3" y="87.11"/><use xlink:href="#i" x="6.3" y="90.79"/><use xlink:href="#i" x="6.3" y="94.47"/></g><circle cx="281.33" cy="240.08" r=".67" class="m"/><g class="q"><path d="M280.66 199.62h-6.39m6.39 40.46h-6.39"/><path d="M280.66 236.41h-6.39m6.39-3.68h-6.39m6.39-3.68h-6.39m6.39-3.68h-6.39m6.39-3.68h-6.39m6.39-3.68h-6.39m6.39-3.67h-6.39m6.39-3.68h-6.39m6.39-3.68h-6.39m6.39-3.68h-6.39"/><g class="m"><use xlink:href="#i" x="103.8" y="55.25"/><use xlink:href="#i" x="103.8" y="58.93"/><use xlink:href="#i" x="103.8" y="62.61"/><use xlink:href="#i" x="117.06" y="55.25"/><use xlink:href="#i" x="117.06" y="58.93"/><use xlink:href="#i" x="117.06" y="62.61"/></g><path d="M391.42 197.19H379.5m11.92 7.36H379.5"/><path d="M391.42 200.87H379.5"/><g class="m"><use xlink:href="#l"/><use xlink:href="#l" x="-4.49"/><use xlink:href="#l" x="-8.99"/><use xlink:href="#l" x="-13.49"/><use xlink:href="#l" x="-17.98"/><use xlink:href="#l" x="-22.48"/><use xlink:href="#l" x="-26.97"/><use xlink:href="#l" x="-31.47"/><use xlink:href="#l" x="-35.97"/><use xlink:href="#l" x="-40.46"/><use xlink:href="#m"/><use xlink:href="#m" x="4.5"/><use xlink:href="#m" x="8.99"/><use xlink:href="#m" x="13.49"/><path d="M319.2 103.18a.67.67 0 1 1-1.34 0 .67.67 0 0 1 .67-.67c.38 0 .67.3.67.67z"/><use xlink:href="#m" x="22.48"/><use xlink:href="#m" x="26.98"/><use xlink:href="#m" x="31.47"/><use xlink:href="#m" x="35.97"/><use xlink:href="#m" x="40.46"/></g><use xlink:href="#n"/><use xlink:href="#n" x="40.46"/><path d="M336.52 103.85v.87l-3.32 6.63v.87"/><use xlink:href="#n" x="31.47"/><path d="M327.53 103.85v.87l-3.32 6.63v.87"/><use xlink:href="#n" x="22.48"/><path d="M318.54 103.85v.87l-3.32 6.63v.87"/><use xlink:href="#n" x="13.49"/><use xlink:href="#n" x="8.99"/><path d="M305.05 103.85v.87l-3.32 6.63v.87"/><g class="m"><use xlink:href="#l" x="20.4" y="125.23"/><use xlink:href="#l" x="15.9" y="125.23"/><use xlink:href="#l" x="11.41" y="125.23"/><use xlink:href="#l" x="6.91" y="125.23"/><use xlink:href="#l" x="2.41" y="125.23"/><use xlink:href="#m" x="42.88" y="125.23"/><use xlink:href="#m" x="47.37" y="125.23"/><use xlink:href="#m" x="51.87" y="125.23"/><use xlink:href="#m" x="56.37" y="125.23"/><use xlink:href="#m" x="60.86" y="125.23"/></g><use xlink:href="#n" x="60.86" y="125.23"/><path d="M356.92 229.08v.87l-3.32 6.63v.87"/><use xlink:href="#n" x="51.87" y="125.23"/><use xlink:href="#n" x="47.37" y="125.23"/><path d="M343.43 229.08v.87l-3.32 6.63v.87"/></g></g><path d="M388.92 107.145v7.98h-7.98v-7.98z" class="i k"/><path d="M378.378 107.147v7.98h-7.98v-7.98zm-8.728 152.247v7.98h-7.98v-7.98zm20.599-102.554v14.2h-7.98v-14.2zm5.005 86.769v14.2h-7.98v-14.2z" class="p j i"/><path d="M393.367 178.199v14.2h-14.2v-14.2z" class="i k"/><path d="M390.734 180.712v9.19h-9.19v-9.19z" class="i k"/><path d="M395.247 259.872v14.2h-7.98v-14.2z" class="i j p"/><path d="M395.25 276.135v14.2h-7.98v-14.2zm-15.151-109.482v4.39h-4.39v-4.39zm6.766-57.714v4.39h-4.39v-4.39zm-17.411 57.72v4.39h-4.39v-4.39z" class="i k"/><path d="M304.6 127.854v4.39h-4.39v-4.39zm-5.699 114.321v4.39h-4.39v-4.39zm-5.936-.004v4.39h-4.39v-4.39z" class="p j i"/><path d="M362.875 166.658v4.39h-4.39v-4.39z" class="i k"/><g class="u h"><g class="q"><g class="m"><use xlink:href="#l" x="-9.27" y="52.67"/><use xlink:href="#l" x="-12.95" y="52.67"/><use xlink:href="#l" x="-16.63" y="52.67"/><use xlink:href="#l" x="-20.31" y="52.67"/><use xlink:href="#l" x="-23.98" y="52.67"/><use xlink:href="#l" x="-27.66" y="52.67"/><use xlink:href="#l" x="-31.34" y="52.67"/><use xlink:href="#l" x="-35.02" y="52.67"/><use xlink:href="#l" x="-38.7" y="52.67"/><use xlink:href="#l" x="-42.38" y="52.67"/></g><path d="M328.43 164.9v-6.4m-33.11 6.4v-6.4m3.68 6.4v-6.4m3.68 6.4v-6.4m3.68 6.4v-6.4m3.68 6.4v-6.4m3.68 6.4v-6.4m3.67 6.4v-6.4m3.68 6.4v-6.4m3.68 6.4v-6.4"/><g class="m"><use xlink:href="#o"/><path d="M354.45 202.29c-.26-.26-.26-.69 0-.95s.69-.26.95 0 .26.69 0 .95c-.27.26-.69.26-.95 0zm-2.6 2.6c-.26-.26-.26-.69 0-.95s.69-.26.95 0 .26.69 0 .95c-.27.26-.69.26-.95 0z"/></g></g><circle cx="349.72" cy="207.02" r=".67" class="m"/><circle cx="347.12" cy="209.62" r=".67" class="m"/><circle cx="344.52" cy="212.22" r=".67" class="m"/><g class="q"><path d="M341.44 215.29c-.26-.26-.26-.69 0-.95s.69-.26.95 0 .26.69 0 .95-.68.26-.95 0z" class="m"/><use xlink:href="#o" x="-18.21" y="18.2" class="m"/><path d="M336.24 220.49c-.26-.26-.26-.69 0-.95s.69-.26.95 0 .26.69 0 .95a.66.66 0 0 1-.95 0z" class="m"/><use xlink:href="#o" x="-23.41" y="23.41" class="m"/><path d="M336.24 219.55l-14.06-9.32h-6.4m23.06 6.72l-16.66-10.4h-6.4m25.66 7.8l-19.26-11.47h-6.4m28.27 8.86l-21.87-12.54h-6.4"/><g class="m"><use xlink:href="#p"/><use xlink:href="#p" y="-3.68"/><use xlink:href="#p" y="-7.36"/><use xlink:href="#p" y="-11.03"/><use xlink:href="#p" y="-14.71"/><path d="M332.17 180.09a.67.67 0 1 1-1.34 0 .67.67 0 0 1 .67-.67c.37.01.67.3.67.67z"/><use xlink:href="#m" x="34.63" y="76.91"/><use xlink:href="#m" x="38.3" y="76.91"/><use xlink:href="#m" x="41.98" y="76.91"/><path d="M346.88 180.09a.67.67 0 1 1-1.34 0 .67.67 0 0 1 .67-.67c.37.01.67.3.67.67z"/></g><path d="M315.78 213.91h6.4l11.46 8.24m12.57-41.39v6.4l10.84 11.58m-14.52-17.98v6.4l11.92 14.18m-15.6-20.58v6.4l13 16.78m-16.67-23.18v6.4l14.07 19.38m-17.75-25.78v6.4l15.15 21.98"/></g></g><path d="M321.71 174.181v16.97h-12.5v-16.97zm-14.788-.002v16.97h-12.5v-16.97zm-14.788-.002v16.97h-12.5v-16.97z" class="i k"/><path d="M310.04 283.905v4.17h-12.13v-4.17zm-13.76.001v4.17h-12.13v-4.17z" class="p j i"/><path d="M321.716 187.767v3.38h-12.5v-3.38zm-14.788.008v3.38h-12.5v-3.38zm-14.788-.002v3.38h-12.5v-3.38z" class="i k"/><path d="M387.592 158.403v4.72h-2.65v-4.72zm-10.763-49.627v4.72h-2.65v-4.72zm-71.991 133.402v4.39h-4.39v-4.39zm58.034-34.385l3.104 3.104-3.104 3.104-3.104-3.104zm-4.186 4.198l3.104 3.104-3.104 3.104-3.104-3.104zm8.387-8.395l3.104 3.104-3.104 3.104-3.104-3.104zm-49.096-25.694v4.39h-4.39v-4.39zm-14.947-.003v4.39h-4.39v-4.39zm-14.947-.003v4.39h-4.39v-4.39z" class="p j i"/><path d="M200.89 142.95l-16.83 29.16c-1.58 2.74.4 6.17 3.56 6.17h33.67c3.17 0 5.15-3.43 3.56-6.17l-16.83-29.16c-1.59-2.74-5.55-2.74-7.13 0z" class="l"/><path d="M206.03 160.17h-.99l3.17-9.34-6.6 10.19-1.39 2.15h2.74 1.07l-2.75 9.17 6.12-10.06 1.28-2.11z" class="j"/><path d="M227.87 254.38h6.33c10.99 0 14.13 56.71 15.79 99.44s25.22 62.42 46.28 62.42h160.7" class="q u AA AB AC"/><g class="l"><use xlink:href="#q"/><use xlink:href="#q" x="16"/><use xlink:href="#q" x="32"/></g><g class="j i"><use xlink:href="#q" class="s"/><use xlink:href="#q" x="16" class="s"/><use xlink:href="#q" x="32" class="s"/></g><path d="M103.49 330.93l.36 15.57 1.64 70.43h5.41l1.63-70.43.36-15.57z" class="l"/><path d="M103.49 330.93l.36 15.57 1.64 70.43h5.41l1.63-70.43.36-15.57z" class="i j s"/><path d="M103.49 330.93l.36 16h8.68l.36-16z" class="i k"/><path d="M74.11 416.68l5-84.65h8.17l-7 84.65z" class="l"/><path d="M80.3 416.68h-6.18l4.54-77.05.45-7.7h8.17l-.63 7.7z" class="i j s"/><path d="M87.28 331.93l-.63 8h-7.99l.45-8z" class="i k"/><path d="M136.1 416.68l-6.99-84.65h8.17l4.99 84.65z" class="l"/><path d="M136.09 416.68l-6.35-77.05-.63-7.7h8.17l.45 7.7 4.54 77.05z" class="i j s"/><path d="M129.11 331.93l.63 8h7.99l-.45-8z" class="i k"/><path d="M79.73 323.27h56.92c2.76 0 5 2.24 5 5v6.69H74.73v-6.69c0-2.77 2.24-5 5-5z" class="n"/><use xlink:href="#r" class="l"/><use xlink:href="#r" class="i j p"/><path d="M74.11 266.82c6.94-4.2 16.57-4.2 25.78 0 4.65 2.04 10.16 2.62 12.59-.32 4.15-4.32-3.13-17.13-17.11-21.19-10-2.87-19.91-2.87-28.36 0-11.79 4.06-12.15 16.87-5.67 21.19 4.02 2.94 9.21 2.36 12.77.32z" class="n"/><path d="M177.93 254.12l8.06-1.83s1.98-1.43 3.46-1.43 7.62 1.38 8.41 2.67.4 3 .4 3h-9.3l-8.11 2.16-2.92-4.57z" class="x"/><use xlink:href="#s" class="l"/><use xlink:href="#s" opacity=".7" class="i j"/><path d="M127.84 212.55l22.94 6.07-11.47 16.51h-17.66z" class="l"/><path d="M210.89 407.42l7.75-2.12-1.39-18.92-7.74 2.13z" class="x"/><path d="M219.11 404.27l-9 .62c-.31.01-.56.27-.56.58l.06 7.16c.05.78.72 1.36 1.5 1.32l8.58-.86c2.43-.18 7.25-.29 10.53-1.05s2.44-3.99.99-3.95c-3.46.06-8.3-1.84-10.68-3.46-.42-.27-.92-.4-1.42-.36z" class="n"/><g class="l"><path d="M222.05 405.43c-.72.03-1.45-.01-2.16-.14-.07-.01-.13-.06-.15-.13s.01-.15.06-.2c.24-.2 2.41-1.9 3.42-1.59.23.08.41.26.47.5.16.35.1.77-.16 1.06-.42.35-.94.53-1.48.5zm1.06-1.66c-.54-.17-1.82.6-2.71 1.25 1.45.18 2.5.07 2.86-.33.15-.19.18-.45.09-.67-.04-.12-.13-.22-.24-.25h0z"/><path d="M219.93 405.29c-.02.02-.05.02-.08.02-.06-.03-.1-.08-.11-.14-.01-.07-.35-2.39.4-3.23.2-.21.49-.33.78-.31a.72.72 0 0 1 .72.52c.24.86-.84 2.62-1.6 3.15-.04.01-.08.01-.11-.01zm.88-3.26c-.15.01-.29.08-.39.2-.45.5-.42 1.82-.35 2.57.65-.63 1.32-1.95 1.2-2.53-.02-.11-.1-.23-.37-.25l-.09.01z"/></g><path d="M209.51 388.51l7.75-2.12.79 10.81-7.79 1.74z" class="i k"/><path d="M200.75 407.15l-7.32 3.33-1.86-7.86-2.5-10.58 7.3-3.35 2.51 10.58z" class="x"/><path d="M198.88 399.27l-7.31 3.35-2.5-10.58 7.3-3.35z" class="i k"/><path d="M201.05 406.06l-8.78 2.05a.58.58 0 0 0-.46.66l1.2 7.06c.18.76.93 1.23 1.69 1.06l8.33-2.21c2.37-.56 7.11-1.44 10.23-2.72s1.78-4.32.34-4.06c-3.4.61-8.49-.5-11.1-1.71a2.25 2.25 0 0 0-1.45-.13z" class="n"/><g class="l"><path d="M204.14 406.74a9.74 9.74 0 0 1-2.15.21c-.07.01-.14-.04-.17-.1-.03-.07-.02-.15.03-.2.21-.23 2.07-2.26 3.12-2.11a.71.71 0 0 1 .54.42c.21.32.22.74.01 1.07-.35.39-.85.65-1.38.71zm.78-1.81c-.56-.08-1.71.88-2.48 1.67 1.46-.05 2.48-.33 2.77-.78.11-.21.1-.47-.02-.68-.05-.12-.15-.19-.27-.21h0z"/><path d="M202.03 406.94c-.02.02-.05.03-.07.03-.06-.02-.11-.06-.13-.12-.02-.07-.73-2.3-.12-3.25a1.04 1.04 0 0 1 .72-.44c.32-.06.65.1.79.4.37.81-.41 2.72-1.08 3.36-.04.02-.08.03-.11.02zm.34-3.36c-.15.03-.27.13-.35.26-.37.56-.12 1.87.07 2.6.54-.73 1-2.13.78-2.68-.04-.1-.14-.21-.41-.18h-.09z"/></g><use xlink:href="#t" class="n"/><use xlink:href="#t" class="i j k"/><use xlink:href="#u" class="n"/><use xlink:href="#u" class="i j k"/><path d="M190.03 325.73l-7.38-1.98c.82.43-1.57-10.37-3.94-13.16-4.72-5.57-23.68-8.57-30.48-9.66-5.69-.91-24.76-2.59-24.76-2.59s33.68-2.91 59.06 4.06c12.55 3.43 10.31 15.68 7.5 23.33z" class="i k"/><path d="M145.11 278.91c2.56-14.64 6.85-34.25 14.8-52.58-4.18-1.77-8.48-3.23-12.88-4.37-6.41-1.74-12.92-3.1-19.49-4.09-4.54-.48-9.12-.61-13.68-.38 0 0-9.84 18.38-14.83 61.42h46.08z" class="n"/><path d="M138.4 201.44c-1.74 6.29-5.88 17.34-11.8 19.16 0 0 4.36 7.13 10.89 7.73 4.15.38 6.45-4.31 6.45-4.31-4.24-.79-2.62-3.89.72-7.79l-6.26-14.79z" class="x"/><path d="M140.95 207.47l3.7 8.76a20.9 20.9 0 0 0-2.13 2.89c-4.16.31-7.15-6.28-6.13-8.97.37-1.1 3.82-1.78 4.56-2.68z" class="i k"/><path d="M152.78 191.4c-3.97 1.64-3.21 5.97 3.37 13.86 4.05-3.49 6.25-11.43 4.13-13.98-2.13-2.55-4.04-1.29-7.5.12z" class="n"/><path d="M136.47 194.79c-1.38 8.59-2.62 13.53.67 18.84 4.96 7.98 16.29 6.45 20.21-1.55 3.51-7.19 5.19-20.03-2.34-25.25-5.36-3.76-12.76-2.46-16.52 2.9a11.82 11.82 0 0 0-2.02 5.06z" class="x"/><path d="M148.59 199.95c-.15.69.09 1.33.54 1.43s.93-.37 1.09-1.06-.08-1.33-.53-1.43c-.44-.11-.9.4-1.1 1.06zm7.84 1.77c-.15.69.09 1.33.54 1.43s.94-.37 1.1-1.07-.09-1.33-.54-1.43c-.45-.09-.95.38-1.1 1.07z" class="n"/><path d="M153.8 201.47c.35 2.29 1.01 4.52 1.97 6.64-1.5.86-3.44-.13-3.44-.13l1.47-6.51z" fill="#a24e3f"/><g class="n"><path d="M147.01 197c-.09-.01-.18-.05-.24-.11-.15-.17-.13-.44.04-.59 1-.89 2.37-1.24 3.67-.93a.41.41 0 0 1 .29.49c0 .01-.01.02-.01.03-.07.21-.3.34-.52.28h0a3.27 3.27 0 0 0-2.89.76c-.1.07-.22.1-.34.07zm13.58 2.88c-.16-.04-.28-.16-.32-.31-.21-1.03-.91-1.91-1.87-2.34a.42.42 0 0 1-.25-.53c.08-.21.31-.32.53-.25a4.12 4.12 0 0 1 2.39 2.94.42.42 0 0 1-.3.5c-.06 0-.12 0-.18-.01zm-19.06-11.84c3.65 2.25 2.21 6.4-5.54 13.14-3.45-4.09-4.35-12.29-1.84-14.46 2.51-2.16 4.19-.63 7.38 1.32z"/><path d="M134.79 186.25s-.77-3.36 5.28-6.56c6.05-3.19 15.83-.49 22.18 4.11 6.36 4.6-1.38 10.39-4.47 10.51l.86-1.07s-5.38.35-9.7-1.65l1.97-.65c.01.01-12.3-2.24-16.12-4.69z"/></g><path d="M161.73 199.53l-1.13 5.44s-2.26 1.61-3.35.95c-1.1-.65-1.51-2.48-3.2-2.75-1.69-.28-2.26 1.43-5.5 1.43s-5.11-4.71-5.11-4.71l-7.23-2.6-1.16 2.58-.55-1s1.41-3.9 3.03-3.61l6.66 1.17 17.54 3.1z" class="i j s"/><path d="M144.19 196.43l-.74 3.43c0 .01 0 .02-.01.03l-7.23-2.6-1.16 2.58-.55-1s1.41-3.9 3.03-3.61l6.66 1.17z" class="l"/><path d="M130.92 200.66c.13 2.19 1.12 4.23 2.75 5.69 2.18 1.9 4.51.25 4.95-2.45.39-2.44-.27-6.38-2.96-7.24-2.69-.87-4.89 1.32-4.74 4z" class="x"/><path d="M147.03 206.55s0 3.56 3.75 4.75" class="m q u AA AB AC"/><g class="l"><use xlink:href="#v"/><use xlink:href="#w"/></g><g class="j i"><use xlink:href="#v" class="p"/><use xlink:href="#w" class="p"/></g><path d="M131.9 221.54l-8.81 2.3v-7l4.75-4.29zm15.13.42l3.06 4.82 2.24-4.82-1.55-3.34z" class="l"/><path d="M131.9 221.54l-8.81 2.3v-7l4.75-4.29zm15.13.42l3.06 4.82 2.24-4.82-1.55-3.34z" opacity=".7" class="j i"/><path d="M167.7 255.17h1.47v1.92h-1.47zm20.91 0h1.47v1.92h-1.47zm16.63-13.76h28.48v15.45h-28.48z" class="n"/><g class="j"><path d="M205.24 241.41h17.67v15.45h-17.67z" class="i k"/><path d="M217.73 247.92c-.07-2.24-1.9-4.04-4.16-4.04s-4.09 1.8-4.16 4.04h8.32z"/></g><path d="M213.13 247.16l1.67-2.07-.79 2.54a.5.5 0 0 1-.97-.31c.02-.05.05-.11.09-.16z" class="l"/><use xlink:href="#x" class="n"/><path d="M208.97 255.11h-2a.67.67 0 0 1-.67-.67v-1.26a.67.67 0 0 1 .67-.67h2a.67.67 0 0 1 .67.67v1.26a.67.67 0 0 1-.67.67z" class="i j z"/><use xlink:href="#x" x="4.91" class="n"/><path d="M212.36 253.29h.47v1.04h-.47zm1.57 0h.47v1.04h-.47z" opacity=".5" class="i"/><path d="M217.85 252.48a1.05 1.05 0 0 0-.8.39c-.01 0-.01-.01-.02-.01-.46 0-.83.44-.83.98s.37.98.83.98c.01 0 .01-.01.02-.01.21.24.49.39.8.39.63 0 1.15-.61 1.15-1.36s-.52-1.36-1.15-1.36zm3.16 0a1.05 1.05 0 0 0-.8.39c-.01 0-.01-.01-.02-.01-.46 0-.83.44-.83.98s.37.98.83.98c.01 0 .01-.01.02-.01.21.24.49.39.8.39.64 0 1.15-.61 1.15-1.36s-.51-1.36-1.15-1.36z" class="n"/><g class="j i"><ellipse cx="217.02" cy="253.84" rx=".83" ry=".98" class="z"/><ellipse cx="220.19" cy="253.84" rx=".83" ry=".98" class="z"/></g><path d="M163.64 238.12l-3.9-3.9s-8.34-3.71-8.75 5.63c-.41 9.33 14.23 34.98 28.27 39.07s19.04-10.35 19.51-21.73c.09-2.2 3.61-3.38 5.19-3.38h3.76" class="q u AA AB AC"/><path d="M166.35 240.07l-1.31 1.17 9.1 10.11.99.44 3.39 3.77.66-.59-3.39-3.76-.35-1.04z" class="n"/><path d="M166.35 240.07l-1.31 1.17 9.1 10.11.99.44 3.39 3.77.66-.59-3.39-3.76-.35-1.04z" class="i j s"/><path d="M171.99 245.48l-7.82-8.68c-.35-.39-.94-.42-1.33-.07l-.75.68c-.39.35-.42.94-.07 1.33l7.82 8.68-.22 1.54.08.08 3.93-3.54-.08-.08-1.56.06z" class="l"/><path d="M141.89 248.47l11.05-4.99 4.91-3.45c1.32-.88 12.13 1.63 12.53 1.76s-1.58 6.99-1.98 7.65-10.02-.62-10.55-.84-1.11-1.01-1.11-1.01l-10.77 4.7-4.08-3.82z" class="x"/><use xlink:href="#y" class="l"/><use xlink:href="#y" opacity=".7" class="i j"/><path d="M166.11 254.77h26.31v.79h-26.31zm3.44 162.16h6.13l1-153.24h-8.13z" class="l"/><path d="M168.55 263.93l.16 24.73.84 128.27h6.13l.84-128.27.16-24.73z" class="i j z"/><path d="M168.55 263.93l.16 25h7.81l.16-25z" class="i k"/><path d="M104.51 416.93h6.13l11.01-153.24h-8.13z" class="l"/><path d="M104.51 416.93h6.13l10.47-145.63.54-7.37h-8.13l-.44 7.37z" class="i j z"/><path d="M113.08 270.93h8.03l.54-7h-8.13z" class="i k"/><path d="M234.6 416.93h6.12l-9-153.24h-8.13z" class="l"/><path d="M223.59 263.93l.54 7.37 10.47 145.63h6.12l-8.56-145.63-.44-7.37z" class="i j z"/><path d="M231.72 263.93h-8.13l.54 7h8.03z" class="i k"/><use xlink:href="#z" class="l"/><use xlink:href="#z" class="i j k"/><path d="M238.154 263.684h-131.08v-3.84h131.08z" class="i k"/><use xlink:href="#AA" class="l"/><use xlink:href="#AA" class="i j k"/><defs ><path id="B" d="M286.615 140.37h-97.9v-4.62h97.9z"/><path id="C" d="M170.48 136.603h-97.9v-.85h97.9z"/><path id="D" d="M419.9 361.07s-3.83 1.41-2.69 4.74 13.25 8.82 13.25 8.82 5.07-4.65.41-12.21-10.87-3.74-10.97-1.35z"/><path id="E" d="M403.25 354.72s4.08-.17 4.31 3.34-8.83 13.24-8.83 13.24-6.47-2.34-5.08-11.11c1.38-8.76 8.59-7.63 9.6-5.47z"/><path id="F" d="M399.8 337.9s2.72-.29 2.5-1.95-10.57-5.92-16.67.97c0 0 3.91 6.72 9.56 6.8 5.65.1 4.61-5.82 4.61-5.82z"/><path id="G" d="M404.86 333.88s-2.46 1.19-3.15-.33 5.84-10.61 14.67-7.99c0 0 .23 7.77-4.52 10.83s-7-2.51-7-2.51z"/><path id="H" d="M391.99 359.73s1.88-1.51-.15-2.25c-2.02-.74-11.96-.53-12.06 9.31 0 0 11.57 1.92 13-1.83 1.44-3.75-.79-5.23-.79-5.23z"/><path id="I" d="M415.59 337.66s-1.88-1.51.15-2.25c2.02-.74 11.96-.53 12.06 9.31 0 0-11.57 1.92-13-1.83-1.44-3.75.79-5.23.79-5.23z"/><path id="J" d="M409.47 345.58s-.17-1.84 1.32-1.12 6.67 6.31 1.3 11.61c0 0-7.23-5.35-5.92-8.14 1.3-2.78 3.3-2.35 3.3-2.35z"/><path id="K" d="M390.31 348.21s1.12-1.47-.52-1.65-9 1.78-7.29 9.13c0 0 8.97-.67 9.35-3.73.39-3.05-1.54-3.75-1.54-3.75z"/><path id="L" d="M377.22 147.53a5.54 5.54 0 1 0-11.08 0 5.54 5.54 0 1 0 11.08 0zm-9.97 0a4.44 4.44 0 0 1 4.43-4.43 4.44 4.44 0 0 1 4.43 4.43 4.44 4.44 0 0 1-4.43 4.43 4.44 4.44 0 0 1-4.43-4.43z"/><path id="M" d="M297.75 123.18h28.26a2.08 2.08 0 0 1 2.08 2.08v28.26a2.08 2.08 0 0 1-2.08 2.08h-28.26a2.08 2.08 0 0 1-2.08-2.08v-28.26a2.08 2.08 0 0 1 2.08-2.08z"/><path id="N" d="M329.03 126.95h1.87v-.48h-1.87v-.39h-1.92v1.27h1.92z"/><path id="O" d="M329.03 129.06h1.87v-.47h-1.87v-.4h-1.92v1.27h1.92z"/><path id="P" d="M329.03 131.18h1.87v-.48h-1.87v-.4h-1.92v1.28h1.92z"/><path id="Q" d="M294.72 151.82h-1.86v.48h1.86v.4h1.93v-1.27h-1.93z"/><path id="R" d="M294.72 149.71h-1.86v.48h1.86v.4h1.93v-1.28h-1.93z"/><path id="S" d="M294.72 145.49h-1.86v.48h1.86v.39h1.93v-1.27h-1.93z"/><path id="T" d="M294.72 137.04h-1.86v.47h1.86v.4h1.93v-1.27h-1.93z"/><path id="U" d="M324.31 156.55v1.86h.48v-1.86h.4v-1.93h-1.28v1.93z"/><path id="V" d="M320.09 156.55v1.86h.48v-1.86h.39v-1.93h-1.27v1.93z"/><path id="W" d="M309.52 156.55v1.86h.48v-1.86h.4v-1.93h-1.27v1.93z"/><path id="X" d="M299.44 122.23v-1.86h-.48v1.86h-.4v1.93h1.28v-1.93z"/><path id="Y" d="M301.55 122.23v-1.86h-.48v1.86h-.39v1.93h1.27v-1.93z"/><path id="Z" d="M303.67 122.23v-1.86h-.48v1.86h-.4v1.93h1.27v-1.93z"/><path id="a" d="M318.45 122.23v-1.86h-.47v1.86h-.4v1.93h1.27v-1.93z"/><path id="b" d="M382.31 250.95h1.86v-.48h-1.86v-.4h-1.93v1.28h1.93z"/><path id="c" d="M382.31 253.06h1.86v-.47h-1.86v-.4h-1.93v1.27h1.93z"/><path id="d" d="M382.31 255.18h1.86v-.48h-1.86v-.4h-1.93v1.27h1.93z"/><path id="e" d="M377.59 280.54v1.87h.47v-1.87h.4v-1.92h-1.27v1.92z"/><path id="f" d="M375.47 280.54v1.87h.48v-1.87h.4v-1.92h-1.27v1.92z"/><path id="g" d="M373.36 280.54v1.87h.48v-1.87h.4v-1.92h-1.28v1.92z"/><path id="h" d="M362.8 280.54v1.87h.48v-1.87h.39v-1.92h-1.27v1.92z"/><path id="i" d="M275.03 142.61a.67.67 0 0 1 0-1.34.67.67 0 1 1 0 1.34z"/><path id="j" d="M275.03 103.07a.67.67 0 1 1 0-1.34.67.67 0 1 1 0 1.34z"/><path id="k" d="M354.51 110.36a.67.67 0 1 1 0-1.34.67.67 0 0 1 .67.67c-.01.37-.3.67-.67.67z"/><path id="l" d="M337.03 112.89a.67.67 0 1 1 1.34 0 .67.67 0 1 1-1.34 0z"/><path id="m" d="M301.22 103.18a.67.67 0 1 1-1.34 0 .67.67 0 1 1 1.34 0z"/><path id="n" d="M300.55 103.85v.87l-3.31 6.63v.87"/><path id="o" d="M357.05 199.69c-.26-.26-.26-.69 0-.95s.69-.26.95 0 .26.69 0 .95-.69.26-.95 0z"/><path id="p" d="M315.11 213.24a.67.67 0 1 1 0 1.34.67.67 0 0 1 0-1.34z"/><path id="q" d="M66.66 258.69h4.31l12 70.42h-4.31z"/><path id="r" d="M73.54 329.11h69.31a2.01 2.01 0 0 1 2.01 2.01v1.82a2.01 2.01 0 0 1-2.01 2.01H73.54a2.01 2.01 0 0 1-2.01-2.01v-1.82a2.01 2.01 0 0 1 2.01-2.01z"/><path id="s" d="M159.91 226.33c3.53 3.26 9 23.73 10.52 25.96s13.19-1.24 13.19-1.24l2.37 7.43s-14.71 6.69-21.3 2.37-10.64-21.74-10.64-21.74l5.86-12.78z"/><path id="t" d="M146.48 299.72l-2.36-26.14-43.65 1.03s-5.17 36.42-1.41 43.12c6.71 11.95 50.71 5.16 61 6.18 4.2 2.24 26.69 76.76 26.69 76.76l12.59-5.08-16.63-74.74c-4.29-16.49-21.77-16.2-36.23-21.13z"/><path id="u" d="M218.81 394.3l-11.11 1.03-14.67-69.64c-1.9-.54-7.42-1.16-10.38-1.93-20.61-5.36-71.36-15.22-71.36-15.22L130 290.49s84.85 10.19 86.74 30.1c.91 9.58 2.07 73.71 2.07 73.71z"/><path id="v" d="M147.03 221.96c2.96 6.45-4.96 63.22-4.96 63.22l8.82-1.19s3.69-39.76 9.01-57.66l-9.13-4.37v-3.34l-3.74 3.34z"/><path id="w" d="M127.84 212.55l4.06 8.98-5.29 3.44-10.24 59.01-19.58-3.36s7.07-50.91 17.08-63.13l11.4-1.08 2.57-3.86z"/><path id="x" d="M209.97 252.51h-1-1-1a.67.67 0 0 0-.67.67v1.26a.67.67 0 0 0 .67.67h1 1 1a.67.67 0 0 0 .67-.67v-1.26a.67.67 0 0 0-.67-.67z"/><path id="y" d="M113.86 217.49s6.23 29.14 9.61 32.29 27.52-6.63 27.52-6.63l3.68 9.6s-20.94 10.52-31.21 9.01-15.77-18.89-16.07-26.64c-.58-15.08 6.47-17.63 6.47-17.63z"/><path id="z" d="M109.24 267.52H236c1.19 0 2.16-.97 2.16-2.16v-5.51H107.08v5.51a2.15 2.15 0 0 0 2.16 2.16z"/><path id="AA" d="M103.28 260.85h138.68c1.19 0 2.16-.97 2.16-2.16h0c0-1.19-.97-2.16-2.16-2.16H103.28c-1.19 0-2.16.97-2.16 2.16h0c0 1.19.97 2.16 2.16 2.16z"/></defs></svg>