<svg xmlns="http://www.w3.org/2000/svg" xmlns:xlink="http://www.w3.org/1999/xlink" viewBox="0 0 392.38 394.78" xmlns:v="https://vecta.io/nano"><style><![CDATA[.E{isolation:isolate}.By{fill:#4b4b4e}.Bz{fill:#5e5f62}.CA{fill:#838488}.CB{fill:none}.CC{fill:#838384}.CD{fill:#7e7e7f}.CE{fill:#888889}.CF{fill:#e0e0e0}.CG{fill:#95969b}.CH{fill:#fff}.CI{fill:#7a7a7b}.CJ{fill:#8d8d8e}.CK{fill:#929293}.CL{fill:#979798}.CM{fill:#f0745c}.CN{fill:#823f32}.CO{fill:#95d8e9}.CP{fill:#f3f3f5}.CQ{fill:#707070}.CR{fill:#797979}.CS{fill:#783a2e}.CT{fill:#d85341}.CU{fill:#7d3c30}.CV{fill:#864134}.CW{fill:#f4f4f4}.CX{fill:#e8d1ac}.CY{fill:#e0dede}.CZ{fill:#fafafa}.Ca{fill:#eb725a}]]></style><defs><clipPath id="A"><path d="M342.76 333.49v.84a.22.22 0 0 1-.13.18v-.83a.22.22 0 0 0 .13-.19z" class="CB"/></clipPath><clipPath id="B"><path d="M336.74 334.32v-.83a.22.22 0 0 0 .14.19v.84a.24.24 0 0 1-.14-.2z" class="CB"/></clipPath><clipPath id="C"><path d="M340.09 335.15v.85a.79.79 0 0 1-.67 0v-.84a.7.7 0 0 0 .67-.01z" class="CB"/></clipPath><clipPath id="D"><path d="M348 336.51v.83c0 .07-.05.13-.14.19v-.84a.22.22 0 0 0 .14-.18z" class="CB"/></clipPath><clipPath id="E"><path d="M342 337.33v-.83a.22.22 0 0 0 .14.19v.84a.25.25 0 0 1-.14-.2z" class="CB"/></clipPath><clipPath id="F"><path d="M345.31 338.17v.83a.7.7 0 0 1-.66 0v-.83a.79.79 0 0 0 .66 0z" class="CB"/></clipPath><clipPath id="G"><path d="M353.19 339.51v.84a.21.21 0 0 1-.14.18v-.83a.22.22 0 0 0 .14-.19z" class="CB"/></clipPath><clipPath id="H"><path d="M347.16 340.34v-.83a.22.22 0 0 0 .13.19v.84a.26.26 0 0 1-.13-.2z" class="CB"/></clipPath><clipPath id="I"><path d="M350.52 341.17v.83a.71.71 0 0 1-.65 0v-.83a.73.73 0 0 0 .65 0z" class="CB"/></clipPath><clipPath id="J"><path d="M358.4 342.53v.83a.23.23 0 0 1-.13.19v-.84a.22.22 0 0 0 .13-.18z" class="CB"/></clipPath><clipPath id="K"><path d="M352.38 343.35v-.83a.22.22 0 0 0 .14.19v.84a.24.24 0 0 1-.14-.2z" class="CB"/></clipPath><clipPath id="L"><path d="M355.73 344.19v.81a.7.7 0 0 1-.66 0v-.83a.76.76 0 0 0 .66.02z" class="CB"/></clipPath><clipPath id="M"><path d="M337.84 336.36v.83a.26.26 0 0 1-.14.2v-.84a.23.23 0 0 0 .14-.19z" class="CB"/></clipPath><clipPath id="N"><path d="M331.81 337.2v-.84a.23.23 0 0 0 .14.19v.84a.22.22 0 0 1-.14-.19z" class="CB"/></clipPath><clipPath id="O"><path d="M335.16 338v.83a.73.73 0 0 1-.66 0V338a.73.73 0 0 0 .66 0z" class="CB"/></clipPath><clipPath id="P"><path d="M343.06 339.37v.83a.24.24 0 0 1-.14.2v-.84a.23.23 0 0 0 .14-.19z" class="CB"/></clipPath><clipPath id="Q"><path d="M337 340.21v-.84a.25.25 0 0 0 .13.2v.83a.23.23 0 0 1-.13-.19z" class="CB"/></clipPath><clipPath id="R"><path d="M340.38 341v.83a.73.73 0 0 1-.66 0V341a.73.73 0 0 0 .66 0z" class="CB"/></clipPath><clipPath id="S"><path d="M348.27 342.38v.84a.23.23 0 0 1-.14.19v-.84a.23.23 0 0 0 .14-.19z" class="CB"/></clipPath><clipPath id="T"><path d="M342.23 343.22v-.84a.22.22 0 0 0 .13.19v.84a.26.26 0 0 1-.13-.19z" class="CB"/></clipPath><clipPath id="U"><path d="M345.59 344.05v.83a.7.7 0 0 1-.66 0v-.83a.7.7 0 0 0 .66 0z" class="CB"/></clipPath><clipPath id="V"><path d="M353.48 345.39v.83a.26.26 0 0 1-.14.2v-.84a.22.22 0 0 0 .14-.19z" class="CB"/></clipPath><clipPath id="W"><path d="M347.45 346.23v-.84a.26.26 0 0 0 .14.2v.83a.23.23 0 0 1-.14-.19z" class="CB"/></clipPath><clipPath id="X"><path d="M350.8 347.06v.83a.73.73 0 0 1-.66 0v-.84a.71.71 0 0 0 .66.01z" class="CB"/></clipPath><clipPath id="Y"><path d="M333 339.25v.84a.22.22 0 0 1-.13.19v-.83a.26.26 0 0 0 .13-.2z" class="CB"/></clipPath><clipPath id="Z"><path d="M326.92 340.09v-.84a.26.26 0 0 0 .14.2v.83a.25.25 0 0 1-.14-.19z" class="CB"/></clipPath><clipPath id="a"><path d="M330.27 340.92v.84a.73.73 0 0 1-.66 0v-.83a.76.76 0 0 0 .66-.01z" class="CB"/></clipPath><clipPath id="b"><path d="M338.16 342.27v.83a.23.23 0 0 1-.14.19v-.83a.22.22 0 0 0 .14-.19z" class="CB"/></clipPath><clipPath id="c"><path d="M332.13 343.09v-.83a.22.22 0 0 0 .13.19v.84a.25.25 0 0 1-.13-.2z" class="CB"/></clipPath><clipPath id="d"><path d="M335.49 343.93v.84a.71.71 0 0 1-.65 0v-.83a.76.76 0 0 0 .65-.01z" class="CB"/></clipPath><clipPath id="e"><path d="M343.38 345.27v.84a.22.22 0 0 1-.14.19v-.84a.23.23 0 0 0 .14-.19z" class="CB"/></clipPath><clipPath id="f"><path d="M337.35 346.1v-.83a.23.23 0 0 0 .14.19v.84a.25.25 0 0 1-.14-.2z" class="CB"/></clipPath><clipPath id="g"><path d="M340.7 346.94v.84a.74.74 0 0 1-.65 0v-.84a.71.71 0 0 0 .65 0z" class="CB"/></clipPath><clipPath id="h"><path d="M348.59 348.29v.83a.23.23 0 0 1-.14.19v-.83c.09-.06.14-.12.14-.19z" class="CB"/></clipPath><clipPath id="i"><path d="M342.56 349.12v-.84a.23.23 0 0 0 .14.19v.84c-.09-.06-.14-.12-.14-.19z" class="CB"/></clipPath><clipPath id="j"><path d="M345.91 350v.84a.73.73 0 0 1-.66 0V350a.74.74 0 0 0 .66 0z" class="CB"/></clipPath><clipPath id="k"><path d="M328 342.1v.83a.23.23 0 0 1-.14.19v-.83a.25.25 0 0 0 .14-.19z" class="CB"/></clipPath><clipPath id="l"><path d="M321.94 342.93v-.84a.25.25 0 0 0 .14.2v.83a.23.23 0 0 1-.14-.19z" class="CB"/></clipPath><clipPath id="m"><path d="M325.3 343.76v.84a.76.76 0 0 1-.66 0v-.84a.7.7 0 0 0 .66 0z" class="CB"/></clipPath><clipPath id="n"><path d="M333.19 345.1v.84a.23.23 0 0 1-.14.19v-.83a.26.26 0 0 0 .14-.2z" class="CB"/></clipPath><clipPath id="o"><path d="M327.16 345.94v-.83a.23.23 0 0 0 .14.19v.83a.22.22 0 0 1-.14-.19z" class="CB"/></clipPath><clipPath id="p"><path d="M330.51 346.77v.84a.76.76 0 0 1-.66 0v-.84a.7.7 0 0 0 .66 0z" class="CB"/></clipPath><clipPath id="q"><path d="M338.4 348.12v.88a.22.22 0 0 1-.13.19v-.83a.23.23 0 0 0 .13-.24z" class="CB"/></clipPath><clipPath id="r"><path d="M332.37 349v-.84a.26.26 0 0 0 .14.2v.83a.22.22 0 0 1-.14-.19z" class="CB"/></clipPath><clipPath id="s"><path d="M335.73 349.78v.84a.79.79 0 0 1-.67 0v-.84a.72.72 0 0 0 .67 0z" class="CB"/></clipPath><clipPath id="t"><path d="M343.62 351.12v.88a.22.22 0 0 1-.13.19v-.83a.26.26 0 0 0 .13-.24z" class="CB"/></clipPath><clipPath id="u"><path d="M337.59 352v-.83a.22.22 0 0 0 .14.19v.83a.22.22 0 0 1-.14-.19z" class="CB"/></clipPath><clipPath id="v"><path d="M340.94 352.79v.83a.7.7 0 0 1-.66 0v-.84a.7.7 0 0 0 .66.01z" class="CB"/></clipPath><linearGradient id="w" x1="181.52" y1="223.76" x2="186.75" y2="233.06" gradientUnits="userSpaceOnUse"><stop offset="0" stop-color="#fff"/><stop offset=".49" stop-color="#fdfdfd"/><stop offset=".7" stop-color="#f6f6f6"/><stop offset=".85" stop-color="#e9e9ea"/><stop offset=".98" stop-color="#d8d8d9"/><stop offset="1" stop-color="#d5d5d7"/></linearGradient><clipPath id="x"><path d="M296.91 202.86l-3.18 1.85-.2.11-.6.35a1.86 1.86 0 0 0 .79-1.64l4-2.31a1.86 1.86 0 0 1-.81 1.64z" class="CB"/></clipPath><clipPath id="y"><path d="M320.81 213.75l4-2.31a1.24 1.24 0 0 0-.51 1.11 3.87 3.87 0 0 0 1.74 3l-4 2.31a3.81 3.81 0 0 1-1.74-3 1.2 1.2 0 0 1 .51-1.11z" class="CB"/></clipPath><clipPath id="z"><path d="M320.81 213.75l2-1.16c.12-.06.27-.16.39-.23l1.59-.92a1.21 1.21 0 0 1 1.24.12l-4 2.31a1.24 1.24 0 0 0-1.22-.12z" class="CB"/></clipPath><clipPath id="AA"><path d="M332.74,219.45a1.21,1.21,0,0,0,1.24.12l-4,2.32a1.24,1.24,0,0,1-1.24-.13Z" class="CB"/></clipPath><clipPath id="AB"><path d="M334 219.57l-4 2.32a1.22 1.22 0 0 0 .51-1.13 3.84 3.84 0 0 0-1.74-3l4-2.31a3.84 3.84 0 0 1 1.74 3 1.22 1.22 0 0 1-.51 1.12z" class="CB"/></clipPath><path id="AC" d="M83.28 231.26v1.43l-4.33 2.52v-1.43l4.33-2.52z"/><path id="AD" d="M78.95 233.78v1.43l-4.59-2.65v-1.43l4.59 2.65z"/><path id="AE" d="M83.28 231.26l-4.33 2.52-4.59-2.65 4.33-2.52 4.59 2.65z"/><path id="AF" d="M94.67 237.83v1.43l-4.34 2.52.01-1.43 4.33-2.52z"/><path id="AG" d="M90.34 240.35l-.01 1.43-4.58-2.65v-1.43l4.59 2.65z"/><path id="AH" d="M130.19 263.36l-.01 1.43-4.59-2.65.01-1.43 4.59 2.65z"/><path id="AI" d="M163.09 277.33l-.01 1.43-4.33 2.52v-1.43l4.34-2.52z"/><path id="AJ" d="M158.75 279.85v1.43l-4.59-2.65.01-1.43 4.58 2.65z"/><path id="AK" d="M163.09 277.33l-4.34 2.52-4.58-2.65 4.33-2.51 4.59 2.64z"/><path id="AL" d="M73.53 236.13v1.43l-4.34 2.52v-1.43l4.34-2.52z"/><path id="AM" d="M73.53 236.13l-4.34 2.52-4.58-2.65 4.33-2.52 4.59 2.65z"/><path id="AN" d="M84.81 242.64l-4.34 2.52-4.59-2.65 4.34-2.52 4.59 2.65z"/><path id="AO" d="M113.31 259.1l-4.33 2.52-4.59-2.65 4.34-2.52 4.58 2.65z"/><path id="AP" d="M153.42 282.26l-.01 1.43-4.33 2.52v-1.44l4.34-2.51z"/><path id="AQ" d="M313 381.08c0 7.57-10.34 13.7-23.1 13.7s-23.11-6.13-23.11-13.7 10.35-13.71 23.11-13.71 23.1 6.14 23.1 13.71z"/></defs><path d="M5.11 145.72l51.51 29.7a7.52 7.52 0 0 0 6.82 0l69.4-40.42c1.87-1.1 1.86-2.86 0-4l-42.17-24.22H65.22l-60.14 35c-1.87 1.08-1.86 2.85.03 3.94z" fill="#d1d1d1"/><path d="M255 346.26h0 0zm.58-4.53h0 0zm.15 1.95v.1h0zm.01-.76a.34.34 0 0 1 0 .1h0a.57.57 0 0 0 0-.1z" fill="#79a599"/><path d="M260.06 342.65v-.15-.45a.61.61 0 0 0 0-.14h0a.44.44 0 0 0 0-.1v-.16.16-.15a3.56 3.56 0 0 0-.1-.47h0a.32.32 0 0 0 0-.09c0-.08-.05-.15-.07-.23l.06.2a4.43 4.43 0 0 0-.2-.58h0 0a4.66 4.66 0 0 0-.22-.45 2.14 2.14 0 0 0-.1-.22.36.36 0 0 0 0 .09v-.1a.25.25 0 0 1 0-.07v-.05-.05a.9.9 0 0 0-.07-.11l-.06-.11a11.64 11.64 0 0 0-3.46-3.27l-.08-.05-1-.62h0a20.44 20.44 0 0 0-3.81-1.67 21 21 0 0 0-3.54-.8h-.24l-1.6-.15h-.19q-.81 0-1.65 0h-.08q-.85 0-1.74.09h-.28l-1.8.23h-.13q-.87.15-1.77.36l-.26.06-1.86.51-.35.11-3.31 1.22 1.36-.54h0l-1.4.57-.23.1h-.09l-.15.06a45.42 45.42 0 0 0-4.17 2.11l-1.38.83c-12.24 7.5-16.61 17-9.76 21.13s22.32 1.48 34.55-6c1-.58 1.82-1.16 2.62-1.74h0l.08-.06h0c.38-.27.73-.53 1.07-.8h0 0q.67-.52 1.26-1h0l.75-.69h0l.21-.2h0 0c.21-.2.4-.41.59-.61h0 0 0l.19-.21h0c.12-.13.23-.27.34-.4s.14-.16.2-.25a0 0 0 0 1 0 0l.18-.23h0 0q.24-.31.45-.63h0 0l.13-.21h0 0c.08-.13.15-.26.22-.39s.09-.14.13-.22h0l.11-.21h0 0c.1-.2.2-.41.28-.61h0a1.59 1.59 0 0 0 .07-.2h0a4.69 4.69 0 0 0 .2-.6h0a.75.75 0 0 0 0-.16v-.07c0-.02 0 0 0 .07.05-.21.09-.42.12-.62h0a.53.53 0 0 0 0-.12h0a1.94 1.94 0 0 0 0-.34 2.83 2.83 0 0 0-.02-.55zm-21.34-9h0zm5.32.1zm-.25 0zm-1.42-.14zm.15 0h0zm-.37 0h0zm-1.42 0h0zm-.14 0h0zm-1.52.09h0zm0 0h.36zm1.19-.07h0zm3.75.21h-.21zm-1.67-.19h0zm-.82 0a.21.21 0 0 1-.08 0 .21.21 0 0 0 .09-.12zm-.87 0h0zm-1.65.1h-.23zm-1.75.23h0-.08 0zm1.1-.16l-.52.07zm-1.24.18h-.07zm-.13 0h.16 0-.17 0l-.4.08.42-.08h0zm-.85.17h0l-.27.07-.39.09h0l-.21.05.2-.05h0zm-3 .85h0l.34-.11h0zm2-.61h0zm-.65.19l-.63.18 1.15-.33h0zm.9-.25l-.19.05zm-1.54.43h0l-.3.1h0zm-.37.12l-.3.1zm-2.08.77c.59-.25 1.17-.46 1.75-.65h0-.11l-.36.12c-.41.14-.81.3-1.22.47z" fill="#d6d6d6"/><path d="M251.62 336.77l.08.05-.49-.34-.51-.31h.08z" fill="#79a599"/><g class="E"><path d="M219.75 315.33l-32.7 19a13.84 13.84 0 0 1-7.76 1.52 14.74 14.74 0 0 1-1.66-.23 11.39 11.39 0 0 1-1.34-.32 12.21 12.21 0 0 1-1.2-.43 9.07 9.07 0 0 1-1.08-.54L40.17 257.07l-.32-.2-.37-.25-.25-.19-.31-.26-.15-.15c-.17-.16-.31-.32-.45-.48l-.12-.15a5.38 5.38 0 0 1-.39-.63v-.1a3 3 0 0 1-.2-.55 1.16 1.16 0 0 1 0-.18 3 3 0 0 1-.08-.66v1.43a3.72 3.72 0 0 0 .08.66.84.84 0 0 0 0 .17 3.69 3.69 0 0 0 .19.56s0 .07.05.1a3.76 3.76 0 0 0 .39.62 1 1 0 0 0 .12.16 6.39 6.39 0 0 0 .44.48l.09.1.06.05.3.24a2.78 2.78 0 0 0 .27.21l.35.23a2.2 2.2 0 0 0 .25.17l.08.05L174 335.77a9.07 9.07 0 0 0 1.08.54 10.6 10.6 0 0 0 1.2.43 14.35 14.35 0 0 0 1.33.33c.45.09 1.1.17 1.66.22a13.82 13.82 0 0 0 7.76-1.52l32.71-19c1.78-1 2.67-2.4 2.67-3.75v-1.43c.01 1.35-.88 2.71-2.66 3.74z" class="CF"/><path d="M219.71,307.79c3.61,2.08,3.63,5.46,0,7.54l-32.7,19a14.34,14.34,0,0,1-13,0L40.17,257.07c-3.61-2.09-3.63-5.47,0-7.55l32.7-19a14.41,14.41,0,0,1,13,0Z" class="CP"/><use xlink:href="#AC" class="By"/><use xlink:href="#AD" class="Bz"/><use xlink:href="#AE" class="CA"/><use xlink:href="#AF" class="By"/><use xlink:href="#AG" class="Bz"/><path d="M94.67 237.83l-4.33 2.52-4.59-2.65 4.33-2.51 4.59 2.64z" class="CA"/><path d="M100.3 241.09v1.43l-4.33 2.51v-1.43l4.33-2.51z" class="By"/><path d="M95.97 243.6v1.43l-4.59-2.64.01-1.43 4.58 2.64z" class="Bz"/><path d="M100.3 241.09l-4.33 2.51-4.58-2.64 4.33-2.52 4.58 2.65z" class="CA"/><use xlink:href="#AC" x="22.66" y="13.08" class="By"/><use xlink:href="#AD" x="22.66" y="13.08" class="Bz"/><use xlink:href="#AE" x="22.66" y="13.08" class="CA"/><path d="M111.58 247.6v1.43l-4.33 2.51v-1.42l4.33-2.52z" class="By"/><path d="M107.25 250.12v1.42l-4.59-2.64v-1.43l4.59 2.65z" class="Bz"/><use xlink:href="#AE" x="28.3" y="16.34" class="CA"/><path d="M123.24 254.33l-.01 1.43-4.33 2.51.01-1.42 4.33-2.52z" class="By"/><path d="M118.91 256.85l-.01 1.42-4.58-2.64v-1.43l4.59 2.65z" class="Bz"/><use xlink:href="#AE" x="39.96" y="23.07" class="CA"/><path d="M128.88 257.59v1.43l-4.33 2.51v-1.43l4.33-2.51z" class="By"/><use xlink:href="#AD" x="45.6" y="26.32" class="Bz"/><path d="M128.88 257.59l-4.33 2.51-4.59-2.65 4.33-2.51 4.59 2.65z" class="CA"/><path d="M134.51 260.84v1.43l-4.33 2.52.01-1.43 4.32-2.52z" class="By"/><use xlink:href="#AH" class="Bz"/><path d="M134.51 260.84l-4.32 2.52-4.59-2.65 4.33-2.52 4.58 2.65z" class="CA"/><use xlink:href="#AC" x="56.87" y="32.83" class="By"/><use xlink:href="#AD" x="56.87" y="32.83" class="Bz"/><use xlink:href="#AE" x="56.87" y="32.83" class="CA"/><path d="M151.81 270.83v1.43l-4.33 2.51v-1.43l4.33-2.51z" class="By"/><path d="M147.48 273.34v1.43l-4.59-2.64.01-1.44 4.58 2.65z" class="Bz"/><path d="M151.81 270.83l-4.33 2.51-4.58-2.65 4.33-2.51 4.58 2.65z" class="CA"/><path d="M157.45 274.08l-.01 1.43-4.32 2.52v-1.43l4.33-2.52z" class="By"/><use xlink:href="#AD" x="74.17" y="42.82" class="Bz"/><use xlink:href="#AE" x="74.17" y="42.82" class="CA"/><use xlink:href="#AI" class="By"/><use xlink:href="#AJ" class="Bz"/><use xlink:href="#AK" class="CA"/><path d="M168.73 280.59l-.01 1.43-4.33 2.52.01-1.43 4.33-2.52z" class="By"/><use xlink:href="#AH" x="34.21" y="19.75" class="Bz"/><use xlink:href="#AE" x="85.45" y="49.33" class="CA"/><path d="M179.21 286.64v1.44l-4.33 2.51v-1.43l4.33-2.52z" class="By"/><use xlink:href="#AD" x="95.93" y="55.38" class="Bz"/><path d="M179.21 286.64l-4.33 2.52-4.59-2.65 4.34-2.51 4.58 2.64z" class="CA"/><path d="M184.85 289.9l-.01 1.43-4.33 2.52.01-1.43 4.33-2.52z" class="By"/><use xlink:href="#AG" x="90.18" y="52.07" class="Bz"/><use xlink:href="#AE" x="101.57" y="58.64" class="CA"/><use xlink:href="#AC" x="107.2" y="61.89" class="By"/><use xlink:href="#AJ" x="27.4" y="15.82" class="Bz"/><path d="M190.48 293.15l-4.33 2.52-4.58-2.65 4.33-2.52 4.58 2.65z" class="CA"/><use xlink:href="#AL" class="By"/><use xlink:href="#AJ" x="-89.56" y="-41.2" class="Bz"/><use xlink:href="#AM" class="CA"/><use xlink:href="#AF" x="-15.5" y="1.56" class="By"/><use xlink:href="#AH" x="-55.35" y="-21.45" class="Bz"/><use xlink:href="#AE" x="-4.11" y="8.13" class="CA"/><use xlink:href="#AI" x="-78.28" y="-34.69" class="By"/><use xlink:href="#AD" x="1.52" y="11.38" class="Bz"/><use xlink:href="#AN" class="CA"/><use xlink:href="#AF" x="-4.23" y="8.07" class="By"/><use xlink:href="#AH" x="-44.08" y="-14.94" class="Bz"/><use xlink:href="#AE" x="7.16" y="14.64" class="CA"/><use xlink:href="#AF" x="1.73" y="11.51" class="By"/><use xlink:href="#AH" x="-38.12" y="-11.5" class="Bz"/><use xlink:href="#AE" x="13.12" y="18.08" class="CA"/><use xlink:href="#AI" x="-61.05" y="-24.74" class="By"/><use xlink:href="#AD" x="18.75" y="21.33" class="Bz"/><use xlink:href="#AN" x="17.23" y="9.95" class="CA"/><use xlink:href="#AI" x="-55.41" y="-21.48" class="By"/><use xlink:href="#AJ" x="-55.41" y="-21.48" class="Bz"/><use xlink:href="#AM" x="34.15" y="19.72" class="CA"/><use xlink:href="#AC" x="30.03" y="27.84" class="By"/><use xlink:href="#AD" x="30.03" y="27.84" class="Bz"/><use xlink:href="#AO" class="CA"/><use xlink:href="#AI" x="-43.81" y="-14.79" class="By"/><path d="M114.94 265.06v1.43l-4.59-2.64v-1.43l4.59 2.64z" class="Bz"/><path d="M119.28 262.54l-4.34 2.52-4.59-2.64 4.34-2.53 4.59 2.65z" class="CA"/><use xlink:href="#AF" x="30.24" y="27.97" class="By"/><use xlink:href="#AH" x="-9.61" y="4.96" class="Bz"/><use xlink:href="#AE" x="41.63" y="34.54" class="CA"/><path d="M130.55 269.05v1.44l-4.34 2.51.01-1.43 4.33-2.52z" class="By"/><path d="M126.22 271.57l-.01 1.43-4.59-2.65v-1.43l4.6 2.65z" class="Bz"/><path d="M130.55 269.05l-4.33 2.52-4.6-2.65 4.34-2.52 4.59 2.65z" class="CA"/><use xlink:href="#AI" x="-26.9" y="-5.02" class="By"/><use xlink:href="#AD" x="52.9" y="41.05" class="Bz"/><use xlink:href="#AN" x="51.38" y="29.67" class="CA"/><use xlink:href="#AI" x="-20.94" y="-1.58" class="By"/><use xlink:href="#AD" x="58.86" y="44.49" class="Bz"/><use xlink:href="#AN" x="57.34" y="33.11" class="CA"/><use xlink:href="#AF" x="53.11" y="41.17" class="By"/><use xlink:href="#AG" x="53.11" y="41.17" class="Bz"/><use xlink:href="#AE" x="64.5" y="47.74" class="CA"/><use xlink:href="#AP" class="By"/><path d="M149.08 284.77v1.44l-4.59-2.65.01-1.43 4.58 2.64z" class="Bz"/><path d="M153.42 282.26l-4.34 2.51-4.58-2.64 4.33-2.52 4.59 2.65z" class="CA"/><use xlink:href="#AL" x="85.53" y="49.38" class="By"/><use xlink:href="#AJ" x="-4.03" y="8.18" class="Bz"/><use xlink:href="#AK" x="-4.03" y="8.18" class="CA"/><use xlink:href="#AF" x="98.5" y="67.38" class="By"/><use xlink:href="#AH" x="58.65" y="44.37" class="Bz"/><use xlink:href="#AE" x="109.89" y="73.95" class="CA"/><use xlink:href="#AF" x="104.14" y="70.63" class="By"/><use xlink:href="#AH" x="64.29" y="47.62" class="Bz"/><use xlink:href="#AE" x="115.53" y="77.2" class="CA"/><use xlink:href="#AI" x="41.36" y="34.39" class="By"/><use xlink:href="#AD" x="121.16" y="80.46" class="Bz"/><use xlink:href="#AN" x="119.64" y="69.08" class="CA"/><use xlink:href="#AF" x="115.41" y="77.14" class="By"/><use xlink:href="#AG" x="115.41" y="77.14" class="Bz"/><use xlink:href="#AE" x="126.8" y="83.71" class="CA"/><use xlink:href="#AI" x="-95.53" y="-37.73" class="By"/><use xlink:href="#AD" x="-15.73" y="8.34" class="Bz"/><path d="M67.56 239.6l-4.34 2.52-4.59-2.65 4.34-2.51 4.59 2.64z" class="CA"/><use xlink:href="#AI" x="-89.89" y="-34.47" class="By"/><use xlink:href="#AJ" x="-89.89" y="-34.47" class="Bz"/><use xlink:href="#AM" x="-0.33" y="6.73" class="CA"/><use xlink:href="#AC" x="-4.45" y="14.85" class="By"/><use xlink:href="#AD" x="-4.45" y="14.85" class="Bz"/><path d="M78.83 246.11l-4.33 2.52-4.59-2.65 4.34-2.51 4.58 2.64z" class="CA"/><use xlink:href="#AF" x="-10.2" y="11.54" class="By"/><use xlink:href="#AH" x="-50.05" y="-11.47" class="Bz"/><use xlink:href="#AE" x="1.19" y="18.11" class="CA"/><use xlink:href="#AL" x="16.9" y="16.68" class="By"/><use xlink:href="#AJ" x="-72.66" y="-24.52" class="Bz"/><use xlink:href="#AM" x="16.9" y="16.68" class="CA"/><use xlink:href="#AI" x="-67.02" y="-21.27" class="By"/><use xlink:href="#AD" x="12.78" y="24.8" class="Bz"/><use xlink:href="#AN" x="11.26" y="13.42" class="CA"/><use xlink:href="#AI" x="-61.38" y="-18.01" class="By"/><use xlink:href="#AD" x="18.42" y="28.06" class="Bz"/><use xlink:href="#AN" x="16.9" y="16.68" class="CA"/><path d="M107.34 262.57V264l-4.34 2.52.01-1.43 4.33-2.52z" class="By"/><use xlink:href="#AG" x="12.67" y="24.74" class="Bz"/><use xlink:href="#AE" x="24.06" y="31.31" class="CA"/><use xlink:href="#AF" x="18.63" y="28.18" class="By"/><use xlink:href="#AG" x="18.63" y="28.18" class="Bz"/><path d="M113.3 266.01l-4.33 2.52-4.59-2.65 4.34-2.51 4.58 2.64z" class="CA"/><use xlink:href="#AL" x="45.41" y="33.14" class="By"/><use xlink:href="#AJ" x="-44.15" y="-8.06" class="Bz"/><use xlink:href="#AM" x="45.41" y="33.14" class="CA"/><path d="M124.58 272.52v1.44l-4.34 2.51v-1.42l4.34-2.53z" class="By"/><path d="M120.24 275.05v1.42l-4.59-2.65v-1.43l4.59 2.66z" class="Bz"/><path d="M124.58 272.52l-4.34 2.53-4.59-2.66 4.34-2.52 4.59 2.65z" class="CA"/><use xlink:href="#AI" x="-32.87" y="-1.55" class="By"/><use xlink:href="#AD" x="46.93" y="44.52" class="Bz"/><use xlink:href="#AN" x="45.41" y="33.14" class="CA"/><use xlink:href="#AI" x="-26.91" y="1.89" class="By"/><path d="M131.84 281.74v1.43l-4.6-2.65.01-1.43 4.59 2.65z" class="Bz"/><path d="M136.18 279.22l-4.34 2.52-4.59-2.65 4.33-2.52 4.6 2.65z" class="CA"/><use xlink:href="#AF" x="47.14" y="44.64" class="By"/><path d="M137.48 284.99l-.01 1.43-4.59-2.65.01-1.42 4.59 2.64z" class="Bz"/><path d="M141.81 282.47l-4.33 2.52-4.59-2.64 4.33-2.53 4.59 2.65z" class="CA"/><use xlink:href="#AI" x="-101.5" y="-34.26" class="By"/><path d="M57.25 245.59v1.43l-4.59-2.64v-1.44l4.59 2.65z" class="Bz"/><path d="M61.59 243.07l-4.34 2.52-4.59-2.65 4.34-2.51 4.59 2.64z" class="CA"/><use xlink:href="#AI" x="-95.86" y="-31" class="By"/><use xlink:href="#AD" x="-16.06" y="15.07" class="Bz"/><use xlink:href="#AN" x="-17.58" y="3.69" class="CA"/><path d="M72.86 249.59v1.42l-4.34 2.52.01-1.43 4.33-2.51z" class="By"/><path d="M68.53 252.1l-.01 1.43-4.58-2.64v-1.43l4.59 2.64z" class="Bz"/><path d="M72.86 249.59l-4.33 2.51-4.59-2.64 4.34-2.52 4.58 2.65z" class="CA"/><use xlink:href="#AI" x="-84.59" y="-24.49" class="By"/><use xlink:href="#AJ" x="-84.59" y="-24.49" class="Bz"/><use xlink:href="#AM" x="4.97" y="16.71" class="CA"/><use xlink:href="#AI" x="-78.63" y="-21.05" class="By"/><use xlink:href="#AJ" x="-78.63" y="-21.05" class="Bz"/><use xlink:href="#AM" x="10.93" y="20.15" class="CA"/><use xlink:href="#AF" x="-4.58" y="21.7" class="By"/><use xlink:href="#AG" x="-4.58" y="21.7" class="Bz"/><use xlink:href="#AO" x="-23.22" y="0.43" class="CA"/><use xlink:href="#AC" x="12.45" y="31.53" class="By"/><use xlink:href="#AD" x="12.45" y="31.53" class="Bz"/><use xlink:href="#AO" x="-17.58" y="3.69" class="CA"/><use xlink:href="#AL" x="27.84" y="29.91" class="By"/><path d="M97.03 268.56v1.43l-4.59-2.64.01-1.44 4.58 2.65z" class="Bz"/><use xlink:href="#AK" x="-61.72" y="-11.29" class="CA"/><path d="M107.33 269.48v1.44l-4.34 2.51.01-1.42 4.33-2.53z" class="By"/><path d="M103 272.01l-.01 1.42-4.59-2.64.01-1.43 4.59 2.65z" class="Bz"/><path d="M107.33 269.48l-4.33 2.53-4.59-2.65 4.33-2.52 4.59 2.64z" class="CA"/><use xlink:href="#AI" x="-50.12" y="-4.59" class="By"/><use xlink:href="#AD" x="29.68" y="41.48" class="Bz"/><use xlink:href="#AN" x="28.16" y="30.1" class="CA"/><use xlink:href="#AP" x="-34.81" y="-6.26" class="By"/><path d="M114.27 278.51v1.44l-4.6-2.66.01-1.43 4.59 2.65z" class="Bz"/><path d="M118.61 276l-4.34 2.51-4.59-2.65 4.34-2.52 4.59 2.66z" class="CA"/><use xlink:href="#AF" x="29.57" y="41.42" class="By"/><use xlink:href="#AG" x="29.57" y="41.42" class="Bz"/><use xlink:href="#AO" x="10.93" y="20.15" class="CA"/><use xlink:href="#AF" x="35.53" y="44.86" class="By"/><use xlink:href="#AH" x="-4.32" y="21.85" class="Bz"/><use xlink:href="#AE" x="46.92" y="51.43" class="CA"/><path d="M135.84 285.94v1.44l-4.34 2.51v-1.43l4.34-2.52z" class="By"/><path d="M131.5 288.46v1.43l-4.59-2.64.01-1.44 4.58 2.65z" class="Bz"/><use xlink:href="#AK" x="-27.25" y="8.61" class="CA"/><use xlink:href="#AI" x="-15.64" y="8.4" class="By"/><use xlink:href="#AD" x="64.16" y="54.47" class="Bz"/><use xlink:href="#AN" x="62.64" y="43.09" class="CA"/><path d="M138.19 292.32v1.44l-5.64-3.26v-1.43l5.64 3.25z" class="Bz"/><path d="M153.09 288.98l-.01 1.44-5.97 3.46.01-1.43 5.97-3.47z" class="By"/><path d="M139.11 292.85l-.01 1.43-.91-.52v-1.44l.92.53z" class="Bz"/><path d="M147.12 292.45l-.01 1.43-.96.56v-1.43l.97-.56z" class="By"/><path d="M142.78 294.97v1.43l-3.68-2.12.01-1.43 3.67 2.12z" class="Bz"/><path d="M146.15 293.01v1.43l-3.37 1.96v-1.43l3.37-1.96z" class="By"/><path d="M153.09 288.98l-5.97 3.47-.97.56-3.37 1.96-3.67-2.12-.92-.53-5.64-3.25 4.34-2.52 5.64 3.26 5.97-3.48 4.59 2.65z" class="CA"/><use xlink:href="#AI" x="24.11" y="31.35" class="By"/><use xlink:href="#AJ" x="24.11" y="31.35" class="Bz"/><use xlink:href="#AM" x="113.67" y="72.55" class="CA"/><path d="M192.84 311.93v1.44l-4.34 2.51v-1.43l4.34-2.52z" class="By"/><path d="M188.5 314.45v1.43l-4.59-2.64.01-1.43 4.58 2.64z" class="Bz"/><path d="M192.84 311.93l-4.34 2.52-4.58-2.64 4.33-2.52 4.59 2.64z" class="CA"/><use xlink:href="#AC" x="115.19" y="83.93" class="By"/><use xlink:href="#AD" x="115.19" y="83.93" class="Bz"/><use xlink:href="#AO" x="85.16" y="56.09" class="CA"/><use xlink:href="#AF" x="109.44" y="80.61" class="By"/><use xlink:href="#AH" x="69.59" y="57.6" class="Bz"/><use xlink:href="#AE" x="120.83" y="87.18" class="CA"/><use xlink:href="#AI" x="18.14" y="34.82" class="By"/><use xlink:href="#AD" x="97.94" y="80.89" class="Bz"/><use xlink:href="#AN" x="96.42" y="69.51" class="CA"/><path d="M186.87 315.4l-.01 1.43-4.33 2.53v-1.43l4.34-2.53z" class="By"/><path d="M182.53 317.93v1.43l-4.59-2.65v-1.44l4.59 2.66z" class="Bz"/><path d="M186.87 315.4l-4.34 2.53-4.59-2.66 4.34-2.51 4.59 2.64z" class="CA"/><use xlink:href="#AF" x="97.83" y="80.83" class="By"/><use xlink:href="#AG" x="97.83" y="80.83" class="Bz"/><use xlink:href="#AO" x="79.19" y="59.56" class="CA"/><use xlink:href="#AI" x="35.05" y="44.58" class="By"/><use xlink:href="#AJ" x="35.05" y="44.58" class="Bz"/><use xlink:href="#AM" x="124.61" y="85.78" class="CA"/><g class="Bz"><path d="M50.53 248.63l-.01 1.43-3.83-2.21v-1.44l3.84 2.22z"/><path d="M51.28 249.06l-.01 1.44-.75-.44.01-1.43.75.43z"/><path d="M56.92 252.32v1.43l-5.65-3.25.01-1.44 5.64 3.26z"/></g><use xlink:href="#AI" x="-101.83" y="-27.53" class="By"/><path d="M61.26 249.8l-4.34 2.52-5.64-3.26-.75-.43-3.84-2.22 4.34-2.51 3.83 2.21.76.43 5.64 3.26z" class="CA"/><path d="M66.89 253.05v1.44L62.55 257v-1.43l4.34-2.52z" class="By"/><path d="M62.55 255.57V257l-4.59-2.64.01-1.43 4.58 2.64z" class="Bz"/><path d="M66.89 253.05l-4.34 2.52-4.58-2.64 4.33-2.52 4.59 2.64z" class="CA"/><use xlink:href="#AI" x="-90.56" y="-21.02" class="By"/><use xlink:href="#AD" x="-10.76" y="25.05" class="Bz"/><use xlink:href="#AN" x="-12.28" y="13.67" class="CA"/><use xlink:href="#AI" x="-84.6" y="-17.58" class="By"/><use xlink:href="#AD" x="-4.8" y="28.49" class="Bz"/><use xlink:href="#AN" x="-6.32" y="17.11" class="CA"/><use xlink:href="#AF" x="-10.55" y="25.17" class="By"/><use xlink:href="#AH" x="-50.4" y="2.16" class="Bz"/><use xlink:href="#AE" x="0.84" y="31.74" class="CA"/><use xlink:href="#AF" x="-4.91" y="28.43" class="By"/><use xlink:href="#AG" x="-4.91" y="28.43" class="Bz"/><use xlink:href="#AO" x="-23.55" y="7.16" class="CA"/><use xlink:href="#AL" x="21.87" y="33.38" class="By"/><path d="M91.06 272.03v1.43l-4.59-2.65.01-1.42 4.58 2.64z" class="Bz"/><path d="M95.4 269.51l-4.34 2.52-4.58-2.64 4.33-2.52 4.59 2.64z" class="CA"/><path d="M101.36 272.95v1.44l-4.34 2.51v-1.42l4.34-2.53z" class="By"/><path d="M97.02 275.48v1.42l-4.59-2.64.01-1.43 4.58 2.65z" class="Bz"/><path d="M101.36 272.95l-4.34 2.53-4.58-2.65 4.33-2.52 4.59 2.64z" class="CA"/><use xlink:href="#AI" x="-56.09" y="-1.12" class="By"/><use xlink:href="#AD" x="23.71" y="44.95" class="Bz"/><use xlink:href="#AN" x="22.19" y="33.57" class="CA"/><use xlink:href="#AI" x="-50.45" y="2.14" class="By"/><path d="M108.3 281.99v1.43l-4.6-2.66.01-1.43 4.59 2.66z" class="Bz"/><path d="M112.64 279.47l-4.34 2.52-4.59-2.66 4.33-2.52 4.6 2.66z" class="CA"/><use xlink:href="#AF" x="23.6" y="44.89" class="By"/><use xlink:href="#AH" x="-16.25" y="21.88" class="Bz"/><use xlink:href="#AE" x="34.99" y="51.46" class="CA"/><use xlink:href="#AF" x="29.56" y="48.33" class="By"/><path d="M119.9 288.68l-.01 1.43-4.59-2.65v-1.43l4.6 2.65z" class="Bz"/><path d="M124.23 286.16l-4.33 2.52-4.6-2.65 4.34-2.52 4.59 2.65z" class="CA"/><use xlink:href="#AP" x="-23.55" y="7.16" class="By"/><path d="M125.53 291.93v1.44l-4.59-2.65v-1.43l4.59 2.64z" class="Bz"/><path d="M129.87 289.42l-4.34 2.51-4.59-2.64 4.34-2.52 4.59 2.65z" class="CA"/><g class="Bz"><path d="M132.22 295.8v1.43l-5.64-3.26v-1.43l5.64 3.26z"/><path d="M133.88 296.75v1.43l-1.66-.95v-1.43l1.66.95z"/><path d="M136.81 298.44v1.44l-2.93-1.7v-1.43l2.93 1.69z"/></g><use xlink:href="#AP" x="-12.27" y="13.67" class="By"/><path d="M141.15 295.93l-4.34 2.51-2.93-1.69-1.66-.95-5.64-3.26 4.34-2.52 5.64 3.26 1.66.95 2.93 1.7z" class="CA"/><use xlink:href="#AC" x="91.97" y="84.36" class="By"/><use xlink:href="#AD" x="91.97" y="84.36" class="Bz"/><use xlink:href="#AO" x="61.94" y="56.52" class="CA"/><path d="M180.9 318.88l-.01 1.43-4.33 2.51v-1.43l4.34-2.51z" class="By"/><path d="M176.56 321.39v1.43l-4.59-2.64v-1.43l4.59 2.64z" class="Bz"/><path d="M180.9 318.88l-4.34 2.51-4.59-2.64 4.34-2.52 4.59 2.65z" class="CA"/><use xlink:href="#AF" x="91.86" y="84.3" class="By"/><use xlink:href="#AH" x="52.01" y="61.29" class="Bz"/><use xlink:href="#AE" x="103.25" y="90.87" class="CA"/><use xlink:href="#AI" x="29.08" y="48.05" class="By"/><use xlink:href="#AD" x="108.88" y="94.12" class="Bz"/><use xlink:href="#AN" x="107.36" y="82.74" class="CA"/><path d="M51.27 250.96v1.43l-4.34 2.52.01-1.44 4.33-2.51z" class="By"/><path d="M46.94 253.47l-.01 1.44-6.21-3.6v-1.43l6.22 3.59z" class="Bz"/><path d="M51.27 250.96l-4.33 2.51-6.22-3.59 4.33-2.51 6.22 3.59z" class="CA"/><use xlink:href="#AC" x="-24.37" y="24.11" class="By"/><path d="M54.58 257.89v1.43l-6.22-3.59v-1.43l6.22 3.59z" class="Bz"/><path d="M58.91 255.37l-4.33 2.52-6.22-3.59 4.34-2.52 6.21 3.59z" class="CA"/><use xlink:href="#AI" x="-96.53" y="-17.55" class="By"/><path d="M62.22 262.3v1.43L56 260.14v-1.43l6.22 3.59z" class="Bz"/><path d="M66.56 259.78l-4.34 2.52-6.22-3.59 4.34-2.52 6.22 3.59z" class="CA"/><use xlink:href="#AI" x="-56.42" y="5.61" class="By"/><path d="M102.33 285.46v1.43l-38.74-22.37v-1.43l38.74 22.37z" class="Bz"/><path d="M106.67 282.94l-4.34 2.52-38.74-22.37 4.34-2.52 38.74 22.37z" class="CA"/><path d="M113.57 286.93v1.43l-4.34 2.51.01-1.43 4.33-2.51z" class="By"/><path d="M109.24 289.44l-.01 1.43-5.86-3.38.01-1.43 5.86 3.38z" class="Bz"/><path d="M113.57 286.93l-4.33 2.51-5.86-3.38 4.33-2.52 5.86 3.39z" class="CA"/><use xlink:href="#AF" x="26.1" y="53.25" class="By"/><path d="M116.44 293.6l-.01 1.43-5.86-3.38.01-1.43 5.86 3.38z" class="Bz"/><path d="M120.77 291.08l-4.33 2.52-5.86-3.38 4.33-2.52 5.86 3.38z" class="CA"/><use xlink:href="#AL" x="54.44" y="59.11" class="By"/><path d="M123.63 297.76v1.43l-5.86-3.39v-1.43l5.86 3.39z" class="Bz"/><path d="M127.97 295.24l-4.34 2.52-5.86-3.39 4.34-2.52 5.86 3.39z" class="CA"/><path d="M135.17 299.39v1.44l-4.34 2.52.01-1.43 4.33-2.53z" class="By"/><path d="M130.84 301.92l-.01 1.43-5.86-3.39v-1.43l5.87 3.39z" class="Bz"/><path d="M135.17 299.39l-4.33 2.53-5.87-3.39 4.34-2.52 5.86 3.38z" class="CA"/><use xlink:href="#AF" x="74.61" y="81.26" class="By"/><use xlink:href="#AG" x="74.61" y="81.26" class="Bz"/><use xlink:href="#AE" x="86" y="87.83" class="CA"/><use xlink:href="#AC" x="91.64" y="91.09" class="By"/><use xlink:href="#AD" x="91.64" y="91.09" class="Bz"/><use xlink:href="#AO" x="61.61" y="63.25" class="CA"/><use xlink:href="#AL" x="107.03" y="89.47" class="By"/><use xlink:href="#AJ" x="17.47" y="48.27" class="Bz"/><use xlink:href="#AM" x="107.03" y="89.47" class="CA"/><use xlink:href="#AC" x="102.91" y="97.59" class="By"/><use xlink:href="#AD" x="102.91" y="97.59" class="Bz"/><use xlink:href="#AO" x="72.88" y="69.75" class="CA"/><use xlink:href="#AP" x="16.73" y="9.66" class="By"/><path d="M165.81 294.43v1.44l-4.59-2.65v-1.43l4.59 2.64z" class="Bz"/><path d="M170.15 291.92l-4.34 2.51-4.59-2.64 4.34-2.52 4.59 2.65z" class="CA"/><use xlink:href="#AF" x="81.11" y="57.34" class="By"/><use xlink:href="#AH" x="41.26" y="34.33" class="Bz"/><use xlink:href="#AE" x="92.5" y="63.91" class="CA"/><use xlink:href="#AI" x="18.33" y="21.09" class="By"/><use xlink:href="#AD" x="98.13" y="67.16" class="Bz"/><use xlink:href="#AN" x="96.61" y="55.78" class="CA"/><path d="M164.17 295.39v1.43l-4.33 2.51v-1.43l4.33-2.51z" class="By"/><path d="M159.84 297.9v1.43l-4.59-2.64v-1.44l4.59 2.65z" class="Bz"/><path d="M164.17 295.39l-4.33 2.51-4.59-2.65 4.34-2.51 4.58 2.65z" class="CA"/><use xlink:href="#AL" x="96.28" y="62.51" class="By"/><use xlink:href="#AJ" x="6.72" y="21.31" class="Bz"/><use xlink:href="#AM" x="96.28" y="62.51" class="CA"/><use xlink:href="#AI" x="12.36" y="24.56" class="By"/><use xlink:href="#AD" x="92.16" y="70.63" class="Bz"/><use xlink:href="#AN" x="90.64" y="59.25" class="CA"/><use xlink:href="#AI" x="-5.22" y="28.25" class="By"/><use xlink:href="#AD" x="74.58" y="74.32" class="Bz"/><use xlink:href="#AN" x="73.06" y="62.94" class="CA"/><use xlink:href="#AI" x="-16.83" y="28.47" class="By"/><use xlink:href="#AJ" x="-16.83" y="28.47" class="Bz"/><use xlink:href="#AM" x="72.73" y="69.67" class="CA"/><use xlink:href="#AI" x="-11.19" y="31.72" class="By"/><path d="M147.56 311.57V313l-4.59-2.65v-1.43l4.59 2.65z" class="Bz"/><use xlink:href="#AN" x="67.09" y="66.41" class="CA"/><use xlink:href="#AL" x="84" y="76.17" class="By"/><path d="M153.19 314.82v1.43l-4.59-2.65.01-1.42 4.58 2.64z" class="Bz"/><path d="M157.53 312.3l-4.34 2.52-4.58-2.64 4.33-2.53 4.59 2.65z" class="CA"/></g><path d="M372.57 268.49l-121.3 68.93-1.46-.84 119.86-68.09-185.04-106.84-86.4 48.64 81.87 47.27-24.03 14.64-1.46-.84 22.59-13.8-81.87-47.27 89.28-50.32 187.96 108.52z" fill="#b7b7b7"/><g class="E"><path d="M390.13 303.88v.41l-24.25-14v-.41l24.25 14z" class="CN"/><path d="M392,301.71a.57.57,0,0,1,0,1.08l-1.86,1.09-24.25-14,1.86-1.08a2.06,2.06,0,0,1,1.87,0Z" class="CM"/><g class="CS"><path d="M361.98 294.09v.42l-1.02.59v-.41l1.02-.6zm-2.4 1.4v.41l-1.02.6v-.42l1.02-.59zm-2.25 1.31v.41l-1.03.6v-.42l1.03-.59z"/></g><path d="M365.49 298.89v.42l-5.91-3.41v-.41l5.91 3.4z" class="CN"/><path d="M365.49 298.89v.42l-1.03.59.01-.41 1.02-.6z" class="CQ"/><path d="M364.47 299.49l-.01.41-5.9-3.4v-.42l5.91 3.41z" class="CR"/><path d="M368.02 300.35l-.01.42-1.01.6v-.42l1.02-.6z" class="CS"/><path d="M374.14 301.11v.42l-12.16-7.02v-.42l12.16 7.02z" class="CN"/><path d="M374.14 301.11v.42l-1.02.6v-.42l1.02-.6z" class="CQ"/><path d="M373.12 301.71v.42l-12.16-7.03v-.41l12.16 7.02z" class="CR"/><path d="M371.74 302.51v.42l-3.73-2.16.01-.42 3.72 2.16z" class="CN"/><path d="M370.72 303.1v.41l-3.72-2.14v-.42l3.72 2.15z" class="CR"/><path d="M371.74 302.51l-1.02.59-3.72-2.15 1.02-.6 3.72 2.16z" fill="#bebebe"/><path d="M371.74 302.51v.42l-1.02.58v-.41l1.02-.59z" class="CQ"/><path d="M369.49 303.82v.41l-12.16-7.02v-.41l12.16 7.02z" class="CN"/><path d="M369.49 303.82v.41l-1.03.6v-.42l1.03-.59z" class="CQ"/><path d="M369.49 303.82l-1.03.59-12.16-7.02 1.03-.59 12.16 7.02z" fill="#bebebe"/><path d="M368.46 304.41v.42l-12.16-7.02v-.42l12.16 7.02z" class="CR"/><path d="M386.88 305.77v.42l-24.26-14.01.01-.42 24.25 14.01z" class="CC"/><path d="M382.58 305.99v.41l-5.73-3.3v-.42l5.73 3.31z" class="CN"/><path d="M376.85 302.68v.42l-5.68 3.29.01-.41 5.67-3.3z" class="CS"/><path d="M382.58 305.99v.41l-5.68 3.3v-.41l5.68-3.3z" class="CQ"/><path d="M376.9 309.29v.41l-5.73-3.31.01-.41 5.72 3.31z" class="CR"/><path d="M352.48 297.66l10.15-5.89 24.25 14-10.15 5.9a2.09 2.09 0 0 1-1.87 0l-22.38-12.92c-.48-.3-.48-.75 0-1.09z" class="CM"/><g class="CH"><path d="M365.49 298.89l-1.02.6-5.91-3.41 1.02-.59 5.91 3.4zm8.65 2.22l-1.02.6-12.16-7.02 1.02-.6 12.16 7.02zm15.99 2.77l-3.25 1.89-24.25-14.01 3.25-1.88 24.25 14zm-7.55 2.11l-5.68 3.3-5.72-3.31 5.67-3.3 5.73 3.31z"/></g><path d="M392 302.79l-15.26 8.88a2 2 0 0 1-.43.16h-.18-.31-.2-.29l-.18-.06a1.17 1.17 0 0 1-.28-.11l-22.38-12.92a1 1 0 0 1-.28-.24h0a.58.58 0 0 1-.09-.27v.47a1 1 0 0 0 .05.16v.06h0 0l.12.12.13.08 22.38 12.92h.05l.22.08a1.06 1.06 0 0 0 .19.06 1.43 1.43 0 0 0 .29 0h.2.32.17a1.42 1.42 0 0 0 .42-.17l15.34-8.8a.65.65 0 0 0 .39-.54v-.42a.64.64 0 0 1-.39.54z" fill="#c1463d"/><g class="CF"><path d="M276.16 281.06l-28.07 16.33h0l-2.27 1.33a2.33 2.33 0 0 1-2.06 0l-6.42-3.72 1.86-1.08v-1.67l-3.3 1.93-7.9-4.52h0v-1.18a.71.71 0 0 0-.42.59v1.66a.19.19 0 0 0 0 .08.64.64 0 0 0 .06.18h0 0v.07l.18.15h.06l7.87 4.54 7.86 4.53a2.31 2.31 0 0 0 2.05 0l30.35-17.66a.72.72 0 0 0 .42-.59v-1.67a.72.72 0 0 1-.27.7zm-2.04-.49l-.01 1.66-14.84-8.56V272l14.85 8.57z"/></g><path d="M231.8 287.99l-.01 1.66-1.47-.84.01-1.67 1.47.85z" fill="#808081"/><path d="M259.27 272v1.67l-27.48 15.98.01-1.66L259.27 272z" class="CF"/><path d="M230.33 287.14l-.01 1.67-2.29 1.32.01-1.66 2.29-1.33z" class="CI"/><path d="M239.21 292.26l-.01 1.67-7.41-4.28.01-1.66 7.41 4.27z" fill="#3d656e"/><path d="M274.12 280.87l-27.48 15.98-7.43-4.29-7.41-4.27 27.47-15.98 14.85 8.56z" class="CO"/><path d="M246.64 296.55v1.67l-7.44-4.29.01-1.67 7.43 4.29z" fill="#3d656e"/><path d="M274.12 280.57l-.01 1.66-27.47 15.99v-1.67l27.48-15.98z" fill="#3a6069"/><path d="M276.15 279.87l-15.71-9.06a2.25 2.25 0 0 0-2.05 0L228 288.47c-.57.32-.56.85 0 1.19l7.86 4.53 7.86 4.53a2.33 2.33 0 0 0 2.06 0l30.34-17.66c.61-.33.6-.86.03-1.19zm-29.51 16.68l-7.44-4.29-7.4-4.26 27.47-16 14.85 8.57z" class="CP"/></g><path d="M131 129.2l-42.2-24.29H63.36l-60.14 35c-1.87 1.09-1.86 2.86 0 4l51.5 29.69a7.49 7.49 0 0 0 6.82 0L131 133.15c1.85-1.09 1.84-2.86 0-3.95z" class="CH"/><path d="M88.81 104.91l-8.54 5-.15.09-.62.35a7.44 7.44 0 0 1-6.81 0l-4-2.32-.25-.14-.16-.09-.28-.2-4.65-2.69z" fill="#ddd3ca"/><path d="M11.13 141.19l-.01-.01h.01v.01z" class="CG"/><g class="E"><g class="CG"><path d="M62.58 111.53l-.25-.15 6.09-3.54.25.14-6.09 3.55z"/><path d="M62.33 111.38l.25.15 7.49 4.32-.15.09-7.49-4.32-.26-.15-.07-.04.16-.09.07.04z"/><path d="M62.17 111.47l.26.15-10.08 5.87-.25-.15 10.07-5.87zm-14.94 26.99l-8.82 5.13-.56.15 9.23-5.38.15-.08 10.09-5.88.16-.09 10.09-5.87.15-.09 10.08-5.87.16-.09 10.09-5.87.23.04-10.17 5.92-.15.09-10.08 5.87-.15.09-10.1 5.87-.15.09-10.09 5.88-.16.09z"/><path d="M70.07 116.02l.15-.09 7.74 4.46-.16.09-7.73-4.46zm-17.97 1.32l.25.15 7.49 4.31-.15.09-7.49-4.31-.26-.15-.07-.04.15-.09.08.04z"/><path d="M51.94 117.43l.26.15-10.09 5.87-.26-.15 10.09-5.87zm26.02 3.14l.15-.09 7.75 4.47-.16.09-7.74-4.47z"/><path d="M59.99 121.89l7.73 4.46-.15.09-7.73-4.46.15-.09zm-18.14 1.41l.26.15 7.48 4.32-.15.08-7.49-4.31-.25-.15-.08-.04.15-.09.08.04z"/><path d="M85.85 125.12l.16-.09 7.74 4.47-.15.09-7.75-4.47zm-44.15-1.73l.25.15-10.09 5.87-.26-.15 10.1-5.87zm26.03 3.14l.15-.09 7.74 4.46-.15.09-7.74-4.46z"/></g><path d="M59.84 121.98l7.73 4.46-10.09 5.87-7.73-4.46 10.09-5.87z" class="CH"/><g class="CG"><path d="M49.59 127.94l.16-.09 7.73 4.46-.16.09-7.73-4.46z"/><path d="M39.86 133.61l.02-.11-.24.06 9.8-5.71.15-.08 10.1-5.88.15-.09 10.08-5.86.15-.09 10.09-5.88.23.05-10.17 5.91-.15.09-10.08 5.87-.15.09-10.09 5.87-.16.09-9.73 5.67zm-8.26-4.35l.26.15 7.37 4.25-.21.06-7.31-4.22-.26-.15-.08-.04.16-.09.07.04zm62.15.42l.15-.09 7.73 4.46-.15.08-7.73-4.45zm7.89 4.54l.15-.09 1.55.9-.23.04-1.47-.85z"/><path d="M75.62 131.08l.16-.09 7.74 4.46-.16.09-7.74-4.46zm-44.17-1.73l.26.15-10.08 5.87-.26-.15 10.08-5.87zm70.19 4.87l-2.54 1.48-.43.07 2.81-1.64.15-.08 10.1-5.88.07-.04.16.09-.07.04-10.1 5.87-.15.09z"/></g><path d="M67.73 126.53l7.74 4.46-9.87 5.75-.44-.05-.06.02-7.47-4.31 10.1-5.87z" class="CH"/><g class="CG"><path d="M83.52 135.63l-4.05 2.36-.34.02 4.23-2.47.16-.09 10.08-5.86.15-.09 10.09-5.88.08-.04.15.09-.07.04-10.1 5.88-.15.09-10.08 5.86-.15.09z"/><path d="M119.93 132.72l-61.44 35.77-47.67-27.3.21-.13.27.36 7.57 4.23 7.88 4.54 7.9 4.56 7.9 4.55 7.89 4.55 7.89 4.55 10.09-5.87 10.24-5.96 10.24-5.97 10.25-5.96 10.23-5.95 10.25-5.97-7.74-4.46-7.89-4.55-7.9-4.55-7.89-4.55-7.9-4.55 39.62 22.66z"/><path d="M75.62 131.08l-9.76 5.68-.26-.02 9.87-5.75.15-.09 10.08-5.86.16-.09 10.09-5.88.07-.04.15.09-.07.04-10.09 5.87-.16.09-10.07 5.87-.16.09zm-18.14 1.41l.15-.09 7.47 4.31-.21.05-7.41-4.27zm-36.11 2.73l.26.15 3.39 1.96-.21.05-3.33-1.92-.27-.15-.07-.04.16-.09.07.04zm62.15.41l.15-.09 3.48 2.01-.27.02-3.36-1.94z"/></g><g class="CH"><path d="M83.52 135.63l3.36 1.94-7.41.42 4.05-2.36zm-7.9-4.55l7.74 4.46-4.23 2.47-.47.02-12.8-1.27 9.76-5.68z"/></g><g class="CG"><path d="M39.74 134.13l.03-.16 7.46 4.31-.15.08-7.34-4.23zm69.79 4.47l.08.04-.15.09-.08-.04-5.56-3.21.23-.04 5.48 3.16zm-84.06-.84l.22-.05 3.42 1.97-.15.09-3.49-2.01z"/></g><path d="M87.91 137.99l9.54-1.51L91.4 140l-3.49-2.01z" class="CH"/><g class="CG"><path d="M87.67 138.02l.24-.03L91.4 140l-.15.09-3.58-2.07zm-40.44.44l.16-.09 3.48 2.01-.21.05-3.43-1.97zm-25.75-3l-8.58 4.99-.94.24 9.25-5.38.27.15z"/><path d="M21.14 135.27l-9.18 5.42-.53.14 56.83-33.08.16.09-6.09 3.54-.23.05-10 5.91-.23.05-10.02 5.91-.23.05-10.02 5.91-.23.05-10 5.91-.23.05z"/></g><path d="M66.13 137.3l12.13 1.21-4.99 2.91-7.14-4.12z" class="CH"/><g class="CG"><path d="M65.76 137.26l.37.04 7.14 4.12-.15.09-7.36-4.25zm-14.43 3.55l.21-.05 3.59 2.07-.15.09-3.65-2.11z"/></g><g class="CH"><path d="M50.66 140.43l-12.25 3.16 8.82-5.13 3.43 1.97zm-11.84-6.11L36.61 144l-7.34-4.23 9.22-5.36.33-.09z"/></g><g class="CG"><path d="M29.27 139.77l7.34 4.23-.04.16-7.46-4.29.16-.1zm70.03 4.79l.07.04-.14.08-.08-.04-7.74-4.46.15-.09 7.74 4.47z"/></g><path d="M119.5 132.65l-1.98.99-.17-.29-13.3 2.09-.23.04-5.95.93-.42.07-9.54 1.51-9.34.55-.31-.03-12.13-1.21-.37-.04-.48-.04-.36.09-.55.14-12.83 3.31-14.21 3.66-.63.16-.24.07.11-.49.04-.16 2.21-9.68-.33.09-.55.14-12.25 3.16-14.39 3.71-.17-.23.3-.36.53-.14.94-.24 11.91-3.07 14.21-3.66.62-.16.24-.06-.11.47-.03.16-2.21 9.69.32-.08.56-.15 12.25-3.16 14.23-3.67.71-.02.26.02 12.8 1.27.47-.02.34-.02 7.41-.42.27-.02.35-.02 11.17-1.76.43-.07 4.01-.63 14.01-2.21-.14-.3 2.52.09z" class="CM"/><path d="M18.94 145.78l-.15-.09.08-.04 10.09-5.88.15-.09 8.83-5.13.55-.14-9.22 5.36-.16.1-10.09 5.87-.08.04z" class="CG"/><path d="M87.67 138.02l3.58 2.07-10.09 5.88-7.74-4.46 5.11-2.97h.04l9.1-.52z" class="CH"/><g class="CG"><path d="M73.28 141.59l.14-.08 7.74 4.46-.15.08-7.73-4.46zm-28.38 7.37l-10.09 5.88-.08.04-.15-.09.07-.04 10.09-5.88.16-.09 10.08-5.86.15-.09 9.24-5.38.55-.14-9.64 5.61-.15.09-10.07 5.86-.16.09z"/><path d="M55.13 143.01l.15-.09 7.74 4.46-.15.09-7.74-4.46z"/></g><path d="M51.33 140.81l3.65 2.11-10.08 5.86-7.57-4.36 14-3.61z" class="CH"/><g class="CG"><path d="M37.33 144.42l7.57 4.36-.16.09-7.62-4.39.21-.06zm-.63.16l-9.79 5.7-.08.05-.16-.09.08-.05 9.74-5.66-.03.12.24-.07zm52.35 5.94l.08.04-.15.09-.08-.05-7.74-4.46.15-.09 7.74 4.47zm-26.02-2.96l.15-.09 7.73 4.46-.15.09-7.73-4.46z"/></g><path d="M55.13 143.01l7.74 4.46-10.08 5.86-7.73-4.46 10.07-5.86z" class="CH"/><g class="CG"><path d="M45.06 148.87l7.73 4.46-.15.1-7.74-4.47.16-.09zm33.74 7.61l.08.05-.15.08-.07-.04-7.75-4.47.15-.08 7.74 4.46z"/></g><path d="M63.03 147.56l7.73 4.46-10.07 5.86-7.74-4.45 10.08-5.87z" class="CH"/><g class="CG"><path d="M52.8 153.51l.15-.08 7.74 4.45-.16.09-7.73-4.46z"/><path d="M52.8 153.51l-10.1 5.88-.23-.05 10.17-5.91.15-.1 10.08-5.86.15-.09 10.1-5.87.15-.09 4.99-2.91.27.03-5.11 2.97-.14.08-10.1 5.88-.15.09-10.08 5.87-.15.08z"/></g><path d="M70.91 152.1l7.75 4.47-10.08 5.86-7.74-4.46 10.07-5.87z" class="CH"/><g class="CG"><path d="M68.58 162.43l.07.05-.15.09-.08-.04-7.74-4.47.16-.09 7.74 4.46z"/><path d="M60.68 158.06l-10.09 5.87-.23-.04 10.17-5.92.16-.09 10.07-5.86.15-.09 10.1-5.88.15-.08 10.09-5.88.15-.09 6.05-3.52.42-.07-6.31 3.68-.15.09-10.1 5.87-.15.09-10.1 5.88-.15.08-10.07 5.87-.16.09z"/><path d="M60.19 169.47l-.66.38-49.48-28.52.25-.15.41-.23 57.3-33.35.25.15-56.96 33.67 48.89 28.05z"/></g><path d="M370.38 340.53l-28.16 16.36a2.35 2.35 0 0 1-.61.24h-.23a3.4 3.4 0 0 1-.46.06h-.27-.43l-.26-.07a2.33 2.33 0 0 1-.52-.2l-22.19-12.81a1.24 1.24 0 0 1-.25-.18.52.52 0 0 1-.1-.11.34.34 0 0 1-.08-.09.72.72 0 0 1-.12-.27.45.45 0 0 1 0-.16v1.67a.57.57 0 0 0 0 .13.8.8 0 0 0 .12.27h0l.1.1.08.09h0a1.43 1.43 0 0 0 .24.16h0l22.2 12.81a1.87 1.87 0 0 0 .32.15 1.17 1.17 0 0 0 .2.05l.26.07.43.05h.26a3.78 3.78 0 0 0 .47-.06 1.66 1.66 0 0 0 .22 0 2.35 2.35 0 0 0 .61-.24l28.16-16.36a1 1 0 0 0 .57-.8v-1.67a1 1 0 0 1-.56.81z" fill="#63a4b2"/><path d="M370.37,338.92a.85.85,0,0,1,0,1.61l-28.16,16.36a3,3,0,0,1-2.78,0l-22.19-12.81a.85.85,0,0,1,0-1.61l28.16-16.36a3.06,3.06,0,0,1,2.78,0Z" class="CO"/><g class="E CU"><g clip-path="url(#A)"><g><path d="M342.76,333.49v.84a.22.22,0,0,1-.13.18v-.83a.22.22,0,0,0,.13-.19Z"/></g></g></g><g class="E"><g clip-path="url(#B)"><g><path d="M336.88 333.68v.84h-.01l.01-.84h0 0z" class="CN"/><path d="M336.88 333.68v.84h-.05v-.84h.06z" class="CV"/><path d="M336.82,333.64v.84l-.05-.05v-.84l.05.05Z" fill="#8b4335"/><path d="M336.77 333.59v.84a.19.19 0 0 1 0-.08v-.83.07z" fill="#904637"/><path d="M336.74,333.52v0Z" fill="#954839"/></g></g></g><path d="M342.63 333.68v.83l-2.54 1.48v-.84l2.54-1.47z" class="CS"/><path d="M339.43 335.15l-.01.84-2.54-1.47v-.84l2.55 1.47z" class="CV"/><g class="E"><g clip-path="url(#C)"><g><path d="M340.09,335.15V336a.75.75,0,0,1-.59,0v-.83a.71.71,0,0,0,.59,0Z" class="CU"/><path d="M339.5 335.19v.81h-.08v-.84h.07z" class="CN"/></g></g></g><path d="M342.62,333.3a.2.2,0,0,1,0,.38l-2.54,1.47a.7.7,0,0,1-.66,0l-2.55-1.47a.2.2,0,0,1,0-.38l2.53-1.48a.73.73,0,0,1,.66,0Z" class="CM"/><g class="E CD"><g clip-path="url(#D)"><g><path d="M348,336.51v.83c0,.07-.05.13-.14.19v-.84a.22.22,0,0,0,.13-.18Z"/></g></g></g><g class="E"><g clip-path="url(#E)"><g><path d="M342.09 336.69l-.01.83h0l.01-.83h0 0z" class="CC"/><path d="M342.09 336.69v.83a.1.1 0 0 1-.05 0v-.83h.06z" class="CE"/><path d="M342 336.65v.83h0v-.84h0z" class="CJ"/><path d="M342 336.6v.84-.08-.83.07z" class="CK"/><path d="M342,336.53v0Z" class="CL"/></g></g></g><path d="M347.85 336.69l-.01.83-2.54 1.48.01-.83 2.54-1.48z" class="CI"/><path d="M344.64 338.17v.83l-2.56-1.48.01-.83 2.55 1.48z" class="CE"/><g class="E"><g clip-path="url(#F)"><g><path d="M345.31,338.17V339a.77.77,0,0,1-.58,0v-.84a.75.75,0,0,0,.59,0Z" class="CD"/><path d="M344.72 338.2v.8h-.08v-.83h.08z" class="CC"/></g></g></g><path d="M347.84,336.31c.18.11.19.27,0,.38l-2.54,1.48a.79.79,0,0,1-.67,0l-2.55-1.48c-.19-.11-.19-.28,0-.38l2.54-1.48a.73.73,0,0,1,.66,0Z" class="CF"/><g class="E CD"><g clip-path="url(#G)"><g><path d="M353.19,339.51v.84a.21.21,0,0,1-.14.18v-.83a.22.22,0,0,0,.13-.19Z"/></g></g></g><g class="E"><g clip-path="url(#H)"><g><path d="M347.3 339.7v.84h0v-.84h0 0z" class="CC"/><path d="M347.3 339.7v.83h-.06v-.84h.06z" class="CE"/><path d="M347.24 339.66v.84-.05-.84.05z" class="CJ"/><path d="M347.2,339.61v.84a.13.13,0,0,1,0-.08v-.83a.09.09,0,0,0,0,.07Z" class="CK"/><path d="M347.17,339.54v.83a0,0,0,0,1,0,0v-.8Z" class="CL"/></g></g></g><path d="M353.06 339.7l-.01.83-2.54 1.48.01-.84 2.54-1.47z" class="CI"/><path d="M349.86 341.18v.83l-2.56-1.47v-.84l2.56 1.48z" class="CE"/><g class="E"><g clip-path="url(#I)"><g><path d="M350.52,341.17V342a.73.73,0,0,1-.58,0v-.84a.71.71,0,0,0,.59,0Z" class="CD"/><path d="M349.93 341.21v.84h-.07v-.83h.07z" class="CC"/></g></g></g><path d="M353.05,339.32c.19.11.19.27,0,.38l-2.54,1.47a.73.73,0,0,1-.66,0l-2.56-1.48a.2.2,0,0,1,0-.38l2.54-1.48a.73.73,0,0,1,.66,0Z" class="CF"/><g class="E CD"><g clip-path="url(#J)"><g><path d="M358.4,342.53v.83a.23.23,0,0,1-.13.19v-.84a.22.22,0,0,0,.13-.18Z"/></g></g></g><g class="E"><g clip-path="url(#K)"><g><path d="M352.52 342.71v.84h-.01l.01-.84h0 0z" class="CC"/><path d="M352.52 342.71v.84h-.05v-.84h.06z" class="CE"/><path d="M352.46 342.67v.84-.05-.84.05z" class="CJ"/><path d="M352.41 342.62v.84a.11.11 0 0 1 0-.08v-.83.07z" class="CK"/><path d="M352.38,342.55v0Z" class="CL"/></g></g></g><path d="M358.27 342.71v.84l-2.54 1.47v-.83l2.54-1.48z" class="CI"/><path d="M355.07 344.19v.83l-2.55-1.47v-.84l2.55 1.48z" class="CE"/><g class="E"><g clip-path="url(#L)"><g><path d="M355.73,344.19V345a.8.8,0,0,1-.59,0v-.84a.75.75,0,0,0,.59,0Z" class="CD"/><path d="M355.14 344.22v.84h-.07v-.83h.07z" class="CC"/></g></g></g><path d="M358.26,342.33c.19.11.19.28,0,.38l-2.54,1.48a.76.76,0,0,1-.66,0l-2.55-1.48c-.19-.1-.19-.27,0-.38l2.54-1.48a.71.71,0,0,1,.65,0Z" class="CF"/><g class="E CD"><g clip-path="url(#M)"><g><path d="M337.84,336.36v.83a.26.26,0,0,1-.14.2v-.84a.23.23,0,0,0,.14-.19Z"/></g></g></g><g class="E"><g clip-path="url(#N)"><g><path d="M331.95 336.55v.84h-.01l.01-.84h0 0z" class="CC"/><path d="M332 336.55v.84h-.05v-.84h.06z" class="CE"/><path d="M331.89 336.51v.84l-.05-.05v-.83h0z" class="CJ"/><path d="M331.85 336.47v.83-.07-.84a.3.3 0 0 0 0 .08z" class="CK"/><path d="M331.81,336.39v0Z" class="CL"/></g></g></g><path d="M337.7 336.55v.84l-2.54 1.47v-.83l2.54-1.48z" class="CI"/><path d="M334.5 338.03v.84l-2.55-1.48v-.84l2.55 1.48z" class="CE"/><g class="E"><g clip-path="url(#O)"><g><path d="M335.16 338v.83a.73.73 0 0 1-.58 0V338a.77.77 0 0 0 .58 0z" class="CD"/><path d="M334.58 338.07v.83h-.08v-.9h.08z" class="CC"/></g></g></g><path d="M337.71 336.17a.2.2 0 0 1 0 .38l-2.55 1.45a.73.73 0 0 1-.66 0l-2.5-1.45c-.19-.1-.19-.27 0-.38l2.54-1.48a.76.76 0 0 1 .66 0z" class="CF"/><g class="E CD"><g clip-path="url(#P)"><g><path d="M343.06,339.37v.83a.24.24,0,0,1-.14.2v-.84a.23.23,0,0,0,.14-.19Z"/></g></g></g><g class="E"><g clip-path="url(#Q)"><g><path d="M337.17 339.57l-.01.83h0v-.83h.01 0z" class="CC"/><path d="M337.16 339.57v.83h-.06v-.83h.05z" class="CE"/><path d="M337.11 339.53v.83-.05-.83h.05z" class="CJ"/><path d="M337.06,339.48v.83a.11.11,0,0,1,0-.07v-.84a.13.13,0,0,0,0,.08Z" class="CK"/><path d="M337,339.4v.84a0,0,0,0,1,0,0v-.81Z" class="CL"/></g></g></g><path d="M342.92 339.56l-.01.84-2.53 1.47v-.83l2.54-1.48z" class="CI"/><path d="M339.72 341.04v.84l-2.56-1.48.01-.83 2.55 1.47z" class="CE"/><g class="E"><g clip-path="url(#R)"><g><path d="M340.38 341v.83a.71.71 0 0 1-.59 0V341a.75.75 0 0 0 .59 0z" class="CD"/><path d="M339.79 341.08v.83h-.07V341h.07z" class="CC"/></g></g></g><path d="M342.92,339.18c.18.11.18.28,0,.38L340.38,341a.73.73,0,0,1-.66,0l-2.56-1.47a.21.21,0,0,1,0-.39l2.54-1.47a.72.72,0,0,1,.67,0Z" class="CF"/><g class="E CD"><g clip-path="url(#S)"><g><path d="M348.27,342.38v.84a.23.23,0,0,1-.14.19v-.84a.23.23,0,0,0,.14-.19Z"/></g></g></g><g class="E"><g clip-path="url(#T)"><g><path d="M342.38 342.57l-.01.84h0v-.84h.01 0z" class="CC"/><path d="M342.37 342.57v.84h-.06v-.84a.1.1 0 0 0 .05 0z" class="CE"/><path d="M342.32 342.53v.84-.05-.83h.05z" class="CJ"/><path d="M342.27,342.49v.83a.11.11,0,0,1,0-.07v-.84a.13.13,0,0,0,0,.08Z" class="CK"/><path d="M342.24,342.41v.84a0,0,0,0,1,0,0v-.81Z" class="CL"/></g></g></g><path d="M348.13 342.57v.84l-2.54 1.47v-.83l2.54-1.48z" class="CI"/><path d="M344.93 344.05v.83l-2.56-1.47.01-.84 2.55 1.48z" class="CE"/><g class="E"><g clip-path="url(#U)"><g><path d="M345.59,344.05v.83a.71.71,0,0,1-.59,0v-.84a.73.73,0,0,0,.58,0Z" class="CD"/><path d="M345 344.08v.84h-.07v-.83a.19.19 0 0 0 .08 0z" class="CC"/></g></g></g><path d="M348.13,342.19c.18.11.19.28,0,.38l-2.54,1.48a.7.7,0,0,1-.66,0l-2.56-1.48c-.18-.1-.18-.27,0-.38l2.54-1.48a.79.79,0,0,1,.67,0Z" class="CF"/><g class="E CD"><g clip-path="url(#V)"><g><path d="M353.48,345.39v.83a.26.26,0,0,1-.14.2v-.84a.22.22,0,0,0,.14-.19Z"/></g></g></g><g class="E"><g clip-path="url(#W)"><g><path d="M347.59 345.59v.83h0v-.84.01h0z" class="CC"/><path d="M347.59 345.58v.84h-.06v-.84h.06z" class="CE"/><path d="M347.53 345.54v.84-.05-.83h0z" class="CJ"/><path d="M347.49 345.5v.83-.07-.84a.13.13 0 0 0 0 .08z" class="CK"/><path d="M347.46,345.42v0a0,0,0,0,0,0,0Z" class="CL"/></g></g></g><path d="M353.34 345.58v.84l-2.54 1.47v-.83l2.54-1.48z" class="CI"/><path d="M350.15 347.06l-.01.84-2.55-1.48v-.83l2.56 1.47z" class="CE"/><g class="E"><g clip-path="url(#X)"><g><path d="M350.8,347.06v.83a.73.73,0,0,1-.58,0v-.83a.77.77,0,0,0,.58,0Z" class="CD"/><path d="M350.22 347.1v.83h-.08v-.84h.07z" class="CC"/></g></g></g><path d="M353.35,345.2c.18.11.18.28,0,.38l-2.54,1.48a.71.71,0,0,1-.65,0l-2.56-1.47a.21.21,0,0,1,0-.39l2.54-1.48a.76.76,0,0,1,.66,0Z" class="CF"/><g class="E CD"><g clip-path="url(#Y)"><g><path d="M333,339.25v.84a.22.22,0,0,1-.13.19v-.83a.26.26,0,0,0,.14-.2Z"/></g></g></g><g class="E"><g clip-path="url(#Z)"><g><path d="M327.06 339.44v.84h0v-.84h0 0z" class="CC"/><path d="M327.06 339.44v.84H327v-.84h.06z" class="CE"/><path d="M327 339.4v.84-.05-.84a.1.1 0 0 0 0 0z" class="CJ"/><path d="M327 339.35v.84-.07-.84a.09.09 0 0 0 0 .07z" class="CK"/><path d="M326.93,339.28v0a0,0,0,0,0,0,0Z" class="CL"/></g></g></g><path d="M329.61 340.92v.83l-2.55-1.47v-.84l2.55 1.48z" class="CE"/><path d="M332.81 339.44v.84l-2.54 1.48v-.84l2.54-1.48z" class="CI"/><g class="E"><g clip-path="url(#a)"><g><path d="M330.27,340.92v.84a.73.73,0,0,1-.58,0V341a.73.73,0,0,0,.58,0Z" class="CD"/><path d="M329.69 341v.84h-.08v-.83h.08z" class="CC"/></g></g></g><path d="M332.81,339.06a.21.21,0,0,1,0,.39l-2.54,1.47a.76.76,0,0,1-.66,0l-2.55-1.47c-.19-.12-.18-.28,0-.39l2.54-1.47a.72.72,0,0,1,.67,0Z" class="CF"/><g class="E CD"><g clip-path="url(#b)"><g><path d="M338.16,342.27v.83a.23.23,0,0,1-.14.19v-.83a.22.22,0,0,0,.13-.19Z"/></g></g></g><g class="E"><g clip-path="url(#c)"><g><path d="M332.27 342.45v.84h0v-.84h0 0z" class="CC"/><path d="M332.27 342.45v.84h-.06v-.84a.1.1 0 0 0 0 0z" class="CE"/><path d="M332.22 342.41v.84-.05-.83h.05z" class="CJ"/><path d="M332.17,342.37v.83a.11.11,0,0,1,0-.08v-.83a.13.13,0,0,0,0,.08Z" class="CK"/><path d="M332.14,342.29v.83a0,0,0,0,1,0,0v-.8Z" class="CL"/></g></g></g><path d="M334.83 343.93v.83l-2.56-1.47v-.84l2.56 1.48z" class="CE"/><path d="M338.03 342.46l-.01.83-2.53 1.48v-.84l2.54-1.47z" class="CI"/><g class="E"><g clip-path="url(#d)"><g><path d="M335.49,343.93v.84a.72.72,0,0,1-.58,0V344a.77.77,0,0,0,.58,0Z" class="CD"/><path d="M334.91 344v.83h-.07V344h.08z" class="CC"/></g></g></g><path d="M338,342.07c.19.11.19.28,0,.39l-2.54,1.47a.76.76,0,0,1-.66,0l-2.56-1.48a.2.2,0,0,1,0-.38l2.54-1.47a.72.72,0,0,1,.67,0Z" class="CF"/><g class="E CD"><g clip-path="url(#e)"><g><path d="M343.38,345.27v.84a.22.22,0,0,1-.14.19v-.84a.23.23,0,0,0,.14-.19Z"/></g></g></g><g class="E"><g clip-path="url(#f)"><g><path d="M337.49 345.46v.84h0v-.84h0 0z" class="CC"/><path d="M337.49 345.46v.84h-.06v-.84h.06z" class="CE"/><path d="M337.43 345.42v.84l-.05-.05v-.83h0z" class="CJ"/><path d="M337.39 345.38v.83-.07-.84a.13.13 0 0 0 0 .08z" class="CK"/><path d="M337.36,345.3v0a0,0,0,0,0,0,0Z" class="CL"/></g></g></g><path d="M343.24 345.46v.84l-2.55 1.48.01-.84 2.54-1.48z" class="CI"/><path d="M340.05 346.94v.83l-2.56-1.47v-.84l2.56 1.48z" class="CE"/><g class="E"><g clip-path="url(#g)"><g><path d="M340.7,346.94v.84a.75.75,0,0,1-.57,0V347a.77.77,0,0,0,.58,0Z" class="CD"/><path d="M340.12 347v.83h-.08v-.84h.07z" class="CC"/></g></g></g><path d="M343.24,345.08c.18.11.18.28,0,.38l-2.54,1.48a.71.71,0,0,1-.65,0l-2.56-1.48a.2.2,0,0,1,0-.38l2.54-1.47a.72.72,0,0,1,.67,0Z" class="CF"/><g class="E CD"><g clip-path="url(#h)"><g><path d="M348.59,348.29v.83a.23.23,0,0,1-.14.19v-.83c.09-.06.14-.12.14-.19Z"/></g></g></g><g class="E"><g clip-path="url(#i)"><g><path d="M342.7 348.47v.84h0v-.84h0 0z" class="CC"/><path d="M342.7 348.47v.84h-.06v-.84h.06z" class="CE"/><path d="M342.64 348.43v.84h0v-.83h0z" class="CJ"/><path d="M342.6,348.39v.83a.11.11,0,0,1,0-.07v-.84a.13.13,0,0,0,0,.08Z" class="CK"/><path d="M342.57 348.31v.84a0 0 0 0 1 0 0v-.84z" class="CL"/></g></g></g><path d="M345.26 349.95l-.01.83-2.55-1.47v-.84l2.56 1.48z" class="CE"/><path d="M348.45 348.48v.83l-2.54 1.48v-.84l2.54-1.47z" class="CI"/><g class="E"><g clip-path="url(#j)"><g><path d="M345.91,350v.84a.73.73,0,0,1-.58,0V350a.73.73,0,0,0,.58,0Z" class="CD"/><path d="M345.33 350v.84h-.08V350h.07z" class="CC"/></g></g></g><path d="M348.45,348.09c.18.11.19.28,0,.39L345.91,350a.74.74,0,0,1-.65,0l-2.56-1.48a.19.19,0,0,1,0-.37l2.54-1.48a.7.7,0,0,1,.66,0Z" class="CF"/><g class="E CD"><g clip-path="url(#k)"><g><path d="M328,342.1v.83a.23.23,0,0,1-.14.19v-.83a.25.25,0,0,0,.14-.19Z"/></g></g></g><g class="E"><g clip-path="url(#l)"><g><path d="M322.08 342.29v.83h0v-.83h0 0z" class="CC"/><path d="M322.08 342.29v.83h-.06v-.83h.06z" class="CE"/><path d="M322 342.25v.83a.1.1 0 0 1 0-.05v-.83.05z" class="CJ"/><path d="M322 342.2v.8a.16.16 0 0 1 0-.07v-.84a.13.13 0 0 0 0 .08z" class="CK"/><path d="M322 342.12h0z" class="CL"/></g></g></g><path d="M327.84 342.29v.83l-2.54 1.48v-.84l2.54-1.47z" class="CI"/><path d="M324.64 343.76v.84l-2.56-1.48v-.83l2.56 1.47z" class="CE"/><g class="E"><g clip-path="url(#m)"><g><path d="M325.3,343.76v.84a.75.75,0,0,1-.59,0v-.83a.71.71,0,0,0,.59,0Z" class="CD"/><path d="M324.71 343.8v.83h-.07v-.84h.07z" class="CC"/></g></g></g><path d="M327.84,341.9a.21.21,0,0,1,0,.39l-2.54,1.47a.7.7,0,0,1-.66,0l-2.56-1.47a.21.21,0,0,1,0-.39l2.54-1.47a.7.7,0,0,1,.66,0Z" class="CF"/><g class="E CD"><g clip-path="url(#n)"><g><path d="M333.19,345.1v.84a.23.23,0,0,1-.14.19v-.83a.26.26,0,0,0,.14-.2Z"/></g></g></g><g class="E"><g clip-path="url(#o)"><g><path d="M327.3 345.3v.83h0v-.83h0 0z" class="CC"/><path d="M327.3 345.3v.83a.1.1 0 0 1-.05 0v-.83h.06z" class="CE"/><path d="M327.24 345.26v.83h-.05v-.83.05z" class="CJ"/><path d="M327.2 345.21v.79-.07-.83a.25.25 0 0 0 0 .07z" class="CK"/><path d="M327.16,345.14v0Z" class="CL"/></g></g></g><path d="M333.05 345.3v.83l-2.54 1.48v-.84l2.54-1.47z" class="CI"/><path d="M329.85 346.77v.84l-2.55-1.48v-.83l2.55 1.47z" class="CE"/><g class="E"><g clip-path="url(#p)"><g><path d="M330.51,346.77v.84a.73.73,0,0,1-.58,0v-.83a.73.73,0,0,0,.58,0Z" class="CD"/><path d="M329.93 346.81v.83h-.08v-.84h.08z" class="CC"/></g></g></g><path d="M333.06,344.91c.18.11.17.28,0,.39l-2.54,1.47a.7.7,0,0,1-.66,0l-2.55-1.47c-.19-.11-.19-.28,0-.39l2.54-1.47a.7.7,0,0,1,.66,0Z" class="CF"/><g class="E CD"><g clip-path="url(#q)"><g><path d="M338.4,348.12V349a.22.22,0,0,1-.13.19v-.83a.23.23,0,0,0,.13-.19Z"/></g></g></g><g class="E"><g clip-path="url(#r)"><g><path d="M332.51 348.31v.83h-.01l.01-.83h0 0z" class="CC"/><path d="M332.51 348.31v.83h-.06v-.83h.06z" class="CE"/><path d="M332.45 348.27v.83l-.05-.05v-.83h0z" class="CJ"/><path d="M332.41 348.22v.83-.07-.84a.2.2 0 0 0 0 .08z" class="CK"/><path d="M332.37,348.14v0Z" class="CL"/></g></g></g><path d="M338.27 348.31l-.01.83-2.53 1.48v-.84l2.54-1.47z" class="CI"/><path d="M335.06 349.78v.84l-2.55-1.48v-.83l2.55 1.47z" class="CE"/><g class="E"><g clip-path="url(#s)"><g><path d="M335.73,349.78v.84a.75.75,0,0,1-.59,0v-.83a.75.75,0,0,0,.59,0Z" class="CD"/><path d="M335.14 349.82v.83h-.08v-.84h.08z" class="CC"/></g></g></g><path d="M338.27,347.92a.21.21,0,0,1,0,.39l-2.54,1.47a.72.72,0,0,1-.67,0l-2.55-1.47c-.18-.11-.19-.28,0-.39l2.54-1.47a.7.7,0,0,1,.66,0Z" class="CF"/><g class="E CD"><g clip-path="url(#t)"><g><path d="M343.62,351.12V352a.22.22,0,0,1-.13.19v-.83a.26.26,0,0,0,.14-.2Z"/></g></g></g><g class="E"><g clip-path="url(#u)"><g><path d="M337.73 351.32l-.01.83h0v-.83h.01 0z" class="CC"/><path d="M337.72 351.32v.83a.1.1 0 0 1-.05 0v-.83h.05z" class="CE"/><path d="M337.67 351.28v.83h-.05v-.84h.05z" class="CJ"/><path d="M337.62 351.23v.84a.13.13 0 0 1 0-.08v-.83.07z" class="CK"/><path d="M337.59,351.16v0Z" class="CL"/></g></g></g><path d="M343.48 351.31v.84l-2.54 1.48v-.84l2.54-1.48z" class="CI"/><path d="M340.28 352.79v.84l-2.56-1.48.01-.83 2.55 1.47z" class="CE"/><g class="E"><g clip-path="url(#v)"><g><path d="M340.94,352.79v.83a.71.71,0,0,1-.59,0v-.83a.73.73,0,0,0,.58,0Z" class="CD"/><path d="M340.36 352.83v.83h-.07v-.84h.08z" class="CC"/></g></g></g><path d="M343.48,350.93c.19.11.18.28,0,.39l-2.54,1.47a.7.7,0,0,1-.66,0l-2.55-1.47c-.19-.11-.19-.28,0-.39l2.54-1.47a.72.72,0,0,1,.67,0Z" class="CF"/></g><path d="M363.4,337.57l2.16,1.25-3.46,2-2.16-1.25Zm-1.31,2.73,2.54-1.48-1.23-.71-2.55,1.47,1.24.72Z" fill="#828387"/><path d="M364.63 338.82l-2.54 1.48-1.24-.72 2.55-1.47 1.23.71zm-17.01-10.75l18.75 10.83-4.06 2.36-18.76-10.83zm14.48 12.76l3.46-2-2.16-1.25-3.46 2 2.16 1.25z" class="CH"/><path d="M234.08 224.28v2.69l-2.99-3.03 2.99.34z" fill="#ba4a3a"/><g class="E"><path d="M254.06 240.88v.83l-37.44 22.43v-.84l37.44-22.42z" fill="#045162"/><path d="M216.62 263.3v.84l-80.08-46.24v-.84l80.08 46.24z" fill="#045467"/><path d="M254.06 240.88l-37.44 22.42-80.08-46.24 37.44-22.42 80.08 46.24z" fill="#078fae"/><path d="M174.62 233h0a10.76 10.76 0 0 1 1.43 1.95h0a8.16 8.16 0 0 1 .52 1v.12a8.44 8.44 0 0 1 .38 1c0 .07 0 .13.05.2l.2.83v.28a6.71 6.71 0 0 1 .08 1l36.08-21a6.83 6.83 0 0 0-.08-1v-.28l-.19-.83v-.19l-.31-.88c0-.05-.05-.1-.07-.16l-.05-.1a2.72 2.72 0 0 0-.11-.25l-.2-.41-.19-.35h0 0c-.06-.09-.11-.18-.16-.27l-.18-.27a2.33 2.33 0 0 0-.17-.26 2 2 0 0 0-.17-.23c-.05-.08-.11-.15-.16-.22l-.17-.21c0-.06-.1-.13-.16-.19l-.16-.18-.11-.12h0v-.05l-.17-.17-.17-.16-.18-.17-.19-.17-.08-.06h0l-.1-.09-.25-.18-.29-.2-.26-.16-34.17-19.72-36.08 21 34.17 19.73a7.43 7.43 0 0 1 .91.63h0a8.94 8.94 0 0 1 .76.79z" fill="url(#w)"/><path d="M172.85,231.56a10,10,0,0,1,4.53,7.86l-38.71-22.35v-5.24Z" class="CW"/><path d="M216.21 256.72l36.08-20.97-.02 5.23-36.08 20.97.02-5.23z" class="CW"/><path d="M218.12 216H218l-.13-.07-.3-.14h-.06l-.14-.06-.25-.09-.21-.05-.23-.06h-.21-.21-.48-.11-.19-.07-.15-.07 0l-.21.1h-.06l-36.08 21a1.64 1.64 0 0 1 .3-.14h.09l.22-.07h.17.2.4.21a.76.76 0 0 1 .21 0l.22.05.22.06.23.08.23.1.26.12.28.15 34.16 19.72 36.08-21z" class="CH"/><path d="M216.21 256.72v5.23l-38.73-22.35c0-2.89 2.06-4 4.57-2.6z" class="CW"/></g><g class="CX"><path d="M172.38 232.83l.43.25.31.18.61.38 1.23.92a8.48 8.48 0 0 1 1.82 2 3.94 3.94 0 0 1 .58 1.65 3.27 3.27 0 0 1 0 .4v.13a1.62 1.62 0 0 0 0-.4v-.15a3.86 3.86 0 0 0-.64-1.54 7.39 7.39 0 0 0-1.77-1.76c-.75-.54-1.58-1-2.52-1.56l-13.73-7.93-13.73-7.93-.56-.32-.41-.15-.46-.27-1.21-.76-2-1.24-1.71-1.09 1.71.89 2 1 1.21.63.25.14.51.3.59.33 13.73 7.93zm5 5.94h0 0 0z"/><path d="M177.38 238.75h0zm-33.51-20.46l.89.52 13.38 7.72 13.38 7.73.19.11.37.21.38.21.37.22 1.19.77 1.92 1.34a7.41 7.41 0 0 1 1.19 1.1 1.36 1.36 0 0 1 .23.41c0 .09 0 .05 0 0a1.15 1.15 0 0 0-.24-.35 6.62 6.62 0 0 0-1.19-1l-1.27-.78-.65-.36-1.17-.64-.37-.2-.39-.23-.55-.32-13.38-7.73-13.38-7.72-.89-.51-.43-.25-1.17-.74-1.92-1.21-1.68-1.06 1.68.86 1.92 1 1.17.62a4.63 4.63 0 0 1 .42.28z"/><path d="M177.3 238.22a.83.83 0 0 1 0 .15 1 1 0 0 1 0 .35 2.08 2.08 0 0 0-.11-.5 3.84 3.84 0 0 0-1-1.33 11.07 11.07 0 0 0-1.88-1.4l-.63-.39-.55-.3-.72-.41-.6-.36-13.53-7.81-13.53-7.81-.59-.34-.37-.21-.37-.23-1.19-.74-1.94-1.22-1.7-1.08 1.7.88 1.94 1 1.19.62.78.45.27.16.28.15 13.53 7.82 13.53 7.81.18.1.34.2.41.23.4.24 1.21.83a13.48 13.48 0 0 1 1.91 1.63 4 4 0 0 1 1.04 1.51z"/><g class="E"><path d="M177.55 238.91h0zm4.78 1.63l.48.28.29.18.31.17 13.38 7.73 13.39 7.72a8.55 8.55 0 0 0 .57.34l.49.28.24.15 1.18.74 1.93 1.21 1.66 1.06-1.66-.87-1.93-1-1.18-.62-.45-.25-.32-.19-.54-.31-13.38-7.73-13.39-7.73-.56-.32-.38-.22-.36-.22-1.18-.72-.66-.39a19.03 19.03 0 0 0-1.25-.68 4.14 4.14 0 0 0-1.19-.43.35.35 0 0 0-.25.09.25.25 0 0 1 .23-.14 2.89 2.89 0 0 1 1.2.33c.53.2 1.18.5 1.93.87l1.18.59a1.71 1.71 0 0 0 .22.08z"/><path d="M210 254.62l.59.34.5.29.25.15 1.22.76 2 1.23 1.71 1.09-1.71-.89-2-1-1.22-.64-.46-.25-.33-.2-.55-.32-13.73-7.92-13.73-7.93A28.1 28.1 0 0 0 180 238a2.67 2.67 0 0 0-1.77-.29 1 1 0 0 0-.66.79.8.8 0 0 0 0 .15 1.18 1.18 0 0 0 0 .28v-.09a1.3 1.3 0 0 1 0-.38 1.11 1.11 0 0 1 .58-1 2.49 2.49 0 0 1 1.83.07 12.43 12.43 0 0 1 1.22.49c.2.09.4.2.61.32l.32.19.43.24 13.73 7.93z"/><path d="M214.57 258.37l1.69 1.07-1.69-.87-1.94-1-1.2-.63-.37-.2-.37-.22-.59-.34-13.53-7.81-13.57-7.84-.68-.39-.32-.14-.31-.18-.55-.33-.63-.35a8.07 8.07 0 0 0-1.89-.78c-.5-.1-.85 0-1 .2a.7.7 0 0 0-.11.29v-.2a1.21 1.21 0 0 1 0-.14c.11-.25.45-.43 1-.36a6.74 6.74 0 0 1 1.91.58c.38.15.78.35 1.21.57l.39.21.4.24.35.2.18.1 13.53 7.82 13.54 7.81.9.51.42.26 1.2.75z"/></g></g><path d="M234.08 224.28L208.6 239.1l-.38-2.84-4.98-.26 25.48-14.81 5.36 3.09z" class="CM"/><path d="M216.06 258.48l5.56-3.43 5.73-3.46 6.6-3.92 6.63-3.86 5.82-3.32 5.7-3.19-5.56 3.44-5.73 3.46-6.6 3.91-6.63 3.89-5.81 3.33zm0 1.06l5.56-3.43 5.73-3.46 6.6-3.92 6.63-3.86 5.82-3.32 5.7-3.19-5.56 3.43-5.73 3.46-6.6 3.92-6.63 3.83-5.81 3.32zm0 1.06l5.56-3.44 5.73-3.45 6.6-3.92 6.63-3.86 5.82-3.33 5.7-3.18-5.56 3.43-5.73 3.46-6.6 3.92-6.63 3.86-5.81 3.32z" class="CX"/><path d="M38.64 194.58v-.16a2 2 0 0 0-.05-.24v-.14h0a.25.25 0 0 0 0-.07c0-.06 0-.13-.07-.2s0-.12-.07-.17v-.06h0a.36.36 0 0 1 0-.09 1 1 0 0 1-.07-.15l-.08-.13c0-.05 0-.09-.07-.13l-.08-.13-.07-.11-.08-.12-.08-.11a.76.76 0 0 1-.08-.11l-.09-.1-.09-.11-.1-.1h0l-.08-.08-.12-.11-.15-.13h0 0l-.12-.09-.29-.18h-.08a2.84 2.84 0 0 0-.32-.14h0-.08a2.1 2.1 0 0 0-.24-.06h-.44-.09-.09-.08-.05L4.3 209.15a1.52 1.52 0 0 0-.62 1.41 4.22 4.22 0 0 0 0 .49v.15a2.21 2.21 0 0 0 .05.25v.13.06a.14.14 0 0 0 0 .06 1.18 1.18 0 0 0 .07.2l.07.18h0 0v.09l.07.14.08.14.07.13h0l.08.12.07.12.08.12a1 1 0 0 1 .08.11h0l.07.09.09.11.09.1.1.11h0H5l.08.09.12.11.15.13h0 0l.12.09.29.19h.08a2.22 2.22 0 0 0 .32.14h.07l.26.06h.31.12H7h.08.09.08.05l30.74-17.86a1.52 1.52 0 0 0 .62-1.41 4.22 4.22 0 0 0-.02-.42zm6.07-3.53a.94.94 0 0 0 0-.16 1 1 0 0 0-.05-.24.65.65 0 0 0 0-.13v-.06a.14.14 0 0 1 0-.06l-.08-.21a1.22 1.22 0 0 0-.07-.17v-.05h0v-.08l-.07-.15a.83.83 0 0 1-.07-.13l-.08-.13h0l-.07-.12-.08-.11-.08-.12-.26-.13h0l-.06-.09-.09-.1-.09-.11-.09-.1h0 0l-.08-.08-.12-.11-.15-.13h0 0l-.12-.1-.29-.18h-.08a2.22 2.22 0 0 0-.32-.14h-.07l-.26-.07h-.31-.11 0-.08-.09-.09 0l-.64.38a.91.91 0 0 1 .31-.12h0a1.27 1.27 0 0 1 .34 0h0a1.83 1.83 0 0 1 .32.07h.07a3 3 0 0 1 .41.19 2.63 2.63 0 0 1 .41.27h0a3.16 3.16 0 0 1 .39.35h0l.35.43h0a5.3 5.3 0 0 1 .58 1h0a3.9 3.9 0 0 1 .19.5v.06a2.49 2.49 0 0 1 .09.37v.17a3.88 3.88 0 0 1 0 .48 1.54 1.54 0 0 1-.61 1.41h-.06.05l.64-.37a1.52 1.52 0 0 0 .62-1.41 4.22 4.22 0 0 0-.05-.52z" class="CF"/><path d="M44.13 193a1 1 0 0 1-.35.12l.11-.18c.04-.06 0-.06.06-.1a2.42 2.42 0 0 0 .1-.32v-.08a2.45 2.45 0 0 0 0-.48 3.88 3.88 0 0 0 0-.48v-.17c0-.05 0-.16-.05-.24v-.13a2472505640987.18 2472505640987.18 0 0 1 0-.12 1.18 1.18 0 0 0-.07-.2l-.07-.18h0 0v-.08s0-.1-.08-.14a.61.61 0 0 0-.07-.14l-.07-.13h0a.75.75 0 0 0-.07-.12l-.07-.12-.08-.12a.44.44 0 0 1-.08-.11l-.09-.1a.44.44 0 0 0-.08-.11l-.09-.1-.1-.11h0l-.09-.09-.12-.11-.14-.13h0 0l-.13-.1a2.61 2.61 0 0 0-.28-.17l-.1-.06-.28-.12h0-.07 0l-.21-.05h-.4a1.62 1.62 0 0 1 .28-.25l-.63.37h0L35 191.27a1 1 0 0 1 .31-.11h0a.92.92 0 0 1 .33 0h0l.29.06h.09a3.65 3.65 0 0 1 .41.18c.14.08.28.18.42.28h0a3.33 3.33 0 0 1 .39.36h0l.36.43h0a3.76 3.76 0 0 1 .4.53h0a4.52 4.52 0 0 1 .25.49h0a5.1 5.1 0 0 1 .19.5v.06c0 .06.06.25.09.37v.16a2.81 2.81 0 0 1 0 .49 1.53 1.53 0 0 1-.62 1.42l5.42-3.17h0z" class="CG"/><path d="M6.79 213.11V213v-.17l-.06-.21v-.1a0 0 0 0 0 0 0h0l-.06-.17a.78.78 0 0 0-.05-.14l-.16-.21h0 0a1 1 0 0 0 0-.1l-.06-.11v-.11l-.06-.1a.41.41 0 0 0-.05-.09h0a.43.43 0 0 1 0-.07v-.07a.43.43 0 0 0 0-.07.1.1 0 0 0 0-.05v-.06a.1.1 0 0 1 0 0h0 0 0 0 0v-.05h0 0 0 0 0 0 0 0 0 0 0 0 0v-.05h0l-.08-.07-.16-.14-.06-.05h0H5a4 4 0 0 0-.37-.25 3.47 3.47 0 0 0-.41-.16h0l-.16-.05h0-.14-.39-.1-.09-.08-.07 0 0-.07v.05l-.06.06v.06l-.05.06h0l-2.96 3.91a.36.36 0 0 0 0 .19.58.58 0 0 0 .06.26v.06h0 0 0 0 0 0 0 0 0 0 0a.34.34 0 0 0 .11 0h.35l2.57-.13 2.57-.13c.68 0 1.13-.6 1.12-1.55a3.89 3.89 0 0 0-.04-.08z" class="CF"/><path d="M7.89 212.45v-.16c0-.08 0-.16-.05-.25v-.13a.64.64 0 0 0 0-.07c0-.07-.05-.14-.07-.2a1.34 1.34 0 0 1-.07-.18h0 0a.36.36 0 0 0 0-.09.91.91 0 0 0-.07-.14c0-.05-.05-.09-.07-.14l-.08-.13a.75.75 0 0 0-.07-.12l-.08-.12-.07-.11-.26-.23h0 0l-.07-.08-.08-.1-.09-.11-.1-.11h0 0l-.08-.07-.12-.12-.14-.12h0 0l-.13-.09a2.2 2.2 0 0 0-.28-.18l-.09-.05a2 2 0 0 0-.31-.13H5.3l-.25-.22h-.32-.11 0-.09a.16.16 0 0 0-.09 0h-.08 0l-1.11.65a.84.84 0 0 1 .31-.12h0a1.2 1.2 0 0 1 .33 0h0a1.7 1.7 0 0 1 .31.06h.08a2.85 2.85 0 0 1 .41.18 2.63 2.63 0 0 1 .4.28h0a4 4 0 0 1 .38.34h0a3.73 3.73 0 0 1 .36.43h0a4.87 4.87 0 0 1 .32.47h0a3.8 3.8 0 0 1 .26.49h0l.19.49v.06l.09.37v.16a2.81 2.81 0 0 1 0 .49 1.5 1.5 0 0 1-.62 1.4h0 0l1.11-.65a1.5 1.5 0 0 0 .62-1.41 2.61 2.61 0 0 0 .09-.24z" class="CM"/><g class="E CM"><path d="M.77 215.11c0 .25-.17.35-.38.23a.82.82 0 0 1-.39-.66c0-.24.17-.35.38-.23a.86.86 0 0 1 .39.66z"/></g><path d="M49.82 201.08a.76.76 0 0 0 0-.16v-.25-.14-.05a.14.14 0 0 0 0-.06 1.72 1.72 0 0 0-.07-.21c0-.05-.05-.11-.07-.17v-.06h0a.36.36 0 0 1 0-.09s-.05-.1-.08-.14a.61.61 0 0 0-.07-.14l-.07-.13-.08-.12-.07-.12-.08-.11-.08-.12-.09-.1a.44.44 0 0 0-.08-.11l-.09-.1-.1-.11h0 0l-.07-.08-.12-.11-.15-.12h0l-.12-.1-.29-.18h-.08a2.84 2.84 0 0 0-.32-.14h0-.08l-.24-.06h-.44-.09-.09-.08-.05l-31.08 17.84a1.52 1.52 0 0 0-.62 1.41 4 4 0 0 0 0 .49v.15a1.83 1.83 0 0 0 .06.25.74.74 0 0 0 0 .14.43.43 0 0 1 0 0 .14.14 0 0 1 0 .07c0 .06 0 .13.08.2a.87.87 0 0 0 .07.17v.05h0v.08l.07.15.08.13a.54.54 0 0 0 .07.13h0l.07.12.08.12a1 1 0 0 1 .08.11 1 1 0 0 1 .08.11h0a.86.86 0 0 0 .07.1l.09.1.09.11.09.1h0 0l.08.09.12.11.15.13h0 0l.12.1.29.18h.08a2.22 2.22 0 0 0 .32.14h0 .06a2.44 2.44 0 0 0 .26.06h.44.09.08.09.05L49.25 203a1.52 1.52 0 0 0 .62-1.41 2.61 2.61 0 0 0-.05-.51zm6.08-3.53v-.17a2 2 0 0 0 0-.24.93.93 0 0 0 0-.13v-.06a.14.14 0 0 0 0-.06 1.18 1.18 0 0 0-.07-.2 1.34 1.34 0 0 0-.07-.18h0 0v-.08a.91.91 0 0 1-.07-.14l-.08-.14-.07-.13h0l-.08-.12-.07-.12a1219469034124 1219469034124 0 0 1-.16-.22h0 0l-.06-.08-.09-.11-.09-.1-.1-.11h0l-.08-.09-.12-.11-.15-.12h0 0l-.12-.09a2.29 2.29 0 0 0-.29-.18h-.08a2.15 2.15 0 0 0-.32-.13h-.07a1.22 1.22 0 0 0-.26-.06h-.31-.11 0-.08-.08-.09-.05l-.64.37a1.43 1.43 0 0 1 .31-.12h0a1.88 1.88 0 0 1 .34 0h0a1.2 1.2 0 0 1 .32.06h.07a2.05 2.05 0 0 1 .41.18 2.71 2.71 0 0 1 .41.28h0l.39.35h0a3.62 3.62 0 0 1 .36.42h0a5.62 5.62 0 0 1 .58 1h0a3 3 0 0 1 .19.5h0c0 .13.06.25.09.38a.9.9 0 0 1 0 .16 2.72 2.72 0 0 1 0 .49 1.53 1.53 0 0 1-.61 1.4h-.06 0l.64-.37a1.51 1.51 0 0 0 .62-1.41 3.88 3.88 0 0 0-.2-.52z" class="CF"/><path d="M55.32 199.44a1.12 1.12 0 0 1-.35.12 1.42 1.42 0 0 0 .11-.18l.06-.1a2.26 2.26 0 0 0 .1-.31v-.09a2.29 2.29 0 0 0 0-.47 2.72 2.72 0 0 0 0-.49 1.22 1.22 0 0 0 0-.17v-.23-.14c0-.05 0 0 0 0a.14.14 0 0 0 0-.07 1.59 1.59 0 0 0-.07-.2l-.07-.18h0a0 0 0 0 0 0 0 .36.36 0 0 0 0-.09s0-.09-.07-.14 0-.09-.07-.14 0-.08-.07-.13h0a.75.75 0 0 0-.07-.12l-.08-.12-.07-.11-.08-.11-.09-.11-.08-.11-.09-.1-.1-.11h0l-.09-.08-.12-.12-.14-.12h0 0l-.13-.1a2.2 2.2 0 0 0-.28-.18l-.1-.05-.29-.13h-.12-.22H52a1.05 1.05 0 0 1 .28-.24l-.63.37h0l-5.43 3.15a.77.77 0 0 1 .31-.12h0a1.17 1.17 0 0 1 .33 0h.05a1.4 1.4 0 0 1 .28.06h.1a3 3 0 0 1 .41.19 3.41 3.41 0 0 1 .42.28h0a2.57 2.57 0 0 1 .39.35h0l.36.43h0a4.63 4.63 0 0 1 .31.46h0 0a4.74 4.74 0 0 1 .26.5h0l.19.5a.14.14 0 0 0 0 .06l.09.37v.17a2.61 2.61 0 0 1 .05.48 1.53 1.53 0 0 1-.62 1.42l5.42-3.17h0z" class="CG"/><path d="M18 219.61v-.1-.17l-.06-.2v-.1a.06.06 0 0 0 0 0h0l-.06-.16c0-.05 0-.1-.05-.15l-.06-.13h0v-.09l-.06-.12a.37.37 0 0 1-.05-.11l-.06-.09a.41.41 0 0 0-.05-.09h0v-.08-.07-.06-.06a.1.1 0 0 0 0-.05v-.06h0 0 0 0 0 0 0 0 0 0 0 0 0 0 0 0 0-.05 0-.05-.05l-.07-.07-.16-.13-.06-.06h0 0l-.37-.24a2.75 2.75 0 0 0-.41-.17h0l-.15-.05h0a.35.35 0 0 0-.14 0h-.16-.25-.1a.16.16 0 0 0-.09 0h-.08-.07 0 0-.07l-.06.05v.06l-.05.06-.05.07h0L11.23 221a.34.34 0 0 0 0 .19.57.57 0 0 0 .06.25.14.14 0 0 0 0 .06h0 0 0 0 0 0 0 0 .05 0 .11.07l2.57-.14 2.57-.13c.67 0 1.13-.6 1.12-1.55.22.24.22.08.22-.07z" class="CF"/><path d="M19.08 218.94v-.16c0-.08 0-.16-.05-.24a.74.74 0 0 1 0-.14v-.05-.07c0-.06-.05-.13-.07-.2a.67.67 0 0 0-.08-.17v-.06h0v-.08a1 1 0 0 0-.07-.15l-.07-.13-.08-.13c0-.05-.05-.09-.07-.13l-.08-.12-.08-.11a.76.76 0 0 0-.08-.11h0a0 0 0 0 1 0 0l-.07-.09-.09-.1a.87.87 0 0 0-.09-.11l-.09-.1h0 0l-.08-.08-.12-.11-.14-.13h0 0l-.13-.1a2.2 2.2 0 0 0-.28-.18h-.09a2.12 2.12 0 0 0-.31-.14h0-.06l-.25-.06h-.32-.11 0-.09-.09a.2.2 0 0 0-.08 0h0l-1.11.65a.77.77 0 0 1 .31-.12h0a1.2 1.2 0 0 1 .33 0h0a2 2 0 0 1 .31.07h.07a3.05 3.05 0 0 1 .42.19 3.12 3.12 0 0 1 .4.27h0a4.14 4.14 0 0 1 .38.35h0a3.62 3.62 0 0 1 .36.42h0a4 4 0 0 1 .32.48h0a4.59 4.59 0 0 1 .26.49h0a4.78 4.78 0 0 1 .19.48.14.14 0 0 0 0 .06l.09.37v.17a3.91 3.91 0 0 1 .05.48 1.54 1.54 0 0 1-.62 1.41h0 0l1.11-.64a1.52 1.52 0 0 0 .62-1.41 2.81 2.81 0 0 0-.27-.47z" class="CO"/><g class="E CO"><path d="M12 221.61c0 .24-.17.35-.38.23a.86.86 0 0 1-.39-.66c0-.25.17-.35.38-.24a.86.86 0 0 1 .39.67z"/></g><path d="M61 207.57a.76.76 0 0 0 0-.16v-.24-.14-.05-.07c0-.07-.05-.13-.07-.2l-.07-.18v-.05h0a.36.36 0 0 0 0-.09l-.07-.14a.91.91 0 0 0-.07-.14s-.05-.08-.07-.13l-.08-.12-.08-.12-.07-.11-.08-.11-.09-.11a.76.76 0 0 0-.08-.11l-.09-.1a.94.94 0 0 0-.1-.1h0 0l-.08-.08-.12-.12-.14-.12h0 0l-.12-.09a1.67 1.67 0 0 0-.28-.18l-.08-.05a2.69 2.69 0 0 0-.32-.13h-.09l-.24-.06h-.31-.12 0-.09-.09-.08 0l-31.14 17.87a1.49 1.49 0 0 0-.63 1.4 4.07 4.07 0 0 0 .05.49v.16c0 .08 0 .16.06.25a.93.93 0 0 0 0 .13.43.43 0 0 0 0 .05v.07c0 .07 0 .14.08.2a1.34 1.34 0 0 0 .07.18v.05h0v.09c0 .05.05.09.07.14a.61.61 0 0 1 .07.14l.08.13h0l.07.12.08.12.08.11a1 1 0 0 0 .08.11h0 0l.07.09.09.1.09.11.09.1h0 0a.3.3 0 0 0 .08.08l.12.12.14.12h0 0l.13.1a1.75 1.75 0 0 0 .29.18l.08.05a2.58 2.58 0 0 0 .31.13h0 .06a2.44 2.44 0 0 0 .26.06h.31.11 0 .08a.16.16 0 0 0 .09 0h.08.05l30.75-17.87a1.5 1.5 0 0 0 .62-1.41 2.7 2.7 0 0 0 .26-.47zm6.09-3.57v-.16a2 2 0 0 0 0-.24v-.14-.06a.14.14 0 0 0 0-.06 1.59 1.59 0 0 0-.07-.2l-.07-.18h0 0v-.08a.61.61 0 0 1-.07-.14l-.08-.14s0-.08-.07-.13h0l-.08-.12-.07-.12a.76.76 0 0 1-.08-.11 1 1 0 0 0-.08-.11h0l-.06-.09-.09-.11-.09-.1-.1-.1h0 0l-.08-.08-.12-.12-.15-.12h0 0l-.12-.09a2.29 2.29 0 0 0-.29-.18l-.08-.05a2.69 2.69 0 0 0-.32-.13h-.42l-.26-.06h-.31-.12 0-.08-.09-.08 0l-.64.38a.84.84 0 0 1 .31-.12h0a1.27 1.27 0 0 1 .34 0h0l.32.06h.07a2.05 2.05 0 0 1 .41.18 2.71 2.71 0 0 1 .41.28h0l.39.35h0a3.62 3.62 0 0 1 .36.42h0a5.62 5.62 0 0 1 .58 1h0a4.29 4.29 0 0 1 .19.5v.06c0 .06.06.24.09.37v.16a2.81 2.81 0 0 1 0 .49 1.5 1.5 0 0 1-.62 1.4h-.05.05l.64-.38a1.5 1.5 0 0 0 .62-1.41 4.05 4.05 0 0 0 .06-.52z" class="CF"/><path d="M66.51 205.93a1.14 1.14 0 0 1-.35.13l.11-.18.06-.11a2.26 2.26 0 0 0 .1-.31v-.08a2.45 2.45 0 0 0 0-.48 2.81 2.81 0 0 0 0-.49v-.17-.23-.13-.06a.64.64 0 0 1 0-.07c0-.06 0-.13-.07-.2s0-.12-.08-.17h0a0 0 0 0 0 0 0 .2.2 0 0 0 0-.08 1 1 0 0 0-.07-.15l-.07-.13-.08-.13h0l-.07-.12-.08-.12-.08-.11a1219469034125.31 1219469034125.31 0 0 1-.16-.22l-.09-.1a.44.44 0 0 0-.09-.11l-.09-.1h0 0l-.09-.08-.12-.12-.15-.12h0 0l-.13-.1a2.2 2.2 0 0 0-.28-.18l-.1-.05a1.78 1.78 0 0 0-.29-.12h-.12l-.52-.24h-.39a1.1 1.1 0 0 1 .28-.25l-.64.37h0l-5.43 3.15a1.34 1.34 0 0 1 .3-.12h0a1.72 1.72 0 0 1 .33 0h0a1.37 1.37 0 0 1 .28.05h.1a2.05 2.05 0 0 1 .41.18 3.41 3.41 0 0 1 .42.28h0a4.38 4.38 0 0 1 .39.36h0a3.62 3.62 0 0 1 .36.42h0a4.76 4.76 0 0 1 .31.47h0a5.97 5.97 0 0 1 .26.5h0l.19.49c.06.16 0 0 0 .06s.07.25.1.38v.16a4.07 4.07 0 0 1 0 .49 1.52 1.52 0 0 1-.63 1.41l5.43-3.16h0z" class="CG"/><path d="M29.16 226.1v-.1a.94.94 0 0 0 0-.16 1.6 1.6 0 0 0-.05-.21v-.1h0l-.06-.16-.06-.15a.69.69 0 0 0-.05-.13h0V225l-.06-.12-.06-.11a.41.41 0 0 0-.05-.09l-.05-.09h0v-.07-.08-.06a.21.21 0 0 1 0-.06h0v-.05h0 0 0 0 0 0 0 0 0 0 0 0 0 0 0 0l-.05-.05h0-.05l-.05-.05-.07-.07-.16-.13a.18.18 0 0 0-.07-.05h0 0a2.19 2.19 0 0 0-.37-.25 1.85 1.85 0 0 0-.4-.16h0-.15 0-.14-.41-.1-.09-.08-.08 0 0 0-.07l-.06.06h-.05l-.05.06-.05.07h0l-2.78 4.34a.36.36 0 0 0 0 .19.85.85 0 0 0 .05.26h0v.05h0 0 0 0 0 0 0 .06 0a.25.25 0 0 0 .11 0H23l2.57-.13 2.57-.13c.67 0 1.13-.6 1.12-1.56a3.8 3.8 0 0 0-.1-.62z" class="CF"/><path d="M30.27 225.43v-.15-.25c0-.08 0-.09-.05-.13s0 0 0-.06a.14.14 0 0 1 0-.06 1.8 1.8 0 0 0-.08-.21 1.22 1.22 0 0 0-.07-.17v-.05h0v-.09c0-.05-.05-.1-.07-.14l-.07-.14-.08-.13-.07-.12-.08-.12-.08-.12-.08-.11h0l-.07-.09-.09-.1-.28-.19-.09-.1h0 0l-.08-.08-.12-.11-.14-.13h0 0l-.13-.1-.28-.18h-.09a2.73 2.73 0 0 0-.31-.14h-.08l-.26-.07h-.31L27 222h0-.08-.09-.08-.05l-1.11.64a1.34 1.34 0 0 1 .3-.12h0a1.17 1.17 0 0 1 .33 0h0l.31.07h.07a1.83 1.83 0 0 1 .41.18 2.63 2.63 0 0 1 .41.27h0a4.14 4.14 0 0 1 .38.35h0a3.62 3.62 0 0 1 .36.42h0a5 5 0 0 1 .32.48h0a4.52 4.52 0 0 1 .25.49h0l.19.49a.43.43 0 0 1 0 0 2.83 2.83 0 0 1 .09.37 1 1 0 0 1 0 .17 4.12 4.12 0 0 1 .05.48 1.54 1.54 0 0 1-.62 1.41h-.06 0l1.11-.64a1.52 1.52 0 0 0 .63-1.41 4.28 4.28 0 0 0 .15-.22z" class="CG"/><g class="E CG"><path d="M23.15 228.1c0 .25-.17.35-.38.23a.84.84 0 0 1-.39-.66c0-.25.16-.35.38-.23a.84.84 0 0 1 .39.66z"/></g><g class="E"><path d="M291.73 264l-5.26 3h-.14v-1.61l-1.24.72L267.48 256v1.46l-1.46-.85a.91.91 0 0 1-.16-.11l-.1-.08-.08-.1-.06-.07a.54.54 0 0 1-.05-.11.59.59 0 0 1 0-.08.88.88 0 0 1 0-.16v2.5a.3.3 0 0 0 0 .1h0v.08.07h0l.06.07v.06h0l.1.08.06.05.1.07 18 10.39a2.65 2.65 0 0 0 2.45 0l5.27-3.06a.86.86 0 0 0 .5-.7v-2.5a.85.85 0 0 1-.38.89z" fill="#63a4b2"/><path d="M291.72 262.56a.75.75 0 0 1 0 1.42l-5.25 3.02a2.71 2.71 0 0 1-2.45 0l-18-10.4a.75.75 0 0 1 0-1.42l5.27-3.06a2.69 2.69 0 0 1 2.44 0zM289 264l1.26-.73-17.66-10.21-1.26.73L289 264zm-3.85 2.24l1.24-.72-17.62-10.17-1.24.72 17.57 10.13z" class="CO"/><path d="M265.52,256.07v2.5a.68.68,0,0,1,0-.14v-2.5a.36.36,0,0,0,0,.14Z" fill="#59828c"/><g class="CP"><path d="M290.21 263.23l-1.26.73-17.61-10.17 1.26-.73 17.61 10.17zm-3.87 2.25l-1.24.72-17.62-10.17 1.24-.72 17.62 10.17z"/></g><path d="M291.62,264.49l4.45,2.57-5.1,3-4.45-2.57Zm.69,2.57,1.26-.73-1-.56-1.25.74.95.55Zm-2.62,1.52,1.26-.73-.95-.56-1.26.74.95.55Z" fill="#e0e0e2"/><g fill="#7d7e82"><path d="M293.57 266.33l-1.26.73-.95-.55 1.26-.74.95.56zm-2.62 1.52l-1.26.73-.95-.55 1.26-.73.95.55z"/></g><path d="M296.07 267.06l-.01 1.67-5.1 2.96.01-1.67 5.1-2.96z" fill="#c6c6c6"/><path d="M295.56 267.52v1.34l-4.09 2.38v-1.34l4.09-2.38z" class="CA"/><path d="M290.97 270.02l-.01 1.67-4.45-2.56.01-1.68 4.45 2.57z" fill="#c6c6c6"/></g><g class="CH"><use xlink:href="#AQ"/><use xlink:href="#AQ"/></g><path d="M307.47 382h.13l.35-.08h.11.08l.44-.11h.07.07l.65-.18.46-.14h.07 0a3.58 3.58 0 0 0 .43-.15h0l.18-.07h.11l.2-.07.23-.1h-.12l1.91-.79c-.79-7.15-10.81-12.81-23-12.81h-.93l-3.1 1.65c-.13.07-.33.17-.55.31l-.42.27a5.86 5.86 0 0 0-2.25 2.56 1.68 1.68 0 0 0-.08.24 2.08 2.08 0 0 0-.1.44 1.59 1.59 0 0 0 0 .36 3.44 3.44 0 0 0 .24 1.28v.09a1.89 1.89 0 0 0 .1 1.87 3.79 3.79 0 0 0 .31.47l.12.16.28.32.42.42.14.11.15.14.13.11.41.31.15.12.13.08.39.26.2.14.12.07.39.23.25.14.12.07.42.22.29.14h.1l.17.08.33.15.38.17a16.31 16.31 0 0 0 .84.35l.21.08.77.28.2.07.21.07.31.1.53.16.47.13.54.14.21.05.61.14.89.17h.2l.91.14.41.05h.27.23.26.23.48.25.74.63.26.19.26l.78.06a9.35 9.35 0 0 1 1.11.05 24.69 24.69 0 0 0 3.55-.11 20.87 20.87 0 0 0 7.73 1.56 11.77 11.77 0 0 0 .33-1.16 15.63 15.63 0 0 1-5.29-.81z" class="CY"/><path d="M300.79 381.08c0 3.58-4.9 6.49-10.94 6.49s-11-2.91-11-6.49 4.9-6.49 11-6.49 10.94 2.9 10.94 6.49z" fill="#e7e7e7"/><path d="M299.84 378.84a.76.76 0 0 1 0 .15v.13.15.14.14.14c0 .05 0 .1-.05.14s0 .09-.05.13a.77.77 0 0 1-.07.16.67.67 0 0 1-.06.12l-.07.15a.83.83 0 0 0-.07.13c0 .05-.07.11-.11.17a.76.76 0 0 1-.08.11l-.28.2-.08.1-.26.3h0l-.3.29-.13.12-.14.12-.09.07-.15.12-.16.12-.17.12-.17.1-.18.12-.3.18-.68.34-.17.08c-.23.11-.47.2-.71.29h-.1l-.6.19a3.94 3.94 0 0 1-.49.14l-.42.11-.5.11c-.16 0-.32.07-.49.09h-.21l-.78.1h-.23c-.29 0-.58 0-.88.06h-1-.47-.5-.46l-.5-.06-.44-.06-.53-.09-.4-.09-.61-.15-.47-.13-.21-.07-.76-.27-.46-.2c-.11 0-.23-.09-.34-.15l-.75-.41c-1.9-1.13-2.84-2.59-2.83-4v2.15c0 1.46.94 2.93 2.83 4.06l.75.4.27.12.54.24h0l.75.26.21.07.25.08h.22a6 6 0 0 0 .61.15l.23.06h.17l.53.09.29.05h.15l.49.05h.33.14.51.33 1.12l.9-.06h.22l.76-.1h.21.21c.1 0 .19 0 .29-.06l.5-.1.42-.11.48-.14h.18l.43-.15h.09l.72-.3.16-.07.69-.35.23-.14h.06l.19-.11.16-.11.18-.12.15-.11.16-.13.14-.11.15-.13.09-.09h0a2.76 2.76 0 0 0 .3-.29h0l.25-.3h0l.05-.07.13-.17.08-.12.1-.17a.43.43 0 0 0 0-.07v-.05a1 1 0 0 0 .07-.15.83.83 0 0 0 .07-.13l.06-.15a.59.59 0 0 1 0-.08.43.43 0 0 1 0-.05.88.88 0 0 0 .05-.15v-.14a1 1 0 0 1 0-.14.29.29 0 0 1 0-.09v-.05-.14-.14a.76.76 0 0 1 0-.15.28.28 0 0 1 0-.09v-2.24a1.09 1.09 0 0 1 .31.09z" class="CY"/><path d="M299 368.61c-.17-.11-.36-.21-.54-.31h0 0 0-.06-.06-.08 0 0-.05l-.13-.06h-.06-.06-.08-.07-.11a.05.05 0 0 0 0 0h-.05-.05-.08-.09 0 0 0 0 0-.05-.09 0 0l-.14-.05h-.09-.05-.07-.09-.07 0-.11-.08-.06 0-.06-.06-.05-.12-.1-.11-.09-.14-.07-.06-.1-.07-.11-.09-.1-.13-.18l-.38-.08h-.13-.34-.15l-.35-.06h-.12-.15-.43-.15-.19-.16-.21-.43-.22-2.37-.49-.42-.27-.44-.23-.2-.24-.13 0l-.79.15-.3.06-1 .26h0a14.71 14.71 0 0 0-3.2 1.31l-.68.41h0l-.16.11-.18.12-.24.18-.16.12-.23.19-.14.11-.27.25h0 0 0l-.31.32-.05.06-.08.1a2.09 2.09 0 0 0-.14.17.94.94 0 0 0-.09.12h0l-.06.08h0l-.06.07a.43.43 0 0 0 0 .07L278 371l-.07.11-.08.13v.06h0v.05h0 0 0v.06l-.06.11v.08a.93.93 0 0 1-.05.1.08.08 0 0 1 0 .05 0 0 0 0 0 0 0v.06a1 1 0 0 1 0 .1v.06h0 0v.08.06h0v.1.07a.08.08 0 0 0 0 0 .24.24 0 0 0 0 .08.13.13 0 0 0 0 .06.19.19 0 0 0 0 .07h0 0 0 0a.09.09 0 0 1 0 .05.2.2 0 0 1 0 .07.09.09 0 0 1 0 .05.22.22 0 0 1 0 .08.2.2 0 0 1 0 .07.13.13 0 0 1 0 .06v.11a.11.11 0 0 0 0 .05v.06h0v.42a.22.22 0 0 1 0 .08v.41h0a.66.66 0 0 1 0 .14v.12.11h0 0v.05c0 .13 0 .24.05.35v.06h0 0v.14a7.66 7.66 0 0 0 1.29 3.36h0a1.27 1.27 0 0 0 .13.19l.37.5.29.35.65.7h0a5.48 5.48 0 0 0 .49.44l.66.5a10.63 10.63 0 0 0 1.18.71h0l.11.06a12.22 12.22 0 0 0 1.15.5 14.19 14.19 0 0 0 2.73.83 16.22 16.22 0 0 0 7.39-.12l.91-.23h0l.75-.23h.05l.68-.26h-.09.14a12 12 0 0 0 1.46-.7l.45-.27.11-.07h.05a3.62 3.62 0 0 0 .32-.22l.31-.23.24-.18.21-.18.28-.25a7.53 7.53 0 0 0 .61-.63h0 0a7.18 7.18 0 0 0 .69-.9h0a9.1 9.1 0 0 0 1.25-2.68v-.05-.12h0l.06-.22a1.42 1.42 0 0 1 .05-.22l.08-.4a4 4 0 0 0 .07-.5v-.43c-.18-1.96-1.38-3.91-3.91-5.41zm.2 5.79a5.12 5.12 0 0 1 1.24 2.61 4.3 4.3 0 0 1-1.52 3.49l-.11.09a8.42 8.42 0 0 1-1.57 1.12l-.74.38-.24.1-.52.22-.26.1-.77.25h-.15c-4 1.16-9.05.73-12.35-1.24a5.63 5.63 0 0 1-2.94-3.66 4.36 4.36 0 0 1-.05-.82 5.2 5.2 0 0 1 1.11-2.57 6.56 6.56 0 0 1 1-.94 10.26 10.26 0 0 1 1.54-.94l.21-.11.26-.12a13.77 13.77 0 0 1 3.17-1c.56-.09 1.13-.16 1.71-.2a25 25 0 0 1 2.86 0c1.37.17 2.79.46 4.34.81a11.68 11.68 0 0 1 2 .94 7.66 7.66 0 0 1 1.8 1.49z" fill="#e7e7e7"/><path d="M299.77 355.18c-.16-.1-.33-.19-.51-.28h0 0 0 0 0 0-.06-.07 0 0-.05-.08 0-.07-.06 0-.08-.08-.09-.08-.05-.05-.06-.09-.07-.05 0 0-.11-.07 0-.09-.09-.08-.08-.1-.13-.42-.07-.06 0-.1-.05-.07-.12-.11-.06-.11-.13 0-.06-.09-.15-.09-.16-.09-.16-.16-.11-.12-.11-.14-.12-.07-.12l-.25-.05h-.13-.17-.06-.13-.2-.14-.39-.12-.19-.59-.24-3.89l-.46.05h-.3l-.56.07h-.2-.21-.14l-.53.09h0l-.39.08h-.13l-.92.23-.17.05q-.45.12-.9.27h0 0a14.33 14.33 0 0 0-2.61 1.15l-.16.09h0l-.17.11-.25.15-.24.16a1.88 1.88 0 0 0-.23.16l-.23.16-.21.16-.22.18-.17.15h0 0l-.08.07-.2.19-.06.06-.09.09-.17.18-.08.09h-.05l-.09.1h0 0l-.07.09h0v.05l-.06.07a1 1 0 0 1-.08.11h0l-.05.06a.13.13 0 0 1 0 .06l-.06.09L277 358h0a.16.16 0 0 0 0 .07v.05h0v.05a.41.41 0 0 1-.05.09v.1.09h0 0 0v.06h0v.07h0 0l-.06.14v.05a.14.14 0 0 0 0 .06h0a.08.08 0 0 1 0 .05v.13.06.05.05h0 0 0a0 0 0 0 1 0 0v.07a.83.83 0 0 0 0 .15h0 0 0 0a.15.15 0 0 1 0 .07.07.07 0 0 1 0 0v.06.1h0v.06a.17.17 0 0 0 0 .07v.12h0 0v.07h0 0v.26h0v.13c0 .09.8 9.32.95 13v-.49a0 0 0 0 0 0 0v-.05-.07-.07-.31h0a.79.79 0 0 1 0-.13 2.46 2.46 0 0 1 .07-.29h0a.6.6 0 0 1 .06-.19c0-.11.08-.23.13-.34a.61.61 0 0 1 0-.12h0c.06-.12.12-.25.19-.37s0 0 0 0l.08-.13-.37.23.09-.13h0a4.36 4.36 0 0 1 .26-.34l.06-.06v-.05c.12-.14.25-.27.39-.41h0l.27-.25.14-.11.23-.19.16-.12.24-.18.18-.12a10.23 10.23 0 0 1 .81-.5 16 16 0 0 1 4.19-1.57l.3-.06.79-.15.38-.06.75-.1h.38c.28 0 .57-.05.86-.06h.33.95.37.57.45.22l.53.05h.41.21l.57.08.49.08.22.05.45.09.4.09.32.09.42.11h.07l.26.07.28.09h.05l.45.15h.06l.17.06.19.07.15.06h0l.52.23h0 .09l.1.05h.07.07 0 0c.29.15.58.3.85.46 2.51 1.5 3.71 3.45 3.61 5.37.18-3.69 1-12.92 1-13 .38-1.89-.91-3.99-3.61-5.61z" class="CT"/><path d="M303.67 363.37c0 4.51-6.17 8.16-13.77 8.16s-13.76-3.65-13.76-8.16 6.16-8.17 13.76-8.17 13.77 3.66 13.77 8.17z" fill="#875421"/><path d="M290.94 359.32c0 1.57-2.13 2.85-4.77 2.85s-4.76-1.28-4.76-2.85 2.13-2.86 4.76-2.86 4.77 1.28 4.77 2.86zm7.45 6.44c0 .88-1.17 1.61-2.6 1.61s-2.6-.73-2.6-1.61 1.16-1.61 2.6-1.61 2.6.72 2.6 1.61z" fill="#e0cab1"/><path d="M305.29 361.36c0 .15 0 .3-.07.46v.05a.64.64 0 0 0 0 .07v.06c0 .06-.05.2-.07.29v.1a.56.56 0 0 0 0 .12c0 .09-.06.18-.1.27s0 0 0 0l-.08.18c0 .1-.08.2-.13.3h0l-.06.12c-.06.13-.14.25-.21.38l-.09.15-.21.3a1.13 1.13 0 0 1-.1.13h0l-.25.31h0l-.06.07-.38.41-.33.32-.12.1-.26.23-.16.13-.25.2-.18.13-.27.19-.19.13-.9.55a18 18 0 0 1-3.81 1.57l-1 .25-.21.05-1 .21h-.19l-.81.13-.42.06-.72.08h-.37 0l-.92.06H291h-1-.39-.74-.45-.5l-.71-.06-.54-.06-.68-.1h0l-.52-.09-.68-.13-.52-.11-.67-.17-.45-.12h-.13l-.57-.18-.3-.1-.15-.05h-.13l-.55-.22-.2-.07h-.1l-.13-.06h-.09c-.21-.08-.4-.18-.6-.27h-.11 0-.09-.1l-.08-.05-.9-.49c-2.7-1.61-4.15-3.67-4.34-5.74 0 .09.79 9.18.95 12.89v-.19c0 .16 0 .42.07.73h0 0c0 .14 0 .3.07.47h0 0a.08.08 0 0 0 0 0h0a11 11 0 0 0 1.73 4.29l.05.07h0 0c.08.13.17.24.24.34l.38.48.05.07h0c.14.17.29.34.43.48a10.92 10.92 0 0 0 1.61 1.36l.06.05.14.09.55.35a14.06 14.06 0 0 0 2.83 1.29l.13.05h.15l.32.1c.28.09.57.16.87.24a12.86 12.86 0 0 0 1.25.25h0l.64.1h.19l.48.06h.28.58.19.82 1.24l.75-.05h.08l.65-.07h.15.15.34c.42-.07.83-.14 1.21-.23s.64-.15.91-.23h0c.26-.07.59-.18.84-.26l.83-.3a8.68 8.68 0 0 0 .72-.31h.07l.1-.05h0l.12-.07h0l.41-.21a1 1 0 0 0 .17-.1 12.35 12.35 0 0 0 1.27-.81l.07-.05a7 7 0 0 0 .62-.49l.07-.07a9.38 9.38 0 0 0 1.82-2.05v-.05l.28-.45h0 0v-.05a7.99 7.99 0 0 0 .31-.57h0c.09-.18.15-.29.22-.45v-.06-.1c.06-.13.11-.26.16-.39h0v-.12c0-.04.07-.18.11-.28v-.06h0a.14.14 0 0 0 0-.07c.05-.12.09-.25.13-.38h0a.19.19 0 0 1 0-.07v-.05c.08-.26.1-.35.16-.6l.09-.43v-.11c0-.15.05-.29.07-.42h0v-.2-.1-.2h0a2.29 2.29 0 0 0 0-.25v.12c.69-3.89 1.52-12.88 1.53-12.97z" class="CT"/><path d="M305.27 361.45v-.13-.27-.41a.62.62 0 0 1 0-.13v-.35a.09.09 0 0 1 0-.05c0-.13 0-.26-.07-.39v-.11c0-.1-.05-.19-.08-.29a1 1 0 0 0 0-.14l-.09-.25a1.21 1.21 0 0 1-.05-.14l-.12-.28-.06-.11-.2-.39h0l-.23-.36-.08-.12-.18-.26-.11-.13-.2-.25-.1-.12s0-.05-.06-.07l-.08-.08q-.18-.19-.39-.39l-.12-.12-.54-.47-.11-.08-.51-.38-.17-.12-.68-.43-.75-.42-.2-.1-.74-.35h-.06l-.82-.34-.22-.08-.77-.27h-.07 0l-.81-.24-.21-.06-.62-.15-.26-.06-.67-.14h-.18l-.85-.15h-.21l-.66-.09h-.28l-.66-.06h-.22-.87-2.06-.88-.15l-.72.07h-.27l-.64.08h-.24c-.29 0-.57.09-.85.15h-.1c-.25 0-.5.1-.74.16a1.83 1.83 0 0 0-.25.06c-.21 0-.41.1-.61.15l-.24.07-.79.24h0l-.72.25-.23.09-.5.21-.25.11-.49.22-.21.1-.67.36-.27.15-.11.07-.48.3-.15.1-.58.42-.1.08-.43.35-.15.14-.35.33-.13.13-.41.46v.05l-.32.42-.1.15-.22.35-.09.15-.24.47h0l-.19.5c-.06.17 0 .09-.05.14s-.07.25-.1.37a.9.9 0 0 0 0 .16 3.25 3.25 0 0 0-.08.43v.08a4.07 4.07 0 0 0 0 .5v.14.38.16c0 .05 0 .27.06.4s0 .08 0 .11a4.1 4.1 0 0 0 .14.5.5.5 0 0 0 0 .13c0 .12.09.25.14.38v.08a.3.3 0 0 1 0 .08l.19.37.07.13q.14.24.3.48a.61.61 0 0 0 .07.1l.28.38.12.15.3.34.13.13.46.45.07.06.45.38.18.13c.13.11.27.21.41.31l.19.13.63.4.64.36h.05.1l.78.38.12.05.89.37.19.07.94.33h.05l.93.27.2.05 1 .22h.19l.93.17h.13l1 .14h.22l1 .09h.22.56 1.91.46.33.46.32l.48-.05h.3l.53-.08h.24l.75-.14h.18l.57-.11.28-.07.46-.12.3-.08.42-.12.31-.09.41-.14.3-.1.4-.15.28-.11.4-.17.27-.11.43-.21.21-.1.62-.33.51-.3.15-.1.34-.22.16-.11.31-.22.14-.11.33-.26.08-.07.39-.35.08-.08.27-.27.11-.12.22-.24a1.47 1.47 0 0 1 .1-.13 2.65 2.65 0 0 0 .21-.26l.08-.11.25-.37h0l.21-.37.06-.11.14-.27.06-.14c0-.08.07-.17.1-.26a.69.69 0 0 0 .05-.13c0-.1.07-.21.1-.31a.24.24 0 0 0 0-.08h0l.09-.37a.34.34 0 0 1 0-.1l.03-.35zm-6.33 5.3l-.18.09-.4.19-.22.09-.37.16-.25.1-.37.13-.25.09-.38.13-.26.08-.4.11-.25.07-.43.11h-.23l-.56.12h-.1l-.69.12h-.17l-.51.07h-.25-.45-.27-.43-.28-.43-1.69-.54-.16l-.93-.08h-.2l-.91-.13h-.11l-.84-.15h-.16l-.87-.2h-.18l-.84-.23h0l-.83-.29-.18-.06-.79-.33-.11-.05-.7-.34-.13-.07-.57-.32-.57-.36-.16-.11-.37-.28-.16-.11-.4-.35-.06-.05a5.33 5.33 0 0 1-.42-.4.57.57 0 0 0-.11-.11l-.27-.31a1.34 1.34 0 0 0-.11-.14l-.25-.34-.06-.08a5.08 5.08 0 0 1-.27-.43l-.06-.12-.16-.33-.07-.14c0-.12-.09-.23-.13-.34s0-.08 0-.11l-.12-.45v-.1a2.25 2.25 0 0 1-.06-.36V361v-.34-.12-.46-.06c0-.06 0-.26.07-.39v-.14l.09-.33v-.13a3.38 3.38 0 0 1 .18-.44h0l.22-.42a.57.57 0 0 1 .08-.13l.19-.32.09-.13c.09-.13.19-.25.29-.37a.1.1 0 0 1 0-.05c.11-.14.24-.28.36-.41l.12-.12.31-.29.13-.13.39-.31a.31.31 0 0 1 .09-.07c.16-.13.33-.25.51-.37l.14-.1.43-.27.34-.19.59-.32.19-.09.44-.2.22-.1.45-.18.21-.08.64-.23h0l.71-.21.22-.06.53-.14.24-.06.65-.14h.09l.76-.13h.23l.55-.07h.25l.63-.06h.16c.25 0 .51 0 .77-.05h1.85.77.21l.58.05h.25l.58.07h.2l.75.13h.18l.58.12.24.06.54.13.2.06.72.21h.09l.68.24.2.07.73.3h.06l.65.31.18.09.67.37.6.39.16.11a5.3 5.3 0 0 1 .45.34l.1.07.49.42.11.11c.12.11.23.23.34.35l.12.12.1.12.18.21.09.13c.06.07.11.15.16.22a.76.76 0 0 1 .08.11l.2.32h0l.18.34a1.17 1.17 0 0 1 .05.11 2.44 2.44 0 0 1 .1.24.61.61 0 0 1 0 .12 2.09 2.09 0 0 1 .08.23.5.5 0 0 1 0 .13 2.17 2.17 0 0 1 .07.24.43.43 0 0 1 0 .11c0 .12.05.23.07.35v.05a1.53 1.53 0 0 1 0 .3.49.49 0 0 1 0 .12v.37.23.13.26a.29.29 0 0 0 0 .09c0 .12-.05.23-.08.35v.08a2.76 2.76 0 0 1-.08.27l-.05.12a2.18 2.18 0 0 1-.09.23.5.5 0 0 0-.05.13l-.12.22-.06.12c0 .1-.12.21-.18.31h0l-.23.33a.76.76 0 0 1-.08.11l-.17.22-.1.12-.19.21-.1.11-.24.24-.08.08-.34.3-.08.07-.29.23-.13.1-.27.19-.15.11-.29.19-.14.09-.46.27c-.1.32-.28.42-.47.51zm2.64 12.84h-.29a1 1 0 0 1 0-2c5.33.09 6.9-2.79 7.33-4 .59-1.73.21-3.66-.89-4.47-.94-.7-2.3-.48-3.82.61a1 1 0 1 1-1.16-1.61c3.2-2.29 5.37-1.18 6.16-.59 1.79 1.33 2.45 4.14 1.58 6.7-1.12 3.37-4.49 5.36-8.91 5.36z" class="CM"/><path d="M285.07 369.18l.13-.08h0z" class="CY"/><path d="M249.34,334.62l-.5-.32.07.05.85.55.08.05Z" fill="#b2b2b2"/><g class="E"><g class="CO"><path d="M245.37 332.68c-4.66-1.61-10.44-1.46-17.08 1.56 6.64-3.02 12.42-3.17 17.08-1.56zm-17.3 1.66l.21-.09z"/><path d="M249.76 334.9l-.92-.6h0a17.76 17.76 0 0 0-3.47-1.62c-4.65-1.61-10.42-1.46-17 1.54h-.06l-.21.09a.2.2 0 0 1-.08 0l-.13.07a39.75 39.75 0 0 0-3.8 2.05l-1.26.8c-11.11 7.3-15.09 16.51-8.86 20.57s20.28 1.43 31.4-5.87c.87-.57 1.65-1.13 2.38-1.69l.07-.05h0l1-.78h0l.17-.15h0l.81-.72h0l.21-.19h0c.24-.23.47-.45.68-.68h0l.21-.22h0c.21-.22.4-.44.59-.65h0l.2-.24h0c.18-.21.34-.42.5-.63h0c.07-.08.12-.17.18-.25h0c.15-.21.28-.42.41-.62h0l.15-.25h0a9.31 9.31 0 0 0 .34-.61h0c0-.08.08-.17.12-.25h0a5.45 5.45 0 0 0 .26-.62.06.06 0 0 1 0 0c0-.09.06-.18.09-.26v.05c.07-.21.14-.41.19-.61h0l.06-.26v.08a4.76 4.76 0 0 0 .11-.62h0a2.45 2.45 0 0 0 0-.27.31.31 0 0 1 0 .1 4.3 4.3 0 0 0 0-.62h0v-.27a.49.49 0 0 0 0 .12v-.61a0 0 0 0 1 0 0 2.93 2.93 0 0 0 0-.29v.17c0-.21-.07-.41-.12-.62h0c0-.11-.07-.22-.11-.34l.08.24a6.21 6.21 0 0 0-.2-.61h0a5.79 5.79 0 0 0-.31-.67 5.4 5.4 0 0 1 .23.49c-.07-.17-.15-.34-.23-.51a.25.25 0 0 1 0-.07v-.05-.05a.64.64 0 0 1-.06-.1.54.54 0 0 1-.06-.11 11.12 11.12 0 0 0-3.14-3.18zm-6.19-2.74a23.05 23.05 0 0 0-14 1.55c5.25-2.17 9.98-2.49 14-1.55z"/></g><g class="CP"><path d="M248.84 334.3a56 56 0 0 0-9.73.6c-3.81.54-10.08 4.31-10.08 4.31-4.19-2.94-6.23-1.91-5-2.71a39.75 39.75 0 0 1 3.8-2.05l.13-.07a.2.2 0 0 0 .08 0l.21-.09c6.65-3 12.43-3.18 17.09-1.57a17.76 17.76 0 0 1 3.5 1.58zm1 .7a11.12 11.12 0 0 1 3.14 3.18.54.54 0 0 0 .06.11.64.64 0 0 0 .06.1v.05.05a.25.25 0 0 0 0 .07c1.81 3.49.29 7.77-6.64 12.66-5.56 0-7 0-9.68-3.22-2-2.33-4.82-6.86-6.84-8.09a31.06 31.06 0 0 1 9.66-4 36.85 36.85 0 0 1 10.24-.91z"/></g></g><g class="CP"><path d="M249.76 334.9l.08.05-.5-.33-.5-.32.07.05zm-.99 14.58l-1 .77zm4.73-10.28c0 .12.07.24.11.35l-.11-.35z"/><path d="M253.72 339.89c0 .14.05.28.08.42l-.08-.42zm-3.09 7.87l-.68.67zm.77-.85l-.56.63c.16-.21.38-.42.56-.63zm-1.66 1.71l-.8.71zm4.11-8.02v.46a1.77 1.77 0 0 0 0-.46zm-.01 1.48c0 .16-.06.33-.09.5l.09-.5zm-1.77 3.99a8.2 8.2 0 0 1-.47.6l.47-.6zm.57-.83l-.39.58.39-.58z"/><path d="M253.69 342.84a5.34 5.34 0 0 1-.16.53 5.34 5.34 0 0 0 .16-.53zm.2-1.51a3.87 3.87 0 0 1 0 .48 3.87 3.87 0 0 0 0-.48zm-.8 3.09q-.14.29-.3.57.21-.28.3-.57zm.35-.79a4.16 4.16 0 0 1-.23.54 4.16 4.16 0 0 0 .23-.54z"/></g><path d="M235.32 336a3.1 3.1 0 0 1 2.54-1.95 3.77 3.77 0 0 1 3.37 1.47l-2.78.2-2.1 1c-1.23.15-1.13-.39-1.03-.72z" class="CM"/><path d="M236.35 336.76a3.6 3.6 0 0 1 2.56-1.94 2 2 0 0 1 2.32.73l-2.29.45c-1.35.32-2.59.76-2.59.76z" class="CT"/><g class="E"><path d="M217.04 193.02l23.87-13.87 60.22 34.77-23.87 13.87-60.22-34.77z" class="CM"/><path d="M277.26 227.79l-60.22-34.77-.01 3.24 60.22 34.78 23.87-13.88.01-3.24-23.87 13.87z" class="CT"/><path d="M297.7 226.83l-6.92-3.83a.74.74 0 0 1 .75-1.27l6.73 3.93c.35.19-.45 1.24-.56 1.17z" class="CH"/><path d="M252.99 174.49l3.98-2.31 10.51 6.06-3.98 2.32-10.51-6.07z" fill="#ededed"/><path d="M263.5 180.56l-10.51-6.07-.04 25.05 10.51 6.06 3.98-2.31.04-25.05-3.98 2.32z" fill="#c94639"/><g class="E"><g clip-path="url(#x)"><g><path d="M293.72,203.53l4-2.31a1.86,1.86,0,0,1-.79,1.64l-4,2.31a1.86,1.86,0,0,0,.79-1.64Z" fill="#858585"/></g></g></g><path d="M182.56 14.85l3.97-2.31-.31 110.77-3.98 2.31.32-110.77z" fill="#c94639"/><g class="E"><g clip-path="url(#y)"><g><path d="M320.81,213.75l4-2.31a1.24,1.24,0,0,0-.51,1.11,3.24,3.24,0,0,0,.18,1l-4,2.31a3.16,3.16,0,0,1-.17-1,1.2,1.2,0,0,1,.51-1.12Z" fill="#858585"/><path d="M320.47,215.85l4-2.31c0,.06.05.13.07.2l-4,2.31c0-.07-.05-.14-.07-.2Z" fill="#8a8a8a"/><path d="M320.54,216.05l4-2.31.07.15-4,2.31-.07-.15Z" fill="#8f8f8f"/><path d="M320.61,216.2l4-2.31.06.13-4,2.31-.06-.13Z" fill="#949494"/><path d="M320.67,216.33l4-2.31.06.12-4,2.31-.06-.12Z" fill="#999"/><path d="M320.73,216.45l4-2.31.06.11-4,2.31-.06-.11Z" fill="#9e9e9e"/><path d="M320.79,216.56l4-2.31.06.09-4,2.32-.06-.1Z" fill="#a3a3a3"/><path d="M320.85,216.66l4-2.32.06.1-4,2.31-.06-.09Z" fill="#a8a8a8"/><path d="M320.91,216.75l4-2.31a.35.35,0,0,0,.05.08l-4,2.31a.56.56,0,0,1,0-.08Z" fill="#adadad"/><path d="M321,216.83l4-2.31.06.08-4,2.32-.06-.09Z" fill="#b3b3b3"/><path d="M321,216.92l4-2.32.05.08-4,2.31-.05-.07Z" fill="#b8b8b8"/><path d="M321.07,217l4-2.31.06.07-4,2.31-.06-.07Z" fill="#bdbdbd"/><path d="M321.13,217.06l4-2.31.05.07-4,2.31-.05-.07Z" fill="#c2c2c2"/><path d="M321.18,217.13l4-2.31.06.06-4,2.32-.06-.07Z" fill="#c7c7c7"/><path d="M321.24 217.2l4-2.32v.07l-4 2.31-.05-.06z" fill="#ccc"/><path d="M321.29,217.26l4-2.31.05.06-4,2.31-.06-.06Z" fill="#d1d1d1"/><path d="M321.35 217.32l4-2.31.06.06-4 2.31v-.06z" fill="#d6d6d6"/><path d="M321.4,217.38l4-2.31.06.05-4,2.32-.06-.06Z" fill="#dbdbdb"/><path d="M321.46,217.44l4-2.32a.23.23,0,0,0,.07.07l-4,2.31-.07-.06Z" class="CF"/><path d="M321.53,217.5l4-2.31.07.06-4,2.31-.07-.06Z" fill="#e6e6e6"/><path d="M321.6,217.56l4-2.31.08.08-4,2.31-.09-.08Z" fill="#ebebeb"/><path d="M321.69,217.64l4-2.31.12.08-4,2.31-.11-.08Z" fill="#f0f0f0"/><path d="M321.8,217.72l4-2.31.17.12-4,2.31a.66.66,0,0,1-.17-.12Z" fill="#f5f5f5"/><path d="M322 217.84l4-2.31h.06l-4 2.31h-.07z" class="CZ"/></g></g></g><g class="E"><g clip-path="url(#z)"><g><path d="M320.81,213.75l4-2.31h0l-4,2.31Z" fill="#ce644f"/><path d="M320.83 213.74l4-2.31a.09.09 0 0 1 .06 0l-4 2.31h-.06z" fill="#d36651"/><path d="M320.89 213.71l4-2.31h.07l-4 2.31h-.08z" fill="#d86853"/><path d="M321 213.68l4-2.31h.09l-4 2.32h-.08z" fill="#dd6b55"/><path d="M321.05 213.66l4-2.32h.1l-4 2.31h-.1z" fill="#e26d56"/><path d="M321.15,213.64l4-2.31h.14l-4,2.31Z" fill="#e66f58"/><path d="M321.29,213.63l4-2.31a1.32,1.32,0,0,1,.33.05l-4,2.31a1.88,1.88,0,0,0-.33-.05Z" class="Ca"/><path d="M321.62,213.68l4-2.31h0l-4,2.31Z" class="CM"/><path d="M321.65,213.69l4-2.31a1.7,1.7,0,0,1,.39.18l-4,2.31a2,2,0,0,0-.4-.18Z" class="Ca"/></g></g></g><path d="M322.04 217.88l3.97-2.31 6.73 3.88-3.98 2.31-6.72-3.88z" fill="#ededed"/><g class="E"><g clip-path="url(#AA)"><g><path d="M328.76,221.76l4-2.31a2,2,0,0,0,.4.18l-4,2.31a2,2,0,0,1-.4-.18Z" class="CZ"/><path d="M329.16,221.94l4-2.31h0l-4,2.31Z" class="CH"/><path d="M329.19,222l4-2.31a1.26,1.26,0,0,0,.33.05l-4,2.31a1.39,1.39,0,0,1-.33-.05Z" class="CZ"/><path d="M329.52,222l4-2.31h.14l-4,2.32Z" fill="#f5f5f5"/><path d="M329.66 222l4-2.32h.1l-4 2.31h-.1z" fill="#f0f0f0"/><path d="M329.76 222l4-2.31h.08l-4 2.32h-.08z" fill="#ebebeb"/><path d="M329.84 222l4-2.32h.08l-4 2.31h-.08z" fill="#e6e6e6"/><path d="M329.92 221.93l4-2.31h.06l-4 2.32h-.06z" class="CF"/><path d="M330 221.9l4-2.32-4 2.32z" fill="#dbdbdb"/></g></g></g><path d="M322.05 213.87l3.97-2.31 6.73 3.88-3.98 2.31-6.72-3.88z" fill="#df6c55"/><g class="E"><g clip-path="url(#AB)"><g><path d="M328.77 217.75l4-2.31h.07l-4 2.31h-.07z" class="Ca"/><path d="M328.84,217.79l4-2.31.17.12-4,2.31-.17-.12Z" fill="#e66f58"/><path d="M329,217.91l4-2.31.11.08-4,2.31-.11-.08Z" fill="#e26d56"/><path d="M329.12,218l4-2.31.09.08-4,2.31-.09-.08Z" fill="#dd6b55"/><path d="M329.21,218.07l4-2.31.07.06-4,2.31-.07-.06Z" fill="#d86853"/><path d="M329.28,218.13l4-2.31.06.06-4,2.31-.07-.06Z" fill="#d36651"/><path d="M329.35 218.19l4-2.31.06.06-4 2.31v-.06z" fill="#ce644f"/><path d="M329.4,218.25l4-2.31.06.06-4,2.31-.06-.06Z" fill="#ca614d"/><path d="M329.46,218.31l4-2.31.05.06-4,2.31-.06-.06Z" fill="#c55f4b"/><path d="M329.52,218.37l4-2.31.06.06-4,2.32-.05-.07Z" fill="#c05d4a"/><path d="M329.57,218.44l4-2.32.05.07-4,2.31-.05-.06Z" fill="#bb5a48"/><path d="M329.62 218.5l4-2.31v.06l-4 2.32-.06-.07z" fill="#b65846"/><path d="M329.68,218.57l4-2.32a.42.42,0,0,1,.06.08l-4,2.31-.05-.07Z" fill="#b25644"/><path d="M329.73,218.64l4-2.31.06.07-4,2.31-.06-.07Z" fill="#ad5442"/><path d="M329.79 218.71l4-2.31a.56.56 0 0 0 .05.08l-4 2.32v-.09z" fill="#a85140"/><path d="M329.84,218.8l4-2.32.06.09-4,2.31-.06-.08Z" fill="#a34f3f"/><path d="M329.9,218.88l4-2.31.06.09L330,219l-.06-.09Z" fill="#9e4d3d"/><path d="M330 219l4-2.31a.47.47 0 0 1 .05.1l-4 2.31-.05-.1z" fill="#9a4a3b"/><path d="M330,219.07l4-2.31a.6.6,0,0,1,.06.11l-4,2.31a.54.54,0,0,0-.05-.11Z" fill="#954839"/><path d="M330.07,219.18l4-2.31.06.12-4,2.31a.75.75,0,0,0-.07-.12Z" fill="#904637"/><path d="M330.14,219.3l4-2.31s0,.08.07.13l-4,2.31-.06-.13Z" fill="#8b4335"/><path d="M330.2,219.43l4-2.31.06.15-4,2.31-.06-.15Z" class="CV"/><path d="M330.26,219.58l4-2.31.08.2-4,2.31c0-.06,0-.13-.08-.2Z" class="CN"/><path d="M330.34,219.78l4-2.31a3.16,3.16,0,0,1,.17,1,1.22,1.22,0,0,1-.51,1.12l-4,2.32a1.22,1.22,0,0,0,.51-1.13,3.16,3.16,0,0,0-.17-1Z" class="CU"/></g></g></g><path d="M328.77,217.75a3.84,3.84,0,0,1,1.74,3c0,1.11-.78,1.56-1.75,1L322,217.88a3.82,3.82,0,0,1-1.73-3c0-1.1.79-1.55,1.75-1Z" class="CO"/><path d="M182.24 125.62l3.98-2.31 150.63 89.77-3.98 2.31-150.63-89.77z" class="CM"/><path d="M333.19 104.62l3.98-2.31-.32 110.77-3.98 2.31.32-110.77z" fill="#736c62"/><path d="M182.56 14.85l3.97-2.31 150.64 89.77-3.98 2.31-150.63-89.77z" fill="#d5c9b5"/><path d="M334.32 103.82L334 214.58l-150.63-89.77.31-110.76 150.64 89.77z" class="CO"/><path d="M331.53,91.75c6.84,4,12.36,13.52,12.34,21.37l-.3,106.06c0,7.85-5.58,11-12.42,7.07l-37.43-22.72c-.06,1.64-1.24,2.3-2.7,1.45l-67.88-39.19a5.94,5.94,0,0,1-2.69-4.56L184,138.51c-6.84-3.95-12.37-13.52-12.34-21.37L172,11.08c0-7.85,5.58-11,12.42-7.07Zm1.34,123.64.44-110.7L182.56,14.85l-.32,110.77,150.63,89.77Zm-4.11,6.37c1,.56,1.75.11,1.75-1a3.84,3.84,0,0,0-1.74-3l-6.72-3.88c-1-.55-1.75-.1-1.75,1a3.81,3.81,0,0,0,1.74,3l6.72,3.88Z" fill="#dd5f52"/><g class="E"><path d="M339.54 99.77l4-2.32.41.67-4 2.31-.41-.66z" fill="#a8a8a8"/><path d="M340 100.43l4-2.31.41.69-4 2.31-.41-.69z" fill="#a3a3a3"/><path d="M340.36,101.12l4-2.31.42.77-4,2.31-.42-.77Z" fill="#9e9e9e"/><path d="M347.77 109.14c0-.23-.06-.46-.09-.69l-.14-1-.19-.9-.18-.82c-.07-.28-.2-.69-.31-1l-.2-.68s0-.1-.05-.15l-.52-1.41-.46-1.08-.44-.94-.43-.83h0l-1.23-2.12h0l-.4-.6-.4-.58-.39-.53-.39-.51h0l-.38-.48-.39-.46-.37-.43-.39-.43-.42-.5-.42-.42-.47-.44a7 7 0 0 0-.5-.45l-.59-.5h0 0l-.79-.6a1.59 1.59 0 0 0-.21-.15l-.61-.41-.41-.28-.45-.27L188.39 1.7A13.53 13.53 0 0 0 187 1l-.44-.18-.88-.33h-.15l-.22-.07L185 .3l-.61-.14-.56-.08-.56-.08H183h-.3-.46-.24l-.46.08h-.19-.07a5.9 5.9 0 0 0-.6.17l-.17.06-.14.06-.21.08-.46.22-.14.08-4 2.32a6 6 0 0 1 .81-.39h.14a5.82 5.82 0 0 1 .84-.25h.19a5.2 5.2 0 0 1 .69-.08 3.46 3.46 0 0 1 .46 0 5.28 5.28 0 0 1 .56 0l.58.05a5.43 5.43 0 0 1 .56.09c.2 0 .41.08.61.13l.69.2.88.33.44.17 1.36.7 147.16 87.73.86.55.61.41 1 .76h0a24.74 24.74 0 0 1 3 2.91.08.08 0 0 1 0 0 27.65 27.65 0 0 1 1.74 2.23l.06.07a31.48 31.48 0 0 1 2.05 3.39.41.41 0 0 0 0 .09l.79 1.67.09.21.56 1.41.15.42.36 1.12.21.72.26 1.12.15.69c.08.4.13.81.18 1.21 0 .19.06.38.08.57l.08 1.75-.3 106.06c0 3.9-1.39 6.64-3.61 7.93l4-2.31c2.22-1.29 3.6-4 3.61-7.93l.3-106.06c.09-.48.06-1.04.01-1.6z" class="CM"/></g></g></svg>