<?xml version="1.0" encoding="utf-8"?>
<!-- Generator: Adobe Illustrator 25.1.0, SVG Export Plug-In . SVG Version: 6.00 Build 0)  -->
<svg version="1.1" id="_x2018_ëîé_x5F_1" xmlns="http://www.w3.org/2000/svg" xmlns:xlink="http://www.w3.org/1999/xlink"
	 x="0px" y="0px" viewBox="0 0 3000 2000" style="enable-background:new 0 0 3000 2000;" xml:space="preserve">
<style type="text/css">
	.st0{fill:#FFFFFF;}
	.st1{fill:#EBF3FA;}
	.st2{fill:#CCDDFC;}
	.st3{fill:#C0D8FB;}
	.st4{fill:#77A4E5;}
	.st5{fill:#2C3A64;}
	.st6{fill:#1D3F77;}
	.st7{fill:#ADC8FE;}
	.st8{fill:#2A4E96;}
	.st9{fill:#F99746;}
	.st10{fill:#FFB27D;}
	.st11{fill:#ED975D;}
	.st12{fill:#AFCDFB;}
	.st13{fill:#2B478B;}
	.st14{fill:#19243F;}
	.st15{fill:#233862;}
	.st16{fill:#D8E6FB;}
	.st17{fill:#8CB4F4;}
	.st18{fill:#4786D1;}
	.st19{fill:#699AE2;}
	.st20{fill:#E58638;}
	.st21{fill:#163560;}
	.st22{fill:#FCA56B;}
	.st23{opacity:0.5;}
	.st24{fill:#CE6719;}
	.st25{fill:#2E3552;}
</style>
<rect class="st0" width="3000" height="2000"/>
<g>
	<path class="st1" d="M420.46,1814.48c0,0-328.34-441.9-167.87-896.83c104.6-296.53,496.95-459.02,718.38-296.53
		c94.31,69.2,358.23-22.93,558.42-284.18c332.01-433.27,1370.89,48.13,1050.46,914.5c-146.41,395.86,103.98,345.17,41.2,569.81
		L420.46,1814.48z"/>
	<g>
		<g>
			<rect x="1936.05" y="608.16" class="st2" width="45.02" height="1208.87"/>
			<rect x="1660.88" y="641.06" class="st2" width="589.17" height="29.72"/>
			<g>
				<rect x="1683.09" y="575.26" class="st2" width="9.71" height="65.81"/>
				<g>
					<g>
						<path class="st2" d="M1661.68,588.69c0-3.33,11.92-6.03,26.62-6.03s26.62,2.7,26.62,6.03c0,3.33-11.92,6.03-26.62,6.03
							S1661.68,592.02,1661.68,588.69z"/>
						<path class="st2" d="M1661.68,576.62c0-3.33,11.92-6.03,26.62-6.03s26.62,2.7,26.62,6.03c0,3.33-11.92,6.03-26.62,6.03
							S1661.68,579.95,1661.68,576.62z"/>
						<ellipse class="st2" cx="1688.3" cy="564.56" rx="26.62" ry="6.03"/>
						<path class="st2" d="M1661.68,552.5c0-3.33,11.92-6.03,26.62-6.03s26.62,2.7,26.62,6.03c0,3.33-11.92,6.03-26.62,6.03
							S1661.68,555.83,1661.68,552.5z"/>
					</g>
					<rect x="1671.8" y="549.78" class="st2" width="32.3" height="41.04"/>
				</g>
			</g>
			<g>
				<rect x="1950.25" y="575.26" class="st2" width="9.71" height="65.81"/>
				<g>
					<g>
						<path class="st2" d="M1928.84,588.69c0-3.33,11.92-6.03,26.62-6.03s26.62,2.7,26.62,6.03c0,3.33-11.92,6.03-26.62,6.03
							S1928.84,592.02,1928.84,588.69z"/>
						<path class="st2" d="M1928.84,576.62c0-3.33,11.92-6.03,26.62-6.03s26.62,2.7,26.62,6.03c0,3.33-11.92,6.03-26.62,6.03
							S1928.84,579.95,1928.84,576.62z"/>
						<ellipse class="st2" cx="1955.46" cy="564.56" rx="26.62" ry="6.03"/>
						<path class="st2" d="M1928.84,552.5c0-3.33,11.92-6.03,26.62-6.03s26.62,2.7,26.62,6.03c0,3.33-11.92,6.03-26.62,6.03
							S1928.84,555.83,1928.84,552.5z"/>
					</g>
					<rect x="1938.95" y="549.78" class="st2" width="32.3" height="41.04"/>
				</g>
			</g>
			<g>
				<rect x="2218.21" y="575.26" class="st2" width="9.71" height="65.81"/>
				<g>
					<g>
						<path class="st2" d="M2196.8,588.69c0-3.33,11.92-6.03,26.62-6.03s26.62,2.7,26.62,6.03c0,3.33-11.92,6.03-26.62,6.03
							S2196.8,592.02,2196.8,588.69z"/>
						<path class="st2" d="M2196.8,576.62c0-3.33,11.92-6.03,26.62-6.03s26.62,2.7,26.62,6.03c0,3.33-11.92,6.03-26.62,6.03
							S2196.8,579.95,2196.8,576.62z"/>
						<path class="st2" d="M2196.8,564.56c0-3.33,11.92-6.03,26.62-6.03s26.62,2.7,26.62,6.03c0,3.33-11.92,6.03-26.62,6.03
							S2196.8,567.89,2196.8,564.56z"/>
						<path class="st2" d="M2196.8,552.5c0-3.33,11.92-6.03,26.62-6.03s26.62,2.7,26.62,6.03c0,3.33-11.92,6.03-26.62,6.03
							S2196.8,555.83,2196.8,552.5z"/>
					</g>
					<rect x="2206.92" y="549.78" class="st2" width="32.3" height="41.04"/>
				</g>
			</g>
			<g>
				<polygon class="st2" points="1958.59,803.45 1791.68,664.09 1797.83,656.76 1958.54,790.95 2121.84,652.29 2128.06,659.56 				
					"/>
			</g>
		</g>
	</g>
	<g>
		<g>
			<path class="st3" d="M518.06,1555.65h-54.46c-0.29,0-0.52-0.23-0.52-0.52v-280.77c0-0.29,0.23-0.52,0.52-0.52h54.46
				c0.29,0,0.52,0.24,0.52,0.52v280.77C518.58,1555.42,518.35,1555.65,518.06,1555.65z M464.12,1554.6h53.42v-279.73h-53.42V1554.6z
				"/>
		</g>
		<g>
			<path class="st3" d="M542.52,1742.83H438.78c-0.15,0-0.29-0.06-0.39-0.18c-0.1-0.11-0.15-0.26-0.13-0.42l24.81-187.18
				c0.03-0.26,0.26-0.46,0.52-0.46h54.46c0.26,0,0.49,0.2,0.52,0.46l24.46,187.18c0.02,0.15-0.03,0.3-0.13,0.41
				C542.81,1742.77,542.67,1742.83,542.52,1742.83z M439.38,1741.78h102.54l-24.33-186.13h-53.54L439.38,1741.78z"/>
		</g>
		<g>
			<path class="st3" d="M448.79,1817.14H428.9c-0.15,0-0.29-0.07-0.39-0.18c-0.1-0.11-0.15-0.26-0.13-0.42l9.88-74.3
				c0.03-0.26,0.26-0.46,0.52-0.46h41.13c0.18,0,0.34,0.09,0.44,0.23c0.1,0.15,0.11,0.33,0.05,0.49l-31.12,74.3
				C449.19,1817.01,449,1817.14,448.79,1817.14z M429.5,1816.09h18.93l30.68-73.26h-39.88L429.5,1816.09z"/>
		</g>
		<g>
			<path class="st3" d="M552.23,1817.14h-19.88c-0.21,0-0.4-0.13-0.48-0.32l-31.12-74.3c-0.07-0.16-0.05-0.35,0.05-0.49
				c0.1-0.15,0.26-0.23,0.44-0.23h41.13c0.26,0,0.48,0.2,0.52,0.46l9.88,74.3c0.02,0.15-0.03,0.3-0.13,0.42
				C552.52,1817.07,552.38,1817.14,552.23,1817.14z M532.7,1816.09h18.93l-9.74-73.26h-39.88L532.7,1816.09z"/>
		</g>
		<g>
			<path class="st3" d="M647.56,1555.65H341.52c-0.25,0-0.47-0.18-0.52-0.43c-0.05-0.25,0.09-0.49,0.33-0.58l122.07-46.8
				c0.06-0.02,0.12-0.04,0.19-0.04h54.46c0.06,0,0.12,0.01,0.18,0.03l129.5,46.8c0.24,0.09,0.38,0.33,0.34,0.58
				C648.03,1555.47,647.81,1555.65,647.56,1555.65z M344.35,1554.6h300.21l-126.6-45.75h-54.27L344.35,1554.6z"/>
		</g>
		<g>
			<path class="st3" d="M629.4,1415.26H359.68c-0.25,0-0.46-0.17-0.51-0.41c-0.05-0.24,0.07-0.49,0.3-0.59l103.91-46.8
				c0.07-0.03,0.14-0.05,0.22-0.05h54.46c0.07,0,0.14,0.01,0.2,0.04l111.35,46.8c0.23,0.1,0.36,0.34,0.31,0.59
				C629.87,1415.09,629.65,1415.26,629.4,1415.26z M362.12,1414.21H626.8l-108.85-45.75H463.7L362.12,1414.21z"/>
		</g>
		<g>
			<path class="st3" d="M600.87,1274.88H388.21c-0.25,0-0.47-0.18-0.51-0.42c-0.05-0.25,0.09-0.49,0.32-0.59l84.83-34.06
				c0.06-0.03,0.13-0.04,0.2-0.04h37.85c0.06,0,0.13,0.01,0.19,0.03l89.99,34.06c0.24,0.09,0.38,0.34,0.33,0.58
				C601.34,1274.69,601.13,1274.88,600.87,1274.88z M390.92,1273.83h207.09l-87.22-33.01h-37.65L390.92,1273.83z"/>
		</g>
		<g>
			<path class="st3" d="M510.88,1240.81h-37.85c-0.16,0-0.32-0.08-0.42-0.21c-0.1-0.13-0.13-0.3-0.09-0.46l17.79-65.15
				c0.06-0.22,0.26-0.38,0.5-0.39c0.25,0,0.44,0.15,0.51,0.37l20.06,65.15c0.05,0.16,0.02,0.33-0.08,0.47
				C511.2,1240.73,511.05,1240.81,510.88,1240.81z M473.72,1239.76h36.45l-19.32-62.74L473.72,1239.76z"/>
		</g>
		<g>
			<path class="st3" d="M518.06,1321.67h-54.46c-0.22,0-0.42-0.14-0.49-0.34c-0.08-0.21-0.02-0.44,0.15-0.58l26.77-23l-26.77-23
				c-0.17-0.14-0.23-0.37-0.15-0.58c0.08-0.21,0.27-0.34,0.49-0.34h54.46c0.22,0,0.42,0.14,0.49,0.34c0.08,0.21,0.02,0.44-0.15,0.58
				l-26.77,23l26.77,23c0.17,0.14,0.23,0.37,0.15,0.58C518.47,1321.53,518.27,1321.67,518.06,1321.67z M465.01,1320.62h51.63
				l-25.82-22.18L465.01,1320.62z M465.01,1274.88l25.82,22.18l25.82-22.18H465.01z"/>
		</g>
		<g>
			<path class="st3" d="M518.06,1368.47h-54.46c-0.22,0-0.42-0.14-0.49-0.34c-0.08-0.21-0.02-0.44,0.15-0.58l26.77-23l-26.77-23
				c-0.17-0.14-0.23-0.37-0.15-0.58c0.08-0.21,0.27-0.34,0.49-0.34h54.46c0.22,0,0.42,0.14,0.49,0.34c0.08,0.21,0.02,0.44-0.15,0.58
				l-26.77,23l26.77,23c0.17,0.14,0.23,0.37,0.15,0.58C518.47,1368.33,518.27,1368.47,518.06,1368.47z M465.01,1367.42h51.63
				l-25.82-22.18L465.01,1367.42z M465.01,1321.67l25.82,22.18l25.82-22.18H465.01z"/>
		</g>
		<g>
			<path class="st3" d="M518.06,1415.26h-54.46c-0.22,0-0.42-0.14-0.49-0.34c-0.08-0.21-0.02-0.44,0.15-0.58l26.77-23l-26.77-23
				c-0.17-0.14-0.23-0.37-0.15-0.58c0.08-0.21,0.27-0.34,0.49-0.34h54.46c0.22,0,0.42,0.14,0.49,0.34c0.08,0.21,0.02,0.44-0.15,0.58
				l-26.77,23l26.77,23c0.17,0.14,0.23,0.37,0.15,0.58C518.47,1415.12,518.27,1415.26,518.06,1415.26z M465.01,1414.21h51.63
				l-25.82-22.18L465.01,1414.21z M465.01,1368.47l25.82,22.18l25.82-22.18H465.01z"/>
		</g>
		<g>
			<path class="st3" d="M518.06,1462.06h-54.46c-0.22,0-0.42-0.14-0.49-0.34c-0.08-0.21-0.02-0.44,0.15-0.58l26.77-23l-26.77-23
				c-0.17-0.14-0.23-0.37-0.15-0.58c0.08-0.21,0.27-0.34,0.49-0.34h54.46c0.22,0,0.42,0.14,0.49,0.34c0.08,0.21,0.02,0.44-0.15,0.58
				l-26.77,23l26.77,23c0.17,0.14,0.23,0.37,0.15,0.58C518.47,1461.92,518.27,1462.06,518.06,1462.06z M465.01,1461.01h51.63
				l-25.82-22.18L465.01,1461.01z M465.01,1415.26l25.82,22.18l25.82-22.18H465.01z"/>
		</g>
		<g>
			<path class="st3" d="M518.06,1508.85h-54.46c-0.22,0-0.42-0.14-0.49-0.34c-0.08-0.21-0.02-0.44,0.15-0.58l26.77-23l-26.77-23
				c-0.17-0.14-0.23-0.37-0.15-0.58c0.08-0.21,0.27-0.34,0.49-0.34h54.46c0.22,0,0.42,0.14,0.49,0.34c0.08,0.21,0.02,0.44-0.15,0.58
				l-26.77,23l26.77,23c0.17,0.14,0.23,0.37,0.15,0.58C518.47,1508.72,518.27,1508.85,518.06,1508.85z M465.01,1507.8h51.63
				l-25.82-22.18L465.01,1507.8z M465.01,1462.06l25.82,22.18l25.82-22.18H465.01z"/>
		</g>
		<g>
			<path class="st3" d="M524.31,1602.44h-67.06c-0.22,0-0.42-0.14-0.5-0.35c-0.07-0.21,0-0.45,0.18-0.58l33.02-25.41l-26.67-20.56
				c-0.18-0.14-0.25-0.37-0.18-0.58c0.07-0.21,0.27-0.36,0.5-0.36h54.46c0.22,0,0.42,0.14,0.5,0.36c0.07,0.21,0,0.45-0.18,0.58
				l-26.71,20.56l32.97,25.41c0.18,0.14,0.25,0.37,0.18,0.58C524.73,1602.3,524.53,1602.44,524.31,1602.44z M458.79,1601.4h63.98
				l-31.97-24.64L458.79,1601.4z M465.13,1555.65l25.67,19.79l25.71-19.79H465.13z"/>
		</g>
		<g>
			<path class="st3" d="M530.41,1649.24h-79.51c-0.23,0-0.44-0.15-0.5-0.38c-0.06-0.22,0.03-0.46,0.22-0.59l39.13-24.94
				l-32.78-20.97c-0.2-0.13-0.29-0.37-0.22-0.59c0.07-0.22,0.27-0.38,0.5-0.38h67.06c0.23,0,0.44,0.15,0.5,0.38
				c0.07,0.22-0.02,0.46-0.22,0.59l-32.89,20.97l39,24.94c0.2,0.13,0.29,0.37,0.22,0.59
				C530.85,1649.09,530.65,1649.24,530.41,1649.24z M452.7,1648.19h75.92l-37.9-24.24L452.7,1648.19z M459.04,1602.44l31.68,20.26
				l31.79-20.26H459.04z"/>
		</g>
		<g>
			<path class="st3" d="M536.82,1696.04h-92.25c-0.24,0-0.45-0.16-0.51-0.39c-0.06-0.23,0.05-0.48,0.26-0.59l45.27-24.67
				l-38.92-21.2c-0.21-0.11-0.32-0.36-0.26-0.59c0.06-0.23,0.27-0.39,0.51-0.39h79.51c0.24,0,0.45,0.16,0.51,0.39
				c0.06,0.23-0.05,0.48-0.26,0.59l-38.9,21.2l45.3,24.67c0.21,0.11,0.32,0.36,0.26,0.59
				C537.27,1695.87,537.06,1696.04,536.82,1696.04z M446.62,1694.99h88.14l-44.08-24.01L446.62,1694.99z M452.96,1649.24
				l37.71,20.54l37.68-20.54H452.96z"/>
		</g>
		<g>
			<path class="st3" d="M542.78,1742.83h-104c-0.24,0-0.46-0.17-0.51-0.41c-0.05-0.24,0.06-0.48,0.29-0.59l50.96-24.33l-45.18-21.53
				c-0.22-0.1-0.34-0.35-0.29-0.59c0.05-0.24,0.27-0.41,0.51-0.41h92.25c0.24,0,0.46,0.17,0.51,0.41c0.05,0.24-0.06,0.48-0.29,0.59
				l-45.09,21.52l51.05,24.33c0.22,0.1,0.34,0.35,0.29,0.59C543.24,1742.66,543.02,1742.83,542.78,1742.83z M441.09,1741.78h99.37
				l-49.73-23.69L441.09,1741.78z M446.88,1696.04l43.85,20.89l43.77-20.89H446.88z"/>
		</g>
		<g>
			<path class="st3" d="M428.21,1415.26c-0.13,0-0.26-0.05-0.35-0.14l-22.7-20.64l0.71-0.78l22.28,20.25l35.03-46.34l0.84,0.63
				l-35.38,46.8c-0.09,0.12-0.22,0.19-0.37,0.21C428.24,1415.26,428.23,1415.26,428.21,1415.26z"/>
		</g>
		<g>
			<path class="st3" d="M561.23,1415.26c-0.14,0-0.28-0.06-0.39-0.17l-43.18-46.79l0.77-0.71l42.84,46.43l22.75-18.61l0.66,0.81
				l-23.14,18.93C561.47,1415.22,561.35,1415.26,561.23,1415.26z"/>
		</g>
		<g>
			
				<rect x="454.92" y="1531.2" transform="matrix(0.7587 -0.6514 0.6514 0.7587 -879.3878 689.3396)" class="st3" width="71.81" height="1.05"/>
		</g>
		<g>
			<path class="st3" d="M607.25,1555.96l-39.66-29.1l-49.27,28.71c-0.19,0.11-0.44,0.09-0.61-0.06l-54.46-46.8l0.68-0.79
				l54.18,46.55l49.24-28.7c0.18-0.1,0.41-0.09,0.57,0.03l39.94,29.3L607.25,1555.96z"/>
		</g>
		<g>
			<path class="st3" d="M395.96,1555.88l-0.81-0.67l25.56-30.93c0.1-0.12,0.24-0.19,0.4-0.19c0.16,0,0.3,0.06,0.4,0.18l26.55,30.51
				l-0.79,0.69l-26.14-30.04L395.96,1555.88z"/>
		</g>
		<g>
			<path class="st3" d="M463.59,1274.88c-0.08,0-0.17-0.02-0.24-0.06l-32.97-17.03l0.48-0.93l32.4,16.74l9.27-33.44
				c0.05-0.17,0.17-0.3,0.34-0.36c0.16-0.06,0.35-0.03,0.48,0.08l44.78,33.88l39.19-16.29l0.4,0.97l-39.47,16.41
				c-0.17,0.07-0.37,0.05-0.52-0.07l-44.41-33.6l-9.24,33.32c-0.04,0.15-0.15,0.28-0.29,0.34
				C463.73,1274.86,463.66,1274.88,463.59,1274.88z"/>
		</g>
		<g>
			<path class="st3" d="M463.9,1274.78l-0.61-0.85l47.29-34.06c0.14-0.1,0.33-0.13,0.5-0.06c0.17,0.06,0.29,0.21,0.32,0.38
				l7.17,34.06l-1.03,0.22l-7.01-33.28L463.9,1274.78z"/>
		</g>
		<g>
			<path class="st3" d="M510.49,1240.64l-18.9-21.27l-18.16,21.26l-0.8-0.68l18.25-21.37l-9.35-10.52
				c-0.14-0.15-0.17-0.38-0.09-0.56c0.08-0.19,0.27-0.31,0.48-0.31h18.92c0.2,0,0.39,0.12,0.48,0.3c0.09,0.19,0.06,0.4-0.08,0.56
				l-8.98,10.51l19,21.37L510.49,1240.64z M483.1,1208.24l8.48,9.54l8.14-9.54H483.1z"/>
		</g>
	</g>
	<g>
		<g>
			<path class="st3" d="M884.07,1346.54h-97.75c-0.52,0-0.94-0.42-0.94-0.94V841.68c0-0.52,0.42-0.94,0.94-0.94h97.75
				c0.52,0,0.94,0.42,0.94,0.94v503.91C885.01,1346.11,884.59,1346.54,884.07,1346.54z M787.27,1344.65h95.87V842.62h-95.87V1344.65
				z"/>
		</g>
		<g>
			<path class="st3" d="M927.98,1682.48H741.79c-0.27,0-0.53-0.12-0.71-0.32c-0.18-0.2-0.26-0.47-0.23-0.74l44.53-335.94
				c0.06-0.47,0.46-0.82,0.93-0.82h97.75c0.47,0,0.87,0.35,0.93,0.82l43.91,335.94c0.04,0.27-0.05,0.54-0.23,0.74
				C928.51,1682.36,928.25,1682.48,927.98,1682.48z M742.87,1680.6h184.04l-43.66-334.06h-96.1L742.87,1680.6z"/>
		</g>
		<g>
			<path class="st3" d="M759.75,1815.83h-35.68c-0.27,0-0.53-0.12-0.71-0.32c-0.18-0.2-0.26-0.48-0.23-0.74l17.72-133.36
				c0.06-0.47,0.46-0.82,0.93-0.82h73.81c0.32,0,0.61,0.16,0.78,0.42c0.17,0.26,0.21,0.59,0.08,0.88l-55.85,133.36
				C760.47,1815.61,760.13,1815.83,759.75,1815.83z M725.14,1813.95h33.98l55.06-131.47h-71.57L725.14,1813.95z"/>
		</g>
		<g>
			<path class="st3" d="M945.4,1815.83h-35.68c-0.38,0-0.72-0.23-0.87-0.58L853,1681.9c-0.12-0.29-0.09-0.62,0.08-0.88
				c0.17-0.26,0.47-0.42,0.78-0.42h73.81c0.47,0,0.87,0.35,0.93,0.82l17.72,133.36c0.04,0.27-0.05,0.54-0.23,0.74
				C945.93,1815.72,945.67,1815.83,945.4,1815.83z M910.35,1813.95h33.98l-17.47-131.47h-71.57L910.35,1813.95z"/>
		</g>
		<g>
			<path class="st3" d="M1116.49,1346.54H567.24c-0.45,0-0.84-0.32-0.92-0.77c-0.08-0.45,0.16-0.89,0.59-1.05l219.08-83.99
				c0.11-0.04,0.22-0.06,0.34-0.06h97.75c0.11,0,0.22,0.02,0.32,0.06l232.42,83.99c0.43,0.16,0.69,0.6,0.61,1.05
				C1117.34,1346.21,1116.95,1346.54,1116.49,1346.54z M572.33,1344.65h538.79l-227.21-82.1H786.5L572.33,1344.65z"/>
		</g>
		<g>
			<path class="st3" d="M1083.91,1094.58H599.83c-0.44,0-0.83-0.31-0.92-0.74c-0.09-0.43,0.13-0.87,0.53-1.06l186.5-83.99
				c0.12-0.05,0.25-0.08,0.39-0.08h97.75c0.12,0,0.25,0.02,0.36,0.07l199.84,83.99c0.41,0.17,0.65,0.61,0.56,1.05
				C1084.74,1094.26,1084.36,1094.58,1083.91,1094.58z M604.21,1092.7h475.04l-195.36-82.1h-97.36L604.21,1092.7z"/>
		</g>
		<g>
			<path class="st3" d="M1032.71,842.62H651.03c-0.45,0-0.84-0.32-0.92-0.76c-0.08-0.44,0.15-0.88,0.57-1.05l152.24-61.13
				c0.11-0.04,0.23-0.07,0.35-0.07h67.93c0.11,0,0.23,0.02,0.33,0.06l161.51,61.13c0.43,0.16,0.67,0.6,0.59,1.05
				C1033.55,842.3,1033.16,842.62,1032.71,842.62z M655.89,840.74h371.67l-156.54-59.25h-67.57L655.89,840.74z"/>
		</g>
		<g>
			<path class="st3" d="M871.2,781.49h-67.93c-0.29,0-0.57-0.14-0.75-0.37c-0.18-0.23-0.24-0.54-0.16-0.82l31.93-116.92
				c0.11-0.4,0.47-0.69,0.89-0.69c0.45,0,0.79,0.26,0.91,0.66l36,116.92c0.09,0.29,0.04,0.6-0.14,0.84
				C871.78,781.35,871.49,781.49,871.2,781.49z M804.5,779.61h65.42L835.25,667L804.5,779.61z"/>
		</g>
		<g>
			<path class="st3" d="M884.07,926.61h-97.75c-0.39,0-0.74-0.24-0.88-0.61c-0.14-0.37-0.03-0.78,0.27-1.04l48.04-41.28
				l-48.04-41.28c-0.3-0.26-0.41-0.67-0.27-1.04c0.14-0.37,0.49-0.61,0.88-0.61h97.75c0.39,0,0.74,0.24,0.88,0.61
				c0.14,0.37,0.03,0.78-0.27,1.04l-48.04,41.28l48.04,41.28c0.3,0.26,0.41,0.67,0.27,1.04
				C884.82,926.36,884.46,926.61,884.07,926.61z M788.86,924.73h92.67l-46.34-39.81L788.86,924.73z M788.86,842.62l46.34,39.81
				l46.34-39.81H788.86z"/>
		</g>
		<g>
			<path class="st3" d="M884.07,1010.59h-97.75c-0.39,0-0.74-0.25-0.88-0.61c-0.14-0.37-0.03-0.78,0.27-1.04l48.04-41.28
				l-48.04-41.28c-0.3-0.26-0.41-0.67-0.27-1.04c0.14-0.37,0.49-0.61,0.88-0.61h97.75c0.39,0,0.74,0.24,0.88,0.61
				c0.14,0.37,0.03,0.78-0.27,1.04l-48.04,41.28l48.04,41.28c0.3,0.26,0.41,0.67,0.27,1.04
				C884.82,1010.35,884.46,1010.59,884.07,1010.59z M788.86,1008.71h92.67L835.2,968.9L788.86,1008.71z M788.86,926.61l46.34,39.81
				l46.34-39.81H788.86z"/>
		</g>
		<g>
			<path class="st3" d="M884.07,1094.58h-97.75c-0.39,0-0.74-0.25-0.88-0.61c-0.14-0.37-0.03-0.79,0.27-1.04l48.04-41.28
				l-48.04-41.28c-0.3-0.26-0.41-0.67-0.27-1.04c0.14-0.37,0.49-0.61,0.88-0.61h97.75c0.39,0,0.74,0.25,0.88,0.61
				c0.14,0.37,0.03,0.78-0.27,1.04l-48.04,41.28l48.04,41.28c0.3,0.26,0.41,0.67,0.27,1.04
				C884.82,1094.33,884.46,1094.58,884.07,1094.58z M788.86,1092.7h92.67l-46.34-39.81L788.86,1092.7z M788.86,1010.59l46.34,39.81
				l46.34-39.81H788.86z"/>
		</g>
		<g>
			<path class="st3" d="M884.07,1178.56h-97.75c-0.39,0-0.74-0.25-0.88-0.61c-0.14-0.37-0.03-0.78,0.27-1.04l48.04-41.28
				l-48.04-41.28c-0.3-0.26-0.41-0.67-0.27-1.04c0.14-0.37,0.49-0.61,0.88-0.61h97.75c0.39,0,0.74,0.25,0.88,0.61
				c0.14,0.37,0.03,0.78-0.27,1.04l-48.04,41.28l48.04,41.28c0.3,0.26,0.41,0.67,0.27,1.04
				C884.82,1178.32,884.46,1178.56,884.07,1178.56z M788.86,1176.68h92.67l-46.34-39.81L788.86,1176.68z M788.86,1094.58
				l46.34,39.81l46.34-39.81H788.86z"/>
		</g>
		<g>
			<path class="st3" d="M884.07,1262.55h-97.75c-0.39,0-0.74-0.25-0.88-0.61c-0.14-0.37-0.03-0.79,0.27-1.04l48.04-41.28
				l-48.04-41.28c-0.3-0.26-0.41-0.67-0.27-1.04c0.14-0.37,0.49-0.61,0.88-0.61h97.75c0.39,0,0.74,0.25,0.88,0.61
				c0.14,0.37,0.03,0.79-0.27,1.04l-48.04,41.28l48.04,41.28c0.3,0.26,0.41,0.67,0.27,1.04
				C884.82,1262.3,884.46,1262.55,884.07,1262.55z M788.86,1260.67h92.67l-46.34-39.81L788.86,1260.67z M788.86,1178.56l46.34,39.81
				l46.34-39.81H788.86z"/>
		</g>
		<g>
			<path class="st3" d="M895.3,1430.52H774.94c-0.4,0-0.76-0.26-0.89-0.64c-0.13-0.38,0-0.8,0.32-1.05l59.25-45.6l-47.87-36.89
				c-0.32-0.25-0.45-0.67-0.32-1.05c0.13-0.38,0.49-0.64,0.89-0.64h97.75c0.4,0,0.76,0.26,0.89,0.64c0.13,0.38,0,0.8-0.32,1.05
				l-47.94,36.89l59.17,45.6c0.32,0.25,0.45,0.67,0.32,1.05C896.06,1430.26,895.7,1430.52,895.3,1430.52z M777.71,1428.64h114.83
				l-57.37-44.22L777.71,1428.64z M789.09,1346.54l46.08,35.51l46.14-35.51H789.09z"/>
		</g>
		<g>
			<path class="st3" d="M906.25,1514.51H763.56c-0.42,0-0.79-0.28-0.9-0.68c-0.12-0.4,0.04-0.83,0.4-1.06l70.22-44.77l-58.84-37.63
				c-0.35-0.22-0.51-0.66-0.4-1.06c0.12-0.4,0.49-0.68,0.9-0.68H895.3c0.42,0,0.79,0.28,0.9,0.68c0.12,0.4-0.04,0.83-0.4,1.06
				l-59.03,37.64l69.99,44.76c0.35,0.22,0.51,0.66,0.4,1.06C907.04,1514.23,906.67,1514.51,906.25,1514.51z M766.78,1512.62h136.25
				l-68.02-43.5L766.78,1512.62z M778.16,1430.52l56.86,36.37l57.05-36.37H778.16z"/>
		</g>
		<g>
			<path class="st3" d="M917.74,1598.49H752.17c-0.43,0-0.81-0.29-0.91-0.71c-0.11-0.42,0.08-0.85,0.46-1.06l81.24-44.28
				l-69.86-38.05c-0.38-0.21-0.57-0.64-0.46-1.06c0.11-0.42,0.48-0.71,0.91-0.71h142.69c0.43,0,0.81,0.29,0.91,0.71
				c0.11,0.42-0.08,0.85-0.46,1.06l-69.81,38.05l81.3,44.28c0.38,0.21,0.57,0.64,0.46,1.06
				C918.55,1598.2,918.17,1598.49,917.74,1598.49z M755.87,1596.61h158.18l-79.12-43.1L755.87,1596.61z M767.25,1514.51l67.68,36.87
				l67.63-36.87H767.25z"/>
		</g>
		<g>
			<path class="st3" d="M928.44,1682.48H741.79c-0.44,0-0.82-0.3-0.92-0.73c-0.1-0.43,0.12-0.87,0.51-1.06l91.46-43.66l-81.08-38.63
				c-0.4-0.19-0.61-0.63-0.51-1.06c0.1-0.43,0.48-0.73,0.92-0.73h165.57c0.44,0,0.82,0.3,0.92,0.73c0.1,0.43-0.12,0.87-0.51,1.06
				l-80.93,38.63l91.63,43.66c0.4,0.19,0.61,0.63,0.51,1.06C929.26,1682.17,928.88,1682.48,928.44,1682.48z M745.95,1680.6h178.33
				l-89.25-42.52L745.95,1680.6z M756.34,1598.49l78.7,37.5l78.56-37.5H756.34z"/>
		</g>
		<g>
			<path class="st3" d="M722.83,1094.58c-0.23,0-0.46-0.09-0.63-0.25l-40.75-37.04l1.27-1.39l39.99,36.35l62.88-83.16l1.5,1.13
				l-63.5,83.99c-0.16,0.21-0.4,0.34-0.66,0.37C722.88,1094.58,722.86,1094.58,722.83,1094.58z"/>
		</g>
		<g>
			<path class="st3" d="M961.56,1094.58c-0.25,0-0.51-0.1-0.69-0.3l-77.49-83.99l1.38-1.28l76.89,83.33l40.84-33.41l1.19,1.46
				l-41.52,33.97C961.98,1094.51,961.77,1094.58,961.56,1094.58z"/>
		</g>
		<g>
			
				<rect x="770.76" y="1302.66" transform="matrix(0.7591 -0.651 0.651 0.7591 -647.3976 857.6841)" class="st3" width="128.87" height="1.88"/>
		</g>
		<g>
			<path class="st3" d="M1044.15,1347.1l-71.18-52.22l-88.42,51.53c-0.35,0.2-0.78,0.16-1.09-0.1l-97.75-83.99l1.23-1.43
				l97.24,83.55l88.37-51.51c0.32-0.19,0.73-0.17,1.03,0.05l71.68,52.59L1044.15,1347.1z"/>
		</g>
		<g>
			<path class="st3" d="M664.94,1346.94l-1.45-1.2l45.87-55.51c0.18-0.21,0.44-0.34,0.71-0.34c0.29-0.01,0.54,0.11,0.72,0.32
				l47.64,54.76l-1.42,1.24l-46.91-53.92L664.94,1346.94z"/>
		</g>
		<g>
			<path class="st3" d="M786.32,842.62c-0.15,0-0.3-0.03-0.43-0.1l-59.18-30.57l0.86-1.67l58.15,30.04l16.64-60.02
				c0.08-0.3,0.31-0.54,0.61-0.64c0.29-0.1,0.62-0.05,0.87,0.14l80.37,60.81l70.33-29.24l0.72,1.74l-70.83,29.45
				c-0.31,0.13-0.66,0.08-0.93-0.12l-79.7-60.3l-16.58,59.8c-0.08,0.27-0.27,0.5-0.53,0.61
				C786.58,842.6,786.45,842.62,786.32,842.62z"/>
		</g>
		<g>
			<path class="st3" d="M786.87,842.44l-1.1-1.53l84.87-61.13c0.26-0.19,0.59-0.23,0.89-0.11c0.3,0.12,0.52,0.37,0.58,0.68
				l12.88,61.13l-1.84,0.39l-12.58-59.72L786.87,842.44z"/>
		</g>
		<g>
			<path class="st3" d="M870.49,781.17l-33.92-38.17l-32.58,38.15l-1.43-1.22l32.75-38.35l-16.78-18.87
				c-0.25-0.28-0.31-0.67-0.16-1.01c0.15-0.34,0.49-0.56,0.86-0.56h33.96c0.37,0,0.7,0.21,0.85,0.55c0.15,0.33,0.1,0.73-0.14,1
				l-16.11,18.86l34.1,38.36L870.49,781.17z M821.33,723.03l15.21,17.11l14.62-17.11H821.33z"/>
		</g>
	</g>
	<g>
		<path class="st4" d="M1389.83,657.65c-1.8-7.08-2.82-7.76-2.82-7.76s-70.48,3.94-77.11,4.02c-6.63,0.08-97.07-24.35-97.07-24.35
			l-46.5,49.67c0,0,127.24,12.63,144.03,12.1c27.74-0.88,79.34-23.39,79.34-23.39S1391.24,663.22,1389.83,657.65z"/>
		<path class="st5" d="M1369.01,1071.3c0,0-1.29,28.45,4.42,30.91s72.04-2.14,72.04-2.14s-0.46-8.3-11.99-9.52
			c-11.53-1.21-27.49-8.95-36.21-21.75C1385.12,1050.93,1369.01,1071.3,1369.01,1071.3z"/>
		<path class="st6" d="M1259.44,822.59c0,0,92.69,79.79,104.62,105.54c11.93,25.75,48.73,141.8,48.73,141.8s-10.15,6.11-30.84,7.25
			c-9.15,0.51-15.74-3.25-15.74-3.25s-53.68-105.3-58.38-115.45c-4.7-10.15-124.03-49.74-156.81-109.73L1259.44,822.59z"/>
		<g>
			<rect x="1379.86" y="349.03" class="st7" width="54.64" height="1466.33"/>
			<rect x="1045.91" y="388.94" class="st7" width="715" height="36.05"/>
			<g>
				<rect x="1072.87" y="309.12" class="st7" width="11.79" height="79.82"/>
				<g>
					<g>
						<ellipse class="st7" cx="1079.2" cy="325.4" rx="32.31" ry="7.31"/>
						<path class="st7" d="M1046.89,310.77c0-4.04,14.47-7.32,32.31-7.32s32.31,3.27,32.31,7.32c0,4.04-14.47,7.32-32.31,7.32
							S1046.89,314.81,1046.89,310.77z"/>
						<path class="st7" d="M1046.89,296.14c0-4.04,14.47-7.32,32.31-7.32s32.31,3.28,32.31,7.32c0,4.04-14.47,7.31-32.31,7.31
							S1046.89,300.18,1046.89,296.14z"/>
						<ellipse class="st7" cx="1079.2" cy="281.51" rx="32.31" ry="7.31"/>
					</g>
					<rect x="1059.16" y="278.22" class="st7" width="39.2" height="49.78"/>
				</g>
			</g>
			<g>
				<rect x="1397.09" y="309.12" class="st7" width="11.79" height="79.82"/>
				<g>
					<g>
						<ellipse class="st7" cx="1403.42" cy="325.4" rx="32.31" ry="7.31"/>
						<path class="st7" d="M1371.11,310.77c0-4.04,14.47-7.32,32.31-7.32s32.31,3.27,32.31,7.32c0,4.04-14.47,7.32-32.31,7.32
							S1371.11,314.81,1371.11,310.77z"/>
						<path class="st7" d="M1371.11,296.14c0-4.04,14.47-7.32,32.31-7.32s32.31,3.28,32.31,7.32c0,4.04-14.47,7.31-32.31,7.31
							S1371.11,300.18,1371.11,296.14z"/>
						<ellipse class="st7" cx="1403.42" cy="281.51" rx="32.31" ry="7.31"/>
					</g>
					<rect x="1383.38" y="278.22" class="st7" width="39.2" height="49.78"/>
				</g>
			</g>
			<g>
				<rect x="1722.28" y="309.12" class="st7" width="11.79" height="79.82"/>
				<g>
					<g>
						<path class="st7" d="M1696.3,325.4c0-4.04,14.47-7.31,32.31-7.31s32.31,3.27,32.31,7.31c0,4.04-14.46,7.32-32.31,7.32
							S1696.3,329.44,1696.3,325.4z"/>
						<path class="st7" d="M1696.3,310.77c0-4.04,14.47-7.32,32.31-7.32s32.31,3.27,32.31,7.32c0,4.04-14.46,7.32-32.31,7.32
							S1696.3,314.81,1696.3,310.77z"/>
						<path class="st7" d="M1696.3,296.14c0-4.04,14.47-7.32,32.31-7.32s32.31,3.28,32.31,7.32c0,4.04-14.46,7.31-32.31,7.31
							S1696.3,300.18,1696.3,296.14z"/>
						<path class="st7" d="M1696.3,281.51c0-4.04,14.47-7.31,32.31-7.31s32.31,3.27,32.31,7.31c0,4.04-14.46,7.31-32.31,7.31
							S1696.3,285.55,1696.3,281.51z"/>
					</g>
					<rect x="1708.58" y="278.22" class="st7" width="39.2" height="49.78"/>
				</g>
			</g>
			<g>
				<polygon class="st7" points="1407.21,585.91 1204.65,416.86 1212.12,407.98 1407.15,570.74 1605.33,402.55 1612.88,411.37 				
					"/>
			</g>
		</g>
		<rect x="1334.52" y="501.66" class="st8" width="146.14" height="179.02"/>
		<g>
			<path class="st6" d="M1267.46,805.34c-0.51-0.22-1.06-0.37-1.64-0.44l-3.78-0.41c-1.96-0.21-3.88,0.56-5.16,2.06l-5.67,6.71
				l7.89,11l9.1-5.78c1.41-0.91,2.32-2.36,2.5-4c0.04-0.21,0.05-0.42,0.05-0.63v-3.48C1270.75,808.14,1269.42,806.18,1267.46,805.34
				z M1266.86,816.39l-7.09,4.51l-5.39-7.51l4.42-5.25c0.74-0.86,1.85-1.31,2.97-1.18l3.79,0.41c1.54,0.16,2.7,1.45,2.7,3v3.48
				c0,0.43-0.09,0.86-0.27,1.23C1267.76,815.62,1267.37,816.07,1266.86,816.39z"/>
		</g>
		<path class="st9" d="M1434.5,751.58v13.26c0,0-139.19,43.54-163.8,49.65c-1.17,0.29-2.08,0.5-2.71,0.61l-0.01-0.01
			c0.19-0.37,0.27-0.8,0.27-1.23v-3.48c0-1.54-1.16-2.84-2.7-3l-3.79-0.41c0,0,2.05-0.58,5.69-1.63
			C1293.78,797.75,1403.77,765.78,1434.5,751.58z"/>
		<path class="st5" d="M1327.34,1093.72c0,0-5.99,27.84-0.77,31.21c5.23,3.37,71.4,9.76,71.4,9.76s0.92-8.27-10.25-11.36
			c-11.17-3.09-25.63-13.35-32.1-27.41C1346.6,1076.29,1327.34,1093.72,1327.34,1093.72z"/>
		<path class="st10" d="M1169.73,610.16c0,0,31.49,35.41,55.21,30.94c0,0-6.49-7.56-13.71-14.32c-2.16-2.02-1.51-6.78-0.73-9.63
			c0.44-1.6,0.84-3.11,1.2-4.54c2.34-9.29,3.03-14.65,3.03-14.65l-15.98-16.31l-10.85-11.06c-0.46,5.35-1.02,10.33-2.79,14.51
			C1178.36,601.03,1169.73,610.16,1169.73,610.16z"/>
		<path class="st11" d="M1185.1,585.11c0,0,5.97,20.46,26.6,27.51c2.34-9.29,3.03-14.65,3.03-14.65l-15.98-16.31
			C1189.86,582.74,1185.1,585.11,1185.1,585.11z"/>
		<path class="st10" d="M1221.78,598.26c0,0-38.52,1.75-39.25-22.16c-0.73-23.91-6.19-39.79,18.37-41.92
			c24.56-2.13,29.62,6.85,31.81,14.77C1234.91,556.87,1231.78,597.18,1221.78,598.26z"/>
		<path class="st12" d="M1250.55,733.18c-0.15-2.37-0.26-4.77-0.35-7.21c-0.42-12.41-1.93-24.89-4.35-36.55
			c-1.87-9.06-4.3-17.61-7.2-25.23c-4.27-11.22-9.29-19.03-15.64-26.17c-0.05-0.06-10.36-10.57-10.42-10.6
			c-24.81,2.57-42.86-17.25-42.86-17.25s-59.31,51.24-43.84,161.46c0,0,1.49,7.97,4.11,19.44c0.57,2.49,1.2,5.14,1.87,7.92
			C1136.43,817.86,1252.44,764.76,1250.55,733.18z"/>
		<path class="st13" d="M1161.08,540.56c-0.43-0.35-1.31-0.54-3.17-0.32c0,0,1.3-1.19,3.25-1.58c-0.08-2.65,0.47-7.46,4.66-9.34
			c0,0-2.13,1.69-1.95,4.49c4.14-6.18,14.35-11.96,44.94-14.89c40.32-3.86,31.81,24.21,27.21,28.19c-4.6,3.98-19.05-2.14-28.51,0.33
			c-9.45,2.47-8.77,16.81-11.68,19.31s-2.24-1.13-7-2.36c-4.76-1.23-3.86,6.22-1.74,10.79c2.13,4.57-2.79,11.97-2.79,11.97
			s0,0-7.3-5.58s-18.09-32.76-16.38-39.26C1160.78,541.73,1160.92,541.15,1161.08,540.56z"/>
		<path class="st4" d="M1148,706.31c0,0,16.64,55.99,35.5,65.07c18.86,9.08,17.76-38.87,17.76-38.87L1148,706.31z"/>
		<path class="st8" d="M1272.46,841.67c-29.9-13.26-20.02-76.9-21.91-108.49c-0.15-2.37-0.26-4.77-0.35-7.21
			c-0.42-12.41-1.93-24.89-4.35-36.55c-1.87-9.06-4.3-17.61-7.2-25.23l-41.34,6.72c-7.94,1.29-13.66,8.26-13.37,16.26
			c0.75,20.56-1.12,58.71-22.87,78.17c-15.66,14.02-25.34,21.64-31.07,25.73c0.57,2.49,1.2,5.14,1.87,7.92
			c4.56,18.88,9.65,42.9,20.5,56.64C1160.74,866.22,1275.65,843.08,1272.46,841.67z"/>
		<path class="st8" d="M1165.67,614.19c0,0,11.41,4.27,26.32,23.96c12.66,16.71,17.34,32.74,17.34,32.74l-6.86,1.52
			c0,0-10.17-34.95-40.95-53.52C1161.53,618.89,1161.61,618.21,1165.67,614.19z"/>
		<path class="st10" d="M1345.36,642.98c0,0,7.12-16.21,9.02-18.43c1.9-2.22,11.94-9.86,12.68-9.48c0.74,0.38,1.03,3.32-0.78,5.04
			c-1.28,1.21-2.77,2.32-1.99,2.44c0.78,0.12,4.34-5.49,7.15-3.64s9.46,10.05,5.19,16.48c-4.27,6.44-20.53,13.28-21.4,14.26
			C1347.88,657.92,1345.36,642.98,1345.36,642.98z"/>
		<path class="st12" d="M1345.36,642.98c0,0-74.38,65.74-81.41,66.52c-11.23,1.24-73.94-55.8-73.94-55.8s-8.31-14.23-26.7-7.25
			c-15.98,6.07-22.95,25.25-22.95,25.25s-5.41,18.91,3.98,30.2c20.8,25.04,100.22,50.22,123.91,47.2
			c30.55-3.89,87.14-87.05,87.14-87.05s3.43-7.45-0.16-12.4C1352.07,645.28,1345.36,642.98,1345.36,642.98z"/>
		<path class="st8" d="M1363.39,1096.85c0,0-11.02,4.35-31.62,2.08c-9.1-1.01-14.98-5.81-14.98-5.81s-3.21-10.2-7.78-24.75
			c-0.7-2.25-1.44-4.59-2.21-7.03c-1-3.18-2.03-6.52-3.11-9.94c-0.72-2.31-1.46-4.66-2.2-7.04c-10-31.92-21.5-68.78-23.12-74.72
			c-2.95-10.79-114.07-69.49-136.44-134.05l110.85-22.27c0,0,78.59,108.3,86.08,135.65c3.99,14.6,10.71,55.75,16.1,90.92
			c0.36,2.33,0.71,4.61,1.05,6.88c0.52,3.44,1.02,6.8,1.52,10.04c0.35,2.36,0.69,4.65,1.02,6.86
			C1361.44,1083.04,1363.39,1096.85,1363.39,1096.85z"/>
		<path class="st9" d="M1252.79,813.34c0,0-42.66,33.58-104.79,39.38c0,0,5.34,14.03,16.54,20.69c0,0,66.68-10.06,94.9-50.82
			L1252.79,813.34z"/>
		<g>
			<path class="st14" d="M1397.98,1137.79c-0.14,0-0.27-0.01-0.41-0.03l-89.51-11.71c-1.71-0.22-2.91-1.79-2.69-3.49
				c0.22-1.7,1.79-2.9,3.5-2.68l88.82,11.62l35.86-11.5c1.64-0.53,3.4,0.37,3.93,2.01c0.53,1.63-0.37,3.39-2.01,3.91l-36.52,11.71
				C1398.62,1137.74,1398.3,1137.79,1397.98,1137.79z"/>
		</g>
		<g>
			<path class="st0" d="M1356.02,1046.79c-14.38,4.1-28.95,5.04-39.73,5.04c-5.24,0-9.6-0.22-12.59-0.41
				c-0.72-2.31-1.46-4.66-2.2-7.04c0.26,0.02,0.56,0.04,0.91,0.06c7.7,0.5,30.62,1.96,52.56-4.53
				C1355.33,1042.24,1355.68,1044.53,1356.02,1046.79z"/>
		</g>
		<g>
			<path class="st0" d="M1358.57,1063.69c-14.26,4.03-28.69,4.95-39.38,4.95c-3.97,0-7.41-0.12-10.17-0.26
				c-0.7-2.25-1.44-4.59-2.21-7.03c8.84,0.53,30.18,1.48,50.74-4.53C1357.89,1059.19,1358.23,1061.47,1358.57,1063.69z"/>
		</g>
		<rect x="1368.09" y="501.66" class="st15" width="112.58" height="179.02"/>
	</g>
	<g>
		<g>
			<rect x="2326.46" y="974.46" class="st16" width="31.43" height="846.79"/>
			<rect x="2134.34" y="997.51" class="st16" width="411.33" height="20.82"/>
			<g>
				<rect x="2149.85" y="951.42" class="st16" width="6.78" height="46.1"/>
				<g>
					<g>
						<ellipse class="st16" cx="2153.48" cy="960.82" rx="18.59" ry="4.22"/>
						<path class="st16" d="M2134.9,952.37c0-2.33,8.32-4.22,18.59-4.22s18.59,1.89,18.59,4.22c0,2.33-8.32,4.22-18.59,4.22
							S2134.9,954.71,2134.9,952.37z"/>
						<path class="st16" d="M2134.9,943.92c0-2.33,8.32-4.22,18.59-4.22s18.59,1.89,18.59,4.22s-8.32,4.22-18.59,4.22
							S2134.9,946.26,2134.9,943.92z"/>
						<path class="st16" d="M2134.9,935.48c0-2.33,8.32-4.22,18.59-4.22s18.59,1.89,18.59,4.22c0,2.33-8.32,4.22-18.59,4.22
							S2134.9,937.81,2134.9,935.48z"/>
					</g>
					<rect x="2141.96" y="933.57" class="st16" width="22.55" height="28.75"/>
				</g>
			</g>
			<g>
				<rect x="2336.37" y="951.42" class="st16" width="6.78" height="46.1"/>
				<g>
					<g>
						<path class="st16" d="M2321.42,960.82c0-2.33,8.32-4.22,18.59-4.22s18.59,1.89,18.59,4.22c0,2.33-8.32,4.22-18.59,4.22
							S2321.42,963.16,2321.42,960.82z"/>
						<path class="st16" d="M2321.42,952.37c0-2.33,8.32-4.22,18.59-4.22s18.59,1.89,18.59,4.22c0,2.33-8.32,4.22-18.59,4.22
							S2321.42,954.71,2321.42,952.37z"/>
						<path class="st16" d="M2321.42,943.92c0-2.33,8.32-4.22,18.59-4.22s18.59,1.89,18.59,4.22s-8.32,4.22-18.59,4.22
							S2321.42,946.26,2321.42,943.92z"/>
						<path class="st16" d="M2321.42,935.48c0-2.33,8.32-4.22,18.59-4.22s18.59,1.89,18.59,4.22c0,2.33-8.32,4.22-18.59,4.22
							S2321.42,937.81,2321.42,935.48z"/>
					</g>
					<rect x="2328.48" y="933.57" class="st16" width="22.55" height="28.75"/>
				</g>
			</g>
			<g>
				<rect x="2523.45" y="951.42" class="st16" width="6.78" height="46.1"/>
				<g>
					<g>
						<path class="st16" d="M2508.5,960.82c0-2.33,8.32-4.22,18.59-4.22c10.26,0,18.59,1.89,18.59,4.22c0,2.33-8.32,4.22-18.59,4.22
							C2516.82,965.05,2508.5,963.16,2508.5,960.82z"/>
						<path class="st16" d="M2508.5,952.37c0-2.33,8.32-4.22,18.59-4.22c10.26,0,18.59,1.89,18.59,4.22c0,2.33-8.32,4.22-18.59,4.22
							C2516.82,956.6,2508.5,954.71,2508.5,952.37z"/>
						<path class="st16" d="M2508.5,943.92c0-2.33,8.32-4.22,18.59-4.22c10.26,0,18.59,1.89,18.59,4.22s-8.32,4.22-18.59,4.22
							C2516.82,948.15,2508.5,946.26,2508.5,943.92z"/>
						<path class="st16" d="M2508.5,935.48c0-2.33,8.32-4.22,18.59-4.22c10.26,0,18.59,1.89,18.59,4.22c0,2.33-8.32,4.22-18.59,4.22
							C2516.82,939.7,2508.5,937.81,2508.5,935.48z"/>
					</g>
					<rect x="2515.56" y="933.57" class="st16" width="22.55" height="28.75"/>
				</g>
			</g>
			<g>
				<polygon class="st16" points="2342.19,1111.26 2225.66,1013.64 2229.95,1008.51 2342.15,1102.5 2456.17,1005.37 2460.5,1010.47 
									"/>
			</g>
		</g>
	</g>
	<g>
		<rect x="1241.02" y="1220.17" class="st7" width="245.58" height="593.57"/>
		<rect x="1393.2" y="1220.17" class="st17" width="93.39" height="593.57"/>
		<rect x="1320.39" y="1240.67" class="st18" width="49.72" height="88.25"/>
		<rect x="1307.8" y="1240.67" class="st19" width="49.72" height="88.25"/>
		<g>
			<path class="st1" d="M1257.58,1441.09l-0.31-1.21c0.16-0.04,15.65-4.31,18.07-29.74c2.01-21.11,5.44-32.14,11.46-36.89
				c2.71-2.13,6.02-2.93,9.84-2.39c4.8,0.69,9.07,5.05,14.01,10.09c8.87,9.06,19.9,20.33,39.41,15.05
				c29.93-8.1,42.42-40.17,42.54-40.49l1.17,0.44c-0.12,0.33-12.84,32.99-43.38,41.25c-20.21,5.47-31.53-6.09-40.63-15.38
				c-4.78-4.89-8.91-9.11-13.3-9.73c-3.52-0.51-6.43,0.19-8.89,2.13c-5.66,4.45-9.05,15.56-10.99,36.02
				c-1.31,13.73-6.37,21.37-10.39,25.36C1261.81,1439.99,1257.75,1441.05,1257.58,1441.09z"/>
		</g>
		<g>
			<polygon class="st1" points="1393.2,1459.85 1319.76,1459.85 1319.76,1328.92 1321.01,1328.92 1321.01,1458.6 1393.2,1458.6 			
				"/>
		</g>
		<g>
			<polygon class="st1" points="1393.2,1445.63 1332.04,1445.63 1332.04,1328.92 1333.29,1328.92 1333.29,1444.38 1393.2,1444.38 
							"/>
		</g>
		<g>
			<polygon class="st1" points="1393.2,1429.25 1348.99,1429.25 1348.99,1328.92 1350.24,1328.92 1350.24,1428 1393.2,1428 			"/>
		</g>
		<g>
			<polygon class="st1" points="1393.2,1667.16 1284.08,1667.16 1284.08,1532.91 1393.2,1532.91 1393.2,1534.15 1285.33,1534.15 
				1285.33,1665.91 1393.2,1665.91 			"/>
		</g>
		<g>
			<polygon class="st1" points="1393.2,1652.17 1301.31,1652.17 1301.31,1544.15 1393.2,1544.15 1393.2,1545.39 1302.56,1545.39 
				1302.56,1650.92 1393.2,1650.92 			"/>
		</g>
		<g>
			<polygon class="st1" points="1393.2,1632.41 1319.76,1632.41 1319.76,1561 1393.2,1561 1393.2,1562.25 1321.01,1562.25 
				1321.01,1631.16 1393.2,1631.16 			"/>
		</g>
		<rect x="1274.11" y="1706.92" class="st19" width="119.09" height="73.78"/>
		<g>
			<polygon class="st19" points="1292.2,1706.92 1290.95,1706.92 1290.95,1683.39 1393.2,1683.39 1393.2,1684.64 1292.2,1684.64 			
				"/>
		</g>
		<g>
			<polygon class="st19" points="1319.04,1706.92 1317.79,1706.92 1317.79,1694.84 1393.2,1694.84 1393.2,1696.09 1319.04,1696.09 
							"/>
		</g>
		<g>
			<path class="st7" d="M1338.54,1248.55c0,1.08-0.87,1.95-1.95,1.95c-1.08,0-1.95-0.87-1.95-1.95c0-1.08,0.87-1.95,1.95-1.95
				C1337.67,1246.6,1338.54,1247.47,1338.54,1248.55z"/>
			<path class="st9" d="M1345.8,1248.55c0,1.08-0.87,1.95-1.95,1.95c-1.08,0-1.95-0.87-1.95-1.95c0-1.08,0.87-1.95,1.95-1.95
				C1344.92,1246.6,1345.8,1247.47,1345.8,1248.55z"/>
			<path class="st0" d="M1352.35,1248.55c0,1.08-0.87,1.95-1.95,1.95s-1.95-0.87-1.95-1.95c0-1.08,0.87-1.95,1.95-1.95
				S1352.35,1247.47,1352.35,1248.55z"/>
		</g>
		<rect x="1315.92" y="1253.16" class="st18" width="38.38" height="21.02"/>
		<g>
			<path class="st10" d="M1293.36,1276.12c0,0,6.68-13.89,12.1-18.2s19.9-3.26,20.45-2.16c1.72,3.41-11.62,8.73-13.15,11.87
				c-1.54,3.13,4.85,2.82-0.06,8.26c-4.15,4.6-14.07,8.99-14.07,8.99L1293.36,1276.12z"/>
			<path class="st20" d="M1299.13,1274.54c-3.51-5.47-4.56-5.75-4.56-5.75s-58.11,23.19-63.66,25.13
				c-5.55,1.94-88.46,6.81-88.46,6.81l-25.02,55.02c0,0,110.49-25.21,124.44-30.39c23.06-8.56,60.06-42.1,60.06-42.1
				S1301.89,1278.84,1299.13,1274.54z"/>
			<path class="st21" d="M1154.77,1789.01c0,0,1.27,20.41,5.05,25.21h58.29c-0.37-2.04-2.02-7.06-9.31-8.33
				c-9.21-1.6-24.63-8.08-30.2-20.26C1172.73,1772.82,1154.77,1789.01,1154.77,1789.01z"/>
			<path class="st21" d="M1051.15,1780.62c0,0-3.67,30.95,1.32,31.41c0.66,0.06,24.01,0.02,30.36,0.97
				c10.37,1.55,27.66,0.2,27.66,0.2c2.17,0.09,3.58-2.26,2.48-4.12c-1.21-2.05-3.52-4.24-7.92-5.08
				c-9.18-1.77-24.48-8.51-29.84-20.79C1069.57,1770.29,1051.15,1780.62,1051.15,1780.62z"/>
			<path class="st15" d="M1182.17,1517.41c0,0-14.65,51.3-56.66,140.4c-13.76,29.18-22.96,52.8-29.11,71.39
				c-0.8,2.4-1.55,4.71-2.23,6.93c-1.12,3.58-2.12,6.94-3.01,10.09c-0.67,2.41-1.29,4.69-1.85,6.85
				c-5.51,21.45-5.39,31.19-5.39,31.19s-9.54,3.59-20.93,2.46c-5.8-0.59-18.54-6.03-18.54-6.03s1.37-14.37,4.14-34.68
				c0.31-2.23,0.64-4.53,0.97-6.9c0.45-3.17,0.94-6.45,1.45-9.81c0.35-2.26,0.71-4.56,1.09-6.87c4.88-30.26,12.12-65.38,21.78-87.29
				c19.85-44.96,23.89-168.02,23.89-168.02L1182.17,1517.41z"/>
			<path class="st8" d="M1205.61,1491.23c-0.46,28.83-2.66,89.31-12.48,159.03c-4.74,33.69-7.3,60.69-8.61,81.6
				c-0.15,2.46-0.29,4.83-0.4,7.12c-0.2,3.68-0.35,7.15-0.47,10.4c-0.09,2.46-0.16,4.79-0.21,7.01
				c-0.55,22.51,0.61,32.84,0.61,32.84s-0.84,0.51-2.57,1.16h-0.01c-2.96,1.11-8.51,2.61-16.88,2.61c-3.76,0-6.99-0.5-9.59-1.14
				c-4.52-1.1-7.1-2.61-7.1-2.61s-2.21-13-4.72-31.84c-0.31-2.26-0.61-4.59-0.92-7.01c-0.41-3.2-0.81-6.52-1.22-9.95
				c-0.26-2.3-0.54-4.62-0.8-6.99c-3.32-29.95-5.89-65.52-3.12-89.55c0.44-3.83,0.65-8.09,0.66-12.71v-0.01
				c0.02-21.63-4.39-50.77-9.7-77.93c0,0-0.01-0.08-0.05-0.22c-5.47-27.95-11.86-53.76-15.32-67.13c-1.56-6.05-2.52-9.55-2.52-9.55
				l2.91-0.1h0.01l22.97-0.74l62.65-2.03l3.86-0.12l3.12-0.1C1205.7,1473.26,1205.8,1479.72,1205.61,1491.23z"/>
			<path class="st10" d="M1140.77,1287.32l15.52,11.5l22.43-4.72c-0.31-2.05-1.79-10.53-3.14-18.21c-0.08-0.45-0.16-0.91-0.24-1.35
				c-1.16-6.54-2.15-12.15-2.15-12.15l-20.95-10.45l-7.81-3.89c0.02,0.14,0.61,7.25,0.69,8.29
				C1146.58,1274.79,1140.77,1287.32,1140.77,1287.32z"/>
			<path class="st20" d="M1177.15,1281.52c-0.49-0.21-30.51-9.07-33.78-7.99c-3.26,1.08-5.19,7.39-5.19,7.39l46.35,13.21
				C1184.54,1294.13,1183.43,1284.16,1177.15,1281.52z"/>
			<path class="st9" d="M1096.31,1483.06c5.08,23.22,111.18-49.65,109.77-63.83c-0.16-1.56-0.31-3.12-0.47-4.68
				c-1.96-19.74-3.84-39.04-3.97-51.65c-0.1-10.93-1.61-22.11-3.62-32.26c-1.84-9.38-4.11-17.88-6.08-24.51
				c-1.39-4.67-3.98-8.78-7.41-12.01c-2.44-2.3-5.3-4.14-8.46-5.39c-0.86-0.36-1.74-0.66-2.63-0.92c-12.78-3.71-30.46-8.3-35.25-6.9
				c-12.99,3.83-22.63,26.69-29.46,55.84C1095.95,1391.32,1092.99,1467.93,1096.31,1483.06z"/>
			<path class="st22" d="M1146.69,1256.66c4.6,8.81,21.75,16.42,28.9,19.23c-0.08-0.45-0.16-0.91-0.24-1.35
				c-1.16-6.54-2.15-12.15-2.15-12.15l-20.95-10.45C1147.61,1251.87,1144.79,1253.04,1146.69,1256.66z"/>
			<path class="st10" d="M1183.37,1261.16c0,0-37.8,11.8-44.78-11.87c-6.98-23.66-16.56-38.08,7.28-46.61s31.21-0.89,35.46,6.44
				S1193.03,1257.48,1183.37,1261.16z"/>
			<path class="st21" d="M1179.85,1206.84c0,0-2.41,27.54-8.1,26.34c-5.69-1.2-10.85-2.08-10.02,6.22
				c0.83,8.3,1.1,18.28-16.44,19.75s-35.13-44.19-30.31-52.76C1128.88,1181.67,1199.95,1176.68,1179.85,1206.84z"/>
			<path class="st20" d="M1202.88,1473.25c-10.51,3.8,0.18-10.45,0-13.42c-0.82-13.06,4.3-29.57,2.73-45.28l-64.17-38.38
				C1141.44,1376.18,1126.21,1472.64,1202.88,1473.25z"/>
			<path class="st8" d="M1096.31,1483.06c27.4,50.8,31.76,70.2,31.76,70.2c23.84-2.72,64.7-49.62,77.66-62.14
				c0,0,1.76-57.71,0.35-71.88l-19.8-0.57c0,0-35.8,9.08-45.08-3.24c-9.28-12.32-5.26-72.79-5.26-72.79l-27.21-5.89
				C1095.95,1391.32,1088.96,1469.43,1096.31,1483.06z"/>
			<path class="st10" d="M1258.86,1385.72c0,0,13.04-8.83,15.51-9.6c2.47-0.77,10.58-1.6,10.96-0.96c0.38,0.64,1.49,2.6,0.07,3.26
				s-3.18,0.43-2.65,0.89s5.86-2.08,7.09,0.64s2.31,12.04-3.94,14.86s-21.69,0.27-22.81,0.6
				C1253.65,1398.16,1258.86,1385.72,1258.86,1385.72z"/>
			<path class="st9" d="M1258.98,1383.33c0,0-63.65,10.83-69.29,8.08c-9-4.38,3.49-68.99,3.49-68.99s0.54-14.64-16.56-18.1
				c-14.85-3-29.19,8.13-29.19,8.13s-13.04,11.67-11.37,24.61c3.69,28.69,9.43,87.04,28.61,95.99
				c24.74,11.54,96.32-31.99,96.32-31.99s2.38-2.92,2.04-8.34C1262.76,1387.94,1258.98,1383.33,1258.98,1383.33z"/>
			<path class="st8" d="M1130.66,1341.5l5.27,1.14c0,0,11.15-48.28,48.6-48.51c-2.44-2.3-5.3-4.14-8.46-5.39
				C1162.35,1292.42,1138.51,1304.15,1130.66,1341.5z"/>
			<path class="st10" d="M1314.02,1274.18l6.37-8.22c0,0-1.59-2.03-4.84,0.39c-1.89,1.41-6.97,4.68-6.97,4.68L1314.02,1274.18z"/>
			<g class="st23">
				<path class="st0" d="M1096.4,1729.2c-0.8,2.4-1.55,4.71-2.23,6.93c-14.07,0.01-27.42-2.62-37.3-5.19
					c-2.12-0.55-4.09-1.11-5.85-1.63c0.35-2.26,0.71-4.56,1.09-6.87C1062.1,1725.44,1078.89,1729.6,1096.4,1729.2z"/>
			</g>
			<g class="st23">
				<path class="st0" d="M1091.16,1746.21c-0.67,2.41-1.29,4.69-1.85,6.85c-12.79-0.36-24.82-2.77-33.89-5.13
					c-2.52-0.66-4.81-1.32-6.83-1.92c0.31-2.23,0.64-4.53,0.97-6.9C1058.73,1741.91,1074.41,1746,1091.16,1746.21z"/>
			</g>
		</g>
		<g>
			<g>
				<path class="st0" d="M1184.52,1731.86c-0.15,2.46-0.29,4.83-0.4,7.12c-12.98,2.43-25.64,2.52-35.25,2.03
					c-2.92-0.15-5.55-0.35-7.84-0.56c-0.26-2.3-0.54-4.62-0.8-6.99C1149.77,1734.39,1167.06,1735.43,1184.52,1731.86z"/>
			</g>
			<g>
				<path class="st0" d="M1183.64,1749.37c-0.09,2.46-0.16,4.79-0.21,7.01c-12,1.96-23.58,2.02-32.52,1.56
					c-2.88-0.15-5.48-0.34-7.74-0.54c-0.31-2.26-0.61-4.59-0.92-7.01C1151.25,1751.27,1167.18,1752.25,1183.64,1749.37z"/>
			</g>
		</g>
	</g>
	<g>
		<g>
			<g>
				<polygon class="st17" points="1868.15,1805.19 1910.86,1804.66 2010.6,1389.05 1967.89,1389.58 				"/>
				<path class="st17" d="M1797.6,1814.44h191.51l0,0c0-11.21-9.08-20.29-20.29-20.29h-150.94
					C1806.68,1794.15,1797.6,1803.23,1797.6,1814.44L1797.6,1814.44z"/>
			</g>
			<polygon class="st6" points="2240,1622.01 2221.6,1529.79 2221.6,1529.79 2221.57,1529.6 2160.35,1222.7 1565.36,1222.78 
				1645.01,1622.1 1758.02,1622.08 1758.02,1622.08 1759.09,1622.08 1885.57,1622.06 1885.95,1622.06 1885.95,1622.06 
				2011.88,1622.04 2012.74,1622.04 2012.74,1622.04 2138.4,1622.03 2138.4,1622.03 2139.53,1622.03 2139.53,1622.03 			"/>
			<g>
				<polygon class="st8" points="2250.19,1614.12 1655.2,1614.2 1575.55,1222.78 2170.54,1222.7 				"/>
				<g>
					<g>
						<polygon class="st3" points="1769.35,1614.19 1768.21,1614.19 1688.78,1223.82 1689.92,1223.82 						"/>
					</g>
					<g>
						<polygon class="st3" points="1896.14,1614.17 1895,1614.17 1815.57,1223.8 1816.71,1223.8 						"/>
					</g>
					<g>
						<polygon class="st3" points="2022.93,1614.15 2021.8,1614.15 1942.36,1223.78 1943.5,1223.78 						"/>
					</g>
					<g>
						<polygon class="st3" points="2149.73,1614.13 2148.59,1614.13 2069.15,1223.76 2070.29,1223.76 						"/>
					</g>
					<g>
						<polygon class="st3" points="2189.44,1315.59 1594.45,1315.67 1594.23,1314.6 2189.23,1314.52 						"/>
					</g>
					<g>
						<polygon class="st3" points="2210.62,1419.65 1615.63,1419.74 1615.41,1418.67 2210.4,1418.59 						"/>
					</g>
					<g>
						<polygon class="st3" points="2231.8,1523.72 1636.8,1523.8 1636.58,1522.73 2231.58,1522.65 						"/>
					</g>
				</g>
				<g>
					<polygon class="st3" points="1710.27,1326.63 1695.68,1315.12 1705.59,1303.62 1720.18,1315.12 					"/>
					<polygon class="st3" points="1731.55,1431.23 1716.96,1419.72 1726.87,1408.22 1741.46,1419.72 					"/>
					<polygon class="st3" points="1837.63,1326.61 1823.04,1315.11 1832.95,1303.6 1847.54,1315.1 					"/>
					<polygon class="st3" points="1858.91,1431.21 1844.32,1419.71 1854.23,1408.2 1868.82,1419.7 					"/>
					<polygon class="st3" points="1964.42,1326.59 1949.83,1315.09 1959.74,1303.58 1974.33,1315.08 					"/>
					<polygon class="st3" points="2090.07,1326.58 2075.48,1315.07 2085.39,1303.56 2099.98,1315.07 					"/>
					<polygon class="st3" points="1752.62,1534.76 1738.03,1523.25 1747.94,1511.75 1762.53,1523.25 					"/>
					<polygon class="st3" points="1879.98,1534.74 1865.39,1523.24 1875.3,1511.73 1889.89,1523.23 					"/>
					<polygon class="st3" points="2006.77,1534.72 1992.18,1523.22 2002.09,1511.71 2016.68,1523.21 					"/>
					<polygon class="st3" points="2132.42,1534.71 2117.83,1523.2 2127.74,1511.69 2142.33,1523.2 					"/>
					<polygon class="st3" points="2111.36,1431.18 2096.77,1419.67 2106.68,1408.16 2121.27,1419.67 					"/>
					<polygon class="st3" points="1985.71,1431.19 1971.12,1419.69 1981.02,1408.18 1995.61,1419.69 					"/>
				</g>
			</g>
		</g>
		<g>
			<g>
				
					<rect x="2049.12" y="1337.14" transform="matrix(0.9699 -0.2435 0.2435 0.9699 -268.4962 540.6976)" class="st7" width="7.25" height="38.43"/>
				<path class="st7" d="M2050.52,1324.74c0,0.03,0,0,0,0.03c0.35,2.88-0.48,5.97-3.2,6.99c-3.63,1.36-6.09-1-7.01-4.66
					c0-0.02-0.23-0.93-0.24-0.95c-0.31-1.28-3.27-0.23-3.7,1.01c-0.77,2.23-0.79,4.76,0.15,7.2c1.72,4.46,6.38,7.21,11.12,6.56
					c6.29-0.86,10.26-6.93,8.76-12.91c-0.42-1.67-1.22-3.15-2.28-4.35C2053.09,1322.49,2050.31,1323.19,2050.52,1324.74z"/>
				<path class="st7" d="M2054.09,1388.73c0-0.03,0,0,0-0.03c-0.35-2.88,0.48-5.97,3.2-6.99c3.63-1.36,6.09,1,7.01,4.66
					c0,0.02,0.23,0.93,0.24,0.95c0.31,1.28,3.27,0.23,3.7-1.01c0.77-2.23,0.79-4.76-0.15-7.2c-1.72-4.46-6.38-7.21-11.12-6.56
					c-6.29,0.86-10.26,6.93-8.76,12.91c0.42,1.67,1.22,3.15,2.28,4.35C2051.53,1390.98,2054.3,1390.28,2054.09,1388.73z"/>
			</g>
			<g>
				<path class="st10" d="M2037.36,1243.29c0,0-7.12-14.79-12.9-19.38c-5.78-4.59-21.21-3.47-21.8-2.3
					c-1.83,3.64,12.38,9.3,14.02,12.64s-5.17,3,0.06,8.8c4.42,4.9,14.99,9.57,14.99,9.57L2037.36,1243.29z"/>
				<path class="st4" d="M2031.2,1241.6c3.75-5.83,4.86-6.13,4.86-6.13s61.93,24.7,67.84,26.76s94.27,7.26,94.27,7.26l26.67,58.61
					c0,0-117.75-26.85-132.62-32.37c-24.58-9.12-64-44.85-64-44.85S2028.26,1246.18,2031.2,1241.6z"/>
				<path class="st10" d="M2021.93,1238.99c-0.07-0.07,2.28-3.18-0.74-6.75c-2.22-2.63-2.71,2.38-6.5,1.12
					c-3.15-1.04-11.6-2.3-6.13,2.11c5.03,4.06,10,9.51,11.86,10.78C2022.28,1247.52,2021.93,1238.99,2021.93,1238.99z"/>
				<path class="st21" d="M2185.05,1789.61c0,0-1.35,21.74-5.39,26.85h-62.12c0.39-2.17,2.15-7.52,9.92-8.88
					c9.82-1.71,26.25-8.6,32.19-21.58C2165.91,1772.36,2185.05,1789.61,2185.05,1789.61z"/>
				<path class="st21" d="M2295.29,1786.58c0,0,4.1,27.06-1.22,27.55c-0.71,0.06-25.59,0.02-32.35,1.03
					c-11.05,1.65-29.48,0.21-29.48,0.21c-2.31,0.1-3.82-2.4-2.64-4.39c1.29-2.18,3.75-4.51,8.44-5.41
					c9.78-1.88,26.08-9.07,31.8-22.14C2275.85,1769.67,2295.29,1786.58,2295.29,1786.58z"/>
				<path class="st20" d="M2295.29,1786.58c0,0-5.75,2.2-14.87,2.97c-6.13,0.52-10.96-0.25-13.64-0.87
					c-1.5-0.35-2.32-0.65-2.32-0.65s-1.05-13.21-9.56-41.06c-0.64-2.1-1.33-4.3-2.06-6.58c-0.96-2.98-1.99-6.11-3.12-9.38
					c-0.74-2.14-1.5-4.33-2.31-6.59c-7.07-19.9-17.08-44.66-31.18-74.55c-4.66-9.9-9.02-19.35-13.06-28.35
					c-34.79-77.37-47.32-121.23-47.32-121.23l1.52-0.91l61.71-36.75l10.37-6.17h0.01l16.33-9.73c0,0,0.23,6.98,0.85,18.3
					c0,0.16,0.01,0.31,0.02,0.48c2.06,37.99,8.39,123.49,24.58,160.19c9.86,22.31,15.75,58.78,19.23,91.34
					c0.24,2.29,0.48,4.58,0.7,6.82c0.34,3.4,0.65,6.74,0.93,10c0.21,2.31,0.4,4.59,0.57,6.81
					C2294.78,1766.98,2295.29,1786.58,2295.29,1786.58z"/>
				<path class="st9" d="M2232.57,1456.57c0,0-1.03,3.73-2.69,10.18c-3.7,14.28-10.54,41.89-16.38,71.75
					c-5.65,28.94-10.37,59.99-10.33,83.03c0.01,4.9,0.23,9.44,0.7,13.52c2.84,24.57-0.34,60.74-4.48,92.06
					c-0.31,2.32-0.63,4.61-0.94,6.88c-0.48,3.44-0.97,6.81-1.46,10.07c-0.35,2.33-0.69,4.61-1.04,6.82
					c-3.66,23.4-7.03,40.13-7.03,40.13s-1.46,0.33-4.03,0.74c-3.67,0.62-9.6,1.41-16.74,1.73c-4.15,0.18-8.7-1.29-11.53-2.41
					c-1.69-0.68-2.76-1.22-2.76-1.22s1.44-12.72,0.49-40.59c-0.04-1.09-0.08-2.2-0.13-3.33l-0.14-3.48
					c-0.13-3.07-0.29-6.29-0.5-9.67c-0.12-2.21-0.27-4.48-0.41-6.83c-1.45-21.86-4.14-49.71-8.99-84.12
					c-10.47-74.27-12.82-138.69-13.3-169.4c-0.19-12.27-0.1-19.15-0.1-19.15l3.32,0.11l4.13,0.13l66.76,2.16l24.47,0.8h0.01
					L2232.57,1456.57z"/>
				<path class="st10" d="M2199.97,1255.22l-16.54,12.25l-23.91-5.03c0.33-2.18,1.91-11.21,3.35-19.4c0.09-0.48,0.17-0.96,0.25-1.44
					c1.23-6.96,2.29-12.95,2.29-12.95l22.33-11.13l8.33-4.15c-0.02,0.15-0.65,7.73-0.73,8.83
					C2193.78,1241.86,2199.97,1255.22,2199.97,1255.22z"/>
				<path class="st4" d="M2161.2,1249.04c0.52-0.22,32.52-9.66,36-8.52c3.48,1.15,5.53,7.87,5.53,7.87l-49.4,14.07
					C2153.33,1262.46,2154.51,1251.85,2161.2,1249.04z"/>
				<path class="st7" d="M2247.35,1463.71c-5.41,24.74-118.49-52.89-116.98-67.99c0.17-1.66,0.33-3.33,0.5-4.99
					c2.09-21.02,4.09-41.59,4.23-55.02c0.11-11.64,1.71-23.55,3.85-34.37c1.96-9.99,4.38-19.05,6.48-26.11
					c1.48-4.97,4.24-9.35,7.9-12.79c2.6-2.45,5.65-4.41,9.02-5.75c0.91-0.39,1.85-0.71,2.8-0.98c13.62-3.95,32.46-8.84,37.57-7.35
					c13.84,4.07,24.12,28.43,31.4,59.48C2247.74,1365.99,2250.89,1447.6,2247.35,1463.71z"/>
				<path class="st22" d="M2193.66,1222.56c-4.9,9.38-23.17,17.5-30.79,20.48c0.09-0.48,0.17-0.96,0.25-1.44
					c1.23-6.96,2.29-12.95,2.29-12.95l22.33-11.13C2192.68,1217.45,2195.68,1218.7,2193.66,1222.56z"/>
				<path class="st10" d="M2154.57,1227.35c0,0,40.28,12.57,47.72-12.64c7.44-25.21,17.65-40.56-7.76-49.65
					c-25.41-9.09-33.26-0.95-37.79,6.86C2152.21,1179.72,2144.28,1223.43,2154.57,1227.35z"/>
				<path class="st24" d="M2158.32,1169.49c0,0,2.57,29.33,8.63,28.06c6.07-1.27,11.57-2.22,10.68,6.62s-9.3,19.05,9.39,20.62
					c18.69,1.56,45.57-46.65,40.43-55.77C2212.65,1142.67,2136.91,1137.36,2158.32,1169.49z"/>
				<path class="st4" d="M2133.78,1453.27c11.2,4.05-0.19-11.13,0-14.29c0.87-13.91-4.59-31.49-2.91-48.23l68.39-40.88
					C2199.26,1349.86,2215.48,1452.62,2133.78,1453.27z"/>
				<path class="st9" d="M2247.35,1463.71c-29.2,54.11-33.84,74.77-33.84,74.77c-25.41-2.9-68.95-52.85-82.76-66.19
					c0,0-1.88-61.47-0.37-76.57l21.11-0.61c0,0,38.15,9.67,48.04-3.45s5.61-77.53,5.61-77.53l28.99-6.27
					C2247.74,1365.99,2255.19,1449.19,2247.35,1463.71z"/>
				<path class="st10" d="M2074.12,1360.03c0,0-13.9-9.4-16.53-10.22c-2.64-0.82-11.28-1.71-11.68-1.03
					c-0.4,0.68-1.58,2.77-0.08,3.47c1.51,0.71,3.39,0.46,2.83,0.95c-0.56,0.49-6.25-2.21-7.56,0.69c-1.31,2.9-2.46,12.82,4.2,15.83
					c6.67,3.01,23.12,0.29,24.31,0.63C2079.67,1373.28,2074.12,1360.03,2074.12,1360.03z"/>
				<path class="st7" d="M2073.99,1357.48c0,0,67.83,11.53,73.84,8.61c9.59-4.67-3.72-73.49-3.72-73.49s-0.57-15.6,17.65-19.28
					c15.83-3.2,31.11,8.66,31.11,8.66s13.89,12.43,12.12,26.22c-3.93,30.56-10.05,92.72-30.49,102.25
					c-26.36,12.29-102.65-34.08-102.65-34.08s-2.54-3.11-2.18-8.89C2069.96,1362.39,2073.99,1357.48,2073.99,1357.48z"/>
				<path class="st9" d="M2210.75,1312.92l-5.62,1.21c0,0-11.88-51.42-51.8-51.67c2.6-2.45,5.65-4.41,9.02-5.75
					C2176.97,1260.64,2202.38,1273.14,2210.75,1312.92z"/>
			</g>
		</g>
		<g>
			<path class="st0" d="M2199.39,1727.11c-0.31,2.32-0.63,4.61-0.94,6.88c-13.69,1.93-27.04,1.13-36.98-0.07
				c-2.97-0.36-5.63-0.77-7.9-1.15c-0.12-2.21-0.27-4.48-0.41-6.83C2162.69,1727.6,2180.99,1730.08,2199.39,1727.11z"/>
		</g>
		<path class="st0" d="M2154.07,1742.44l0.14,3.48l0.13,3.33c2.28,0.37,4.94,0.77,7.93,1.15c9.13,1.11,21.16,1.88,33.67,0.48
			c0.35-2.21,0.69-4.49,1.04-6.82C2179.77,1746.27,2163.07,1744,2154.07,1742.44z"/>
		<g class="st23">
			<path class="st0" d="M2291.17,1723.87c-12.76,4.32-25.65,6.06-35.41,6.79c-2.19,0.17-4.21,0.27-6.05,0.35
				c-0.74-2.14-1.5-4.33-2.31-6.59c9.72-0.29,26.72-1.53,43.06-7.36C2290.71,1719.34,2290.95,1721.63,2291.17,1723.87z"/>
		</g>
		<g class="st23">
			<path class="st0" d="M2292.67,1740.68c-11.93,3.74-23.79,5.31-32.91,5.99c-1.73,0.13-3.36,0.23-4.87,0.3
				c-0.64-2.1-1.33-4.3-2.06-6.58c9.4-0.36,24.45-1.63,39.27-6.52C2292.31,1736.17,2292.5,1738.46,2292.67,1740.68z"/>
		</g>
	</g>
	<g>
		<g>
			<path class="st10" d="M633.68,1487.48c0,0,5.3-8.07,9.03-10.3c3.73-2.23,12.64-0.38,12.89,0.35c0.79,2.26-7.94,4.46-9.16,6.29
				c-1.22,1.82,2.78,2.15-0.72,5.13c-2.96,2.51-9.49,4.42-9.49,4.42L633.68,1487.48z"/>
			<path class="st4" d="M637.4,1486.98c-1.73-3.69-2.36-3.95-2.36-3.95s-38.05,9.6-41.65,10.34c-3.61,0.74-55.55-3.09-55.55-3.09
				l-20.11,32.12c0,0,70.77-6.51,79.88-8.58c15.05-3.41,40.82-21.19,40.82-21.19S638.76,1489.88,637.4,1486.98z"/>
			<path class="st10" d="M643.01,1486.18c0.05-0.03,2.12-1.95,4.16-3.8c1.5-1.36,2.57-3.24,3.21-3.76c1.52-1.22,2.23,2.09-0.27,5.81
				c-2.12,3.16-5.6,5.5-6.78,6.1C642.14,1491.12,643.01,1486.18,643.01,1486.18z"/>
		</g>
		<g>
			<g>
				<polygon class="st17" points="742.08,1809.83 767.21,1809.51 825.91,1564.94 800.78,1565.25 				"/>
				<path class="st17" d="M700.56,1815.27h112.7l0,0c0-6.59-5.35-11.94-11.94-11.94H712.5
					C705.91,1803.33,700.56,1808.68,700.56,1815.27L700.56,1815.27z"/>
			</g>
			<polygon class="st6" points="960.91,1702.03 950.08,1647.76 950.08,1647.76 950.06,1647.64 914.04,1467.04 563.89,1467.09 
				610.76,1702.08 677.27,1702.07 677.27,1702.07 677.9,1702.07 752.33,1702.06 752.56,1702.06 752.56,1702.06 826.66,1702.05 
				827.17,1702.05 827.17,1702.05 901.12,1702.04 901.12,1702.04 901.79,1702.04 901.79,1702.04 			"/>
			<g>
				<polygon class="st8" points="966.91,1697.38 616.76,1697.43 569.89,1467.09 920.03,1467.04 				"/>
				<g>
					<g>
						<polygon class="st3" points="683.94,1697.42 683.27,1697.42 636.52,1467.7 637.19,1467.7 						"/>
					</g>
					<g>
						<polygon class="st3" points="758.55,1697.41 757.88,1697.41 711.14,1467.69 711.81,1467.69 						"/>
					</g>
					<g>
						<polygon class="st3" points="833.17,1697.4 832.5,1697.4 785.75,1467.68 786.42,1467.68 						"/>
					</g>
					<g>
						<polygon class="st3" points="907.78,1697.39 907.11,1697.39 860.37,1467.67 861.04,1467.67 						"/>
					</g>
					<g>
						<polygon class="st3" points="931.16,1521.7 581.01,1521.75 580.88,1521.12 931.03,1521.08 						"/>
					</g>
					<g>
						<polygon class="st3" points="943.62,1582.95 593.47,1583 593.35,1582.37 943.49,1582.32 						"/>
					</g>
					<g>
						<polygon class="st3" points="956.08,1644.19 605.94,1644.24 605.81,1643.61 955.95,1643.56 						"/>
					</g>
				</g>
				<g>
					<polygon class="st3" points="649.17,1528.2 640.58,1521.43 646.41,1514.66 655,1521.43 					"/>
					<polygon class="st3" points="661.7,1589.76 653.11,1582.99 658.94,1576.21 667.53,1582.98 					"/>
					<polygon class="st3" points="724.12,1528.19 715.53,1521.42 721.36,1514.65 729.95,1521.42 					"/>
					<polygon class="st3" points="736.65,1589.75 728.06,1582.98 733.89,1576.2 742.48,1582.97 					"/>
					<polygon class="st3" points="798.74,1528.18 790.15,1521.41 795.98,1514.64 804.57,1521.41 					"/>
					<polygon class="st3" points="872.68,1528.17 864.09,1521.4 869.92,1514.63 878.51,1521.4 					"/>
					<polygon class="st3" points="674.09,1650.68 665.51,1643.91 671.34,1637.14 679.92,1643.91 					"/>
					<polygon class="st3" points="749.04,1650.67 740.46,1643.9 746.29,1637.13 754.87,1643.9 					"/>
					<polygon class="st3" points="823.66,1650.66 815.07,1643.89 820.9,1637.12 829.49,1643.89 					"/>
					<polygon class="st3" points="897.6,1650.65 889.02,1643.88 894.85,1637.11 903.43,1643.88 					"/>
					<polygon class="st3" points="885.21,1589.72 876.62,1582.96 882.45,1576.18 891.04,1582.95 					"/>
					<polygon class="st3" points="811.26,1589.74 802.67,1582.96 808.5,1576.19 817.09,1582.96 					"/>
				</g>
			</g>
		</g>
		<g>
			
				<rect x="618.78" y="1534.38" transform="matrix(-0.9699 -0.2435 0.2435 -0.9699 846.7021 3196.0632)" class="st7" width="4.27" height="22.62"/>
			<path class="st7" d="M622.22,1527.09c0,0.02,0,0,0,0.02c-0.21,1.69,0.28,3.51,1.88,4.11c2.14,0.8,3.59-0.59,4.13-2.74
				c0-0.01,0.14-0.55,0.14-0.56c0.18-0.75,1.93-0.14,2.18,0.59c0.45,1.31,0.47,2.8-0.09,4.24c-1.01,2.63-3.75,4.24-6.54,3.86
				c-3.7-0.51-6.04-4.08-5.16-7.6c0.25-0.98,0.72-1.85,1.34-2.56C620.71,1525.76,622.35,1526.18,622.22,1527.09z"/>
			<path class="st7" d="M620.12,1564.75c0-0.02,0,0,0-0.02c0.21-1.69-0.28-3.51-1.88-4.11c-2.14-0.8-3.59,0.59-4.13,2.74
				c0,0.01-0.14,0.55-0.14,0.56c-0.18,0.75-1.93,0.14-2.18-0.59c-0.45-1.31-0.47-2.8,0.09-4.24c1.01-2.63,3.75-4.24,6.54-3.86
				c3.7,0.51,6.04,4.08,5.16,7.6c-0.25,0.98-0.72,1.85-1.34,2.56C621.63,1566.07,620,1565.66,620.12,1564.75z"/>
		</g>
		<path class="st21" d="M543.05,1800.66c0,0,0.79,12.79,3.17,15.8h36.56c-0.23-1.28-1.27-4.42-5.84-5.22
			c-5.78-1-15.45-5.06-18.94-12.7C554.32,1790.51,543.05,1800.66,543.05,1800.66z"/>
		<path class="st21" d="M478.18,1798.87c0,0-2.41,15.93,0.72,16.21c0.42,0.04,15.06,0.01,19.04,0.61c6.5,0.97,17.35,0.12,17.35,0.12
			c1.36,0.06,2.25-1.42,1.56-2.58c-0.76-1.28-2.21-2.66-4.97-3.19c-5.76-1.11-15.35-5.34-18.71-13.03
			C489.62,1788.92,478.18,1798.87,478.18,1798.87z"/>
		<path class="st20" d="M560.25,1630.4c0,0-9.2,32.17-35.54,88.02c-8.53,18.09-14.52,32.99-18.7,44.86c-0.5,1.39-0.96,2.72-1.4,4.02
			c-0.7,2.06-1.34,4.02-1.92,5.88c-0.44,1.37-0.84,2.7-1.22,3.97c-4.56,15.3-5.14,22.58-5.14,22.58s-4.71,1.75-9.55,1.31
			c-4.58-0.42-8.6-2.16-8.6-2.16s0.26-10.37,1.36-24.68c0.1-1.3,0.2-2.62,0.31-3.98c0.15-1.85,0.32-3.75,0.5-5.69
			c0.12-1.31,0.26-2.65,0.39-3.98c2.02-19.8,5.53-42.6,11.6-56.33c12.44-28.19,14.98-105.33,14.98-105.33L560.25,1630.4z"/>
		<path class="st9" d="M567.11,1713.68c-3.17,22.56-4.78,40.32-5.54,53.76c-0.09,1.4-0.15,2.75-0.21,4.06
			c-0.1,2.1-0.17,4.07-0.25,5.92c-0.04,1.4-0.08,2.73-0.1,3.99c-0.27,13.27,0.41,19.37,0.41,19.37s-4.42,1.67-9.79,1.67
			c-6.58,0-10.86-0.99-10.86-0.99s-1.6-7.94-3.48-19.52v-0.01c-0.21-1.3-0.42-2.63-0.64-4.01c-0.29-1.85-0.57-3.76-0.86-5.72
			c-0.2-1.31-0.39-2.65-0.59-4.01c-2.71-19.34-5.03-42.89-3.22-58.51c3.53-30.61-16.89-105.03-16.89-105.03l59.9-1.95
			C575,1602.73,575.73,1652.53,567.11,1713.68z"/>
		<path class="st10" d="M534.28,1486.18l9.73,7.21l14.07-2.96c-0.19-1.28-1.12-6.6-1.97-11.42c-0.05-0.28-0.1-0.57-0.15-0.85
			c-0.72-4.1-1.35-7.62-1.35-7.62l-13.14-6.55l-4.9-2.44c0.01,0.09,0.38,4.55,0.43,5.2
			C537.92,1478.32,534.28,1486.18,534.28,1486.18z"/>
		<path class="st4" d="M557.1,1482.54c-0.31-0.13-19.14-5.69-21.18-5.01c-2.05,0.67-3.26,4.63-3.26,4.63l29.07,8.28
			C561.73,1490.44,561.03,1484.19,557.1,1482.54z"/>
		<path class="st7" d="M506.39,1608.87c3.19,14.56,69.73-31.12,68.84-40.01c-0.1-0.98-0.2-1.96-0.29-2.93
			c-1.23-12.37-2.41-24.48-2.49-32.38c-0.07-6.85-1.01-13.86-2.27-20.22c-1.15-5.88-2.58-11.21-3.81-15.36
			c-0.87-2.93-2.5-5.5-4.65-7.53c-1.53-1.44-3.32-2.59-5.31-3.38c-0.54-0.23-1.09-0.41-1.65-0.58c-8.02-2.32-19.1-5.2-22.11-4.32
			c-8.15,2.4-14.19,16.73-18.48,35C506.17,1551.36,504.31,1599.39,506.39,1608.87z"/>
		<path class="st22" d="M537.99,1466.96c2.89,5.52,13.64,10.3,18.12,12.05c-0.05-0.28-0.1-0.57-0.15-0.85
			c-0.72-4.1-1.35-7.62-1.35-7.62l-13.14-6.55C538.57,1463.95,536.8,1464.68,537.99,1466.96z"/>
		<path class="st10" d="M561,1469.77c0,0-23.71,7.39-28.08-7.44c-4.38-14.83-10.39-23.87,4.56-29.22s19.57-0.56,22.24,4.04
			C562.38,1441.75,567.05,1467.47,561,1469.77z"/>
		<path class="st21" d="M558.79,1435.72c0,0-1.51,17.26-5.08,16.51c-3.57-0.75-6.06-1.33-6.28,3.9
			c-0.23,5.42,0.97,11.66-10.04,12.58c-11,0.92-22.31-27.9-19.29-33.27C526.82,1419.94,571.39,1416.82,558.79,1435.72z"/>
		<path class="st4" d="M573.23,1602.73c-6.59,2.38,0.11-6.55,0-8.41c-0.51-8.19,2.7-18.53,1.71-28.38l-40.25-24.06
			C534.7,1541.87,525.15,1602.34,573.23,1602.73z"/>
		<path class="st9" d="M506.39,1608.87c17.18,31.84,19.92,44,19.92,44c14.95-1.7,40.58-31.1,48.71-38.95c0,0,1.1-36.18,0.22-45.06
			l-12.42-0.36c0,0-22.45,5.69-28.27-2.03c-5.82-7.72-3.3-45.63-3.3-45.63l-17.06-3.69
			C506.17,1551.36,501.78,1600.33,506.39,1608.87z"/>
		<path class="st10" d="M608.34,1547.85c0,0,8.18-5.53,9.73-6.01c1.55-0.48,6.64-1,6.87-0.6c0.24,0.4,0.93,1.63,0.04,2.04
			c-0.89,0.42-1.99,0.27-1.66,0.56c0.33,0.29,3.68-1.3,4.45,0.4c0.77,1.7,1.45,7.54-2.47,9.32c-3.92,1.77-13.61,0.17-14.3,0.37
			C605.07,1555.65,608.34,1547.85,608.34,1547.85z"/>
		<path class="st7" d="M608.42,1546.36c0,0-39.92,6.79-43.45,5.06c-5.65-2.75,2.19-43.25,2.19-43.25s0.34-9.18-10.38-11.34
			c-9.32-1.88-18.31,5.1-18.31,5.1s-8.18,7.32-7.13,15.43c2.32,17.98,5.92,54.56,17.95,60.17c15.52,7.23,60.41-20.05,60.41-20.05
			s1.49-1.83,1.28-5.23C610.78,1549.25,608.42,1546.36,608.42,1546.36z"/>
		<path class="st9" d="M527.93,1520.13l3.31,0.72c0,0,6.99-30.26,30.48-30.41c-1.53-1.44-3.32-2.59-5.31-3.38
			C547.81,1489.37,532.86,1496.72,527.93,1520.13z"/>
		<g>
			<path class="st0" d="M561.57,1767.45c-0.09,1.4-0.15,2.75-0.21,4.06c-8.06,1.48-16,1.42-21.94,1.02
				c-1.31-0.09-2.52-0.2-3.62-0.31c-0.2-1.31-0.39-2.65-0.59-4.01C541.14,1768.84,551.37,1769.51,561.57,1767.45z"/>
		</g>
		<g>
			<path class="st0" d="M561.11,1777.42c-0.04,1.4-0.08,2.73-0.1,3.99c-7.56,1.25-14.95,1.17-20.56,0.79
				c-1.14-0.08-2.18-0.16-3.16-0.25v-0.01c-0.21-1.3-0.42-2.63-0.64-4.01C542.34,1778.52,551.65,1779.08,561.11,1777.42z"/>
		</g>
		<g class="st23">
			<path class="st0" d="M506.01,1763.28c-0.5,1.39-0.96,2.72-1.4,4.02c-7.74,0.25-15.09-0.82-20.63-1.96
				c-1.32-0.27-2.53-0.55-3.63-0.81c0.12-1.31,0.26-2.65,0.39-3.98C486.45,1761.94,496.04,1763.83,506.01,1763.28z"/>
		</g>
		<g class="st23">
			<path class="st0" d="M502.69,1773.18c-0.44,1.37-0.84,2.7-1.22,3.97c-6.67-0.06-12.92-1-17.76-2c-1.55-0.32-2.95-0.65-4.17-0.95
				c0.1-1.3,0.2-2.62,0.31-3.98C484.93,1771.48,493.49,1773.26,502.69,1773.18z"/>
		</g>
	</g>
	<g>
		<path class="st7" d="M2526.74,948.56c-32.77-4.88-69.14-27.16-108.11-66.22c-31.13-31.2-63.99-73.13-97.67-124.63
			c-55.41-84.72-94.98-168.04-97.93-174.3c-39.92,1-90.75-12.24-151-39.36c-48.33-21.75-102.83-52.44-161.98-91.2
			c-100.7-65.99-181.04-133.44-181.84-134.12l0.8-0.96c0.8,0.67,81.1,68.08,181.74,134.03c59.09,38.73,113.53,69.38,161.8,91.1
			c60.29,27.13,111.06,40.34,150.86,39.24l0.41-0.01l0.17,0.37c0.4,0.86,40.74,86.95,98.02,174.53
			c33.63,51.42,66.44,93.28,97.51,124.42c38.78,38.87,74.91,61.03,107.41,65.87L2526.74,948.56z"/>
	</g>
	<g>
		<path class="st7" d="M2328.38,934.19c-42.78-6.57-89.07-29.79-137.56-69.01c-38.76-31.34-79.03-72.93-119.67-123.59
			c-67.16-83.71-113.34-165.13-116.43-170.61c-81.26-7.7-160.83-26.52-236.5-55.95c-60.62-23.57-118.9-53.96-173.2-90.32
			c-73.99-49.54-125.57-100.87-142.51-121.08l0.96-0.8c16.91,20.18,68.4,71.41,142.29,120.88c54.23,36.31,112.42,66.65,172.95,90.18
			c75.66,29.42,155.22,48.22,236.46,55.89l0.33,0.03l0.16,0.29c0.47,0.84,47.36,84.57,116.49,170.74
			c40.59,50.59,80.79,92.11,119.48,123.4c48.32,39.07,94.4,62.2,136.96,68.74L2328.38,934.19z"/>
	</g>
	<g>
		<path class="st7" d="M2153.22,948.57c-57.3-1.85-117.46-22.88-178.79-62.51c-49.04-31.68-98.94-75.26-148.31-129.51
			c-81.65-89.72-135.05-179.64-138.53-185.55c-54.95-1.5-121.11-16.45-196.66-44.45c-60.55-22.43-127.23-53.24-198.19-91.58
			c-120.82-65.26-213.4-130.59-214.32-131.24l0.72-1.02c0.92,0.65,93.45,65.95,214.21,131.17c70.91,38.3,137.54,69.09,198.03,91.5
			c75.58,28,141.73,42.93,196.6,44.38l0.35,0.01l0.18,0.3c0.54,0.92,54.59,93.39,138.56,185.66
			c49.3,54.17,99.12,97.67,148.06,129.29c61.14,39.5,121.08,60.46,178.15,62.3L2153.22,948.57z"/>
	</g>
	<path class="st25" d="M2834.14,1818.59H228.7c-1.57,0-2.86-1.29-2.86-2.86v-0.74c0-1.57,1.29-2.86,2.86-2.86h2605.44
		c1.57,0,2.86,1.29,2.86,2.86v0.74C2837,1817.3,2835.71,1818.59,2834.14,1818.59z"/>
</g>
</svg>
